<?xml version="1.0" encoding="UTF-8" standalone="no"?><svg xmlns="http://www.w3.org/2000/svg" xmlns:xlink="http://www.w3.org/1999/xlink" contentScriptType="application/ecmascript" contentStyleType="text/css" height="531px" preserveAspectRatio="none" style="width:576px;height:531px;" version="1.1" viewBox="0 0 576 531" width="576px" zoomAndPan="magnify"><defs><filter height="300%" id="fb2olhzjvw859" width="300%" x="-1" y="-1"><feGaussianBlur result="blurOut" stdDeviation="2.0"/><feColorMatrix in="blurOut" result="blurOut2" type="matrix" values="0 0 0 0 0 0 0 0 0 0 0 0 0 0 0 0 0 0 .4 0"/><feOffset dx="4.0" dy="4.0" in="blurOut2" result="blurOut3"/><feBlend in="SourceGraphic" in2="blurOut3" mode="normal"/></filter></defs><g><!--cluster edu.kit.wavelength.client.view.execution--><polygon fill="#FFFFFF" filter="url(#fb2olhzjvw859)" points="14,16,305,16,312,38.4883,554,38.4883,554,519,14,519,14,16" style="stroke: #000000; stroke-width: 2.0;"/><line style="stroke: #000000; stroke-width: 2.0;" x1="14" x2="312" y1="38.4883" y2="38.4883"/><text fill="#000000" font-family="sans-serif" font-size="14" font-weight="bold" lengthAdjust="spacingAndGlyphs" textLength="285" x="18" y="31.5352">edu.kit.wavelength.client.view.execution</text><!--class ExecutionObserver--><a target="_top" xlink:actuate="onRequest" xlink:href="java:edu.kit.wavelength.client.view.execution.ExecutionObserver" xlink:show="new" xlink:title="java:edu.kit.wavelength.client.view.execution.ExecutionObserver" xlink:type="simple"><rect fill="#FEFECE" filter="url(#fb2olhzjvw859)" height="60.9551" id="ExecutionObserver" style="stroke: #A80036; stroke-width: 1.5;" width="178" x="195" y="450"/><ellipse cx="227.1" cy="466" fill="#ADD1B2" rx="11" ry="11" style="stroke: #A80036; stroke-width: 1.0;"/><path d="M230.0731,471.6431 Q229.4921,471.9419 228.8529,472.0913 Q228.2138,472.2407 227.5082,472.2407 Q225.0014,472.2407 223.6815,470.5889 Q222.3617,468.937 222.3617,465.8159 Q222.3617,462.6865 223.6815,461.0347 Q225.0014,459.3828 227.5082,459.3828 Q228.2138,459.3828 228.8612,459.5322 Q229.5087,459.6816 230.0731,459.9805 L230.0731,462.7031 Q229.4423,462.1221 228.8488,461.8523 Q228.2553,461.5825 227.6244,461.5825 Q226.2797,461.5825 225.5949,462.6492 Q224.9101,463.7158 224.9101,465.8159 Q224.9101,467.9077 225.5949,468.9744 Q226.2797,470.041 227.6244,470.041 Q228.2553,470.041 228.8488,469.7712 Q229.4423,469.5015 230.0731,468.9204 Z "/><text fill="#000000" font-family="sans-serif" font-size="12" lengthAdjust="spacingAndGlyphs" textLength="108" x="244.9" y="470.5352">ExecutionObserver</text><line style="stroke: #A80036; stroke-width: 1.5;" x1="196" x2="372" y1="482" y2="482"/><line style="stroke: #A80036; stroke-width: 1.5;" x1="196" x2="372" y1="490" y2="490"/><text fill="#000000" font-family="sans-serif" font-size="11" lengthAdjust="spacingAndGlyphs" textLength="166" x="201" y="504.6348">void pushTerm(LambdaTerm t)</text></a><!--class Executor--><a target="_top" xlink:actuate="onRequest" xlink:href="java:edu.kit.wavelength.client.view.execution.Executor" xlink:show="new" xlink:title="java:edu.kit.wavelength.client.view.execution.Executor" xlink:type="simple"><rect fill="#FEFECE" filter="url(#fb2olhzjvw859)" height="268.2363" id="Executor" style="stroke: #A80036; stroke-width: 1.5;" width="523" x="22.5" y="43"/><ellipse cx="254.75" cy="59" fill="#ADD1B2" rx="11" ry="11" style="stroke: #A80036; stroke-width: 1.0;"/><path d="M257.7231,64.6431 Q257.1421,64.9419 256.5029,65.0913 Q255.8638,65.2407 255.1582,65.2407 Q252.6514,65.2407 251.3315,63.5889 Q250.0117,61.937 250.0117,58.8159 Q250.0117,55.6865 251.3315,54.0347 Q252.6514,52.3828 255.1582,52.3828 Q255.8638,52.3828 256.5112,52.5322 Q257.1587,52.6816 257.7231,52.9805 L257.7231,55.7031 Q257.0923,55.1221 256.4988,54.8523 Q255.9053,54.5825 255.2744,54.5825 Q253.9297,54.5825 253.2449,55.6492 Q252.5601,56.7158 252.5601,58.8159 Q252.5601,60.9077 253.2449,61.9744 Q253.9297,63.041 255.2744,63.041 Q255.9053,63.041 256.4988,62.7712 Q257.0923,62.5015 257.7231,61.9204 Z "/><text fill="#000000" font-family="sans-serif" font-size="12" lengthAdjust="spacingAndGlyphs" textLength="50" x="275.25" y="63.5352">Executor</text><line style="stroke: #A80036; stroke-width: 1.5;" x1="23.5" x2="544.5" y1="75" y2="75"/><rect fill="none" height="6" style="stroke: #C82930; stroke-width: 1.0;" width="6" x="30.5" y="83.9775"/><text fill="#000000" font-family="sans-serif" font-size="11" lengthAdjust="spacingAndGlyphs" textLength="115" x="42.5" y="89.6348">boolean autoRunning</text><rect fill="none" height="6" style="stroke: #C82930; stroke-width: 1.0;" width="6" x="30.5" y="96.9326"/><text fill="#000000" font-family="sans-serif" font-size="11" lengthAdjust="spacingAndGlyphs" textLength="128" x="42.5" y="102.5898">ExecutionEngine engine</text><line style="stroke: #A80036; stroke-width: 1.5;" x1="23.5" x2="544.5" y1="108.9102" y2="108.9102"/><ellipse cx="33.5" cy="120.8877" fill="#84BE84" rx="3" ry="3" style="stroke: #038048; stroke-width: 1.0;"/><text fill="#000000" font-family="sans-serif" font-size="11" lengthAdjust="spacingAndGlyphs" textLength="253" x="42.5" y="123.5449">Executor(List&lt;ExecutionObserver&gt; observers)</text><rect fill="#F24D5C" height="6" style="stroke: #C82930; stroke-width: 1.0;" width="6" x="30.5" y="130.8428"/><text fill="#000000" font-family="sans-serif" font-size="11" lengthAdjust="spacingAndGlyphs" textLength="166" x="42.5" y="136.5">void pushTerm(LambdaTerm t)</text><rect fill="#F24D5C" height="6" style="stroke: #C82930; stroke-width: 1.0;" width="6" x="30.5" y="143.7979"/><text fill="#000000" font-family="sans-serif" font-size="11" lengthAdjust="spacingAndGlyphs" textLength="135" x="42.5" y="149.4551">void scheduleExecution()</text><ellipse cx="33.5" cy="159.7529" fill="#84BE84" rx="3" ry="3" style="stroke: #038048; stroke-width: 1.0;"/><text fill="#000000" font-family="sans-serif" font-size="11" lengthAdjust="spacingAndGlyphs" textLength="464" x="42.5" y="162.4102">void start(String input, ReductionOrder order, OutputSize size, List&lt;Library&gt; libraries)</text><ellipse cx="33.5" cy="172.708" fill="#84BE84" rx="3" ry="3" style="stroke: #038048; stroke-width: 1.0;"/><text fill="#000000" font-family="sans-serif" font-size="11" lengthAdjust="spacingAndGlyphs" textLength="66" x="42.5" y="175.3652">void pause()</text><ellipse cx="33.5" cy="185.6631" fill="#84BE84" rx="3" ry="3" style="stroke: #038048; stroke-width: 1.0;"/><text fill="#000000" font-family="sans-serif" font-size="11" lengthAdjust="spacingAndGlyphs" textLength="80" x="42.5" y="188.3203">void unpause()</text><ellipse cx="33.5" cy="198.6182" fill="#84BE84" rx="3" ry="3" style="stroke: #038048; stroke-width: 1.0;"/><text fill="#000000" font-family="sans-serif" font-size="11" lengthAdjust="spacingAndGlyphs" textLength="85" x="42.5" y="201.2754">void terminate()</text><ellipse cx="33.5" cy="211.5732" fill="#84BE84" rx="3" ry="3" style="stroke: #038048; stroke-width: 1.0;"/><text fill="#000000" font-family="sans-serif" font-size="11" lengthAdjust="spacingAndGlyphs" textLength="497" x="42.5" y="214.2305">void stepByStep(String input, ReductionOrder order, OutputSize size, List&lt;Library&gt; libraries)</text><ellipse cx="33.5" cy="224.5283" fill="#84BE84" rx="3" ry="3" style="stroke: #038048; stroke-width: 1.0;"/><text fill="#000000" font-family="sans-serif" font-size="11" lengthAdjust="spacingAndGlyphs" textLength="101" x="42.5" y="227.1855">void stepForward()</text><ellipse cx="33.5" cy="237.4834" fill="#84BE84" rx="3" ry="3" style="stroke: #038048; stroke-width: 1.0;"/><text fill="#000000" font-family="sans-serif" font-size="11" lengthAdjust="spacingAndGlyphs" textLength="196" x="42.5" y="240.1406">void stepForward(Application redex)</text><ellipse cx="33.5" cy="250.4385" fill="#84BE84" rx="3" ry="3" style="stroke: #038048; stroke-width: 1.0;"/><text fill="#000000" font-family="sans-serif" font-size="11" lengthAdjust="spacingAndGlyphs" textLength="107" x="42.5" y="253.0957">void stepBackward()</text><ellipse cx="33.5" cy="263.3936" fill="#84BE84" rx="3" ry="3" style="stroke: #038048; stroke-width: 1.0;"/><text fill="#000000" font-family="sans-serif" font-size="11" lengthAdjust="spacingAndGlyphs" textLength="277" x="42.5" y="266.0508">void setReductionOrder(ReductionOrder reduction)</text><ellipse cx="33.5" cy="276.3486" fill="#84BE84" rx="3" ry="3" style="stroke: #038048; stroke-width: 1.0;"/><text fill="#000000" font-family="sans-serif" font-size="11" lengthAdjust="spacingAndGlyphs" textLength="187" x="42.5" y="279.0059">List&lt;LambdaTerm&gt; getDisplayed()</text><ellipse cx="33.5" cy="289.3037" fill="#84BE84" rx="3" ry="3" style="stroke: #038048; stroke-width: 1.0;"/><text fill="#000000" font-family="sans-serif" font-size="11" lengthAdjust="spacingAndGlyphs" textLength="120" x="42.5" y="291.9609">LambdaTerm getLast()</text><ellipse cx="33.5" cy="302.2588" fill="#84BE84" rx="3" ry="3" style="stroke: #038048; stroke-width: 1.0;"/><text fill="#000000" font-family="sans-serif" font-size="11" lengthAdjust="spacingAndGlyphs" textLength="87" x="42.5" y="304.916">String serialize()</text></a><!--link Executor to ExecutionObserver--><path d="M284,311.003 C284,359.9909 284,411.4802 284,444.6718 " fill="none" id="Executor-ExecutionObserver" style="stroke: #A80036; stroke-width: 1.0;"/><polygon fill="#A80036" points="284,449.8385,288,440.8385,284,444.8385,280,440.8385,284,449.8385" style="stroke: #A80036; stroke-width: 1.0;"/><text fill="#000000" font-family="sans-serif" font-size="13" lengthAdjust="spacingAndGlyphs" textLength="61" x="285" y="385.5684">observers</text><text fill="#000000" font-family="sans-serif" font-size="13" lengthAdjust="spacingAndGlyphs" textLength="6" x="277.3438" y="439.0979">*</text><!--
@startuml
package edu.kit.wavelength.client.view.execution <<Folder>> {
interface ExecutionObserver [[java:edu.kit.wavelength.client.view.execution.ExecutionObserver]] {
	void pushTerm(LambdaTerm t)
}
class Executor [[java:edu.kit.wavelength.client.view.execution.Executor]] {
	-boolean autoRunning
	-ExecutionEngine engine
	+Executor(List<ExecutionObserver> observers)
	-void pushTerm(LambdaTerm t)
	-void scheduleExecution()
	+void start(String input, ReductionOrder order, OutputSize size, List<Library> libraries)
	+void pause()
	+void unpause()
	+void terminate()
	+void stepByStep(String input, ReductionOrder order, OutputSize size, List<Library> libraries)
	+void stepForward()
	+void stepForward(Application redex)
	+void stepBackward()
	+void setReductionOrder(ReductionOrder reduction)
	+List<LambdaTerm> getDisplayed()
	+LambdaTerm getLast()
	+String serialize()
}
class ExecutionObserver [[java:edu.kit.wavelength.client.view.execution.ExecutionObserver]] {
}
Executor - -> "*" ExecutionObserver : observers

}

@enduml

PlantUML version 1.2017.15(Mon Jul 03 18:45:34 CEST 2017)
(EPL source distribution)
Java Runtime: Java(TM) SE Runtime Environment
JVM: Java HotSpot(TM) 64-Bit Server VM
Java Version: 1.8.0_112-b16
Operating System: Mac OS X
OS Version: 10.13.2
Default Encoding: UTF-8
Language: de
Country: DE
--></g></svg>