<?xml version="1.0" encoding="UTF-8" standalone="no"?><svg xmlns="http://www.w3.org/2000/svg" xmlns:xlink="http://www.w3.org/1999/xlink" contentScriptType="application/ecmascript" contentStyleType="text/css" height="470px" preserveAspectRatio="none" style="width:1541px;height:470px;" version="1.1" viewBox="0 0 1541 470" width="1541px" zoomAndPan="magnify"><defs><filter height="300%" id="f1ddod9a4wcjfb" width="300%" x="-1" y="-1"><feGaussianBlur result="blurOut" stdDeviation="2.0"/><feColorMatrix in="blurOut" result="blurOut2" type="matrix" values="0 0 0 0 0 0 0 0 0 0 0 0 0 0 0 0 0 0 .4 0"/><feOffset dx="4.0" dy="4.0" in="blurOut2" result="blurOut3"/><feBlend in="SourceGraphic" in2="blurOut3" mode="normal"/></filter></defs><g><!--cluster edu.kit.wavelength.client.model.output--><polygon fill="#FFFFFF" filter="url(#f1ddod9a4wcjfb)" points="14,16,296,16,303,38.4883,1519,38.4883,1519,458,14,458,14,16" style="stroke: #000000; stroke-width: 2.0;"/><line style="stroke: #000000; stroke-width: 2.0;" x1="14" x2="303" y1="38.4883" y2="38.4883"/><text fill="#000000" font-family="sans-serif" font-size="14" font-weight="bold" lengthAdjust="spacingAndGlyphs" textLength="276" x="18" y="31.5352">edu.kit.wavelength.client.model.output</text><!--class ResultOnly--><a target="_top" xlink:actuate="onRequest" xlink:href="java:edu.kit.wavelength.client.model.output.ResultOnly" xlink:show="new" xlink:title="java:edu.kit.wavelength.client.model.output.ResultOnly" xlink:type="simple"><rect fill="#FEFECE" filter="url(#f1ddod9a4wcjfb)" height="99.8203" id="ResultOnly" style="stroke: #A80036; stroke-width: 1.5;" width="346" x="22" y="343.5"/><ellipse cx="160.75" cy="359.5" fill="#ADD1B2" rx="11" ry="11" style="stroke: #A80036; stroke-width: 1.0;"/><path d="M163.7231,365.1431 Q163.1421,365.4419 162.5029,365.5913 Q161.8638,365.7407 161.1582,365.7407 Q158.6514,365.7407 157.3315,364.0889 Q156.0117,362.437 156.0117,359.3159 Q156.0117,356.1865 157.3315,354.5347 Q158.6514,352.8828 161.1582,352.8828 Q161.8638,352.8828 162.5112,353.0322 Q163.1587,353.1816 163.7231,353.4805 L163.7231,356.2031 Q163.0923,355.6221 162.4988,355.3523 Q161.9053,355.0825 161.2744,355.0825 Q159.9297,355.0825 159.2449,356.1492 Q158.5601,357.2158 158.5601,359.3159 Q158.5601,361.4077 159.2449,362.4744 Q159.9297,363.541 161.2744,363.541 Q161.9053,363.541 162.4988,363.2712 Q163.0923,363.0015 163.7231,362.4204 Z "/><text fill="#000000" font-family="sans-serif" font-size="12" lengthAdjust="spacingAndGlyphs" textLength="60" x="181.25" y="364.0352">ResultOnly</text><line style="stroke: #A80036; stroke-width: 1.5;" x1="23" x2="367" y1="375.5" y2="375.5"/><line style="stroke: #A80036; stroke-width: 1.5;" x1="23" x2="367" y1="383.5" y2="383.5"/><ellipse cx="33" cy="395.4775" fill="#84BE84" rx="3" ry="3" style="stroke: #038048; stroke-width: 1.0;"/><text fill="#000000" font-family="sans-serif" font-size="11" lengthAdjust="spacingAndGlyphs" textLength="153" x="42" y="398.1348">boolean displayLive(int step)</text><ellipse cx="33" cy="408.4326" fill="#84BE84" rx="3" ry="3" style="stroke: #038048; stroke-width: 1.0;"/><text fill="#000000" font-family="sans-serif" font-size="11" lengthAdjust="spacingAndGlyphs" textLength="320" x="42" y="411.0898">List&lt;Integer&gt; displayAtEnd(int totalSteps, int lastDisplayed)</text><ellipse cx="33" cy="421.3877" fill="#84BE84" rx="3" ry="3" style="stroke: #038048; stroke-width: 1.0;"/><text fill="#000000" font-family="sans-serif" font-size="11" lengthAdjust="spacingAndGlyphs" textLength="90" x="42" y="424.0449">String getName()</text><ellipse cx="33" cy="434.3428" fill="#84BE84" rx="3" ry="3" style="stroke: #038048; stroke-width: 1.0;"/><text fill="#000000" font-family="sans-serif" font-size="11" lengthAdjust="spacingAndGlyphs" textLength="87" x="42" y="437">String serialize()</text></a><!--class OutputSize--><a target="_top" xlink:actuate="onRequest" xlink:href="java:edu.kit.wavelength.client.model.output.OutputSize" xlink:show="new" xlink:title="java:edu.kit.wavelength.client.model.output.OutputSize" xlink:type="simple"><rect fill="#FEFECE" filter="url(#f1ddod9a4wcjfb)" height="86.8652" id="OutputSize" style="stroke: #A80036; stroke-width: 1.5;" width="332" x="600" y="190"/><ellipse cx="730.75" cy="206" fill="#B4A7E5" rx="11" ry="11" style="stroke: #A80036; stroke-width: 1.0;"/><path d="M726.6777,201.7651 L726.6777,199.6069 L734.0571,199.6069 L734.0571,201.7651 L731.5918,201.7651 L731.5918,209.8418 L734.0571,209.8418 L734.0571,212 L726.6777,212 L726.6777,209.8418 L729.1431,209.8418 L729.1431,201.7651 Z "/><text fill="#000000" font-family="sans-serif" font-size="12" font-style="italic" lengthAdjust="spacingAndGlyphs" textLength="62" x="751.25" y="210.5352">OutputSize</text><line style="stroke: #A80036; stroke-width: 1.5;" x1="601" x2="931" y1="222" y2="222"/><line style="stroke: #A80036; stroke-width: 1.5;" x1="601" x2="931" y1="230" y2="230"/><text fill="#000000" font-family="sans-serif" font-size="11" lengthAdjust="spacingAndGlyphs" textLength="153" x="606" y="244.6348">boolean displayLive(int step)</text><text fill="#000000" font-family="sans-serif" font-size="11" lengthAdjust="spacingAndGlyphs" textLength="320" x="606" y="257.5898">List&lt;Integer&gt; displayAtEnd(int totalSteps, int lastDisplayed)</text><text fill="#000000" font-family="sans-serif" font-size="11" lengthAdjust="spacingAndGlyphs" textLength="90" x="606" y="270.5449">String getName()</text></a><!--class Serializable--><a target="_top" xlink:actuate="onRequest" xlink:href="java:edu.kit.wavelength.client.model.serialization.Serializable" xlink:show="new" xlink:title="java:edu.kit.wavelength.client.model.serialization.Serializable" xlink:type="simple"><rect fill="#FEFECE" filter="url(#f1ddod9a4wcjfb)" height="48" id="Serializable" style="stroke: #A80036; stroke-width: 1.5;" width="98" x="717" y="62.5"/><ellipse cx="732" cy="78.5" fill="#B4A7E5" rx="11" ry="11" style="stroke: #A80036; stroke-width: 1.0;"/><path d="M727.9277,74.2651 L727.9277,72.1069 L735.3071,72.1069 L735.3071,74.2651 L732.8418,74.2651 L732.8418,82.3418 L735.3071,82.3418 L735.3071,84.5 L727.9277,84.5 L727.9277,82.3418 L730.3931,82.3418 L730.3931,74.2651 Z "/><text fill="#000000" font-family="sans-serif" font-size="12" font-style="italic" lengthAdjust="spacingAndGlyphs" textLength="66" x="746" y="83.0352">Serializable</text><line style="stroke: #A80036; stroke-width: 1.5;" x1="718" x2="814" y1="94.5" y2="94.5"/><line style="stroke: #A80036; stroke-width: 1.5;" x1="718" x2="814" y1="102.5" y2="102.5"/></a><!--class Full--><a target="_top" xlink:actuate="onRequest" xlink:href="java:edu.kit.wavelength.client.model.output.Full" xlink:show="new" xlink:title="java:edu.kit.wavelength.client.model.output.Full" xlink:type="simple"><rect fill="#FEFECE" filter="url(#f1ddod9a4wcjfb)" height="99.8203" id="Full" style="stroke: #A80036; stroke-width: 1.5;" width="346" x="403" y="343.5"/><ellipse cx="562.25" cy="359.5" fill="#ADD1B2" rx="11" ry="11" style="stroke: #A80036; stroke-width: 1.0;"/><path d="M565.2231,365.1431 Q564.6421,365.4419 564.0029,365.5913 Q563.3638,365.7407 562.6582,365.7407 Q560.1514,365.7407 558.8315,364.0889 Q557.5117,362.437 557.5117,359.3159 Q557.5117,356.1865 558.8315,354.5347 Q560.1514,352.8828 562.6582,352.8828 Q563.3638,352.8828 564.0112,353.0322 Q564.6587,353.1816 565.2231,353.4805 L565.2231,356.2031 Q564.5923,355.6221 563.9988,355.3523 Q563.4053,355.0825 562.7744,355.0825 Q561.4297,355.0825 560.7449,356.1492 Q560.0601,357.2158 560.0601,359.3159 Q560.0601,361.4077 560.7449,362.4744 Q561.4297,363.541 562.7744,363.541 Q563.4053,363.541 563.9988,363.2712 Q564.5923,363.0015 565.2231,362.4204 Z "/><text fill="#000000" font-family="sans-serif" font-size="12" lengthAdjust="spacingAndGlyphs" textLength="19" x="582.75" y="364.0352">Full</text><line style="stroke: #A80036; stroke-width: 1.5;" x1="404" x2="748" y1="375.5" y2="375.5"/><line style="stroke: #A80036; stroke-width: 1.5;" x1="404" x2="748" y1="383.5" y2="383.5"/><ellipse cx="414" cy="395.4775" fill="#84BE84" rx="3" ry="3" style="stroke: #038048; stroke-width: 1.0;"/><text fill="#000000" font-family="sans-serif" font-size="11" lengthAdjust="spacingAndGlyphs" textLength="153" x="423" y="398.1348">boolean displayLive(int step)</text><ellipse cx="414" cy="408.4326" fill="#84BE84" rx="3" ry="3" style="stroke: #038048; stroke-width: 1.0;"/><text fill="#000000" font-family="sans-serif" font-size="11" lengthAdjust="spacingAndGlyphs" textLength="320" x="423" y="411.0898">List&lt;Integer&gt; displayAtEnd(int totalSteps, int lastDisplayed)</text><ellipse cx="414" cy="421.3877" fill="#84BE84" rx="3" ry="3" style="stroke: #038048; stroke-width: 1.0;"/><text fill="#000000" font-family="sans-serif" font-size="11" lengthAdjust="spacingAndGlyphs" textLength="90" x="423" y="424.0449">String getName()</text><ellipse cx="414" cy="434.3428" fill="#84BE84" rx="3" ry="3" style="stroke: #038048; stroke-width: 1.0;"/><text fill="#000000" font-family="sans-serif" font-size="11" lengthAdjust="spacingAndGlyphs" textLength="87" x="423" y="437">String serialize()</text></a><!--class OutputSizes--><a target="_top" xlink:actuate="onRequest" xlink:href="java:edu.kit.wavelength.client.model.output.OutputSizes" xlink:show="new" xlink:title="java:edu.kit.wavelength.client.model.output.OutputSizes" xlink:type="simple"><rect fill="#FEFECE" filter="url(#f1ddod9a4wcjfb)" height="86.8652" id="OutputSizes" style="stroke: #A80036; stroke-width: 1.5;" width="239" x="327.5" y="43"/><ellipse cx="408.75" cy="59" fill="#ADD1B2" rx="11" ry="11" style="stroke: #A80036; stroke-width: 1.0;"/><path d="M411.7231,64.6431 Q411.1421,64.9419 410.5029,65.0913 Q409.8638,65.2407 409.1582,65.2407 Q406.6514,65.2407 405.3315,63.5889 Q404.0117,61.937 404.0117,58.8159 Q404.0117,55.6865 405.3315,54.0347 Q406.6514,52.3828 409.1582,52.3828 Q409.8638,52.3828 410.5112,52.5322 Q411.1587,52.6816 411.7231,52.9805 L411.7231,55.7031 Q411.0923,55.1221 410.4988,54.8523 Q409.9053,54.5825 409.2744,54.5825 Q407.9297,54.5825 407.2449,55.6492 Q406.5601,56.7158 406.5601,58.8159 Q406.5601,60.9077 407.2449,61.9744 Q407.9297,63.041 409.2744,63.041 Q409.9053,63.041 410.4988,62.7712 Q411.0923,62.5015 411.7231,61.9204 Z "/><text fill="#000000" font-family="sans-serif" font-size="12" lengthAdjust="spacingAndGlyphs" textLength="68" x="429.25" y="63.5352">OutputSizes</text><line style="stroke: #A80036; stroke-width: 1.5;" x1="328.5" x2="565.5" y1="75" y2="75"/><line style="stroke: #A80036; stroke-width: 1.5;" x1="328.5" x2="565.5" y1="83" y2="83"/><ellipse cx="338.5" cy="94.9775" fill="#84BE84" rx="3" ry="3" style="stroke: #038048; stroke-width: 1.0;"/><text fill="#000000" font-family="sans-serif" font-size="11" lengthAdjust="spacingAndGlyphs" text-decoration="underline" textLength="119" x="347.5" y="97.6348">List&lt;OutputSize&gt; all()</text><line style="stroke: #000000; stroke-width: 1.0;" x1="347.5" x2="466.5" y1="99.6348" y2="99.6348"/><ellipse cx="338.5" cy="107.9326" fill="#84BE84" rx="3" ry="3" style="stroke: #038048; stroke-width: 1.0;"/><text fill="#000000" font-family="sans-serif" font-size="11" lengthAdjust="spacingAndGlyphs" text-decoration="underline" textLength="213" x="347.5" y="110.5898">OutputSize deserialize(String serialized)</text><line style="stroke: #000000; stroke-width: 1.0;" x1="347.5" x2="560.5" y1="112.5898" y2="112.5898"/><rect fill="#F24D5C" height="6" style="stroke: #C82930; stroke-width: 1.0;" width="6" x="335.5" y="117.8877"/><text fill="#000000" font-family="sans-serif" font-size="11" lengthAdjust="spacingAndGlyphs" textLength="73" x="347.5" y="123.5449">OutputSizes()</text></a><!--class Periodic--><a target="_top" xlink:actuate="onRequest" xlink:href="java:edu.kit.wavelength.client.model.output.Periodic" xlink:show="new" xlink:title="java:edu.kit.wavelength.client.model.output.Periodic" xlink:type="simple"><rect fill="#FEFECE" filter="url(#f1ddod9a4wcjfb)" height="112.7754" id="Periodic" style="stroke: #A80036; stroke-width: 1.5;" width="346" x="784" y="337"/><ellipse cx="929.75" cy="353" fill="#ADD1B2" rx="11" ry="11" style="stroke: #A80036; stroke-width: 1.0;"/><path d="M932.7231,358.6431 Q932.1421,358.9419 931.5029,359.0913 Q930.8638,359.2407 930.1582,359.2407 Q927.6514,359.2407 926.3315,357.5889 Q925.0117,355.937 925.0117,352.8159 Q925.0117,349.6865 926.3315,348.0347 Q927.6514,346.3828 930.1582,346.3828 Q930.8638,346.3828 931.5112,346.5322 Q932.1587,346.6816 932.7231,346.9805 L932.7231,349.7031 Q932.0923,349.1221 931.4988,348.8523 Q930.9053,348.5825 930.2744,348.5825 Q928.9297,348.5825 928.2449,349.6492 Q927.5601,350.7158 927.5601,352.8159 Q927.5601,354.9077 928.2449,355.9744 Q928.9297,357.041 930.2744,357.041 Q930.9053,357.041 931.4988,356.7712 Q932.0923,356.5015 932.7231,355.9204 Z "/><text fill="#000000" font-family="sans-serif" font-size="12" lengthAdjust="spacingAndGlyphs" textLength="46" x="950.25" y="357.5352">Periodic</text><line style="stroke: #A80036; stroke-width: 1.5;" x1="785" x2="1129" y1="369" y2="369"/><line style="stroke: #A80036; stroke-width: 1.5;" x1="785" x2="1129" y1="377" y2="377"/><ellipse cx="795" cy="388.9775" fill="#84BE84" rx="3" ry="3" style="stroke: #038048; stroke-width: 1.0;"/><text fill="#000000" font-family="sans-serif" font-size="11" lengthAdjust="spacingAndGlyphs" textLength="103" x="804" y="391.6348">Periodic(int period)</text><ellipse cx="795" cy="401.9326" fill="#84BE84" rx="3" ry="3" style="stroke: #038048; stroke-width: 1.0;"/><text fill="#000000" font-family="sans-serif" font-size="11" lengthAdjust="spacingAndGlyphs" textLength="153" x="804" y="404.5898">boolean displayLive(int step)</text><ellipse cx="795" cy="414.8877" fill="#84BE84" rx="3" ry="3" style="stroke: #038048; stroke-width: 1.0;"/><text fill="#000000" font-family="sans-serif" font-size="11" lengthAdjust="spacingAndGlyphs" textLength="320" x="804" y="417.5449">List&lt;Integer&gt; displayAtEnd(int totalSteps, int lastDisplayed)</text><ellipse cx="795" cy="427.8428" fill="#84BE84" rx="3" ry="3" style="stroke: #038048; stroke-width: 1.0;"/><text fill="#000000" font-family="sans-serif" font-size="11" lengthAdjust="spacingAndGlyphs" textLength="90" x="804" y="430.5">String getName()</text><ellipse cx="795" cy="440.7979" fill="#84BE84" rx="3" ry="3" style="stroke: #038048; stroke-width: 1.0;"/><text fill="#000000" font-family="sans-serif" font-size="11" lengthAdjust="spacingAndGlyphs" textLength="87" x="804" y="443.4551">String serialize()</text></a><!--class Shortened--><a target="_top" xlink:actuate="onRequest" xlink:href="java:edu.kit.wavelength.client.model.output.Shortened" xlink:show="new" xlink:title="java:edu.kit.wavelength.client.model.output.Shortened" xlink:type="simple"><rect fill="#FEFECE" filter="url(#f1ddod9a4wcjfb)" height="112.7754" id="Shortened" style="stroke: #A80036; stroke-width: 1.5;" width="346" x="1165" y="337"/><ellipse cx="1304.75" cy="353" fill="#ADD1B2" rx="11" ry="11" style="stroke: #A80036; stroke-width: 1.0;"/><path d="M1307.7231,358.6431 Q1307.1421,358.9419 1306.5029,359.0913 Q1305.8638,359.2407 1305.1582,359.2407 Q1302.6514,359.2407 1301.3315,357.5889 Q1300.0117,355.937 1300.0117,352.8159 Q1300.0117,349.6865 1301.3315,348.0347 Q1302.6514,346.3828 1305.1582,346.3828 Q1305.8638,346.3828 1306.5112,346.5322 Q1307.1587,346.6816 1307.7231,346.9805 L1307.7231,349.7031 Q1307.0923,349.1221 1306.4988,348.8523 Q1305.9053,348.5825 1305.2744,348.5825 Q1303.9297,348.5825 1303.2449,349.6492 Q1302.5601,350.7158 1302.5601,352.8159 Q1302.5601,354.9077 1303.2449,355.9744 Q1303.9297,357.041 1305.2744,357.041 Q1305.9053,357.041 1306.4988,356.7712 Q1307.0923,356.5015 1307.7231,355.9204 Z "/><text fill="#000000" font-family="sans-serif" font-size="12" lengthAdjust="spacingAndGlyphs" textLength="58" x="1325.25" y="357.5352">Shortened</text><line style="stroke: #A80036; stroke-width: 1.5;" x1="1166" x2="1510" y1="369" y2="369"/><line style="stroke: #A80036; stroke-width: 1.5;" x1="1166" x2="1510" y1="377" y2="377"/><ellipse cx="1176" cy="388.9775" fill="#84BE84" rx="3" ry="3" style="stroke: #038048; stroke-width: 1.0;"/><text fill="#000000" font-family="sans-serif" font-size="11" lengthAdjust="spacingAndGlyphs" textLength="112" x="1185" y="391.6348">Shortened(int cutoff)</text><ellipse cx="1176" cy="401.9326" fill="#84BE84" rx="3" ry="3" style="stroke: #038048; stroke-width: 1.0;"/><text fill="#000000" font-family="sans-serif" font-size="11" lengthAdjust="spacingAndGlyphs" textLength="153" x="1185" y="404.5898">boolean displayLive(int step)</text><ellipse cx="1176" cy="414.8877" fill="#84BE84" rx="3" ry="3" style="stroke: #038048; stroke-width: 1.0;"/><text fill="#000000" font-family="sans-serif" font-size="11" lengthAdjust="spacingAndGlyphs" textLength="320" x="1185" y="417.5449">List&lt;Integer&gt; displayAtEnd(int totalSteps, int lastDisplayed)</text><ellipse cx="1176" cy="427.8428" fill="#84BE84" rx="3" ry="3" style="stroke: #038048; stroke-width: 1.0;"/><text fill="#000000" font-family="sans-serif" font-size="11" lengthAdjust="spacingAndGlyphs" textLength="90" x="1185" y="430.5">String getName()</text><ellipse cx="1176" cy="440.7979" fill="#84BE84" rx="3" ry="3" style="stroke: #038048; stroke-width: 1.0;"/><text fill="#000000" font-family="sans-serif" font-size="11" lengthAdjust="spacingAndGlyphs" textLength="87" x="1185" y="443.4551">String serialize()</text></a><!--link OutputSize to ResultOnly--><path d="M583.4399,282.3622 C520.7673,299.3651 450.237,318.7532 386,337 C378.5987,339.1024 371.0412,341.2661 363.4104,343.4646 " fill="none" id="OutputSize-ResultOnly" style="stroke: #A80036; stroke-width: 1.0; stroke-dasharray: 7.0,7.0;"/><polygon fill="none" points="581.9227,275.5209,603.0573,277.0482,585.5832,289.0339,581.9227,275.5209" style="stroke: #A80036; stroke-width: 1.0;"/><!--link Serializable to OutputSize--><path d="M766,130.9633 C766,149.6361 766,171.2883 766,189.8708 " fill="none" id="Serializable-OutputSize" style="stroke: #A80036; stroke-width: 1.0;"/><polygon fill="none" points="759.0001,130.7741,766,110.7741,773.0001,130.774,759.0001,130.7741" style="stroke: #A80036; stroke-width: 1.0;"/><!--link OutputSize to Full--><path d="M698.94,289.9716 C678.2185,307.4213 655.5504,326.5102 635.3854,343.4912 " fill="none" id="OutputSize-Full" style="stroke: #A80036; stroke-width: 1.0; stroke-dasharray: 7.0,7.0;"/><polygon fill="none" points="694.5254,284.5377,714.3326,277.0094,703.5434,295.2465,694.5254,284.5377" style="stroke: #A80036; stroke-width: 1.0;"/><!--link OutputSize to Periodic--><path d="M833.4102,289.9693 C851.5333,305.1509 871.1378,321.5736 889.2778,336.7693 " fill="none" id="OutputSize-Periodic" style="stroke: #A80036; stroke-width: 1.0; stroke-dasharray: 7.0,7.0;"/><polygon fill="none" points="828.7757,295.2185,817.9393,277.0094,837.7659,284.4865,828.7757,295.2185" style="stroke: #A80036; stroke-width: 1.0;"/><!--link OutputSize to Shortened--><path d="M949.9865,282.3738 C1012.8816,299.3402 1083.5985,318.7029 1148,337 C1153.5448,338.5753 1159.1775,340.1864 1164.8627,341.8218 " fill="none" id="OutputSize-Shortened" style="stroke: #A80036; stroke-width: 1.0; stroke-dasharray: 7.0,7.0;"/><polygon fill="none" points="947.789,289.0315,930.2972,277.0717,951.4294,275.5131,947.789,289.0315" style="stroke: #A80036; stroke-width: 1.0;"/><!--
@startuml
package edu.kit.wavelength.client.model.output <<Folder>> {
class ResultOnly [[java:edu.kit.wavelength.client.model.output.ResultOnly]] {
	+boolean displayLive(int step)
	+List<Integer> displayAtEnd(int totalSteps, int lastDisplayed)
	+String getName()
	+String serialize()
}
interface OutputSize [[java:edu.kit.wavelength.client.model.output.OutputSize]] {
}
OutputSize <|.. ResultOnly
interface OutputSize [[java:edu.kit.wavelength.client.model.output.OutputSize]] {
	boolean displayLive(int step)
	List<Integer> displayAtEnd(int totalSteps, int lastDisplayed)
	String getName()
}
interface Serializable [[java:edu.kit.wavelength.client.model.serialization.Serializable]] {
}
Serializable <|- - OutputSize
class Full [[java:edu.kit.wavelength.client.model.output.Full]] {
	+boolean displayLive(int step)
	+List<Integer> displayAtEnd(int totalSteps, int lastDisplayed)
	+String getName()
	+String serialize()
}
interface OutputSize [[java:edu.kit.wavelength.client.model.output.OutputSize]] {
}
OutputSize <|.. Full
class OutputSizes [[java:edu.kit.wavelength.client.model.output.OutputSizes]] {
	+{static}List<OutputSize> all()
	+{static}OutputSize deserialize(String serialized)
	-OutputSizes()
}
class Periodic [[java:edu.kit.wavelength.client.model.output.Periodic]] {
	+Periodic(int period)
	+boolean displayLive(int step)
	+List<Integer> displayAtEnd(int totalSteps, int lastDisplayed)
	+String getName()
	+String serialize()
}
interface OutputSize [[java:edu.kit.wavelength.client.model.output.OutputSize]] {
}
OutputSize <|.. Periodic
class Shortened [[java:edu.kit.wavelength.client.model.output.Shortened]] {
	+Shortened(int cutoff)
	+boolean displayLive(int step)
	+List<Integer> displayAtEnd(int totalSteps, int lastDisplayed)
	+String getName()
	+String serialize()
}
interface OutputSize [[java:edu.kit.wavelength.client.model.output.OutputSize]] {
}
OutputSize <|.. Shortened

}

@enduml

PlantUML version 1.2017.15(Mon Jul 03 18:45:34 CEST 2017)
(EPL source distribution)
Java Runtime: Java(TM) SE Runtime Environment
JVM: Java HotSpot(TM) 64-Bit Server VM
Java Version: 1.8.0_112-b16
Operating System: Mac OS X
OS Version: 10.13.2
Default Encoding: UTF-8
Language: de
Country: DE
--></g></svg>