<?xml version="1.0" encoding="UTF-8" standalone="no"?><svg xmlns="http://www.w3.org/2000/svg" xmlns:xlink="http://www.w3.org/1999/xlink" contentScriptType="application/ecmascript" contentStyleType="text/css" height="431px" preserveAspectRatio="none" style="width:1037px;height:431px;" version="1.1" viewBox="0 0 1037 431" width="1037px" zoomAndPan="magnify"><defs><filter height="300%" id="f2lsu3cz5l0cw" width="300%" x="-1" y="-1"><feGaussianBlur result="blurOut" stdDeviation="2.0"/><feColorMatrix in="blurOut" result="blurOut2" type="matrix" values="0 0 0 0 0 0 0 0 0 0 0 0 0 0 0 0 0 0 .4 0"/><feOffset dx="4.0" dy="4.0" in="blurOut2" result="blurOut3"/><feBlend in="SourceGraphic" in2="blurOut3" mode="normal"/></filter></defs><g><!--cluster edu.kit.wavelength.client.model.reduction--><polygon fill="#FFFFFF" filter="url(#f2lsu3cz5l0cw)" points="14,16,316,16,323,38.4883,1015,38.4883,1015,419,14,419,14,16" style="stroke: #000000; stroke-width: 2.0;"/><line style="stroke: #000000; stroke-width: 2.0;" x1="14" x2="323" y1="38.4883" y2="38.4883"/><text fill="#000000" font-family="sans-serif" font-size="14" font-weight="bold" lengthAdjust="spacingAndGlyphs" textLength="296" x="18" y="31.5352">edu.kit.wavelength.client.model.reduction</text><!--class ReductionOrders--><a target="_top" xlink:actuate="onRequest" xlink:href="java:edu.kit.wavelength.client.model.reduction.ReductionOrders" xlink:show="new" xlink:title="java:edu.kit.wavelength.client.model.reduction.ReductionOrders" xlink:type="simple"><rect fill="#FEFECE" filter="url(#f2lsu3cz5l0cw)" height="86.8652" id="ReductionOrders" style="stroke: #A80036; stroke-width: 1.5;" width="266" x="673" y="43"/><ellipse cx="753.25" cy="59" fill="#ADD1B2" rx="11" ry="11" style="stroke: #A80036; stroke-width: 1.0;"/><path d="M756.2231,64.6431 Q755.6421,64.9419 755.0029,65.0913 Q754.3638,65.2407 753.6582,65.2407 Q751.1514,65.2407 749.8315,63.5889 Q748.5117,61.937 748.5117,58.8159 Q748.5117,55.6865 749.8315,54.0347 Q751.1514,52.3828 753.6582,52.3828 Q754.3638,52.3828 755.0112,52.5322 Q755.6587,52.6816 756.2231,52.9805 L756.2231,55.7031 Q755.5923,55.1221 754.9988,54.8523 Q754.4053,54.5825 753.7744,54.5825 Q752.4297,54.5825 751.7449,55.6492 Q751.0601,56.7158 751.0601,58.8159 Q751.0601,60.9077 751.7449,61.9744 Q752.4297,63.041 753.7744,63.041 Q754.4053,63.041 754.9988,62.7712 Q755.5923,62.5015 756.2231,61.9204 Z "/><text fill="#000000" font-family="sans-serif" font-size="12" lengthAdjust="spacingAndGlyphs" textLength="97" x="773.75" y="63.5352">ReductionOrders</text><line style="stroke: #A80036; stroke-width: 1.5;" x1="674" x2="938" y1="75" y2="75"/><line style="stroke: #A80036; stroke-width: 1.5;" x1="674" x2="938" y1="83" y2="83"/><ellipse cx="684" cy="94.9775" fill="#84BE84" rx="3" ry="3" style="stroke: #038048; stroke-width: 1.0;"/><text fill="#000000" font-family="sans-serif" font-size="11" lengthAdjust="spacingAndGlyphs" text-decoration="underline" textLength="146" x="693" y="97.6348">List&lt;ReductionOrder&gt; all()</text><line style="stroke: #000000; stroke-width: 1.0;" x1="693" x2="839" y1="99.6348" y2="99.6348"/><ellipse cx="684" cy="107.9326" fill="#84BE84" rx="3" ry="3" style="stroke: #038048; stroke-width: 1.0;"/><text fill="#000000" font-family="sans-serif" font-size="11" lengthAdjust="spacingAndGlyphs" text-decoration="underline" textLength="240" x="693" y="110.5898">ReductionOrder deserialize(String serialized)</text><line style="stroke: #000000; stroke-width: 1.0;" x1="693" x2="933" y1="112.5898" y2="112.5898"/><rect fill="#F24D5C" height="6" style="stroke: #C82930; stroke-width: 1.0;" width="6" x="681" y="117.8877"/><text fill="#000000" font-family="sans-serif" font-size="11" lengthAdjust="spacingAndGlyphs" textLength="100" x="693" y="123.5449">ReductionOrders()</text></a><!--class CallByValue--><a target="_top" xlink:actuate="onRequest" xlink:href="java:edu.kit.wavelength.client.model.reduction.CallByValue" xlink:show="new" xlink:title="java:edu.kit.wavelength.client.model.reduction.CallByValue" xlink:type="simple"><rect fill="#FEFECE" filter="url(#f2lsu3cz5l0cw)" height="86.8652" id="CallByValue" style="stroke: #A80036; stroke-width: 1.5;" width="220" x="22" y="324"/><ellipse cx="94.75" cy="340" fill="#ADD1B2" rx="11" ry="11" style="stroke: #A80036; stroke-width: 1.0;"/><path d="M97.7231,345.6431 Q97.1421,345.9419 96.5029,346.0913 Q95.8638,346.2407 95.1582,346.2407 Q92.6514,346.2407 91.3315,344.5889 Q90.0117,342.937 90.0117,339.8159 Q90.0117,336.6865 91.3315,335.0347 Q92.6514,333.3828 95.1582,333.3828 Q95.8638,333.3828 96.5112,333.5322 Q97.1587,333.6816 97.7231,333.9805 L97.7231,336.7031 Q97.0923,336.1221 96.4988,335.8523 Q95.9053,335.5825 95.2744,335.5825 Q93.9297,335.5825 93.2449,336.6492 Q92.5601,337.7158 92.5601,339.8159 Q92.5601,341.9077 93.2449,342.9744 Q93.9297,344.041 95.2744,344.041 Q95.9053,344.041 96.4988,343.7712 Q97.0923,343.5015 97.7231,342.9204 Z "/><text fill="#000000" font-family="sans-serif" font-size="12" lengthAdjust="spacingAndGlyphs" textLength="66" x="115.25" y="344.5352">CallByValue</text><line style="stroke: #A80036; stroke-width: 1.5;" x1="23" x2="241" y1="356" y2="356"/><line style="stroke: #A80036; stroke-width: 1.5;" x1="23" x2="241" y1="364" y2="364"/><ellipse cx="33" cy="375.9775" fill="#84BE84" rx="3" ry="3" style="stroke: #038048; stroke-width: 1.0;"/><text fill="#000000" font-family="sans-serif" font-size="11" lengthAdjust="spacingAndGlyphs" textLength="194" x="42" y="378.6348">Application next(LambdaTerm term)</text><ellipse cx="33" cy="388.9326" fill="#84BE84" rx="3" ry="3" style="stroke: #038048; stroke-width: 1.0;"/><text fill="#000000" font-family="sans-serif" font-size="11" lengthAdjust="spacingAndGlyphs" textLength="90" x="42" y="391.5898">String getName()</text><ellipse cx="33" cy="401.8877" fill="#84BE84" rx="3" ry="3" style="stroke: #038048; stroke-width: 1.0;"/><text fill="#000000" font-family="sans-serif" font-size="11" lengthAdjust="spacingAndGlyphs" textLength="87" x="42" y="404.5449">String serialize()</text></a><!--class ReductionOrder--><a target="_top" xlink:actuate="onRequest" xlink:href="java:edu.kit.wavelength.client.model.reduction.ReductionOrder" xlink:show="new" xlink:title="java:edu.kit.wavelength.client.model.reduction.ReductionOrder" xlink:type="simple"><rect fill="#FEFECE" filter="url(#f2lsu3cz5l0cw)" height="73.9102" id="ReductionOrder" style="stroke: #A80036; stroke-width: 1.5;" width="206" x="351" y="190"/><ellipse cx="404.25" cy="206" fill="#B4A7E5" rx="11" ry="11" style="stroke: #A80036; stroke-width: 1.0;"/><path d="M400.1777,201.7651 L400.1777,199.6069 L407.5571,199.6069 L407.5571,201.7651 L405.0918,201.7651 L405.0918,209.8418 L407.5571,209.8418 L407.5571,212 L400.1777,212 L400.1777,209.8418 L402.6431,209.8418 L402.6431,201.7651 Z "/><text fill="#000000" font-family="sans-serif" font-size="12" font-style="italic" lengthAdjust="spacingAndGlyphs" textLength="91" x="424.75" y="210.5352">ReductionOrder</text><line style="stroke: #A80036; stroke-width: 1.5;" x1="352" x2="556" y1="222" y2="222"/><line style="stroke: #A80036; stroke-width: 1.5;" x1="352" x2="556" y1="230" y2="230"/><text fill="#000000" font-family="sans-serif" font-size="11" lengthAdjust="spacingAndGlyphs" textLength="194" x="357" y="244.6348">Application next(LambdaTerm term)</text><text fill="#000000" font-family="sans-serif" font-size="11" lengthAdjust="spacingAndGlyphs" textLength="90" x="357" y="257.5898">String getName()</text></a><!--class NormalOrder--><a target="_top" xlink:actuate="onRequest" xlink:href="java:edu.kit.wavelength.client.model.reduction.NormalOrder" xlink:show="new" xlink:title="java:edu.kit.wavelength.client.model.reduction.NormalOrder" xlink:type="simple"><rect fill="#FEFECE" filter="url(#f2lsu3cz5l0cw)" height="86.8652" id="NormalOrder" style="stroke: #A80036; stroke-width: 1.5;" width="220" x="277" y="324"/><ellipse cx="344.75" cy="340" fill="#ADD1B2" rx="11" ry="11" style="stroke: #A80036; stroke-width: 1.0;"/><path d="M347.7231,345.6431 Q347.1421,345.9419 346.5029,346.0913 Q345.8638,346.2407 345.1582,346.2407 Q342.6514,346.2407 341.3315,344.5889 Q340.0117,342.937 340.0117,339.8159 Q340.0117,336.6865 341.3315,335.0347 Q342.6514,333.3828 345.1582,333.3828 Q345.8638,333.3828 346.5112,333.5322 Q347.1587,333.6816 347.7231,333.9805 L347.7231,336.7031 Q347.0923,336.1221 346.4988,335.8523 Q345.9053,335.5825 345.2744,335.5825 Q343.9297,335.5825 343.2449,336.6492 Q342.5601,337.7158 342.5601,339.8159 Q342.5601,341.9077 343.2449,342.9744 Q343.9297,344.041 345.2744,344.041 Q345.9053,344.041 346.4988,343.7712 Q347.0923,343.5015 347.7231,342.9204 Z "/><text fill="#000000" font-family="sans-serif" font-size="12" lengthAdjust="spacingAndGlyphs" textLength="76" x="365.25" y="344.5352">NormalOrder</text><line style="stroke: #A80036; stroke-width: 1.5;" x1="278" x2="496" y1="356" y2="356"/><line style="stroke: #A80036; stroke-width: 1.5;" x1="278" x2="496" y1="364" y2="364"/><ellipse cx="288" cy="375.9775" fill="#84BE84" rx="3" ry="3" style="stroke: #038048; stroke-width: 1.0;"/><text fill="#000000" font-family="sans-serif" font-size="11" lengthAdjust="spacingAndGlyphs" textLength="194" x="297" y="378.6348">Application next(LambdaTerm term)</text><ellipse cx="288" cy="388.9326" fill="#84BE84" rx="3" ry="3" style="stroke: #038048; stroke-width: 1.0;"/><text fill="#000000" font-family="sans-serif" font-size="11" lengthAdjust="spacingAndGlyphs" textLength="90" x="297" y="391.5898">String getName()</text><ellipse cx="288" cy="401.8877" fill="#84BE84" rx="3" ry="3" style="stroke: #038048; stroke-width: 1.0;"/><text fill="#000000" font-family="sans-serif" font-size="11" lengthAdjust="spacingAndGlyphs" textLength="87" x="297" y="404.5449">String serialize()</text></a><!--class CallByName--><a target="_top" xlink:actuate="onRequest" xlink:href="java:edu.kit.wavelength.client.model.reduction.CallByName" xlink:show="new" xlink:title="java:edu.kit.wavelength.client.model.reduction.CallByName" xlink:type="simple"><rect fill="#FEFECE" filter="url(#f2lsu3cz5l0cw)" height="86.8652" id="CallByName" style="stroke: #A80036; stroke-width: 1.5;" width="220" x="532" y="324"/><ellipse cx="603.75" cy="340" fill="#ADD1B2" rx="11" ry="11" style="stroke: #A80036; stroke-width: 1.0;"/><path d="M606.7231,345.6431 Q606.1421,345.9419 605.5029,346.0913 Q604.8638,346.2407 604.1582,346.2407 Q601.6514,346.2407 600.3315,344.5889 Q599.0117,342.937 599.0117,339.8159 Q599.0117,336.6865 600.3315,335.0347 Q601.6514,333.3828 604.1582,333.3828 Q604.8638,333.3828 605.5112,333.5322 Q606.1587,333.6816 606.7231,333.9805 L606.7231,336.7031 Q606.0923,336.1221 605.4988,335.8523 Q604.9053,335.5825 604.2744,335.5825 Q602.9297,335.5825 602.2449,336.6492 Q601.5601,337.7158 601.5601,339.8159 Q601.5601,341.9077 602.2449,342.9744 Q602.9297,344.041 604.2744,344.041 Q604.9053,344.041 605.4988,343.7712 Q606.0923,343.5015 606.7231,342.9204 Z "/><text fill="#000000" font-family="sans-serif" font-size="12" lengthAdjust="spacingAndGlyphs" textLength="68" x="624.25" y="344.5352">CallByName</text><line style="stroke: #A80036; stroke-width: 1.5;" x1="533" x2="751" y1="356" y2="356"/><line style="stroke: #A80036; stroke-width: 1.5;" x1="533" x2="751" y1="364" y2="364"/><ellipse cx="543" cy="375.9775" fill="#84BE84" rx="3" ry="3" style="stroke: #038048; stroke-width: 1.0;"/><text fill="#000000" font-family="sans-serif" font-size="11" lengthAdjust="spacingAndGlyphs" textLength="194" x="552" y="378.6348">Application next(LambdaTerm term)</text><ellipse cx="543" cy="388.9326" fill="#84BE84" rx="3" ry="3" style="stroke: #038048; stroke-width: 1.0;"/><text fill="#000000" font-family="sans-serif" font-size="11" lengthAdjust="spacingAndGlyphs" textLength="90" x="552" y="391.5898">String getName()</text><ellipse cx="543" cy="401.8877" fill="#84BE84" rx="3" ry="3" style="stroke: #038048; stroke-width: 1.0;"/><text fill="#000000" font-family="sans-serif" font-size="11" lengthAdjust="spacingAndGlyphs" textLength="87" x="552" y="404.5449">String serialize()</text></a><!--class Serializable--><a target="_top" xlink:actuate="onRequest" xlink:href="java:edu.kit.wavelength.client.model.serialization.Serializable" xlink:show="new" xlink:title="java:edu.kit.wavelength.client.model.serialization.Serializable" xlink:type="simple"><rect fill="#FEFECE" filter="url(#f2lsu3cz5l0cw)" height="48" id="Serializable" style="stroke: #A80036; stroke-width: 1.5;" width="98" x="405" y="62.5"/><ellipse cx="420" cy="78.5" fill="#B4A7E5" rx="11" ry="11" style="stroke: #A80036; stroke-width: 1.0;"/><path d="M415.9277,74.2651 L415.9277,72.1069 L423.3071,72.1069 L423.3071,74.2651 L420.8418,74.2651 L420.8418,82.3418 L423.3071,82.3418 L423.3071,84.5 L415.9277,84.5 L415.9277,82.3418 L418.3931,82.3418 L418.3931,74.2651 Z "/><text fill="#000000" font-family="sans-serif" font-size="12" font-style="italic" lengthAdjust="spacingAndGlyphs" textLength="66" x="434" y="83.0352">Serializable</text><line style="stroke: #A80036; stroke-width: 1.5;" x1="406" x2="502" y1="94.5" y2="94.5"/><line style="stroke: #A80036; stroke-width: 1.5;" x1="406" x2="502" y1="102.5" y2="102.5"/></a><!--class ApplicativeOrder--><a target="_top" xlink:actuate="onRequest" xlink:href="java:edu.kit.wavelength.client.model.reduction.ApplicativeOrder" xlink:show="new" xlink:title="java:edu.kit.wavelength.client.model.reduction.ApplicativeOrder" xlink:type="simple"><rect fill="#FEFECE" filter="url(#f2lsu3cz5l0cw)" height="86.8652" id="ApplicativeOrder" style="stroke: #A80036; stroke-width: 1.5;" width="220" x="787" y="324"/><ellipse cx="844.25" cy="340" fill="#ADD1B2" rx="11" ry="11" style="stroke: #A80036; stroke-width: 1.0;"/><path d="M847.2231,345.6431 Q846.6421,345.9419 846.0029,346.0913 Q845.3638,346.2407 844.6582,346.2407 Q842.1514,346.2407 840.8315,344.5889 Q839.5117,342.937 839.5117,339.8159 Q839.5117,336.6865 840.8315,335.0347 Q842.1514,333.3828 844.6582,333.3828 Q845.3638,333.3828 846.0112,333.5322 Q846.6587,333.6816 847.2231,333.9805 L847.2231,336.7031 Q846.5923,336.1221 845.9988,335.8523 Q845.4053,335.5825 844.7744,335.5825 Q843.4297,335.5825 842.7449,336.6492 Q842.0601,337.7158 842.0601,339.8159 Q842.0601,341.9077 842.7449,342.9744 Q843.4297,344.041 844.7744,344.041 Q845.4053,344.041 845.9988,343.7712 Q846.5923,343.5015 847.2231,342.9204 Z "/><text fill="#000000" font-family="sans-serif" font-size="12" lengthAdjust="spacingAndGlyphs" textLength="97" x="864.75" y="344.5352">ApplicativeOrder</text><line style="stroke: #A80036; stroke-width: 1.5;" x1="788" x2="1006" y1="356" y2="356"/><line style="stroke: #A80036; stroke-width: 1.5;" x1="788" x2="1006" y1="364" y2="364"/><ellipse cx="798" cy="375.9775" fill="#84BE84" rx="3" ry="3" style="stroke: #038048; stroke-width: 1.0;"/><text fill="#000000" font-family="sans-serif" font-size="11" lengthAdjust="spacingAndGlyphs" textLength="194" x="807" y="378.6348">Application next(LambdaTerm term)</text><ellipse cx="798" cy="388.9326" fill="#84BE84" rx="3" ry="3" style="stroke: #038048; stroke-width: 1.0;"/><text fill="#000000" font-family="sans-serif" font-size="11" lengthAdjust="spacingAndGlyphs" textLength="90" x="807" y="391.5898">String getName()</text><ellipse cx="798" cy="401.8877" fill="#84BE84" rx="3" ry="3" style="stroke: #038048; stroke-width: 1.0;"/><text fill="#000000" font-family="sans-serif" font-size="11" lengthAdjust="spacingAndGlyphs" textLength="87" x="807" y="404.5449">String serialize()</text></a><!--link ReductionOrder to CallByValue--><path d="M350.4634,272.1767 C312.4391,288.768 269.4928,307.507 231.8031,323.9524 " fill="none" id="ReductionOrder-CallByValue" style="stroke: #A80036; stroke-width: 1.0; stroke-dasharray: 7.0,7.0;"/><polygon fill="none" points="347.8466,265.6812,368.9771,264.0985,353.4456,278.5129,347.8466,265.6812" style="stroke: #A80036; stroke-width: 1.0;"/><!--link ReductionOrder to NormalOrder--><path d="M427.6055,282.3496 C421.04,296.1176 414.0928,310.6859 407.8366,323.8053 " fill="none" id="ReductionOrder-NormalOrder" style="stroke: #A80036; stroke-width: 1.0; stroke-dasharray: 7.0,7.0;"/><polygon fill="none" points="421.2941,279.322,436.2211,264.2825,433.9308,285.3481,421.2941,279.322" style="stroke: #A80036; stroke-width: 1.0;"/><!--link ReductionOrder to CallByName--><path d="M519.9774,276.3076 C540.6829,291.7817 563.385,308.7478 583.5331,323.8053 " fill="none" id="ReductionOrder-CallByName" style="stroke: #A80036; stroke-width: 1.0; stroke-dasharray: 7.0,7.0;"/><polygon fill="none" points="515.717,281.8625,503.887,264.2825,524.0979,270.6481,515.717,281.8625" style="stroke: #A80036; stroke-width: 1.0;"/><!--link Serializable to ReductionOrder--><path d="M454,130.8671 C454,149.8862 454,171.8477 454,189.9748 " fill="none" id="Serializable-ReductionOrder" style="stroke: #A80036; stroke-width: 1.0;"/><polygon fill="none" points="447.0001,130.6528,454,110.6528,461.0001,130.6528,447.0001,130.6528" style="stroke: #A80036; stroke-width: 1.0;"/><!--link ReductionOrder to ApplicativeOrder--><path d="M576.4798,263.5952 C635.1668,281.3855 706.3711,303.343 770,324 C775.5418,325.7991 781.2124,327.6617 786.9338,329.5582 " fill="none" id="ReductionOrder-ApplicativeOrder" style="stroke: #A80036; stroke-width: 1.0; stroke-dasharray: 7.0,7.0;"/><polygon fill="none" points="574.2032,270.2199,557.0862,257.7296,578.2562,256.8194,574.2032,270.2199" style="stroke: #A80036; stroke-width: 1.0;"/><!--
@startuml
package edu.kit.wavelength.client.model.reduction <<Folder>> {
class ReductionOrders [[java:edu.kit.wavelength.client.model.reduction.ReductionOrders]] {
	+{static}List<ReductionOrder> all()
	+{static}ReductionOrder deserialize(String serialized)
	-ReductionOrders()
}
class CallByValue [[java:edu.kit.wavelength.client.model.reduction.CallByValue]] {
	+Application next(LambdaTerm term)
	+String getName()
	+String serialize()
}
interface ReductionOrder [[java:edu.kit.wavelength.client.model.reduction.ReductionOrder]] {
}
ReductionOrder <|.. CallByValue
class NormalOrder [[java:edu.kit.wavelength.client.model.reduction.NormalOrder]] {
	+Application next(LambdaTerm term)
	+String getName()
	+String serialize()
}
interface ReductionOrder [[java:edu.kit.wavelength.client.model.reduction.ReductionOrder]] {
}
ReductionOrder <|.. NormalOrder
class CallByName [[java:edu.kit.wavelength.client.model.reduction.CallByName]] {
	+Application next(LambdaTerm term)
	+String getName()
	+String serialize()
}
interface ReductionOrder [[java:edu.kit.wavelength.client.model.reduction.ReductionOrder]] {
}
ReductionOrder <|.. CallByName
interface ReductionOrder [[java:edu.kit.wavelength.client.model.reduction.ReductionOrder]] {
	Application next(LambdaTerm term)
	String getName()
}
interface Serializable [[java:edu.kit.wavelength.client.model.serialization.Serializable]] {
}
Serializable <|- - ReductionOrder
class ApplicativeOrder [[java:edu.kit.wavelength.client.model.reduction.ApplicativeOrder]] {
	+Application next(LambdaTerm term)
	+String getName()
	+String serialize()
}
interface ReductionOrder [[java:edu.kit.wavelength.client.model.reduction.ReductionOrder]] {
}
ReductionOrder <|.. ApplicativeOrder

}

@enduml

PlantUML version 1.2017.15(Mon Jul 03 18:45:34 CEST 2017)
(EPL source distribution)
Java Runtime: Java(TM) SE Runtime Environment
JVM: Java HotSpot(TM) 64-Bit Server VM
Java Version: 1.8.0_112-b16
Operating System: Mac OS X
OS Version: 10.13.2
Default Encoding: UTF-8
Language: de
Country: DE
--></g></svg>