<?xml version="1.0" encoding="UTF-8" standalone="no"?><svg xmlns="http://www.w3.org/2000/svg" xmlns:xlink="http://www.w3.org/1999/xlink" contentScriptType="application/ecmascript" contentStyleType="text/css" height="297px" preserveAspectRatio="none" style="width:492px;height:297px;" version="1.1" viewBox="0 0 492 297" width="492px" zoomAndPan="magnify"><defs><filter height="300%" id="fgnkqusbvrgdm" width="300%" x="-1" y="-1"><feGaussianBlur result="blurOut" stdDeviation="2.0"/><feColorMatrix in="blurOut" result="blurOut2" type="matrix" values="0 0 0 0 0 0 0 0 0 0 0 0 0 0 0 0 0 0 .4 0"/><feOffset dx="4.0" dy="4.0" in="blurOut2" result="blurOut3"/><feBlend in="SourceGraphic" in2="blurOut3" mode="normal"/></filter></defs><g><!--cluster edu.kit.wavelength.client.view.api--><polygon fill="#FFFFFF" filter="url(#fgnkqusbvrgdm)" points="14,16,258,16,265,38.4883,470,38.4883,470,285,14,285,14,16" style="stroke: #000000; stroke-width: 2.0;"/><line style="stroke: #000000; stroke-width: 2.0;" x1="14" x2="265" y1="38.4883" y2="38.4883"/><text fill="#000000" font-family="sans-serif" font-size="14" font-weight="bold" lengthAdjust="spacingAndGlyphs" textLength="238" x="18" y="31.5352">edu.kit.wavelength.client.view.api</text><!--class Toggleable--><a target="_top" xlink:actuate="onRequest" xlink:href="java:edu.kit.wavelength.client.view.api.Toggleable" xlink:show="new" xlink:title="java:edu.kit.wavelength.client.view.api.Toggleable" xlink:type="simple"><rect fill="#FEFECE" filter="url(#fgnkqusbvrgdm)" height="86.8652" id="Toggleable" style="stroke: #A80036; stroke-width: 1.5;" width="96" x="31" y="43"/><ellipse cx="46" cy="59" fill="#B4A7E5" rx="11" ry="11" style="stroke: #A80036; stroke-width: 1.0;"/><path d="M41.9277,54.7651 L41.9277,52.6069 L49.3071,52.6069 L49.3071,54.7651 L46.8418,54.7651 L46.8418,62.8418 L49.3071,62.8418 L49.3071,65 L41.9277,65 L41.9277,62.8418 L44.3931,62.8418 L44.3931,54.7651 Z "/><text fill="#000000" font-family="sans-serif" font-size="12" font-style="italic" lengthAdjust="spacingAndGlyphs" textLength="64" x="60" y="63.5352">Toggleable</text><line style="stroke: #A80036; stroke-width: 1.5;" x1="32" x2="126" y1="75" y2="75"/><line style="stroke: #A80036; stroke-width: 1.5;" x1="32" x2="126" y1="83" y2="83"/><text fill="#000000" font-family="sans-serif" font-size="11" lengthAdjust="spacingAndGlyphs" textLength="50" x="37" y="97.6348">void set()</text><text fill="#000000" font-family="sans-serif" font-size="11" lengthAdjust="spacingAndGlyphs" textLength="64" x="37" y="110.5898">void unset()</text><text fill="#000000" font-family="sans-serif" font-size="11" lengthAdjust="spacingAndGlyphs" textLength="79" x="37" y="123.5449">boolean isSet()</text></a><!--class Writable--><a target="_top" xlink:actuate="onRequest" xlink:href="java:edu.kit.wavelength.client.view.api.Writable" xlink:show="new" xlink:title="java:edu.kit.wavelength.client.view.api.Writable" xlink:type="simple"><rect fill="#FEFECE" filter="url(#fgnkqusbvrgdm)" height="60.9551" id="Writable" style="stroke: #A80036; stroke-width: 1.5;" width="135" x="162.5" y="56"/><ellipse cx="202.7" cy="72" fill="#B4A7E5" rx="11" ry="11" style="stroke: #A80036; stroke-width: 1.0;"/><path d="M198.6277,67.7651 L198.6277,65.6069 L206.0071,65.6069 L206.0071,67.7651 L203.5418,67.7651 L203.5418,75.8418 L206.0071,75.8418 L206.0071,78 L198.6277,78 L198.6277,75.8418 L201.0931,75.8418 L201.0931,67.7651 Z "/><text fill="#000000" font-family="sans-serif" font-size="12" font-style="italic" lengthAdjust="spacingAndGlyphs" textLength="47" x="222.3" y="76.5352">Writable</text><line style="stroke: #A80036; stroke-width: 1.5;" x1="163.5" x2="296.5" y1="88" y2="88"/><line style="stroke: #A80036; stroke-width: 1.5;" x1="163.5" x2="296.5" y1="96" y2="96"/><text fill="#000000" font-family="sans-serif" font-size="11" lengthAdjust="spacingAndGlyphs" textLength="123" x="168.5" y="110.6348">void write(String input)</text></a><!--class Hideable--><a target="_top" xlink:actuate="onRequest" xlink:href="java:edu.kit.wavelength.client.view.api.Hideable" xlink:show="new" xlink:title="java:edu.kit.wavelength.client.view.api.Hideable" xlink:type="simple"><rect fill="#FEFECE" filter="url(#fgnkqusbvrgdm)" height="86.8652" id="Hideable" style="stroke: #A80036; stroke-width: 1.5;" width="110" x="333" y="43"/><ellipse cx="359.7" cy="59" fill="#B4A7E5" rx="11" ry="11" style="stroke: #A80036; stroke-width: 1.0;"/><path d="M355.6277,54.7651 L355.6277,52.6069 L363.0071,52.6069 L363.0071,54.7651 L360.5418,54.7651 L360.5418,62.8418 L363.0071,62.8418 L363.0071,65 L355.6277,65 L355.6277,62.8418 L358.0931,62.8418 L358.0931,54.7651 Z "/><text fill="#000000" font-family="sans-serif" font-size="12" font-style="italic" lengthAdjust="spacingAndGlyphs" textLength="52" x="376.3" y="63.5352">Hideable</text><line style="stroke: #A80036; stroke-width: 1.5;" x1="334" x2="442" y1="75" y2="75"/><line style="stroke: #A80036; stroke-width: 1.5;" x1="334" x2="442" y1="83" y2="83"/><text fill="#000000" font-family="sans-serif" font-size="11" lengthAdjust="spacingAndGlyphs" textLength="57" x="339" y="97.6348">void hide()</text><text fill="#000000" font-family="sans-serif" font-size="11" lengthAdjust="spacingAndGlyphs" textLength="62" x="339" y="110.5898">void show()</text><text fill="#000000" font-family="sans-serif" font-size="11" lengthAdjust="spacingAndGlyphs" textLength="98" x="339" y="123.5449">boolean isShown()</text></a><!--class Lockable--><a target="_top" xlink:actuate="onRequest" xlink:href="java:edu.kit.wavelength.client.view.api.Lockable" xlink:show="new" xlink:title="java:edu.kit.wavelength.client.view.api.Lockable" xlink:type="simple"><rect fill="#FEFECE" filter="url(#fgnkqusbvrgdm)" height="86.8652" id="Lockable" style="stroke: #A80036; stroke-width: 1.5;" width="113" x="22.5" y="190"/><ellipse cx="51" cy="206" fill="#B4A7E5" rx="11" ry="11" style="stroke: #A80036; stroke-width: 1.0;"/><path d="M46.9277,201.7651 L46.9277,199.6069 L54.3071,199.6069 L54.3071,201.7651 L51.8418,201.7651 L51.8418,209.8418 L54.3071,209.8418 L54.3071,212 L46.9277,212 L46.9277,209.8418 L49.3931,209.8418 L49.3931,201.7651 Z "/><text fill="#000000" font-family="sans-serif" font-size="12" font-style="italic" lengthAdjust="spacingAndGlyphs" textLength="51" x="68" y="210.5352">Lockable</text><line style="stroke: #A80036; stroke-width: 1.5;" x1="23.5" x2="134.5" y1="222" y2="222"/><line style="stroke: #A80036; stroke-width: 1.5;" x1="23.5" x2="134.5" y1="230" y2="230"/><text fill="#000000" font-family="sans-serif" font-size="11" lengthAdjust="spacingAndGlyphs" textLength="56" x="28.5" y="244.6348">void lock()</text><text fill="#000000" font-family="sans-serif" font-size="11" lengthAdjust="spacingAndGlyphs" textLength="70" x="28.5" y="257.5898">void unlock()</text><text fill="#000000" font-family="sans-serif" font-size="11" lengthAdjust="spacingAndGlyphs" textLength="101" x="28.5" y="270.5449">boolean isLocked()</text></a><!--class Clickable--><a target="_top" xlink:actuate="onRequest" xlink:href="java:edu.kit.wavelength.client.view.api.Clickable" xlink:show="new" xlink:title="java:edu.kit.wavelength.client.view.api.Clickable" xlink:type="simple"><rect fill="#FEFECE" filter="url(#fgnkqusbvrgdm)" height="60.9551" id="Clickable" style="stroke: #A80036; stroke-width: 1.5;" width="168" x="171" y="203"/><ellipse cx="224.75" cy="219" fill="#B4A7E5" rx="11" ry="11" style="stroke: #A80036; stroke-width: 1.0;"/><path d="M220.6777,214.7651 L220.6777,212.6069 L228.0571,212.6069 L228.0571,214.7651 L225.5918,214.7651 L225.5918,222.8418 L228.0571,222.8418 L228.0571,225 L220.6777,225 L220.6777,222.8418 L223.1431,222.8418 L223.1431,214.7651 Z "/><text fill="#000000" font-family="sans-serif" font-size="12" font-style="italic" lengthAdjust="spacingAndGlyphs" textLength="52" x="245.25" y="223.5352">Clickable</text><line style="stroke: #A80036; stroke-width: 1.5;" x1="172" x2="338" y1="235" y2="235"/><line style="stroke: #A80036; stroke-width: 1.5;" x1="172" x2="338" y1="243" y2="243"/><text fill="#000000" font-family="sans-serif" font-size="11" lengthAdjust="spacingAndGlyphs" textLength="156" x="177" y="257.6348">void setAction(Action action)</text></a><!--class Readable--><a target="_top" xlink:actuate="onRequest" xlink:href="java:edu.kit.wavelength.client.view.api.Readable" xlink:show="new" xlink:title="java:edu.kit.wavelength.client.view.api.Readable" xlink:type="simple"><rect fill="#FEFECE" filter="url(#fgnkqusbvrgdm)" height="60.9551" id="Readable" style="stroke: #A80036; stroke-width: 1.5;" width="87" x="374.5" y="203"/><ellipse cx="389.5" cy="219" fill="#B4A7E5" rx="11" ry="11" style="stroke: #A80036; stroke-width: 1.0;"/><path d="M385.4277,214.7651 L385.4277,212.6069 L392.8071,212.6069 L392.8071,214.7651 L390.3418,214.7651 L390.3418,222.8418 L392.8071,222.8418 L392.8071,225 L385.4277,225 L385.4277,222.8418 L387.8931,222.8418 L387.8931,214.7651 Z "/><text fill="#000000" font-family="sans-serif" font-size="12" font-style="italic" lengthAdjust="spacingAndGlyphs" textLength="55" x="403.5" y="223.5352">Readable</text><line style="stroke: #A80036; stroke-width: 1.5;" x1="375.5" x2="460.5" y1="235" y2="235"/><line style="stroke: #A80036; stroke-width: 1.5;" x1="375.5" x2="460.5" y1="243" y2="243"/><text fill="#000000" font-family="sans-serif" font-size="11" lengthAdjust="spacingAndGlyphs" textLength="67" x="380.5" y="257.6348">String read()</text></a><!--link Toggleable to Writable--><!--link Writable to Hideable--><!--link Toggleable to Lockable--><!--link Lockable to Clickable--><!--link Clickable to Readable--><!--
@startuml
package edu.kit.wavelength.client.view.api <<Folder>> {
interface Toggleable [[java:edu.kit.wavelength.client.view.api.Toggleable]] {
	void set()
	void unset()
	boolean isSet()
}
interface Writable [[java:edu.kit.wavelength.client.view.api.Writable]] {
	void write(String input)
}
interface Hideable [[java:edu.kit.wavelength.client.view.api.Hideable]] {
	void hide()
	void show()
	boolean isShown()
}
interface Lockable [[java:edu.kit.wavelength.client.view.api.Lockable]] {
	void lock()
	void unlock()
	boolean isLocked()
}
interface Clickable [[java:edu.kit.wavelength.client.view.api.Clickable]] {
	void setAction(Action action)
}
interface Readable [[java:edu.kit.wavelength.client.view.api.Readable]] {
	String read()
}

}

@enduml

PlantUML version 1.2017.15(Mon Jul 03 18:45:34 CEST 2017)
(EPL source distribution)
Java Runtime: Java(TM) SE Runtime Environment
JVM: Java HotSpot(TM) 64-Bit Server VM
Java Version: 1.8.0_112-b16
Operating System: Mac OS X
OS Version: 10.13.2
Default Encoding: UTF-8
Language: de
Country: DE
--></g></svg>