<?xml version="1.0" encoding="UTF-8" standalone="no"?><svg xmlns="http://www.w3.org/2000/svg" xmlns:xlink="http://www.w3.org/1999/xlink" contentScriptType="application/ecmascript" contentStyleType="text/css" height="414px" preserveAspectRatio="none" style="width:508px;height:414px;" version="1.1" viewBox="0 0 508 414" width="508px" zoomAndPan="magnify"><defs><filter height="300%" id="f1glkv965lvqig" width="300%" x="-1" y="-1"><feGaussianBlur result="blurOut" stdDeviation="2.0"/><feColorMatrix in="blurOut" result="blurOut2" type="matrix" values="0 0 0 0 0 0 0 0 0 0 0 0 0 0 0 0 0 0 .4 0"/><feOffset dx="4.0" dy="4.0" in="blurOut2" result="blurOut3"/><feBlend in="SourceGraphic" in2="blurOut3" mode="normal"/></filter></defs><g><!--cluster edu.kit.wavelength.client.view.exercise--><polygon fill="#FFFFFF" filter="url(#f1glkv965lvqig)" points="14,16,294,16,301,38.4883,486,38.4883,486,402,14,402,14,16" style="stroke: #000000; stroke-width: 2.0;"/><line style="stroke: #000000; stroke-width: 2.0;" x1="14" x2="301" y1="38.4883" y2="38.4883"/><text fill="#000000" font-family="sans-serif" font-size="14" font-weight="bold" lengthAdjust="spacingAndGlyphs" textLength="274" x="18" y="31.5352">edu.kit.wavelength.client.view.exercise</text><!--class ConcreteExercise--><a target="_top" xlink:actuate="onRequest" xlink:href="java:edu.kit.wavelength.client.view.exercise.ConcreteExercise" xlink:show="new" xlink:title="java:edu.kit.wavelength.client.view.exercise.ConcreteExercise" xlink:type="simple"><rect fill="#FEFECE" filter="url(#f1glkv965lvqig)" height="177.5508" id="ConcreteExercise" style="stroke: #A80036; stroke-width: 1.5;" width="456" x="22" y="216"/><ellipse cx="196.25" cy="232" fill="#ADD1B2" rx="11" ry="11" style="stroke: #A80036; stroke-width: 1.0;"/><path d="M199.2231,237.6431 Q198.6421,237.9419 198.0029,238.0913 Q197.3638,238.2407 196.6582,238.2407 Q194.1514,238.2407 192.8315,236.5889 Q191.5117,234.937 191.5117,231.8159 Q191.5117,228.6865 192.8315,227.0347 Q194.1514,225.3828 196.6582,225.3828 Q197.3638,225.3828 198.0112,225.5322 Q198.6587,225.6816 199.2231,225.9805 L199.2231,228.7031 Q198.5923,228.1221 197.9988,227.8523 Q197.4053,227.5825 196.7744,227.5825 Q195.4297,227.5825 194.7449,228.6492 Q194.0601,229.7158 194.0601,231.8159 Q194.0601,233.9077 194.7449,234.9744 Q195.4297,236.041 196.7744,236.041 Q197.4053,236.041 197.9988,235.7712 Q198.5923,235.5015 199.2231,234.9204 Z "/><text fill="#000000" font-family="sans-serif" font-size="12" lengthAdjust="spacingAndGlyphs" textLength="99" x="216.75" y="236.5352">ConcreteExercise</text><line style="stroke: #A80036; stroke-width: 1.5;" x1="23" x2="477" y1="248" y2="248"/><rect fill="none" height="6" style="stroke: #C82930; stroke-width: 1.0;" width="6" x="30" y="256.9775"/><text fill="#000000" font-family="sans-serif" font-size="11" lengthAdjust="spacingAndGlyphs" textLength="64" x="42" y="262.6348">String name</text><rect fill="none" height="6" style="stroke: #C82930; stroke-width: 1.0;" width="6" x="30" y="269.9326"/><text fill="#000000" font-family="sans-serif" font-size="11" lengthAdjust="spacingAndGlyphs" textLength="57" x="42" y="275.5898">String task</text><rect fill="none" height="6" style="stroke: #C82930; stroke-width: 1.0;" width="6" x="30" y="282.8877"/><text fill="#000000" font-family="sans-serif" font-size="11" lengthAdjust="spacingAndGlyphs" textLength="79" x="42" y="288.5449">String solution</text><rect fill="none" height="6" style="stroke: #C82930; stroke-width: 1.0;" width="6" x="30" y="295.8428"/><text fill="#000000" font-family="sans-serif" font-size="11" lengthAdjust="spacingAndGlyphs" textLength="110" x="42" y="301.5">String predefinitions</text><line style="stroke: #A80036; stroke-width: 1.5;" x1="23" x2="477" y1="307.8203" y2="307.8203"/><ellipse cx="33" cy="319.7979" fill="#84BE84" rx="3" ry="3" style="stroke: #038048; stroke-width: 1.0;"/><text fill="#000000" font-family="sans-serif" font-size="11" lengthAdjust="spacingAndGlyphs" textLength="430" x="42" y="322.4551">ConcreteExercise(String name, String task, String solution, String predefinitions)</text><ellipse cx="33" cy="332.7529" fill="#84BE84" rx="3" ry="3" style="stroke: #038048; stroke-width: 1.0;"/><text fill="#000000" font-family="sans-serif" font-size="11" lengthAdjust="spacingAndGlyphs" textLength="90" x="42" y="335.4102">String getName()</text><ellipse cx="33" cy="345.708" fill="#84BE84" rx="3" ry="3" style="stroke: #038048; stroke-width: 1.0;"/><text fill="#000000" font-family="sans-serif" font-size="11" lengthAdjust="spacingAndGlyphs" textLength="85" x="42" y="348.3652">String getTask()</text><ellipse cx="33" cy="358.6631" fill="#84BE84" rx="3" ry="3" style="stroke: #038048; stroke-width: 1.0;"/><text fill="#000000" font-family="sans-serif" font-size="11" lengthAdjust="spacingAndGlyphs" textLength="104" x="42" y="361.3203">String getSolution()</text><ellipse cx="33" cy="371.6182" fill="#84BE84" rx="3" ry="3" style="stroke: #038048; stroke-width: 1.0;"/><text fill="#000000" font-family="sans-serif" font-size="11" lengthAdjust="spacingAndGlyphs" textLength="147" x="42" y="374.2754">boolean hasPredefinitions()</text><ellipse cx="33" cy="384.5732" fill="#84BE84" rx="3" ry="3" style="stroke: #038048; stroke-width: 1.0;"/><text fill="#000000" font-family="sans-serif" font-size="11" lengthAdjust="spacingAndGlyphs" textLength="134" x="42" y="387.2305">String getPredefinitions()</text></a><!--class Exercise--><a target="_top" xlink:actuate="onRequest" xlink:href="java:edu.kit.wavelength.client.view.exercise.Exercise" xlink:show="new" xlink:title="java:edu.kit.wavelength.client.view.exercise.Exercise" xlink:type="simple"><rect fill="#FEFECE" filter="url(#f1glkv965lvqig)" height="112.7754" id="Exercise" style="stroke: #A80036; stroke-width: 1.5;" width="159" x="188.5" y="43"/><ellipse cx="239.75" cy="59" fill="#B4A7E5" rx="11" ry="11" style="stroke: #A80036; stroke-width: 1.0;"/><path d="M235.6777,54.7651 L235.6777,52.6069 L243.0571,52.6069 L243.0571,54.7651 L240.5918,54.7651 L240.5918,62.8418 L243.0571,62.8418 L243.0571,65 L235.6777,65 L235.6777,62.8418 L238.1431,62.8418 L238.1431,54.7651 Z "/><text fill="#000000" font-family="sans-serif" font-size="12" font-style="italic" lengthAdjust="spacingAndGlyphs" textLength="48" x="260.25" y="63.5352">Exercise</text><line style="stroke: #A80036; stroke-width: 1.5;" x1="189.5" x2="346.5" y1="75" y2="75"/><line style="stroke: #A80036; stroke-width: 1.5;" x1="189.5" x2="346.5" y1="83" y2="83"/><text fill="#000000" font-family="sans-serif" font-size="11" lengthAdjust="spacingAndGlyphs" textLength="90" x="194.5" y="97.6348">String getName()</text><text fill="#000000" font-family="sans-serif" font-size="11" lengthAdjust="spacingAndGlyphs" textLength="85" x="194.5" y="110.5898">String getTask()</text><text fill="#000000" font-family="sans-serif" font-size="11" lengthAdjust="spacingAndGlyphs" textLength="104" x="194.5" y="123.5449">String getSolution()</text><text fill="#000000" font-family="sans-serif" font-size="11" lengthAdjust="spacingAndGlyphs" textLength="147" x="194.5" y="136.5">boolean hasPredefinitions()</text><text fill="#000000" font-family="sans-serif" font-size="11" lengthAdjust="spacingAndGlyphs" textLength="134" x="194.5" y="149.4551">String getPredefinitions()</text></a><!--class Exercises--><a target="_top" xlink:actuate="onRequest" xlink:href="java:edu.kit.wavelength.client.view.exercise.Exercises" xlink:show="new" xlink:title="java:edu.kit.wavelength.client.view.exercise.Exercises" xlink:type="simple"><rect fill="#FEFECE" filter="url(#f1glkv965lvqig)" height="60.9551" id="Exercises" style="stroke: #A80036; stroke-width: 1.5;" width="131" x="22.5" y="69"/><ellipse cx="57.75" cy="85" fill="#ADD1B2" rx="11" ry="11" style="stroke: #A80036; stroke-width: 1.0;"/><path d="M60.7231,90.6431 Q60.1421,90.9419 59.5029,91.0913 Q58.8638,91.2407 58.1582,91.2407 Q55.6514,91.2407 54.3315,89.5889 Q53.0117,87.937 53.0117,84.8159 Q53.0117,81.6865 54.3315,80.0347 Q55.6514,78.3828 58.1582,78.3828 Q58.8638,78.3828 59.5112,78.5322 Q60.1587,78.6816 60.7231,78.9805 L60.7231,81.7031 Q60.0923,81.1221 59.4988,80.8523 Q58.9053,80.5825 58.2744,80.5825 Q56.9297,80.5825 56.2449,81.6492 Q55.5601,82.7158 55.5601,84.8159 Q55.5601,86.9077 56.2449,87.9744 Q56.9297,89.041 58.2744,89.041 Q58.9053,89.041 59.4988,88.7712 Q60.0923,88.5015 60.7231,87.9204 Z "/><text fill="#000000" font-family="sans-serif" font-size="12" lengthAdjust="spacingAndGlyphs" textLength="54" x="76.25" y="89.5352">Exercises</text><line style="stroke: #A80036; stroke-width: 1.5;" x1="23.5" x2="152.5" y1="101" y2="101"/><line style="stroke: #A80036; stroke-width: 1.5;" x1="23.5" x2="152.5" y1="109" y2="109"/><ellipse cx="33.5" cy="120.9775" fill="#84BE84" rx="3" ry="3" style="stroke: #038048; stroke-width: 1.0;"/><text fill="#000000" font-family="sans-serif" font-size="11" lengthAdjust="spacingAndGlyphs" text-decoration="underline" textLength="105" x="42.5" y="123.6348">List&lt;Exercise&gt; all()</text><line style="stroke: #000000; stroke-width: 1.0;" x1="42.5" x2="147.5" y1="125.6348" y2="125.6348"/></a><!--link Exercise to ConcreteExercise--><path d="M261.264,176.4029 C260.1411,189.2219 258.968,202.6149 257.8209,215.7111 " fill="none" id="Exercise-ConcreteExercise" style="stroke: #A80036; stroke-width: 1.0; stroke-dasharray: 7.0,7.0;"/><polygon fill="none" points="254.3152,175.5107,263.0338,156.1978,268.2618,176.7323,254.3152,175.5107" style="stroke: #A80036; stroke-width: 1.0;"/><!--
@startuml
package edu.kit.wavelength.client.view.exercise <<Folder>> {
class ConcreteExercise [[java:edu.kit.wavelength.client.view.exercise.ConcreteExercise]] {
	-String name
	-String task
	-String solution
	-String predefinitions
	+ConcreteExercise(String name, String task, String solution, String predefinitions)
	+String getName()
	+String getTask()
	+String getSolution()
	+boolean hasPredefinitions()
	+String getPredefinitions()
}
interface Exercise [[java:edu.kit.wavelength.client.view.exercise.Exercise]] {
}
Exercise <|.. ConcreteExercise
class Exercises [[java:edu.kit.wavelength.client.view.exercise.Exercises]] {
	+{static}List<Exercise> all()
}
interface Exercise [[java:edu.kit.wavelength.client.view.exercise.Exercise]] {
	String getName()
	String getTask()
	String getSolution()
	boolean hasPredefinitions()
	String getPredefinitions()
}

}

@enduml

PlantUML version 1.2017.15(Mon Jul 03 18:45:34 CEST 2017)
(EPL source distribution)
Java Runtime: Java(TM) SE Runtime Environment
JVM: Java HotSpot(TM) 64-Bit Server VM
Java Version: 1.8.0_112-b16
Operating System: Mac OS X
OS Version: 10.13.2
Default Encoding: UTF-8
Language: de
Country: DE
--></g></svg>