<?xml version="1.0" encoding="UTF-8" standalone="no"?><svg xmlns="http://www.w3.org/2000/svg" xmlns:xlink="http://www.w3.org/1999/xlink" contentScriptType="application/ecmascript" contentStyleType="text/css" height="457px" preserveAspectRatio="none" style="width:1037px;height:457px;" version="1.1" viewBox="0 0 1037 457" width="1037px" zoomAndPan="magnify"><defs><filter height="300%" id="f155gakebh2e8t" width="300%" x="-1" y="-1"><feGaussianBlur result="blurOut" stdDeviation="2.0"/><feColorMatrix in="blurOut" result="blurOut2" type="matrix" values="0 0 0 0 0 0 0 0 0 0 0 0 0 0 0 0 0 0 .4 0"/><feOffset dx="4.0" dy="4.0" in="blurOut2" result="blurOut3"/><feBlend in="SourceGraphic" in2="blurOut3" mode="normal"/></filter></defs><g><!--cluster edu.kit.wavelength.client.model.library--><polygon fill="#FFFFFF" filter="url(#f155gakebh2e8t)" points="14,16,295,16,302,38.4883,1015,38.4883,1015,445,14,445,14,16" style="stroke: #000000; stroke-width: 2.0;"/><line style="stroke: #000000; stroke-width: 2.0;" x1="14" x2="302" y1="38.4883" y2="38.4883"/><text fill="#000000" font-family="sans-serif" font-size="14" font-weight="bold" lengthAdjust="spacingAndGlyphs" textLength="275" x="18" y="31.5352">edu.kit.wavelength.client.model.library</text><!--class TuplesAndLists--><a target="_top" xlink:actuate="onRequest" xlink:href="java:edu.kit.wavelength.client.model.library.TuplesAndLists" xlink:show="new" xlink:title="java:edu.kit.wavelength.client.model.library.TuplesAndLists" xlink:type="simple"><rect fill="#FEFECE" filter="url(#f155gakebh2e8t)" height="99.8203" id="TuplesAndLists" style="stroke: #A80036; stroke-width: 1.5;" width="220" x="22" y="337"/><ellipse cx="84.25" cy="353" fill="#ADD1B2" rx="11" ry="11" style="stroke: #A80036; stroke-width: 1.0;"/><path d="M87.2231,358.6431 Q86.6421,358.9419 86.0029,359.0913 Q85.3638,359.2407 84.6582,359.2407 Q82.1514,359.2407 80.8315,357.5889 Q79.5117,355.937 79.5117,352.8159 Q79.5117,349.6865 80.8315,348.0347 Q82.1514,346.3828 84.6582,346.3828 Q85.3638,346.3828 86.0112,346.5322 Q86.6587,346.6816 87.2231,346.9805 L87.2231,349.7031 Q86.5923,349.1221 85.9988,348.8523 Q85.4053,348.5825 84.7744,348.5825 Q83.4297,348.5825 82.7449,349.6492 Q82.0601,350.7158 82.0601,352.8159 Q82.0601,354.9077 82.7449,355.9744 Q83.4297,357.041 84.7744,357.041 Q85.4053,357.041 85.9988,356.7712 Q86.5923,356.5015 87.2231,355.9204 Z "/><text fill="#000000" font-family="sans-serif" font-size="12" lengthAdjust="spacingAndGlyphs" textLength="87" x="104.75" y="357.5352">TuplesAndLists</text><line style="stroke: #A80036; stroke-width: 1.5;" x1="23" x2="241" y1="369" y2="369"/><line style="stroke: #A80036; stroke-width: 1.5;" x1="23" x2="241" y1="377" y2="377"/><ellipse cx="33" cy="388.9775" fill="#84BE84" rx="3" ry="3" style="stroke: #038048; stroke-width: 1.0;"/><text fill="#000000" font-family="sans-serif" font-size="11" lengthAdjust="spacingAndGlyphs" textLength="190" x="42" y="391.6348">LambdaTerm getTerm(String name)</text><ellipse cx="33" cy="401.9326" fill="#84BE84" rx="3" ry="3" style="stroke: #038048; stroke-width: 1.0;"/><text fill="#000000" font-family="sans-serif" font-size="11" lengthAdjust="spacingAndGlyphs" textLength="194" x="42" y="404.5898">boolean containsName(String name)</text><ellipse cx="33" cy="414.8877" fill="#84BE84" rx="3" ry="3" style="stroke: #038048; stroke-width: 1.0;"/><text fill="#000000" font-family="sans-serif" font-size="11" lengthAdjust="spacingAndGlyphs" textLength="90" x="42" y="417.5449">String getName()</text><ellipse cx="33" cy="427.8428" fill="#84BE84" rx="3" ry="3" style="stroke: #038048; stroke-width: 1.0;"/><text fill="#000000" font-family="sans-serif" font-size="11" lengthAdjust="spacingAndGlyphs" textLength="87" x="42" y="430.5">String serialize()</text></a><!--class Library--><a target="_top" xlink:actuate="onRequest" xlink:href="java:edu.kit.wavelength.client.model.library.Library" xlink:show="new" xlink:title="java:edu.kit.wavelength.client.model.library.Library" xlink:type="simple"><rect fill="#FEFECE" filter="url(#f155gakebh2e8t)" height="86.8652" id="Library" style="stroke: #A80036; stroke-width: 1.5;" width="206" x="363" y="190"/><ellipse cx="441.75" cy="206" fill="#B4A7E5" rx="11" ry="11" style="stroke: #A80036; stroke-width: 1.0;"/><path d="M437.6777,201.7651 L437.6777,199.6069 L445.0571,199.6069 L445.0571,201.7651 L442.5918,201.7651 L442.5918,209.8418 L445.0571,209.8418 L445.0571,212 L437.6777,212 L437.6777,209.8418 L440.1431,209.8418 L440.1431,201.7651 Z "/><text fill="#000000" font-family="sans-serif" font-size="12" font-style="italic" lengthAdjust="spacingAndGlyphs" textLength="40" x="462.25" y="210.5352">Library</text><line style="stroke: #A80036; stroke-width: 1.5;" x1="364" x2="568" y1="222" y2="222"/><line style="stroke: #A80036; stroke-width: 1.5;" x1="364" x2="568" y1="230" y2="230"/><text fill="#000000" font-family="sans-serif" font-size="11" lengthAdjust="spacingAndGlyphs" textLength="190" x="369" y="244.6348">LambdaTerm getTerm(String name)</text><text fill="#000000" font-family="sans-serif" font-size="11" lengthAdjust="spacingAndGlyphs" textLength="194" x="369" y="257.5898">boolean containsName(String name)</text><text fill="#000000" font-family="sans-serif" font-size="11" lengthAdjust="spacingAndGlyphs" textLength="90" x="369" y="270.5449">String getName()</text></a><!--class Libraries--><a target="_top" xlink:actuate="onRequest" xlink:href="java:edu.kit.wavelength.client.model.library.Libraries" xlink:show="new" xlink:title="java:edu.kit.wavelength.client.model.library.Libraries" xlink:type="simple"><rect fill="#FEFECE" filter="url(#f155gakebh2e8t)" height="86.8652" id="Libraries" style="stroke: #A80036; stroke-width: 1.5;" width="218" x="709" y="43"/><ellipse cx="788.75" cy="59" fill="#ADD1B2" rx="11" ry="11" style="stroke: #A80036; stroke-width: 1.0;"/><path d="M791.7231,64.6431 Q791.1421,64.9419 790.5029,65.0913 Q789.8638,65.2407 789.1582,65.2407 Q786.6514,65.2407 785.3315,63.5889 Q784.0117,61.937 784.0117,58.8159 Q784.0117,55.6865 785.3315,54.0347 Q786.6514,52.3828 789.1582,52.3828 Q789.8638,52.3828 790.5112,52.5322 Q791.1587,52.6816 791.7231,52.9805 L791.7231,55.7031 Q791.0923,55.1221 790.4988,54.8523 Q789.9053,54.5825 789.2744,54.5825 Q787.9297,54.5825 787.2449,55.6492 Q786.5601,56.7158 786.5601,58.8159 Q786.5601,60.9077 787.2449,61.9744 Q787.9297,63.041 789.2744,63.041 Q789.9053,63.041 790.4988,62.7712 Q791.0923,62.5015 791.7231,61.9204 Z "/><text fill="#000000" font-family="sans-serif" font-size="12" lengthAdjust="spacingAndGlyphs" textLength="50" x="809.25" y="63.5352">Libraries</text><line style="stroke: #A80036; stroke-width: 1.5;" x1="710" x2="926" y1="75" y2="75"/><line style="stroke: #A80036; stroke-width: 1.5;" x1="710" x2="926" y1="83" y2="83"/><ellipse cx="720" cy="94.9775" fill="#84BE84" rx="3" ry="3" style="stroke: #038048; stroke-width: 1.0;"/><text fill="#000000" font-family="sans-serif" font-size="11" lengthAdjust="spacingAndGlyphs" text-decoration="underline" textLength="98" x="729" y="97.6348">List&lt;Library&gt; all()</text><line style="stroke: #000000; stroke-width: 1.0;" x1="729" x2="827" y1="99.6348" y2="99.6348"/><ellipse cx="720" cy="107.9326" fill="#84BE84" rx="3" ry="3" style="stroke: #038048; stroke-width: 1.0;"/><text fill="#000000" font-family="sans-serif" font-size="11" lengthAdjust="spacingAndGlyphs" text-decoration="underline" textLength="192" x="729" y="110.5898">Library deserialize(String serialized)</text><line style="stroke: #000000; stroke-width: 1.0;" x1="729" x2="921" y1="112.5898" y2="112.5898"/><rect fill="#F24D5C" height="6" style="stroke: #C82930; stroke-width: 1.0;" width="6" x="717" y="117.8877"/><text fill="#000000" font-family="sans-serif" font-size="11" lengthAdjust="spacingAndGlyphs" textLength="55" x="729" y="123.5449">Libraries()</text></a><!--class Serializable--><a target="_top" xlink:actuate="onRequest" xlink:href="java:edu.kit.wavelength.client.model.serialization.Serializable" xlink:show="new" xlink:title="java:edu.kit.wavelength.client.model.serialization.Serializable" xlink:type="simple"><rect fill="#FEFECE" filter="url(#f155gakebh2e8t)" height="48" id="Serializable" style="stroke: #A80036; stroke-width: 1.5;" width="98" x="417" y="62.5"/><ellipse cx="432" cy="78.5" fill="#B4A7E5" rx="11" ry="11" style="stroke: #A80036; stroke-width: 1.0;"/><path d="M427.9277,74.2651 L427.9277,72.1069 L435.3071,72.1069 L435.3071,74.2651 L432.8418,74.2651 L432.8418,82.3418 L435.3071,82.3418 L435.3071,84.5 L427.9277,84.5 L427.9277,82.3418 L430.3931,82.3418 L430.3931,74.2651 Z "/><text fill="#000000" font-family="sans-serif" font-size="12" font-style="italic" lengthAdjust="spacingAndGlyphs" textLength="66" x="446" y="83.0352">Serializable</text><line style="stroke: #A80036; stroke-width: 1.5;" x1="418" x2="514" y1="94.5" y2="94.5"/><line style="stroke: #A80036; stroke-width: 1.5;" x1="418" x2="514" y1="102.5" y2="102.5"/></a><!--class YCombinator--><a target="_top" xlink:actuate="onRequest" xlink:href="java:edu.kit.wavelength.client.model.library.YCombinator" xlink:show="new" xlink:title="java:edu.kit.wavelength.client.model.library.YCombinator" xlink:type="simple"><rect fill="#FEFECE" filter="url(#f155gakebh2e8t)" height="99.8203" id="YCombinator" style="stroke: #A80036; stroke-width: 1.5;" width="220" x="277" y="337"/><ellipse cx="345.75" cy="353" fill="#ADD1B2" rx="11" ry="11" style="stroke: #A80036; stroke-width: 1.0;"/><path d="M348.7231,358.6431 Q348.1421,358.9419 347.5029,359.0913 Q346.8638,359.2407 346.1582,359.2407 Q343.6514,359.2407 342.3315,357.5889 Q341.0117,355.937 341.0117,352.8159 Q341.0117,349.6865 342.3315,348.0347 Q343.6514,346.3828 346.1582,346.3828 Q346.8638,346.3828 347.5112,346.5322 Q348.1587,346.6816 348.7231,346.9805 L348.7231,349.7031 Q348.0923,349.1221 347.4988,348.8523 Q346.9053,348.5825 346.2744,348.5825 Q344.9297,348.5825 344.2449,349.6492 Q343.5601,350.7158 343.5601,352.8159 Q343.5601,354.9077 344.2449,355.9744 Q344.9297,357.041 346.2744,357.041 Q346.9053,357.041 347.4988,356.7712 Q348.0923,356.5015 348.7231,355.9204 Z "/><text fill="#000000" font-family="sans-serif" font-size="12" lengthAdjust="spacingAndGlyphs" textLength="74" x="366.25" y="357.5352">YCombinator</text><line style="stroke: #A80036; stroke-width: 1.5;" x1="278" x2="496" y1="369" y2="369"/><line style="stroke: #A80036; stroke-width: 1.5;" x1="278" x2="496" y1="377" y2="377"/><ellipse cx="288" cy="388.9775" fill="#84BE84" rx="3" ry="3" style="stroke: #038048; stroke-width: 1.0;"/><text fill="#000000" font-family="sans-serif" font-size="11" lengthAdjust="spacingAndGlyphs" textLength="190" x="297" y="391.6348">LambdaTerm getTerm(String name)</text><ellipse cx="288" cy="401.9326" fill="#84BE84" rx="3" ry="3" style="stroke: #038048; stroke-width: 1.0;"/><text fill="#000000" font-family="sans-serif" font-size="11" lengthAdjust="spacingAndGlyphs" textLength="194" x="297" y="404.5898">boolean containsName(String name)</text><ellipse cx="288" cy="414.8877" fill="#84BE84" rx="3" ry="3" style="stroke: #038048; stroke-width: 1.0;"/><text fill="#000000" font-family="sans-serif" font-size="11" lengthAdjust="spacingAndGlyphs" textLength="90" x="297" y="417.5449">String getName()</text><ellipse cx="288" cy="427.8428" fill="#84BE84" rx="3" ry="3" style="stroke: #038048; stroke-width: 1.0;"/><text fill="#000000" font-family="sans-serif" font-size="11" lengthAdjust="spacingAndGlyphs" textLength="87" x="297" y="430.5">String serialize()</text></a><!--class NaturalNumbers--><a target="_top" xlink:actuate="onRequest" xlink:href="java:edu.kit.wavelength.client.model.library.NaturalNumbers" xlink:show="new" xlink:title="java:edu.kit.wavelength.client.model.library.NaturalNumbers" xlink:type="simple"><rect fill="#FEFECE" filter="url(#f155gakebh2e8t)" height="99.8203" id="NaturalNumbers" style="stroke: #A80036; stroke-width: 1.5;" width="220" x="532" y="337"/><ellipse cx="590.25" cy="353" fill="#ADD1B2" rx="11" ry="11" style="stroke: #A80036; stroke-width: 1.0;"/><path d="M593.2231,358.6431 Q592.6421,358.9419 592.0029,359.0913 Q591.3638,359.2407 590.6582,359.2407 Q588.1514,359.2407 586.8315,357.5889 Q585.5117,355.937 585.5117,352.8159 Q585.5117,349.6865 586.8315,348.0347 Q588.1514,346.3828 590.6582,346.3828 Q591.3638,346.3828 592.0112,346.5322 Q592.6587,346.6816 593.2231,346.9805 L593.2231,349.7031 Q592.5923,349.1221 591.9988,348.8523 Q591.4053,348.5825 590.7744,348.5825 Q589.4297,348.5825 588.7449,349.6492 Q588.0601,350.7158 588.0601,352.8159 Q588.0601,354.9077 588.7449,355.9744 Q589.4297,357.041 590.7744,357.041 Q591.4053,357.041 591.9988,356.7712 Q592.5923,356.5015 593.2231,355.9204 Z "/><text fill="#000000" font-family="sans-serif" font-size="12" lengthAdjust="spacingAndGlyphs" textLength="95" x="610.75" y="357.5352">NaturalNumbers</text><line style="stroke: #A80036; stroke-width: 1.5;" x1="533" x2="751" y1="369" y2="369"/><line style="stroke: #A80036; stroke-width: 1.5;" x1="533" x2="751" y1="377" y2="377"/><ellipse cx="543" cy="388.9775" fill="#84BE84" rx="3" ry="3" style="stroke: #038048; stroke-width: 1.0;"/><text fill="#000000" font-family="sans-serif" font-size="11" lengthAdjust="spacingAndGlyphs" textLength="190" x="552" y="391.6348">LambdaTerm getTerm(String name)</text><ellipse cx="543" cy="401.9326" fill="#84BE84" rx="3" ry="3" style="stroke: #038048; stroke-width: 1.0;"/><text fill="#000000" font-family="sans-serif" font-size="11" lengthAdjust="spacingAndGlyphs" textLength="194" x="552" y="404.5898">boolean containsName(String name)</text><ellipse cx="543" cy="414.8877" fill="#84BE84" rx="3" ry="3" style="stroke: #038048; stroke-width: 1.0;"/><text fill="#000000" font-family="sans-serif" font-size="11" lengthAdjust="spacingAndGlyphs" textLength="90" x="552" y="417.5449">String getName()</text><ellipse cx="543" cy="427.8428" fill="#84BE84" rx="3" ry="3" style="stroke: #038048; stroke-width: 1.0;"/><text fill="#000000" font-family="sans-serif" font-size="11" lengthAdjust="spacingAndGlyphs" textLength="87" x="552" y="430.5">String serialize()</text></a><!--class Boolean--><a target="_top" xlink:actuate="onRequest" xlink:href="java:edu.kit.wavelength.client.model.library.Boolean" xlink:show="new" xlink:title="java:edu.kit.wavelength.client.model.library.Boolean" xlink:type="simple"><rect fill="#FEFECE" filter="url(#f155gakebh2e8t)" height="99.8203" id="Boolean" style="stroke: #A80036; stroke-width: 1.5;" width="220" x="787" y="337"/><ellipse cx="870.25" cy="353" fill="#ADD1B2" rx="11" ry="11" style="stroke: #A80036; stroke-width: 1.0;"/><path d="M873.2231,358.6431 Q872.6421,358.9419 872.0029,359.0913 Q871.3638,359.2407 870.6582,359.2407 Q868.1514,359.2407 866.8315,357.5889 Q865.5117,355.937 865.5117,352.8159 Q865.5117,349.6865 866.8315,348.0347 Q868.1514,346.3828 870.6582,346.3828 Q871.3638,346.3828 872.0112,346.5322 Q872.6587,346.6816 873.2231,346.9805 L873.2231,349.7031 Q872.5923,349.1221 871.9988,348.8523 Q871.4053,348.5825 870.7744,348.5825 Q869.4297,348.5825 868.7449,349.6492 Q868.0601,350.7158 868.0601,352.8159 Q868.0601,354.9077 868.7449,355.9744 Q869.4297,357.041 870.7744,357.041 Q871.4053,357.041 871.9988,356.7712 Q872.5923,356.5015 873.2231,355.9204 Z "/><text fill="#000000" font-family="sans-serif" font-size="12" lengthAdjust="spacingAndGlyphs" textLength="45" x="890.75" y="357.5352">Boolean</text><line style="stroke: #A80036; stroke-width: 1.5;" x1="788" x2="1006" y1="369" y2="369"/><line style="stroke: #A80036; stroke-width: 1.5;" x1="788" x2="1006" y1="377" y2="377"/><ellipse cx="798" cy="388.9775" fill="#84BE84" rx="3" ry="3" style="stroke: #038048; stroke-width: 1.0;"/><text fill="#000000" font-family="sans-serif" font-size="11" lengthAdjust="spacingAndGlyphs" textLength="190" x="807" y="391.6348">LambdaTerm getTerm(String name)</text><ellipse cx="798" cy="401.9326" fill="#84BE84" rx="3" ry="3" style="stroke: #038048; stroke-width: 1.0;"/><text fill="#000000" font-family="sans-serif" font-size="11" lengthAdjust="spacingAndGlyphs" textLength="194" x="807" y="404.5898">boolean containsName(String name)</text><ellipse cx="798" cy="414.8877" fill="#84BE84" rx="3" ry="3" style="stroke: #038048; stroke-width: 1.0;"/><text fill="#000000" font-family="sans-serif" font-size="11" lengthAdjust="spacingAndGlyphs" textLength="90" x="807" y="417.5449">String getName()</text><ellipse cx="798" cy="427.8428" fill="#84BE84" rx="3" ry="3" style="stroke: #038048; stroke-width: 1.0;"/><text fill="#000000" font-family="sans-serif" font-size="11" lengthAdjust="spacingAndGlyphs" textLength="87" x="807" y="430.5">String serialize()</text></a><!--link Library to TuplesAndLists--><path d="M352.6795,285.5799 C316.5642,302.1778 276.7009,320.4982 240.9055,336.9491 " fill="none" id="Library-TuplesAndLists" style="stroke: #A80036; stroke-width: 1.0; stroke-dasharray: 7.0,7.0;"/><polygon fill="none" points="350.0865,279.0678,371.1824,277.0763,355.9329,291.7887,350.0865,279.0678" style="stroke: #A80036; stroke-width: 1.0;"/><!--link Serializable to Library--><path d="M466,130.9633 C466,149.6361 466,171.2883 466,189.8708 " fill="none" id="Serializable-Library" style="stroke: #A80036; stroke-width: 1.0;"/><polygon fill="none" points="459.0001,130.7741,466,110.7741,473.0001,130.774,459.0001,130.7741" style="stroke: #A80036; stroke-width: 1.0;"/><!--link Library to YCombinator--><path d="M434.1969,295.2945 C427.0977,309.0886 419.6534,323.5531 412.83,336.8114 " fill="none" id="Library-YCombinator" style="stroke: #A80036; stroke-width: 1.0; stroke-dasharray: 7.0,7.0;"/><polygon fill="none" points="428.1968,291.6561,443.5731,277.0763,440.6449,298.0627,428.1968,291.6561" style="stroke: #A80036; stroke-width: 1.0;"/><!--link Library to NaturalNumbers--><path d="M531.2275,290.3887 C548.6909,305.6196 567.4393,321.9712 584.4548,336.8114 " fill="none" id="Library-NaturalNumbers" style="stroke: #A80036; stroke-width: 1.0; stroke-dasharray: 7.0,7.0;"/><polygon fill="none" points="526.4355,295.4977,515.9638,277.0763,535.6376,284.9467,526.4355,295.4977" style="stroke: #A80036; stroke-width: 1.0;"/><!--link Library to Boolean--><path d="M588.3402,273.6954 C643.9821,292.3501 710.5368,315.1858 770,337 C775.5615,339.0403 781.248,341.1589 786.982,343.3211 " fill="none" id="Library-Boolean" style="stroke: #A80036; stroke-width: 1.0; stroke-dasharray: 7.0,7.0;"/><polygon fill="none" points="585.8935,280.2584,569.1436,267.2799,590.3311,266.9803,585.8935,280.2584" style="stroke: #A80036; stroke-width: 1.0;"/><!--
@startuml
package edu.kit.wavelength.client.model.library <<Folder>> {
class TuplesAndLists [[java:edu.kit.wavelength.client.model.library.TuplesAndLists]] {
	+LambdaTerm getTerm(String name)
	+boolean containsName(String name)
	+String getName()
	+String serialize()
}
interface Library [[java:edu.kit.wavelength.client.model.library.Library]] {
}
Library <|.. TuplesAndLists
class Libraries [[java:edu.kit.wavelength.client.model.library.Libraries]] {
	+{static}List<Library> all()
	+{static}Library deserialize(String serialized)
	-Libraries()
}
interface Library [[java:edu.kit.wavelength.client.model.library.Library]] {
	LambdaTerm getTerm(String name)
	boolean containsName(String name)
	String getName()
}
interface Serializable [[java:edu.kit.wavelength.client.model.serialization.Serializable]] {
}
Serializable <|- - Library
class YCombinator [[java:edu.kit.wavelength.client.model.library.YCombinator]] {
	+LambdaTerm getTerm(String name)
	+boolean containsName(String name)
	+String getName()
	+String serialize()
}
interface Library [[java:edu.kit.wavelength.client.model.library.Library]] {
}
Library <|.. YCombinator
class NaturalNumbers [[java:edu.kit.wavelength.client.model.library.NaturalNumbers]] {
	+LambdaTerm getTerm(String name)
	+boolean containsName(String name)
	+String getName()
	+String serialize()
}
interface Library [[java:edu.kit.wavelength.client.model.library.Library]] {
}
Library <|.. NaturalNumbers
class Boolean [[java:edu.kit.wavelength.client.model.library.Boolean]] {
	+LambdaTerm getTerm(String name)
	+boolean containsName(String name)
	+String getName()
	+String serialize()
}
interface Library [[java:edu.kit.wavelength.client.model.library.Library]] {
}
Library <|.. Boolean

}

@enduml

PlantUML version 1.2017.15(Mon Jul 03 18:45:34 CEST 2017)
(EPL source distribution)
Java Runtime: Java(TM) SE Runtime Environment
JVM: Java HotSpot(TM) 64-Bit Server VM
Java Version: 1.8.0_112-b16
Operating System: Mac OS X
OS Version: 10.13.2
Default Encoding: UTF-8
Language: de
Country: DE
--></g></svg>