<?xml version="1.0" encoding="UTF-8" standalone="no"?><svg xmlns="http://www.w3.org/2000/svg" xmlns:xlink="http://www.w3.org/1999/xlink" contentScriptType="application/ecmascript" contentStyleType="text/css" height="241px" preserveAspectRatio="none" style="width:580px;height:241px;" version="1.1" viewBox="0 0 580 241" width="580px" zoomAndPan="magnify"><defs><filter height="300%" id="f1f477o96cwrtd" width="300%" x="-1" y="-1"><feGaussianBlur result="blurOut" stdDeviation="2.0"/><feColorMatrix in="blurOut" result="blurOut2" type="matrix" values="0 0 0 0 0 0 0 0 0 0 0 0 0 0 0 0 0 0 .4 0"/><feOffset dx="4.0" dy="4.0" in="blurOut2" result="blurOut3"/><feBlend in="SourceGraphic" in2="blurOut3" mode="normal"/></filter></defs><g><!--cluster edu.kit.wavelength.client.model--><polygon fill="#FFFFFF" filter="url(#f1f477o96cwrtd)" points="14,16,245,16,252,38.4883,558,38.4883,558,229,14,229,14,16" style="stroke: #000000; stroke-width: 2.0;"/><line style="stroke: #000000; stroke-width: 2.0;" x1="14" x2="252" y1="38.4883" y2="38.4883"/><text fill="#000000" font-family="sans-serif" font-size="14" font-weight="bold" lengthAdjust="spacingAndGlyphs" textLength="225" x="18" y="31.5352">edu.kit.wavelength.client.model</text><!--class ExecutionEngine--><a target="_top" xlink:actuate="onRequest" xlink:href="java:edu.kit.wavelength.client.model.ExecutionEngine" xlink:show="new" xlink:title="java:edu.kit.wavelength.client.model.ExecutionEngine" xlink:type="simple"><rect fill="#FEFECE" filter="url(#f1f477o96cwrtd)" height="177.5508" id="ExecutionEngine" style="stroke: #A80036; stroke-width: 1.5;" width="528" x="22" y="43"/><ellipse cx="235.25" cy="59" fill="#ADD1B2" rx="11" ry="11" style="stroke: #A80036; stroke-width: 1.0;"/><path d="M238.2231,64.6431 Q237.6421,64.9419 237.0029,65.0913 Q236.3638,65.2407 235.6582,65.2407 Q233.1514,65.2407 231.8315,63.5889 Q230.5117,61.937 230.5117,58.8159 Q230.5117,55.6865 231.8315,54.0347 Q233.1514,52.3828 235.6582,52.3828 Q236.3638,52.3828 237.0112,52.5322 Q237.6587,52.6816 238.2231,52.9805 L238.2231,55.7031 Q237.5923,55.1221 236.9988,54.8523 Q236.4053,54.5825 235.7744,54.5825 Q234.4297,54.5825 233.7449,55.6492 Q233.0601,56.7158 233.0601,58.8159 Q233.0601,60.9077 233.7449,61.9744 Q234.4297,63.041 235.7744,63.041 Q236.4053,63.041 236.9988,62.7712 Q237.5923,62.5015 238.2231,61.9204 Z "/><text fill="#000000" font-family="sans-serif" font-size="12" lengthAdjust="spacingAndGlyphs" textLength="93" x="255.75" y="63.5352">ExecutionEngine</text><line style="stroke: #A80036; stroke-width: 1.5;" x1="23" x2="549" y1="75" y2="75"/><line style="stroke: #A80036; stroke-width: 1.5;" x1="23" x2="549" y1="83" y2="83"/><ellipse cx="33" cy="94.9775" fill="#84BE84" rx="3" ry="3" style="stroke: #038048; stroke-width: 1.0;"/><text fill="#000000" font-family="sans-serif" font-size="11" lengthAdjust="spacingAndGlyphs" textLength="502" x="42" y="97.6348">ExecutionEngine(String input, ReductionOrder order, OutputSize size, List&lt;Library&gt; libraries)</text><ellipse cx="33" cy="107.9326" fill="#84BE84" rx="3" ry="3" style="stroke: #038048; stroke-width: 1.0;"/><text fill="#000000" font-family="sans-serif" font-size="11" lengthAdjust="spacingAndGlyphs" textLength="296" x="42" y="110.5898">boolean stepForward(boolean enablePartialApplication)</text><ellipse cx="33" cy="120.8877" fill="#84BE84" rx="3" ry="3" style="stroke: #038048; stroke-width: 1.0;"/><text fill="#000000" font-family="sans-serif" font-size="11" lengthAdjust="spacingAndGlyphs" textLength="196" x="42" y="123.5449">void stepForward(Application redex)</text><ellipse cx="33" cy="133.8428" fill="#84BE84" rx="3" ry="3" style="stroke: #038048; stroke-width: 1.0;"/><text fill="#000000" font-family="sans-serif" font-size="11" lengthAdjust="spacingAndGlyphs" textLength="108" x="42" y="136.5">boolean isFinished()</text><ellipse cx="33" cy="146.7979" fill="#84BE84" rx="3" ry="3" style="stroke: #038048; stroke-width: 1.0;"/><text fill="#000000" font-family="sans-serif" font-size="11" lengthAdjust="spacingAndGlyphs" textLength="107" x="42" y="149.4551">void stepBackward()</text><ellipse cx="33" cy="159.7529" fill="#84BE84" rx="3" ry="3" style="stroke: #038048; stroke-width: 1.0;"/><text fill="#000000" font-family="sans-serif" font-size="11" lengthAdjust="spacingAndGlyphs" textLength="187" x="42" y="162.4102">List&lt;LambdaTerm&gt; getDisplayed()</text><ellipse cx="33" cy="172.708" fill="#84BE84" rx="3" ry="3" style="stroke: #038048; stroke-width: 1.0;"/><text fill="#000000" font-family="sans-serif" font-size="11" lengthAdjust="spacingAndGlyphs" textLength="120" x="42" y="175.3652">LambdaTerm getLast()</text><ellipse cx="33" cy="185.6631" fill="#84BE84" rx="3" ry="3" style="stroke: #038048; stroke-width: 1.0;"/><text fill="#000000" font-family="sans-serif" font-size="11" lengthAdjust="spacingAndGlyphs" textLength="161" x="42" y="188.3203">LambdaTerm displayCurrent()</text><ellipse cx="33" cy="198.6182" fill="#84BE84" rx="3" ry="3" style="stroke: #038048; stroke-width: 1.0;"/><text fill="#000000" font-family="sans-serif" font-size="11" lengthAdjust="spacingAndGlyphs" textLength="277" x="42" y="201.2754">void setReductionOrder(ReductionOrder reduction)</text><ellipse cx="33" cy="211.5732" fill="#84BE84" rx="3" ry="3" style="stroke: #038048; stroke-width: 1.0;"/><text fill="#000000" font-family="sans-serif" font-size="11" lengthAdjust="spacingAndGlyphs" textLength="87" x="42" y="214.2305">String serialize()</text></a><!--
@startuml
package edu.kit.wavelength.client.model <<Folder>> {
class ExecutionEngine [[java:edu.kit.wavelength.client.model.ExecutionEngine]] {
	+ExecutionEngine(String input, ReductionOrder order, OutputSize size, List<Library> libraries)
	+boolean stepForward(boolean enablePartialApplication)
	+void stepForward(Application redex)
	+boolean isFinished()
	+void stepBackward()
	+List<LambdaTerm> getDisplayed()
	+LambdaTerm getLast()
	+LambdaTerm displayCurrent()
	+void setReductionOrder(ReductionOrder reduction)
	+String serialize()
}

}

@enduml

PlantUML version 1.2017.15(Mon Jul 03 18:45:34 CEST 2017)
(EPL source distribution)
Java Runtime: Java(TM) SE Runtime Environment
JVM: Java HotSpot(TM) 64-Bit Server VM
Java Version: 1.8.0_112-b16
Operating System: Mac OS X
OS Version: 10.13.2
Default Encoding: UTF-8
Language: de
Country: DE
--></g></svg>