<?xml version="1.0" encoding="UTF-8" standalone="no"?>
<svg
   xmlns:dc="http://purl.org/dc/elements/1.1/"
   xmlns:cc="http://creativecommons.org/ns#"
   xmlns:rdf="http://www.w3.org/1999/02/22-rdf-syntax-ns#"
   xmlns:svg="http://www.w3.org/2000/svg"
   xmlns="http://www.w3.org/2000/svg"
   xmlns:xlink="http://www.w3.org/1999/xlink"
   xmlns:sodipodi="http://sodipodi.sourceforge.net/DTD/sodipodi-0.dtd"
   xmlns:inkscape="http://www.inkscape.org/namespaces/inkscape"
   contentScriptType="application/ecmascript"
   contentStyleType="text/css"
   height="470px"
   preserveAspectRatio="none"
   style="width:1541px;height:470px;"
   version="1.1"
   viewBox="0 0 1541 470"
   width="1541px"
   zoomAndPan="magnify"
   id="svg221"
   sodipodi:docname="modelOutputPackage.svg"
   inkscape:version="0.92.2 5c3e80d, 2017-08-06">
  <metadata
     id="metadata225">
    <rdf:RDF>
      <cc:Work
         rdf:about="">
        <dc:format>image/svg+xml</dc:format>
        <dc:type
           rdf:resource="http://purl.org/dc/dcmitype/StillImage" />
      </cc:Work>
    </rdf:RDF>
  </metadata>
  <sodipodi:namedview
     pagecolor="#ffffff"
     bordercolor="#666666"
     borderopacity="1"
     objecttolerance="10"
     gridtolerance="10"
     guidetolerance="10"
     inkscape:pageopacity="0"
     inkscape:pageshadow="2"
     inkscape:window-width="1362"
     inkscape:window-height="764"
     id="namedview223"
     showgrid="false"
     inkscape:zoom="0.53471772"
     inkscape:cx="770.5"
     inkscape:cy="235"
     inkscape:window-x="0"
     inkscape:window-y="0"
     inkscape:window-maximized="0"
     inkscape:current-layer="svg221" />
  <defs
     id="defs11">
    <filter
       height="300%"
       id="f1ddod9a4wcjfb"
       width="300%"
       x="-1"
       y="-1">
      <feGaussianBlur
         result="blurOut"
         stdDeviation="2.0"
         id="feGaussianBlur2" />
      <feColorMatrix
         in="blurOut"
         result="blurOut2"
         type="matrix"
         values="0 0 0 0 0 0 0 0 0 0 0 0 0 0 0 0 0 0 .4 0"
         id="feColorMatrix4" />
      <feOffset
         dx="4.0"
         dy="4.0"
         in="blurOut2"
         result="blurOut3"
         id="feOffset6" />
      <feBlend
         in="SourceGraphic"
         in2="blurOut3"
         mode="normal"
         id="feBlend8" />
    </filter>
  </defs>
  <a
     id="a46"
     xlink:type="simple"
     xlink:title="java:edu.kit.wavelength.client.model.output.ResultOnly"
     xlink:show="new"
     xlink:href="java:edu.kit.wavelength.client.model.output.ResultOnly"
     xlink:actuate="onRequest"
     target="_top">
    <rect
       y="343.5"
       x="22"
       width="346"
       style="fill:#fefece;stroke:#a80036;stroke-width:1.5;filter:url(#f1ddod9a4wcjfb)"
       id="ResultOnly"
       height="99.820297" />
    <circle
       r="11"
       id="ellipse20"
       style="fill:#add1b2;stroke:#a80036;stroke-width:1"
       cy="359.5"
       cx="160.75" />
    <path
       inkscape:connector-curvature="0"
       id="path22"
       d="m 163.7231,365.1431 q -0.581,0.2988 -1.2202,0.4482 -0.6391,0.1494 -1.3447,0.1494 -2.5068,0 -3.8267,-1.6518 -1.3198,-1.6519 -1.3198,-4.773 0,-3.1294 1.3198,-4.7812 1.3199,-1.6519 3.8267,-1.6519 0.7056,0 1.353,0.1494 0.6475,0.1494 1.2119,0.4483 v 2.7226 q -0.6308,-0.581 -1.2243,-0.8508 -0.5935,-0.2698 -1.2244,-0.2698 -1.3447,0 -2.0295,1.0667 -0.6848,1.0666 -0.6848,3.1667 0,2.0918 0.6848,3.1585 0.6848,1.0666 2.0295,1.0666 0.6309,0 1.2244,-0.2698 0.5935,-0.2697 1.2243,-0.8508 z" />
    <text
       style="font-size:12px;font-family:sans-serif;fill:#000000"
       id="text24"
       y="364.03519"
       x="181.25"
       textLength="60"
       lengthAdjust="spacingAndGlyphs"
       font-size="12">ResultOnly</text>
    <line
       id="line26"
       y2="375.5"
       y1="375.5"
       x2="367"
       x1="23"
       style="stroke:#a80036;stroke-width:1.5" />
    <line
       id="line28"
       y2="383.5"
       y1="383.5"
       x2="367"
       x1="23"
       style="stroke:#a80036;stroke-width:1.5" />
    <circle
       r="3"
       id="ellipse30"
       style="fill:#84be84;stroke:#038048;stroke-width:1"
       cy="395.47751"
       cx="33" />
    <text
       style="font-size:11px;font-family:sans-serif;fill:#000000"
       id="text32"
       y="398.1348"
       x="42"
       textLength="153"
       lengthAdjust="spacingAndGlyphs"
       font-size="11">boolean displayLive(int step)</text>
    <circle
       r="3"
       id="ellipse34"
       style="fill:#84be84;stroke:#038048;stroke-width:1"
       cy="408.43259"
       cx="33" />
    <text
       style="font-size:11px;font-family:sans-serif;fill:#000000"
       id="text36"
       y="411.08981"
       x="42"
       textLength="320"
       lengthAdjust="spacingAndGlyphs"
       font-size="11">List&lt;Integer&gt; displayAtEnd(int totalSteps, int lastDisplayed)</text>
    <circle
       r="3"
       id="ellipse38"
       style="fill:#84be84;stroke:#038048;stroke-width:1"
       cy="421.3877"
       cx="33" />
    <text
       style="font-size:11px;font-family:sans-serif;fill:#000000"
       id="text40"
       y="424.04489"
       x="42"
       textLength="90"
       lengthAdjust="spacingAndGlyphs"
       font-size="11">String getName()</text>
    <circle
       r="3"
       id="ellipse42"
       style="fill:#84be84;stroke:#038048;stroke-width:1"
       cy="434.3428"
       cx="33" />
    <text
       style="font-size:11px;font-family:sans-serif;fill:#000000"
       id="text44"
       y="437"
       x="42"
       textLength="87"
       lengthAdjust="spacingAndGlyphs"
       font-size="11">String serialize()</text>
  </a>
  <a
     id="a65"
     xlink:type="simple"
     xlink:title="java:edu.kit.wavelength.client.model.output.OutputSize"
     xlink:show="new"
     xlink:href="java:edu.kit.wavelength.client.model.output.OutputSize"
     xlink:actuate="onRequest"
     target="_top">
    <rect
       y="190"
       x="600"
       width="332"
       style="fill:#fefece;stroke:#a80036;stroke-width:1.5;filter:url(#f1ddod9a4wcjfb)"
       id="OutputSize"
       height="86.865196" />
    <circle
       r="11"
       id="ellipse49"
       style="fill:#b4a7e5;stroke:#a80036;stroke-width:1"
       cy="206"
       cx="730.75" />
    <path
       inkscape:connector-curvature="0"
       id="path51"
       d="m 726.6777,201.7651 v -2.1582 h 7.3794 v 2.1582 h -2.4653 v 8.0767 h 2.4653 V 212 h -7.3794 v -2.1582 h 2.4654 v -8.0767 z" />
    <text
       style="font-style:italic;font-size:12px;font-family:sans-serif;fill:#000000"
       id="text53"
       y="210.5352"
       x="751.25"
       textLength="62"
       lengthAdjust="spacingAndGlyphs"
       font-style="italic"
       font-size="12">OutputSize</text>
    <line
       id="line55"
       y2="222"
       y1="222"
       x2="931"
       x1="601"
       style="stroke:#a80036;stroke-width:1.5" />
    <line
       id="line57"
       y2="230"
       y1="230"
       x2="931"
       x1="601"
       style="stroke:#a80036;stroke-width:1.5" />
    <text
       style="font-size:11px;font-family:sans-serif;fill:#000000"
       id="text59"
       y="244.6348"
       x="606"
       textLength="153"
       lengthAdjust="spacingAndGlyphs"
       font-size="11">boolean displayLive(int step)</text>
    <text
       style="font-size:11px;font-family:sans-serif;fill:#000000"
       id="text61"
       y="257.58981"
       x="606"
       textLength="320"
       lengthAdjust="spacingAndGlyphs"
       font-size="11">List&lt;Integer&gt; displayAtEnd(int totalSteps, int lastDisplayed)</text>
    <text
       style="font-size:11px;font-family:sans-serif;fill:#000000"
       id="text63"
       y="270.54489"
       x="606"
       textLength="90"
       lengthAdjust="spacingAndGlyphs"
       font-size="11">String getName()</text>
  </a>
  <a
     id="a78"
     xlink:type="simple"
     xlink:title="java:edu.kit.wavelength.client.model.serialization.Serializable"
     xlink:show="new"
     xlink:href="java:edu.kit.wavelength.client.model.serialization.Serializable"
     xlink:actuate="onRequest"
     target="_top">
    <rect
       y="62.5"
       x="717"
       width="98"
       style="fill:#fefece;stroke:#a80036;stroke-width:1.5;filter:url(#f1ddod9a4wcjfb)"
       id="Serializable"
       height="48" />
    <circle
       r="11"
       id="ellipse68"
       style="fill:#b4a7e5;stroke:#a80036;stroke-width:1"
       cy="78.5"
       cx="732" />
    <path
       inkscape:connector-curvature="0"
       id="path70"
       d="m 727.9277,74.2651 v -2.1582 h 7.3794 v 2.1582 h -2.4653 v 8.0767 h 2.4653 V 84.5 h -7.3794 v -2.1582 h 2.4654 v -8.0767 z" />
    <text
       style="font-style:italic;font-size:12px;font-family:sans-serif;fill:#000000"
       id="text72"
       y="83.035202"
       x="746"
       textLength="66"
       lengthAdjust="spacingAndGlyphs"
       font-style="italic"
       font-size="12">Serializable</text>
    <line
       id="line74"
       y2="94.5"
       y1="94.5"
       x2="814"
       x1="718"
       style="stroke:#a80036;stroke-width:1.5" />
    <line
       id="line76"
       y2="102.5"
       y1="102.5"
       x2="814"
       x1="718"
       style="stroke:#a80036;stroke-width:1.5" />
  </a>
  <a
     id="a107"
     xlink:type="simple"
     xlink:title="java:edu.kit.wavelength.client.model.output.Full"
     xlink:show="new"
     xlink:href="java:edu.kit.wavelength.client.model.output.Full"
     xlink:actuate="onRequest"
     target="_top">
    <rect
       y="343.5"
       x="403"
       width="346"
       style="fill:#fefece;stroke:#a80036;stroke-width:1.5;filter:url(#f1ddod9a4wcjfb)"
       id="Full"
       height="99.820297" />
    <circle
       r="11"
       id="ellipse81"
       style="fill:#add1b2;stroke:#a80036;stroke-width:1"
       cy="359.5"
       cx="562.25" />
    <path
       inkscape:connector-curvature="0"
       id="path83"
       d="m 565.2231,365.1431 q -0.581,0.2988 -1.2202,0.4482 -0.6391,0.1494 -1.3447,0.1494 -2.5068,0 -3.8267,-1.6518 -1.3198,-1.6519 -1.3198,-4.773 0,-3.1294 1.3198,-4.7812 1.3199,-1.6519 3.8267,-1.6519 0.7056,0 1.353,0.1494 0.6475,0.1494 1.2119,0.4483 v 2.7226 q -0.6308,-0.581 -1.2243,-0.8508 -0.5935,-0.2698 -1.2244,-0.2698 -1.3447,0 -2.0295,1.0667 -0.6848,1.0666 -0.6848,3.1667 0,2.0918 0.6848,3.1585 0.6848,1.0666 2.0295,1.0666 0.6309,0 1.2244,-0.2698 0.5935,-0.2697 1.2243,-0.8508 z" />
    <text
       style="font-size:12px;font-family:sans-serif;fill:#000000"
       id="text85"
       y="364.03519"
       x="582.75"
       textLength="19"
       lengthAdjust="spacingAndGlyphs"
       font-size="12">Full</text>
    <line
       id="line87"
       y2="375.5"
       y1="375.5"
       x2="748"
       x1="404"
       style="stroke:#a80036;stroke-width:1.5" />
    <line
       id="line89"
       y2="383.5"
       y1="383.5"
       x2="748"
       x1="404"
       style="stroke:#a80036;stroke-width:1.5" />
    <circle
       r="3"
       id="ellipse91"
       style="fill:#84be84;stroke:#038048;stroke-width:1"
       cy="395.47751"
       cx="414" />
    <text
       style="font-size:11px;font-family:sans-serif;fill:#000000"
       id="text93"
       y="398.1348"
       x="423"
       textLength="153"
       lengthAdjust="spacingAndGlyphs"
       font-size="11">boolean displayLive(int step)</text>
    <circle
       r="3"
       id="ellipse95"
       style="fill:#84be84;stroke:#038048;stroke-width:1"
       cy="408.43259"
       cx="414" />
    <text
       style="font-size:11px;font-family:sans-serif;fill:#000000"
       id="text97"
       y="411.08981"
       x="423"
       textLength="320"
       lengthAdjust="spacingAndGlyphs"
       font-size="11">List&lt;Integer&gt; displayAtEnd(int totalSteps, int lastDisplayed)</text>
    <circle
       r="3"
       id="ellipse99"
       style="fill:#84be84;stroke:#038048;stroke-width:1"
       cy="421.3877"
       cx="414" />
    <text
       style="font-size:11px;font-family:sans-serif;fill:#000000"
       id="text101"
       y="424.04489"
       x="423"
       textLength="90"
       lengthAdjust="spacingAndGlyphs"
       font-size="11">String getName()</text>
    <circle
       r="3"
       id="ellipse103"
       style="fill:#84be84;stroke:#038048;stroke-width:1"
       cy="434.3428"
       cx="414" />
    <text
       style="font-size:11px;font-family:sans-serif;fill:#000000"
       id="text105"
       y="437"
       x="423"
       textLength="87"
       lengthAdjust="spacingAndGlyphs"
       font-size="11">String serialize()</text>
  </a>
  <a
     id="a136"
     xlink:type="simple"
     xlink:title="java:edu.kit.wavelength.client.model.output.OutputSizes"
     xlink:show="new"
     xlink:href="java:edu.kit.wavelength.client.model.output.OutputSizes"
     xlink:actuate="onRequest"
     target="_top">
    <rect
       y="43"
       x="327.5"
       width="239"
       style="fill:#fefece;stroke:#a80036;stroke-width:1.5;filter:url(#f1ddod9a4wcjfb)"
       id="OutputSizes"
       height="86.865196" />
    <circle
       r="11"
       id="ellipse110"
       style="fill:#add1b2;stroke:#a80036;stroke-width:1"
       cy="59"
       cx="408.75" />
    <path
       inkscape:connector-curvature="0"
       id="path112"
       d="m 411.7231,64.6431 q -0.581,0.2988 -1.2202,0.4482 -0.6391,0.1494 -1.3447,0.1494 -2.5068,0 -3.8267,-1.6518 -1.3198,-1.6519 -1.3198,-4.773 0,-3.1294 1.3198,-4.7812 1.3199,-1.6519 3.8267,-1.6519 0.7056,0 1.353,0.1494 0.6475,0.1494 1.2119,0.4483 v 2.7226 q -0.6308,-0.581 -1.2243,-0.8508 -0.5935,-0.2698 -1.2244,-0.2698 -1.3447,0 -2.0295,1.0667 -0.6848,1.0666 -0.6848,3.1667 0,2.0918 0.6848,3.1585 0.6848,1.0666 2.0295,1.0666 0.6309,0 1.2244,-0.2698 0.5935,-0.2697 1.2243,-0.8508 z" />
    <text
       style="font-size:12px;font-family:sans-serif;fill:#000000"
       id="text114"
       y="63.535198"
       x="429.25"
       textLength="68"
       lengthAdjust="spacingAndGlyphs"
       font-size="12">OutputSizes</text>
    <line
       id="line116"
       y2="75"
       y1="75"
       x2="565.5"
       x1="328.5"
       style="stroke:#a80036;stroke-width:1.5" />
    <line
       id="line118"
       y2="83"
       y1="83"
       x2="565.5"
       x1="328.5"
       style="stroke:#a80036;stroke-width:1.5" />
    <circle
       r="3"
       id="ellipse120"
       style="fill:#84be84;stroke:#038048;stroke-width:1"
       cy="94.977501"
       cx="338.5" />
    <text
       style="font-size:11px;font-family:sans-serif;text-decoration: underline;text-decoration-line: underline;fill:#000000"
       id="text122"
       y="97.634804"
       x="347.5"
       textLength="119"
       text-decoration="underline"
       lengthAdjust="spacingAndGlyphs"
       font-size="11">List&lt;OutputSize&gt; all()</text>
    <line
       id="line124"
       y2="99.634804"
       y1="99.634804"
       x2="466.5"
       x1="347.5"
       style="stroke:#000000;stroke-width:1" />
    <circle
       r="3"
       id="ellipse126"
       style="fill:#84be84;stroke:#038048;stroke-width:1"
       cy="107.9326"
       cx="338.5" />
    <text
       style="font-size:11px;font-family:sans-serif;text-decoration: underline;text-decoration-line: underline;fill:#000000"
       id="text128"
       y="110.5898"
       x="347.5"
       textLength="213"
       text-decoration="underline"
       lengthAdjust="spacingAndGlyphs"
       font-size="11">OutputSize deserialize(String serialized)</text>
    <line
       id="line130"
       y2="112.5898"
       y1="112.5898"
       x2="560.5"
       x1="347.5"
       style="stroke:#000000;stroke-width:1" />
    <rect
       id="rect132"
       y="117.8877"
       x="335.5"
       width="6"
       style="fill:#f24d5c;stroke:#c82930;stroke-width:1"
       height="6" />
    <text
       style="font-size:11px;font-family:sans-serif;fill:#000000"
       id="text134"
       y="123.5449"
       x="347.5"
       textLength="73"
       lengthAdjust="spacingAndGlyphs"
       font-size="11">OutputSizes()</text>
  </a>
  <a
     id="a169"
     xlink:type="simple"
     xlink:title="java:edu.kit.wavelength.client.model.output.Periodic"
     xlink:show="new"
     xlink:href="java:edu.kit.wavelength.client.model.output.Periodic"
     xlink:actuate="onRequest"
     target="_top">
    <rect
       y="337"
       x="784"
       width="346"
       style="fill:#fefece;stroke:#a80036;stroke-width:1.5;filter:url(#f1ddod9a4wcjfb)"
       id="Periodic"
       height="112.7754" />
    <circle
       r="11"
       id="ellipse139"
       style="fill:#add1b2;stroke:#a80036;stroke-width:1"
       cy="353"
       cx="929.75" />
    <path
       inkscape:connector-curvature="0"
       id="path141"
       d="m 932.7231,358.6431 q -0.581,0.2988 -1.2202,0.4482 -0.6391,0.1494 -1.3447,0.1494 -2.5068,0 -3.8267,-1.6518 -1.3198,-1.6519 -1.3198,-4.773 0,-3.1294 1.3198,-4.7812 1.3199,-1.6519 3.8267,-1.6519 0.7056,0 1.353,0.1494 0.6475,0.1494 1.2119,0.4483 v 2.7226 q -0.6308,-0.581 -1.2243,-0.8508 -0.5935,-0.2698 -1.2244,-0.2698 -1.3447,0 -2.0295,1.0667 -0.6848,1.0666 -0.6848,3.1667 0,2.0918 0.6848,3.1585 0.6848,1.0666 2.0295,1.0666 0.6309,0 1.2244,-0.2698 0.5935,-0.2697 1.2243,-0.8508 z" />
    <text
       style="font-size:12px;font-family:sans-serif;fill:#000000"
       id="text143"
       y="357.53519"
       x="950.25"
       textLength="46"
       lengthAdjust="spacingAndGlyphs"
       font-size="12">Periodic</text>
    <line
       id="line145"
       y2="369"
       y1="369"
       x2="1129"
       x1="785"
       style="stroke:#a80036;stroke-width:1.5" />
    <line
       id="line147"
       y2="377"
       y1="377"
       x2="1129"
       x1="785"
       style="stroke:#a80036;stroke-width:1.5" />
    <circle
       r="3"
       id="ellipse149"
       style="fill:#84be84;stroke:#038048;stroke-width:1"
       cy="388.97751"
       cx="795" />
    <text
       style="font-size:11px;font-family:sans-serif;fill:#000000"
       id="text151"
       y="391.6348"
       x="804"
       textLength="103"
       lengthAdjust="spacingAndGlyphs"
       font-size="11">Periodic(int period)</text>
    <circle
       r="3"
       id="ellipse153"
       style="fill:#84be84;stroke:#038048;stroke-width:1"
       cy="401.93259"
       cx="795" />
    <text
       style="font-size:11px;font-family:sans-serif;fill:#000000"
       id="text155"
       y="404.58981"
       x="804"
       textLength="153"
       lengthAdjust="spacingAndGlyphs"
       font-size="11">boolean displayLive(int step)</text>
    <circle
       r="3"
       id="ellipse157"
       style="fill:#84be84;stroke:#038048;stroke-width:1"
       cy="414.8877"
       cx="795" />
    <text
       style="font-size:11px;font-family:sans-serif;fill:#000000"
       id="text159"
       y="417.54489"
       x="804"
       textLength="320"
       lengthAdjust="spacingAndGlyphs"
       font-size="11">List&lt;Integer&gt; displayAtEnd(int totalSteps, int lastDisplayed)</text>
    <circle
       r="3"
       id="ellipse161"
       style="fill:#84be84;stroke:#038048;stroke-width:1"
       cy="427.8428"
       cx="795" />
    <text
       style="font-size:11px;font-family:sans-serif;fill:#000000"
       id="text163"
       y="430.5"
       x="804"
       textLength="90"
       lengthAdjust="spacingAndGlyphs"
       font-size="11">String getName()</text>
    <circle
       r="3"
       id="ellipse165"
       style="fill:#84be84;stroke:#038048;stroke-width:1"
       cy="440.79791"
       cx="795" />
    <text
       style="font-size:11px;font-family:sans-serif;fill:#000000"
       id="text167"
       y="443.45511"
       x="804"
       textLength="87"
       lengthAdjust="spacingAndGlyphs"
       font-size="11">String serialize()</text>
  </a>
  <a
     id="a202"
     xlink:type="simple"
     xlink:title="java:edu.kit.wavelength.client.model.output.Shortened"
     xlink:show="new"
     xlink:href="java:edu.kit.wavelength.client.model.output.Shortened"
     xlink:actuate="onRequest"
     target="_top">
    <rect
       y="337"
       x="1165"
       width="346"
       style="fill:#fefece;stroke:#a80036;stroke-width:1.5;filter:url(#f1ddod9a4wcjfb)"
       id="Shortened"
       height="112.7754" />
    <circle
       r="11"
       id="ellipse172"
       style="fill:#add1b2;stroke:#a80036;stroke-width:1"
       cy="353"
       cx="1304.75" />
    <path
       inkscape:connector-curvature="0"
       id="path174"
       d="m 1307.7231,358.6431 q -0.581,0.2988 -1.2202,0.4482 -0.6391,0.1494 -1.3447,0.1494 -2.5068,0 -3.8267,-1.6518 -1.3198,-1.6519 -1.3198,-4.773 0,-3.1294 1.3198,-4.7812 1.3199,-1.6519 3.8267,-1.6519 0.7056,0 1.353,0.1494 0.6475,0.1494 1.2119,0.4483 v 2.7226 q -0.6308,-0.581 -1.2243,-0.8508 -0.5935,-0.2698 -1.2244,-0.2698 -1.3447,0 -2.0295,1.0667 -0.6848,1.0666 -0.6848,3.1667 0,2.0918 0.6848,3.1585 0.6848,1.0666 2.0295,1.0666 0.6309,0 1.2244,-0.2698 0.5935,-0.2697 1.2243,-0.8508 z" />
    <text
       style="font-size:12px;font-family:sans-serif;fill:#000000"
       id="text176"
       y="357.53519"
       x="1325.25"
       textLength="58"
       lengthAdjust="spacingAndGlyphs"
       font-size="12">Shortened</text>
    <line
       id="line178"
       y2="369"
       y1="369"
       x2="1510"
       x1="1166"
       style="stroke:#a80036;stroke-width:1.5" />
    <line
       id="line180"
       y2="377"
       y1="377"
       x2="1510"
       x1="1166"
       style="stroke:#a80036;stroke-width:1.5" />
    <circle
       r="3"
       id="ellipse182"
       style="fill:#84be84;stroke:#038048;stroke-width:1"
       cy="388.97751"
       cx="1176" />
    <text
       style="font-size:11px;font-family:sans-serif;fill:#000000"
       id="text184"
       y="391.6348"
       x="1185"
       textLength="112"
       lengthAdjust="spacingAndGlyphs"
       font-size="11">Shortened(int cutoff)</text>
    <circle
       r="3"
       id="ellipse186"
       style="fill:#84be84;stroke:#038048;stroke-width:1"
       cy="401.93259"
       cx="1176" />
    <text
       style="font-size:11px;font-family:sans-serif;fill:#000000"
       id="text188"
       y="404.58981"
       x="1185"
       textLength="153"
       lengthAdjust="spacingAndGlyphs"
       font-size="11">boolean displayLive(int step)</text>
    <circle
       r="3"
       id="ellipse190"
       style="fill:#84be84;stroke:#038048;stroke-width:1"
       cy="414.8877"
       cx="1176" />
    <text
       style="font-size:11px;font-family:sans-serif;fill:#000000"
       id="text192"
       y="417.54489"
       x="1185"
       textLength="320"
       lengthAdjust="spacingAndGlyphs"
       font-size="11">List&lt;Integer&gt; displayAtEnd(int totalSteps, int lastDisplayed)</text>
    <circle
       r="3"
       id="ellipse194"
       style="fill:#84be84;stroke:#038048;stroke-width:1"
       cy="427.8428"
       cx="1176" />
    <text
       style="font-size:11px;font-family:sans-serif;fill:#000000"
       id="text196"
       y="430.5"
       x="1185"
       textLength="90"
       lengthAdjust="spacingAndGlyphs"
       font-size="11">String getName()</text>
    <circle
       r="3"
       id="ellipse198"
       style="fill:#84be84;stroke:#038048;stroke-width:1"
       cy="440.79791"
       cx="1176" />
    <text
       style="font-size:11px;font-family:sans-serif;fill:#000000"
       id="text200"
       y="443.45511"
       x="1185"
       textLength="87"
       lengthAdjust="spacingAndGlyphs"
       font-size="11">String serialize()</text>
  </a>
  <path
     inkscape:connector-curvature="0"
     style="fill:none;stroke:#a80036;stroke-width:1;stroke-dasharray:7, 7"
     id="OutputSize-ResultOnly"
     d="M 583.4399,282.3622 C 520.7673,299.3651 450.237,318.7532 386,337 c -7.4013,2.1024 -14.9588,4.2661 -22.5896,6.4646" />
  <polygon
     id="polygon205"
     style="fill:none;stroke:#a80036;stroke-width:1"
     points="585.5832,289.0339 581.9227,275.5209 603.0573,277.0482 " />
  <path
     inkscape:connector-curvature="0"
     style="fill:none;stroke:#a80036;stroke-width:1"
     id="Serializable-OutputSize"
     d="m 766,130.9633 c 0,18.6728 0,40.325 0,58.9075" />
  <polygon
     id="polygon208"
     style="fill:none;stroke:#a80036;stroke-width:1"
     points="773.0001,130.774 759.0001,130.7741 766,110.7741 " />
  <path
     inkscape:connector-curvature="0"
     style="fill:none;stroke:#a80036;stroke-width:1;stroke-dasharray:7, 7"
     id="OutputSize-Full"
     d="m 698.94,289.9716 c -20.7215,17.4497 -43.3896,36.5386 -63.5546,53.5196" />
  <polygon
     id="polygon211"
     style="fill:none;stroke:#a80036;stroke-width:1"
     points="703.5434,295.2465 694.5254,284.5377 714.3326,277.0094 " />
  <path
     inkscape:connector-curvature="0"
     style="fill:none;stroke:#a80036;stroke-width:1;stroke-dasharray:7, 7"
     id="OutputSize-Periodic"
     d="m 833.4102,289.9693 c 18.1231,15.1816 37.7276,31.6043 55.8676,46.8" />
  <polygon
     id="polygon214"
     style="fill:none;stroke:#a80036;stroke-width:1"
     points="837.7659,284.4865 828.7757,295.2185 817.9393,277.0094 " />
  <path
     inkscape:connector-curvature="0"
     style="fill:none;stroke:#a80036;stroke-width:1;stroke-dasharray:7, 7"
     id="OutputSize-Shortened"
     d="m 949.9865,282.3738 c 62.8951,16.9664 133.612,36.3291 198.0135,54.6262 5.5448,1.5753 11.1775,3.1864 16.8627,4.8218" />
  <polygon
     id="polygon217"
     style="fill:none;stroke:#a80036;stroke-width:1"
     points="951.4294,275.5131 947.789,289.0315 930.2972,277.0717 " />
</svg>
