<?xml version="1.0" encoding="UTF-8" standalone="no"?><svg xmlns="http://www.w3.org/2000/svg" xmlns:xlink="http://www.w3.org/1999/xlink" contentScriptType="application/ecmascript" contentStyleType="text/css" height="284px" preserveAspectRatio="none" style="width:591px;height:284px;" version="1.1" viewBox="0 0 591 284" width="591px" zoomAndPan="magnify"><defs><filter height="300%" id="f1ajej76rzjajs" width="300%" x="-1" y="-1"><feGaussianBlur result="blurOut" stdDeviation="2.0"/><feColorMatrix in="blurOut" result="blurOut2" type="matrix" values="0 0 0 0 0 0 0 0 0 0 0 0 0 0 0 0 0 0 .4 0"/><feOffset dx="4.0" dy="4.0" in="blurOut2" result="blurOut3"/><feBlend in="SourceGraphic" in2="blurOut3" mode="normal"/></filter></defs><g><!--cluster edu.kit.wavelength.client.model.term.parsing--><polygon fill="#FFFFFF" filter="url(#f1ajej76rzjajs)" points="14,16,339,16,346,38.4883,569,38.4883,569,272,14,272,14,16" style="stroke: #000000; stroke-width: 2.0;"/><line style="stroke: #000000; stroke-width: 2.0;" x1="14" x2="346" y1="38.4883" y2="38.4883"/><text fill="#000000" font-family="sans-serif" font-size="14" font-weight="bold" lengthAdjust="spacingAndGlyphs" textLength="319" x="18" y="31.5352">edu.kit.wavelength.client.model.term.parsing</text><!--class Tokeniser--><a target="_top" xlink:actuate="onRequest" xlink:href="java:edu.kit.wavelength.client.model.term.parsing.Tokeniser" xlink:show="new" xlink:title="java:edu.kit.wavelength.client.model.term.parsing.Tokeniser" xlink:type="simple"><rect fill="#FEFECE" filter="url(#f1ajej76rzjajs)" height="60.9551" id="Tokeniser" style="stroke: #A80036; stroke-width: 1.5;" width="186" x="196" y="49.5"/><ellipse cx="256.25" cy="65.5" fill="#ADD1B2" rx="11" ry="11" style="stroke: #A80036; stroke-width: 1.0;"/><path d="M259.2231,71.1431 Q258.6421,71.4419 258.0029,71.5913 Q257.3638,71.7407 256.6582,71.7407 Q254.1514,71.7407 252.8315,70.0889 Q251.5117,68.437 251.5117,65.3159 Q251.5117,62.1865 252.8315,60.5347 Q254.1514,58.8828 256.6582,58.8828 Q257.3638,58.8828 258.0112,59.0322 Q258.6587,59.1816 259.2231,59.4805 L259.2231,62.2031 Q258.5923,61.6221 257.9988,61.3523 Q257.4053,61.0825 256.7744,61.0825 Q255.4297,61.0825 254.7449,62.1492 Q254.0601,63.2158 254.0601,65.3159 Q254.0601,67.4077 254.7449,68.4744 Q255.4297,69.541 256.7744,69.541 Q257.4053,69.541 257.9988,69.2712 Q258.5923,69.0015 259.2231,68.4204 Z "/><text fill="#000000" font-family="sans-serif" font-size="12" lengthAdjust="spacingAndGlyphs" textLength="57" x="276.75" y="70.0352">Tokeniser</text><line style="stroke: #A80036; stroke-width: 1.5;" x1="197" x2="381" y1="81.5" y2="81.5"/><line style="stroke: #A80036; stroke-width: 1.5;" x1="197" x2="381" y1="89.5" y2="89.5"/><ellipse cx="207" cy="101.4775" fill="#84BE84" rx="3" ry="3" style="stroke: #038048; stroke-width: 1.0;"/><text fill="#000000" font-family="sans-serif" font-size="11" lengthAdjust="spacingAndGlyphs" textLength="160" x="216" y="104.1348">Token[] tokenise(String input)</text></a><!--class ParseException--><a target="_top" xlink:actuate="onRequest" xlink:href="java:edu.kit.wavelength.client.model.term.parsing.ParseException" xlink:show="new" xlink:title="java:edu.kit.wavelength.client.model.term.parsing.ParseException" xlink:type="simple"><rect fill="#FEFECE" filter="url(#f1ajej76rzjajs)" height="86.8652" id="ParseException" style="stroke: #A80036; stroke-width: 1.5;" width="304" x="22" y="177"/><ellipse cx="125.75" cy="193" fill="#ADD1B2" rx="11" ry="11" style="stroke: #A80036; stroke-width: 1.0;"/><path d="M128.7231,198.6431 Q128.1421,198.9419 127.5029,199.0913 Q126.8638,199.2407 126.1582,199.2407 Q123.6514,199.2407 122.3315,197.5889 Q121.0117,195.937 121.0117,192.8159 Q121.0117,189.6865 122.3315,188.0347 Q123.6514,186.3828 126.1582,186.3828 Q126.8638,186.3828 127.5112,186.5322 Q128.1587,186.6816 128.7231,186.9805 L128.7231,189.7031 Q128.0923,189.1221 127.4988,188.8523 Q126.9053,188.5825 126.2744,188.5825 Q124.9297,188.5825 124.2449,189.6492 Q123.5601,190.7158 123.5601,192.8159 Q123.5601,194.9077 124.2449,195.9744 Q124.9297,197.041 126.2744,197.041 Q126.9053,197.041 127.4988,196.7712 Q128.0923,196.5015 128.7231,195.9204 Z "/><text fill="#000000" font-family="sans-serif" font-size="12" lengthAdjust="spacingAndGlyphs" textLength="88" x="146.25" y="197.5352">ParseException</text><line style="stroke: #A80036; stroke-width: 1.5;" x1="23" x2="325" y1="209" y2="209"/><line style="stroke: #A80036; stroke-width: 1.5;" x1="23" x2="325" y1="217" y2="217"/><ellipse cx="33" cy="228.9775" fill="#84BE84" rx="3" ry="3" style="stroke: #038048; stroke-width: 1.0;"/><text fill="#000000" font-family="sans-serif" font-size="11" lengthAdjust="spacingAndGlyphs" textLength="278" x="42" y="231.6348">ParseException(String message, int row, int column)</text><ellipse cx="33" cy="241.9326" fill="#84BE84" rx="3" ry="3" style="stroke: #038048; stroke-width: 1.0;"/><text fill="#000000" font-family="sans-serif" font-size="11" lengthAdjust="spacingAndGlyphs" textLength="64" x="42" y="244.5898">int getRow()</text><ellipse cx="33" cy="254.8877" fill="#84BE84" rx="3" ry="3" style="stroke: #038048; stroke-width: 1.0;"/><text fill="#000000" font-family="sans-serif" font-size="11" lengthAdjust="spacingAndGlyphs" textLength="84" x="42" y="257.5449">int getColumn()</text></a><!--class Exception--><a target="_top" xlink:actuate="onRequest" xlink:href="java:java.lang.Exception" xlink:show="new" xlink:title="java:java.lang.Exception" xlink:type="simple"><rect fill="#FEFECE" filter="url(#f1ajej76rzjajs)" height="48" id="Exception" style="stroke: #A80036; stroke-width: 1.5;" width="88" x="73" y="56"/><ellipse cx="88" cy="72" fill="#ADD1B2" rx="11" ry="11" style="stroke: #A80036; stroke-width: 1.0;"/><path d="M90.9731,77.6431 Q90.3921,77.9419 89.7529,78.0913 Q89.1138,78.2407 88.4082,78.2407 Q85.9014,78.2407 84.5815,76.5889 Q83.2617,74.937 83.2617,71.8159 Q83.2617,68.6865 84.5815,67.0347 Q85.9014,65.3828 88.4082,65.3828 Q89.1138,65.3828 89.7612,65.5322 Q90.4087,65.6816 90.9731,65.9805 L90.9731,68.7031 Q90.3423,68.1221 89.7488,67.8523 Q89.1553,67.5825 88.5244,67.5825 Q87.1797,67.5825 86.4949,68.6492 Q85.8101,69.7158 85.8101,71.8159 Q85.8101,73.9077 86.4949,74.9744 Q87.1797,76.041 88.5244,76.041 Q89.1553,76.041 89.7488,75.7712 Q90.3423,75.5015 90.9731,74.9204 Z "/><text fill="#000000" font-family="sans-serif" font-size="12" lengthAdjust="spacingAndGlyphs" textLength="56" x="102" y="76.5352">Exception</text><line style="stroke: #A80036; stroke-width: 1.5;" x1="74" x2="160" y1="88" y2="88"/><line style="stroke: #A80036; stroke-width: 1.5;" x1="74" x2="160" y1="96" y2="96"/></a><!--class Token--><a target="_top" xlink:actuate="onRequest" xlink:href="java:edu.kit.wavelength.client.model.term.parsing.Token" xlink:show="new" xlink:title="java:edu.kit.wavelength.client.model.term.parsing.Token" xlink:type="simple"><rect fill="#FEFECE" filter="url(#f1ajej76rzjajs)" height="73.9102" id="Token" style="stroke: #A80036; stroke-width: 1.5;" width="143" x="417.5" y="43"/><ellipse cx="466.75" cy="59" fill="#ADD1B2" rx="11" ry="11" style="stroke: #A80036; stroke-width: 1.0;"/><path d="M469.7231,64.6431 Q469.1421,64.9419 468.5029,65.0913 Q467.8638,65.2407 467.1582,65.2407 Q464.6514,65.2407 463.3315,63.5889 Q462.0117,61.937 462.0117,58.8159 Q462.0117,55.6865 463.3315,54.0347 Q464.6514,52.3828 467.1582,52.3828 Q467.8638,52.3828 468.5112,52.5322 Q469.1587,52.6816 469.7231,52.9805 L469.7231,55.7031 Q469.0923,55.1221 468.4988,54.8523 Q467.9053,54.5825 467.2744,54.5825 Q465.9297,54.5825 465.2449,55.6492 Q464.5601,56.7158 464.5601,58.8159 Q464.5601,60.9077 465.2449,61.9744 Q465.9297,63.041 467.2744,63.041 Q467.9053,63.041 468.4988,62.7712 Q469.0923,62.5015 469.7231,61.9204 Z "/><text fill="#000000" font-family="sans-serif" font-size="12" lengthAdjust="spacingAndGlyphs" textLength="36" x="487.25" y="63.5352">Token</text><line style="stroke: #A80036; stroke-width: 1.5;" x1="418.5" x2="559.5" y1="75" y2="75"/><line style="stroke: #A80036; stroke-width: 1.5;" x1="418.5" x2="559.5" y1="83" y2="83"/><ellipse cx="428.5" cy="94.9775" fill="#84BE84" rx="3" ry="3" style="stroke: #038048; stroke-width: 1.0;"/><text fill="#000000" font-family="sans-serif" font-size="11" lengthAdjust="spacingAndGlyphs" textLength="117" x="437.5" y="97.6348">Token(String content)</text><ellipse cx="428.5" cy="107.9326" fill="#84BE84" rx="3" ry="3" style="stroke: #038048; stroke-width: 1.0;"/><text fill="#000000" font-family="sans-serif" font-size="11" lengthAdjust="spacingAndGlyphs" textLength="103" x="437.5" y="110.5898">String getContent()</text></a><!--class Parser--><a target="_top" xlink:actuate="onRequest" xlink:href="java:edu.kit.wavelength.client.model.term.parsing.Parser" xlink:show="new" xlink:title="java:edu.kit.wavelength.client.model.term.parsing.Parser" xlink:type="simple"><rect fill="#FEFECE" filter="url(#f1ajej76rzjajs)" height="73.9102" id="Parser" style="stroke: #A80036; stroke-width: 1.5;" width="200" x="361" y="183.5"/><ellipse cx="438.25" cy="199.5" fill="#ADD1B2" rx="11" ry="11" style="stroke: #A80036; stroke-width: 1.0;"/><path d="M441.2231,205.1431 Q440.6421,205.4419 440.0029,205.5913 Q439.3638,205.7407 438.6582,205.7407 Q436.1514,205.7407 434.8315,204.0889 Q433.5117,202.437 433.5117,199.3159 Q433.5117,196.1865 434.8315,194.5347 Q436.1514,192.8828 438.6582,192.8828 Q439.3638,192.8828 440.0112,193.0322 Q440.6587,193.1816 441.2231,193.4805 L441.2231,196.2031 Q440.5923,195.6221 439.9988,195.3523 Q439.4053,195.0825 438.7744,195.0825 Q437.4297,195.0825 436.7449,196.1492 Q436.0601,197.2158 436.0601,199.3159 Q436.0601,201.4077 436.7449,202.4744 Q437.4297,203.541 438.7744,203.541 Q439.4053,203.541 439.9988,203.2712 Q440.5923,203.0015 441.2231,202.4204 Z "/><text fill="#000000" font-family="sans-serif" font-size="12" lengthAdjust="spacingAndGlyphs" textLength="37" x="458.75" y="204.0352">Parser</text><line style="stroke: #A80036; stroke-width: 1.5;" x1="362" x2="560" y1="215.5" y2="215.5"/><line style="stroke: #A80036; stroke-width: 1.5;" x1="362" x2="560" y1="223.5" y2="223.5"/><ellipse cx="372" cy="235.4775" fill="#84BE84" rx="3" ry="3" style="stroke: #038048; stroke-width: 1.0;"/><text fill="#000000" font-family="sans-serif" font-size="11" lengthAdjust="spacingAndGlyphs" textLength="164" x="381" y="238.1348">Parser(List&lt;Library&gt; libraries)</text><ellipse cx="372" cy="248.4326" fill="#84BE84" rx="3" ry="3" style="stroke: #038048; stroke-width: 1.0;"/><text fill="#000000" font-family="sans-serif" font-size="11" lengthAdjust="spacingAndGlyphs" textLength="174" x="381" y="251.0898">LambdaTerm parse(String input)</text></a><!--link Exception to ParseException--><path d="M134.3498,122.7657 C141.2983,139.8932 149.2966,159.6084 156.2816,176.8256 " fill="none" id="Exception-ParseException" style="stroke: #A80036; stroke-width: 1.0;"/><polygon fill="none" points="127.8309,125.3173,126.7986,104.1528,140.8039,120.0542,127.8309,125.3173" style="stroke: #A80036; stroke-width: 1.0;"/><!--link Tokeniser to Token--><!--link Tokeniser to Parser--><!--
@startuml
package edu.kit.wavelength.client.model.term.parsing <<Folder>> {
class Tokeniser [[java:edu.kit.wavelength.client.model.term.parsing.Tokeniser]] {
	+Token[] tokenise(String input)
}
class ParseException [[java:edu.kit.wavelength.client.model.term.parsing.ParseException]] {
	+ParseException(String message, int row, int column)
	+int getRow()
	+int getColumn()
}
class Exception [[java:java.lang.Exception]] {
}
Exception <|- - ParseException
class Token [[java:edu.kit.wavelength.client.model.term.parsing.Token]] {
	+Token(String content)
	+String getContent()
}
class Parser [[java:edu.kit.wavelength.client.model.term.parsing.Parser]] {
	+Parser(List<Library> libraries)
	+LambdaTerm parse(String input)
}

}

@enduml

PlantUML version 1.2017.15(Mon Jul 03 18:45:34 CEST 2017)
(EPL source distribution)
Java Runtime: Java(TM) SE Runtime Environment
JVM: Java HotSpot(TM) 64-Bit Server VM
Java Version: 1.8.0_112-b16
Operating System: Mac OS X
OS Version: 10.13.2
Default Encoding: UTF-8
Language: de
Country: DE
--></g></svg>