<?xml version="1.0" encoding="UTF-8" standalone="no"?>
<svg
   xmlns:dc="http://purl.org/dc/elements/1.1/"
   xmlns:cc="http://creativecommons.org/ns#"
   xmlns:rdf="http://www.w3.org/1999/02/22-rdf-syntax-ns#"
   xmlns:svg="http://www.w3.org/2000/svg"
   xmlns="http://www.w3.org/2000/svg"
   xmlns:xlink="http://www.w3.org/1999/xlink"
   xmlns:sodipodi="http://sodipodi.sourceforge.net/DTD/sodipodi-0.dtd"
   xmlns:inkscape="http://www.inkscape.org/namespaces/inkscape"
   contentScriptType="application/ecmascript"
   contentStyleType="text/css"
   height="431px"
   preserveAspectRatio="none"
   style="width:1037px;height:431px;"
   version="1.1"
   viewBox="0 0 1037 431"
   width="1037px"
   zoomAndPan="magnify"
   id="svg195"
   sodipodi:docname="reductionPackage.svg"
   inkscape:version="0.92.2 5c3e80d, 2017-08-06">
  <metadata
     id="metadata199">
    <rdf:RDF>
      <cc:Work
         rdf:about="">
        <dc:format>image/svg+xml</dc:format>
        <dc:type
           rdf:resource="http://purl.org/dc/dcmitype/StillImage" />
      </cc:Work>
    </rdf:RDF>
  </metadata>
  <sodipodi:namedview
     pagecolor="#ffffff"
     bordercolor="#666666"
     borderopacity="1"
     objecttolerance="10"
     gridtolerance="10"
     guidetolerance="10"
     inkscape:pageopacity="0"
     inkscape:pageshadow="2"
     inkscape:window-width="1440"
     inkscape:window-height="783"
     id="namedview197"
     showgrid="false"
     inkscape:zoom="1.1237338"
     inkscape:cx="518.5"
     inkscape:cy="215.5"
     inkscape:window-x="0"
     inkscape:window-y="1"
     inkscape:window-maximized="1"
     inkscape:current-layer="svg195" />
  <defs
     id="defs11">
    <filter
       height="300%"
       id="f2lsu3cz5l0cw"
       width="300%"
       x="-1"
       y="-1">
      <feGaussianBlur
         result="blurOut"
         stdDeviation="2.0"
         id="feGaussianBlur2" />
      <feColorMatrix
         in="blurOut"
         result="blurOut2"
         type="matrix"
         values="0 0 0 0 0 0 0 0 0 0 0 0 0 0 0 0 0 0 .4 0"
         id="feColorMatrix4" />
      <feOffset
         dx="4.0"
         dy="4.0"
         in="blurOut2"
         result="blurOut3"
         id="feOffset6" />
      <feBlend
         in="SourceGraphic"
         in2="blurOut3"
         mode="normal"
         id="feBlend8" />
    </filter>
  </defs>
  <a
     id="a46"
     xlink:type="simple"
     xlink:title="java:edu.kit.wavelength.client.model.reduction.ReductionOrders"
     xlink:show="new"
     xlink:href="java:edu.kit.wavelength.client.model.reduction.ReductionOrders"
     xlink:actuate="onRequest"
     target="_top">
    <rect
       y="43"
       x="673"
       width="266"
       style="fill:#fefece;stroke:#a80036;stroke-width:1.5;filter:url(#f2lsu3cz5l0cw)"
       id="ReductionOrders"
       height="86.865196" />
    <circle
       r="11"
       id="ellipse20"
       style="fill:#add1b2;stroke:#a80036;stroke-width:1"
       cy="59"
       cx="753.25" />
    <path
       inkscape:connector-curvature="0"
       id="path22"
       d="m 756.2231,64.6431 q -0.581,0.2988 -1.2202,0.4482 -0.6391,0.1494 -1.3447,0.1494 -2.5068,0 -3.8267,-1.6518 -1.3198,-1.6519 -1.3198,-4.773 0,-3.1294 1.3198,-4.7812 1.3199,-1.6519 3.8267,-1.6519 0.7056,0 1.353,0.1494 0.6475,0.1494 1.2119,0.4483 v 2.7226 q -0.6308,-0.581 -1.2243,-0.8508 -0.5935,-0.2698 -1.2244,-0.2698 -1.3447,0 -2.0295,1.0667 -0.6848,1.0666 -0.6848,3.1667 0,2.0918 0.6848,3.1585 0.6848,1.0666 2.0295,1.0666 0.6309,0 1.2244,-0.2698 0.5935,-0.2697 1.2243,-0.8508 z" />
    <text
       style="font-size:12px;font-family:sans-serif;fill:#000000"
       id="text24"
       y="63.535198"
       x="773.75"
       textLength="97"
       lengthAdjust="spacingAndGlyphs"
       font-size="12">ReductionOrders</text>
    <line
       id="line26"
       y2="75"
       y1="75"
       x2="938"
       x1="674"
       style="stroke:#a80036;stroke-width:1.5" />
    <line
       id="line28"
       y2="83"
       y1="83"
       x2="938"
       x1="674"
       style="stroke:#a80036;stroke-width:1.5" />
    <circle
       r="3"
       id="ellipse30"
       style="fill:#84be84;stroke:#038048;stroke-width:1"
       cy="94.977501"
       cx="684" />
    <text
       style="font-size:11px;font-family:sans-serif;text-decoration: underline;text-decoration-line: underline;fill:#000000"
       id="text32"
       y="97.634804"
       x="693"
       textLength="146"
       text-decoration="underline"
       lengthAdjust="spacingAndGlyphs"
       font-size="11">List&lt;ReductionOrder&gt; all()</text>
    <line
       id="line34"
       y2="99.634804"
       y1="99.634804"
       x2="839"
       x1="693"
       style="stroke:#000000;stroke-width:1" />
    <circle
       r="3"
       id="ellipse36"
       style="fill:#84be84;stroke:#038048;stroke-width:1"
       cy="107.9326"
       cx="684" />
    <text
       style="font-size:11px;font-family:sans-serif;text-decoration: underline;text-decoration-line: underline;fill:#000000"
       id="text38"
       y="110.5898"
       x="693"
       textLength="240"
       text-decoration="underline"
       lengthAdjust="spacingAndGlyphs"
       font-size="11">ReductionOrder deserialize(String serialized)</text>
    <line
       id="line40"
       y2="112.5898"
       y1="112.5898"
       x2="933"
       x1="693"
       style="stroke:#000000;stroke-width:1" />
    <rect
       id="rect42"
       y="117.8877"
       x="681"
       width="6"
       style="fill:#f24d5c;stroke:#c82930;stroke-width:1"
       height="6" />
    <text
       style="font-size:11px;font-family:sans-serif;fill:#000000"
       id="text44"
       y="123.5449"
       x="693"
       textLength="100"
       lengthAdjust="spacingAndGlyphs"
       font-size="11">ReductionOrders()</text>
  </a>
  <a
     id="a71"
     xlink:type="simple"
     xlink:title="java:edu.kit.wavelength.client.model.reduction.CallByValue"
     xlink:show="new"
     xlink:href="java:edu.kit.wavelength.client.model.reduction.CallByValue"
     xlink:actuate="onRequest"
     target="_top">
    <rect
       y="324"
       x="22"
       width="220"
       style="fill:#fefece;stroke:#a80036;stroke-width:1.5;filter:url(#f2lsu3cz5l0cw)"
       id="CallByValue"
       height="86.865196" />
    <circle
       r="11"
       id="ellipse49"
       style="fill:#add1b2;stroke:#a80036;stroke-width:1"
       cy="340"
       cx="94.75" />
    <path
       inkscape:connector-curvature="0"
       id="path51"
       d="m 97.7231,345.6431 q -0.581,0.2988 -1.2202,0.4482 -0.6391,0.1494 -1.3447,0.1494 -2.5068,0 -3.8267,-1.6518 -1.3198,-1.6519 -1.3198,-4.773 0,-3.1294 1.3198,-4.7812 1.3199,-1.6519 3.8267,-1.6519 0.7056,0 1.353,0.1494 0.6475,0.1494 1.2119,0.4483 v 2.7226 q -0.6308,-0.581 -1.2243,-0.8508 -0.5935,-0.2698 -1.2244,-0.2698 -1.3447,0 -2.0295,1.0667 -0.6848,1.0666 -0.6848,3.1667 0,2.0918 0.6848,3.1585 0.6848,1.0666 2.0295,1.0666 0.6309,0 1.2244,-0.2698 0.5935,-0.2697 1.2243,-0.8508 z" />
    <text
       style="font-size:12px;font-family:sans-serif;fill:#000000"
       id="text53"
       y="344.53519"
       x="115.25"
       textLength="66"
       lengthAdjust="spacingAndGlyphs"
       font-size="12">CallByValue</text>
    <line
       id="line55"
       y2="356"
       y1="356"
       x2="241"
       x1="23"
       style="stroke:#a80036;stroke-width:1.5" />
    <line
       id="line57"
       y2="364"
       y1="364"
       x2="241"
       x1="23"
       style="stroke:#a80036;stroke-width:1.5" />
    <circle
       r="3"
       id="ellipse59"
       style="fill:#84be84;stroke:#038048;stroke-width:1"
       cy="375.97751"
       cx="33" />
    <text
       style="font-size:11px;font-family:sans-serif;fill:#000000"
       id="text61"
       y="378.6348"
       x="42"
       textLength="194"
       lengthAdjust="spacingAndGlyphs"
       font-size="11">Application next(LambdaTerm term)</text>
    <circle
       r="3"
       id="ellipse63"
       style="fill:#84be84;stroke:#038048;stroke-width:1"
       cy="388.93259"
       cx="33" />
    <text
       style="font-size:11px;font-family:sans-serif;fill:#000000"
       id="text65"
       y="391.58981"
       x="42"
       textLength="90"
       lengthAdjust="spacingAndGlyphs"
       font-size="11">String getName()</text>
    <circle
       r="3"
       id="ellipse67"
       style="fill:#84be84;stroke:#038048;stroke-width:1"
       cy="401.8877"
       cx="33" />
    <text
       style="font-size:11px;font-family:sans-serif;fill:#000000"
       id="text69"
       y="404.54489"
       x="42"
       textLength="87"
       lengthAdjust="spacingAndGlyphs"
       font-size="11">String serialize()</text>
  </a>
  <a
     id="a88"
     xlink:type="simple"
     xlink:title="java:edu.kit.wavelength.client.model.reduction.ReductionOrder"
     xlink:show="new"
     xlink:href="java:edu.kit.wavelength.client.model.reduction.ReductionOrder"
     xlink:actuate="onRequest"
     target="_top">
    <rect
       y="190"
       x="351"
       width="206"
       style="fill:#fefece;stroke:#a80036;stroke-width:1.5;filter:url(#f2lsu3cz5l0cw)"
       id="ReductionOrder"
       height="73.910202" />
    <circle
       r="11"
       id="ellipse74"
       style="fill:#b4a7e5;stroke:#a80036;stroke-width:1"
       cy="206"
       cx="404.25" />
    <path
       inkscape:connector-curvature="0"
       id="path76"
       d="m 400.1777,201.7651 v -2.1582 h 7.3794 v 2.1582 h -2.4653 v 8.0767 h 2.4653 V 212 h -7.3794 v -2.1582 h 2.4654 v -8.0767 z" />
    <text
       style="font-style:italic;font-size:12px;font-family:sans-serif;fill:#000000"
       id="text78"
       y="210.5352"
       x="424.75"
       textLength="91"
       lengthAdjust="spacingAndGlyphs"
       font-style="italic"
       font-size="12">ReductionOrder</text>
    <line
       id="line80"
       y2="222"
       y1="222"
       x2="556"
       x1="352"
       style="stroke:#a80036;stroke-width:1.5" />
    <line
       id="line82"
       y2="230"
       y1="230"
       x2="556"
       x1="352"
       style="stroke:#a80036;stroke-width:1.5" />
    <text
       style="font-size:11px;font-family:sans-serif;fill:#000000"
       id="text84"
       y="244.6348"
       x="357"
       textLength="194"
       lengthAdjust="spacingAndGlyphs"
       font-size="11">Application next(LambdaTerm term)</text>
    <text
       style="font-size:11px;font-family:sans-serif;fill:#000000"
       id="text86"
       y="257.58981"
       x="357"
       textLength="90"
       lengthAdjust="spacingAndGlyphs"
       font-size="11">String getName()</text>
  </a>
  <a
     id="a113"
     xlink:type="simple"
     xlink:title="java:edu.kit.wavelength.client.model.reduction.NormalOrder"
     xlink:show="new"
     xlink:href="java:edu.kit.wavelength.client.model.reduction.NormalOrder"
     xlink:actuate="onRequest"
     target="_top">
    <rect
       y="324"
       x="277"
       width="220"
       style="fill:#fefece;stroke:#a80036;stroke-width:1.5;filter:url(#f2lsu3cz5l0cw)"
       id="NormalOrder"
       height="86.865196" />
    <circle
       r="11"
       id="ellipse91"
       style="fill:#add1b2;stroke:#a80036;stroke-width:1"
       cy="340"
       cx="344.75" />
    <path
       inkscape:connector-curvature="0"
       id="path93"
       d="m 347.7231,345.6431 q -0.581,0.2988 -1.2202,0.4482 -0.6391,0.1494 -1.3447,0.1494 -2.5068,0 -3.8267,-1.6518 -1.3198,-1.6519 -1.3198,-4.773 0,-3.1294 1.3198,-4.7812 1.3199,-1.6519 3.8267,-1.6519 0.7056,0 1.353,0.1494 0.6475,0.1494 1.2119,0.4483 v 2.7226 q -0.6308,-0.581 -1.2243,-0.8508 -0.5935,-0.2698 -1.2244,-0.2698 -1.3447,0 -2.0295,1.0667 -0.6848,1.0666 -0.6848,3.1667 0,2.0918 0.6848,3.1585 0.6848,1.0666 2.0295,1.0666 0.6309,0 1.2244,-0.2698 0.5935,-0.2697 1.2243,-0.8508 z" />
    <text
       style="font-size:12px;font-family:sans-serif;fill:#000000"
       id="text95"
       y="344.53519"
       x="365.25"
       textLength="76"
       lengthAdjust="spacingAndGlyphs"
       font-size="12">NormalOrder</text>
    <line
       id="line97"
       y2="356"
       y1="356"
       x2="496"
       x1="278"
       style="stroke:#a80036;stroke-width:1.5" />
    <line
       id="line99"
       y2="364"
       y1="364"
       x2="496"
       x1="278"
       style="stroke:#a80036;stroke-width:1.5" />
    <circle
       r="3"
       id="ellipse101"
       style="fill:#84be84;stroke:#038048;stroke-width:1"
       cy="375.97751"
       cx="288" />
    <text
       style="font-size:11px;font-family:sans-serif;fill:#000000"
       id="text103"
       y="378.6348"
       x="297"
       textLength="194"
       lengthAdjust="spacingAndGlyphs"
       font-size="11">Application next(LambdaTerm term)</text>
    <circle
       r="3"
       id="ellipse105"
       style="fill:#84be84;stroke:#038048;stroke-width:1"
       cy="388.93259"
       cx="288" />
    <text
       style="font-size:11px;font-family:sans-serif;fill:#000000"
       id="text107"
       y="391.58981"
       x="297"
       textLength="90"
       lengthAdjust="spacingAndGlyphs"
       font-size="11">String getName()</text>
    <circle
       r="3"
       id="ellipse109"
       style="fill:#84be84;stroke:#038048;stroke-width:1"
       cy="401.8877"
       cx="288" />
    <text
       style="font-size:11px;font-family:sans-serif;fill:#000000"
       id="text111"
       y="404.54489"
       x="297"
       textLength="87"
       lengthAdjust="spacingAndGlyphs"
       font-size="11">String serialize()</text>
  </a>
  <a
     id="a138"
     xlink:type="simple"
     xlink:title="java:edu.kit.wavelength.client.model.reduction.CallByName"
     xlink:show="new"
     xlink:href="java:edu.kit.wavelength.client.model.reduction.CallByName"
     xlink:actuate="onRequest"
     target="_top">
    <rect
       y="324"
       x="532"
       width="220"
       style="fill:#fefece;stroke:#a80036;stroke-width:1.5;filter:url(#f2lsu3cz5l0cw)"
       id="CallByName"
       height="86.865196" />
    <circle
       r="11"
       id="ellipse116"
       style="fill:#add1b2;stroke:#a80036;stroke-width:1"
       cy="340"
       cx="603.75" />
    <path
       inkscape:connector-curvature="0"
       id="path118"
       d="m 606.7231,345.6431 q -0.581,0.2988 -1.2202,0.4482 -0.6391,0.1494 -1.3447,0.1494 -2.5068,0 -3.8267,-1.6518 -1.3198,-1.6519 -1.3198,-4.773 0,-3.1294 1.3198,-4.7812 1.3199,-1.6519 3.8267,-1.6519 0.7056,0 1.353,0.1494 0.6475,0.1494 1.2119,0.4483 v 2.7226 q -0.6308,-0.581 -1.2243,-0.8508 -0.5935,-0.2698 -1.2244,-0.2698 -1.3447,0 -2.0295,1.0667 -0.6848,1.0666 -0.6848,3.1667 0,2.0918 0.6848,3.1585 0.6848,1.0666 2.0295,1.0666 0.6309,0 1.2244,-0.2698 0.5935,-0.2697 1.2243,-0.8508 z" />
    <text
       style="font-size:12px;font-family:sans-serif;fill:#000000"
       id="text120"
       y="344.53519"
       x="624.25"
       textLength="68"
       lengthAdjust="spacingAndGlyphs"
       font-size="12">CallByName</text>
    <line
       id="line122"
       y2="356"
       y1="356"
       x2="751"
       x1="533"
       style="stroke:#a80036;stroke-width:1.5" />
    <line
       id="line124"
       y2="364"
       y1="364"
       x2="751"
       x1="533"
       style="stroke:#a80036;stroke-width:1.5" />
    <circle
       r="3"
       id="ellipse126"
       style="fill:#84be84;stroke:#038048;stroke-width:1"
       cy="375.97751"
       cx="543" />
    <text
       style="font-size:11px;font-family:sans-serif;fill:#000000"
       id="text128"
       y="378.6348"
       x="552"
       textLength="194"
       lengthAdjust="spacingAndGlyphs"
       font-size="11">Application next(LambdaTerm term)</text>
    <circle
       r="3"
       id="ellipse130"
       style="fill:#84be84;stroke:#038048;stroke-width:1"
       cy="388.93259"
       cx="543" />
    <text
       style="font-size:11px;font-family:sans-serif;fill:#000000"
       id="text132"
       y="391.58981"
       x="552"
       textLength="90"
       lengthAdjust="spacingAndGlyphs"
       font-size="11">String getName()</text>
    <circle
       r="3"
       id="ellipse134"
       style="fill:#84be84;stroke:#038048;stroke-width:1"
       cy="401.8877"
       cx="543" />
    <text
       style="font-size:11px;font-family:sans-serif;fill:#000000"
       id="text136"
       y="404.54489"
       x="552"
       textLength="87"
       lengthAdjust="spacingAndGlyphs"
       font-size="11">String serialize()</text>
  </a>
  <a
     id="a151"
     xlink:type="simple"
     xlink:title="java:edu.kit.wavelength.client.model.serialization.Serializable"
     xlink:show="new"
     xlink:href="java:edu.kit.wavelength.client.model.serialization.Serializable"
     xlink:actuate="onRequest"
     target="_top">
    <rect
       y="62.5"
       x="405"
       width="98"
       style="fill:#fefece;stroke:#a80036;stroke-width:1.5;filter:url(#f2lsu3cz5l0cw)"
       id="Serializable"
       height="48" />
    <circle
       r="11"
       id="ellipse141"
       style="fill:#b4a7e5;stroke:#a80036;stroke-width:1"
       cy="78.5"
       cx="420" />
    <path
       inkscape:connector-curvature="0"
       id="path143"
       d="m 415.9277,74.2651 v -2.1582 h 7.3794 v 2.1582 h -2.4653 v 8.0767 h 2.4653 V 84.5 h -7.3794 v -2.1582 h 2.4654 v -8.0767 z" />
    <text
       style="font-style:italic;font-size:12px;font-family:sans-serif;fill:#000000"
       id="text145"
       y="83.035202"
       x="434"
       textLength="66"
       lengthAdjust="spacingAndGlyphs"
       font-style="italic"
       font-size="12">Serializable</text>
    <line
       id="line147"
       y2="94.5"
       y1="94.5"
       x2="502"
       x1="406"
       style="stroke:#a80036;stroke-width:1.5" />
    <line
       id="line149"
       y2="102.5"
       y1="102.5"
       x2="502"
       x1="406"
       style="stroke:#a80036;stroke-width:1.5" />
  </a>
  <a
     id="a176"
     xlink:type="simple"
     xlink:title="java:edu.kit.wavelength.client.model.reduction.ApplicativeOrder"
     xlink:show="new"
     xlink:href="java:edu.kit.wavelength.client.model.reduction.ApplicativeOrder"
     xlink:actuate="onRequest"
     target="_top">
    <rect
       y="324"
       x="787"
       width="220"
       style="fill:#fefece;stroke:#a80036;stroke-width:1.5;filter:url(#f2lsu3cz5l0cw)"
       id="ApplicativeOrder"
       height="86.865196" />
    <circle
       r="11"
       id="ellipse154"
       style="fill:#add1b2;stroke:#a80036;stroke-width:1"
       cy="340"
       cx="844.25" />
    <path
       inkscape:connector-curvature="0"
       id="path156"
       d="m 847.2231,345.6431 q -0.581,0.2988 -1.2202,0.4482 -0.6391,0.1494 -1.3447,0.1494 -2.5068,0 -3.8267,-1.6518 -1.3198,-1.6519 -1.3198,-4.773 0,-3.1294 1.3198,-4.7812 1.3199,-1.6519 3.8267,-1.6519 0.7056,0 1.353,0.1494 0.6475,0.1494 1.2119,0.4483 v 2.7226 q -0.6308,-0.581 -1.2243,-0.8508 -0.5935,-0.2698 -1.2244,-0.2698 -1.3447,0 -2.0295,1.0667 -0.6848,1.0666 -0.6848,3.1667 0,2.0918 0.6848,3.1585 0.6848,1.0666 2.0295,1.0666 0.6309,0 1.2244,-0.2698 0.5935,-0.2697 1.2243,-0.8508 z" />
    <text
       style="font-size:12px;font-family:sans-serif;fill:#000000"
       id="text158"
       y="344.53519"
       x="864.75"
       textLength="97"
       lengthAdjust="spacingAndGlyphs"
       font-size="12">ApplicativeOrder</text>
    <line
       id="line160"
       y2="356"
       y1="356"
       x2="1006"
       x1="788"
       style="stroke:#a80036;stroke-width:1.5" />
    <line
       id="line162"
       y2="364"
       y1="364"
       x2="1006"
       x1="788"
       style="stroke:#a80036;stroke-width:1.5" />
    <circle
       r="3"
       id="ellipse164"
       style="fill:#84be84;stroke:#038048;stroke-width:1"
       cy="375.97751"
       cx="798" />
    <text
       style="font-size:11px;font-family:sans-serif;fill:#000000"
       id="text166"
       y="378.6348"
       x="807"
       textLength="194"
       lengthAdjust="spacingAndGlyphs"
       font-size="11">Application next(LambdaTerm term)</text>
    <circle
       r="3"
       id="ellipse168"
       style="fill:#84be84;stroke:#038048;stroke-width:1"
       cy="388.93259"
       cx="798" />
    <text
       style="font-size:11px;font-family:sans-serif;fill:#000000"
       id="text170"
       y="391.58981"
       x="807"
       textLength="90"
       lengthAdjust="spacingAndGlyphs"
       font-size="11">String getName()</text>
    <circle
       r="3"
       id="ellipse172"
       style="fill:#84be84;stroke:#038048;stroke-width:1"
       cy="401.8877"
       cx="798" />
    <text
       style="font-size:11px;font-family:sans-serif;fill:#000000"
       id="text174"
       y="404.54489"
       x="807"
       textLength="87"
       lengthAdjust="spacingAndGlyphs"
       font-size="11">String serialize()</text>
  </a>
  <path
     inkscape:connector-curvature="0"
     style="fill:none;stroke:#a80036;stroke-width:1;stroke-dasharray:7, 7"
     id="ReductionOrder-CallByValue"
     d="M 350.4634,272.1767 C 312.4391,288.768 269.4928,307.507 231.8031,323.9524" />
  <polygon
     id="polygon179"
     style="fill:none;stroke:#a80036;stroke-width:1"
     points="353.4456,278.5129 347.8466,265.6812 368.9771,264.0985 " />
  <path
     inkscape:connector-curvature="0"
     style="fill:none;stroke:#a80036;stroke-width:1;stroke-dasharray:7, 7"
     id="ReductionOrder-NormalOrder"
     d="m 427.6055,282.3496 c -6.5655,13.768 -13.5127,28.3363 -19.7689,41.4557" />
  <polygon
     id="polygon182"
     style="fill:none;stroke:#a80036;stroke-width:1"
     points="433.9308,285.3481 421.2941,279.322 436.2211,264.2825 " />
  <path
     inkscape:connector-curvature="0"
     style="fill:none;stroke:#a80036;stroke-width:1;stroke-dasharray:7, 7"
     id="ReductionOrder-CallByName"
     d="m 519.9774,276.3076 c 20.7055,15.4741 43.4076,32.4402 63.5557,47.4977" />
  <polygon
     id="polygon185"
     style="fill:none;stroke:#a80036;stroke-width:1"
     points="524.0979,270.6481 515.717,281.8625 503.887,264.2825 " />
  <path
     inkscape:connector-curvature="0"
     style="fill:none;stroke:#a80036;stroke-width:1"
     id="Serializable-ReductionOrder"
     d="m 454,130.8671 c 0,19.0191 0,40.9806 0,59.1077" />
  <polygon
     id="polygon188"
     style="fill:none;stroke:#a80036;stroke-width:1"
     points="461.0001,130.6528 447.0001,130.6528 454,110.6528 " />
  <path
     inkscape:connector-curvature="0"
     style="fill:none;stroke:#a80036;stroke-width:1;stroke-dasharray:7, 7"
     id="ReductionOrder-ApplicativeOrder"
     d="M 576.4798,263.5952 C 635.1668,281.3855 706.3711,303.343 770,324 c 5.5418,1.7991 11.2124,3.6617 16.9338,5.5582" />
  <polygon
     id="polygon191"
     style="fill:none;stroke:#a80036;stroke-width:1"
     points="578.2562,256.8194 574.2032,270.2199 557.0862,257.7296 " />
</svg>
