<?xml version="1.0" encoding="UTF-8" standalone="no"?>
<svg
   xmlns:dc="http://purl.org/dc/elements/1.1/"
   xmlns:cc="http://creativecommons.org/ns#"
   xmlns:rdf="http://www.w3.org/1999/02/22-rdf-syntax-ns#"
   xmlns:svg="http://www.w3.org/2000/svg"
   xmlns="http://www.w3.org/2000/svg"
   xmlns:xlink="http://www.w3.org/1999/xlink"
   xmlns:sodipodi="http://sodipodi.sourceforge.net/DTD/sodipodi-0.dtd"
   xmlns:inkscape="http://www.inkscape.org/namespaces/inkscape"
   contentScriptType="application/ecmascript"
   contentStyleType="text/css"
   height="297px"
   preserveAspectRatio="none"
   style="width:1814px;height:297px;"
   version="1.1"
   viewBox="0 0 1814 297"
   width="1814px"
   zoomAndPan="magnify"
   id="svg237"
   sodipodi:docname="updatePackage.svg"
   inkscape:version="0.92.2 5c3e80d, 2017-08-06">
  <metadata
     id="metadata241">
    <rdf:RDF>
      <cc:Work
         rdf:about="">
        <dc:format>image/svg+xml</dc:format>
        <dc:type
           rdf:resource="http://purl.org/dc/dcmitype/StillImage" />
      </cc:Work>
    </rdf:RDF>
  </metadata>
  <sodipodi:namedview
     pagecolor="#ffffff"
     bordercolor="#666666"
     borderopacity="1"
     objecttolerance="10"
     gridtolerance="10"
     guidetolerance="10"
     inkscape:pageopacity="0"
     inkscape:pageshadow="2"
     inkscape:window-width="1119"
     inkscape:window-height="623"
     id="namedview239"
     showgrid="false"
     inkscape:zoom="0.90848952"
     inkscape:cx="-486.82363"
     inkscape:cy="118.28318"
     inkscape:window-x="0"
     inkscape:window-y="0"
     inkscape:window-maximized="0"
     inkscape:current-layer="svg237" />
  <defs
     id="defs11">
    <filter
       height="300%"
       id="f2oi5bli7bawq"
       width="300%"
       x="-1"
       y="-1">
      <feGaussianBlur
         result="blurOut"
         stdDeviation="2.0"
         id="feGaussianBlur2" />
      <feColorMatrix
         in="blurOut"
         result="blurOut2"
         type="matrix"
         values="0 0 0 0 0 0 0 0 0 0 0 0 0 0 0 0 0 0 .4 0"
         id="feColorMatrix4" />
      <feOffset
         dx="4.0"
         dy="4.0"
         in="blurOut2"
         result="blurOut3"
         id="feOffset6" />
      <feBlend
         in="SourceGraphic"
         in2="blurOut3"
         mode="normal"
         id="feBlend8" />
    </filter>
  </defs>
  <polygon
     id="polygon13"
     style="fill:#ffffff;stroke:#000000;stroke-width:2;filter:url(#f2oi5bli7bawq)"
     points="14,285 14,16 285,16 292,38.4883 1792,38.4883 1792,285 "
     transform="matrix(1,0,0,0.75008565,0,3.9986295)" />
  <line
     id="line15"
     y2="32.4883"
     y1="32.4883"
     x2="292"
     x1="14"
     style="stroke:#000000;stroke-width:2" />
  <text
     style="font-weight:bold;font-size:14px;font-family:sans-serif;fill:#000000"
     id="text17"
     y="31.5352"
     x="18"
     textLength="265"
     lengthAdjust="spacingAndGlyphs"
     font-weight="bold"
     font-size="14"
     transform="translate(0,-2)">edu.kit.wavelength.client.view.update</text>
  <a
     id="a34"
     xlink:type="simple"
     xlink:title="java:edu.kit.wavelength.client.view.update.UpdateURL"
     xlink:show="new"
     xlink:href="java:edu.kit.wavelength.client.view.update.UpdateURL"
     xlink:actuate="onRequest"
     target="_top"
     transform="translate(3.1133294,-87.173222)">
    <rect
       y="183.5"
       x="1370.5"
       width="189"
       style="fill:#fefece;stroke:#a80036;stroke-width:1.5;filter:url(#f2oi5bli7bawq)"
       id="UpdateURL"
       height="60.955101" />
    <circle
       r="11"
       id="ellipse20"
       style="fill:#add1b2;stroke:#a80036;stroke-width:1"
       cy="199.5"
       cx="1428.75" />
    <path
       inkscape:connector-curvature="0"
       id="path22"
       d="m 1431.7231,205.1431 q -0.581,0.2988 -1.2202,0.4482 -0.6391,0.1494 -1.3447,0.1494 -2.5068,0 -3.8267,-1.6518 -1.3198,-1.6519 -1.3198,-4.773 0,-3.1294 1.3198,-4.7812 1.3199,-1.6519 3.8267,-1.6519 0.7056,0 1.353,0.1494 0.6475,0.1494 1.2119,0.4483 v 2.7226 q -0.6308,-0.581 -1.2243,-0.8508 -0.5935,-0.2698 -1.2244,-0.2698 -1.3447,0 -2.0295,1.0667 -0.6848,1.0666 -0.6848,3.1667 0,2.0918 0.6848,3.1585 0.6848,1.0666 2.0295,1.0666 0.6309,0 1.2244,-0.2698 0.5935,-0.2697 1.2243,-0.8508 z" />
    <text
       style="font-size:12px;font-family:sans-serif;fill:#000000"
       id="text24"
       y="204.0352"
       x="1449.25"
       textLength="64"
       lengthAdjust="spacingAndGlyphs"
       font-size="12">UpdateURL</text>
    <line
       id="line26"
       y2="215.5"
       y1="215.5"
       x2="1558.5"
       x1="1371.5"
       style="stroke:#a80036;stroke-width:1.5" />
    <line
       id="line28"
       y2="223.5"
       y1="223.5"
       x2="1558.5"
       x1="1371.5"
       style="stroke:#a80036;stroke-width:1.5" />
    <circle
       r="3"
       id="ellipse30"
       style="fill:#84be84;stroke:#038048;stroke-width:1"
       cy="235.47749"
       cx="1381.5" />
    <text
       style="font-size:11px;font-family:sans-serif;fill:#000000"
       id="text32"
       y="238.1348"
       x="1390.5"
       textLength="163"
       lengthAdjust="spacingAndGlyphs"
       font-size="11">void updateSerialized(String s)</text>
  </a>
  <a
     id="a64"
     xlink:type="simple"
     xlink:title="java:edu.kit.wavelength.client.view.update.UpdateUnicodeOutput"
     xlink:show="new"
     xlink:href="java:edu.kit.wavelength.client.view.update.UpdateUnicodeOutput"
     xlink:actuate="onRequest"
     target="_top"
     transform="translate(3.1133294,-87.173222)">
    <rect
       y="183.5"
       x="916"
       width="192"
       style="fill:#fefece;stroke:#a80036;stroke-width:1.5;filter:url(#f2oi5bli7bawq)"
       id="UpdateUnicodeOutput"
       height="60.955101" />
    <circle
       r="11"
       id="ellipse50"
       style="fill:#add1b2;stroke:#a80036;stroke-width:1"
       cy="199.5"
       cx="945.84998" />
    <path
       inkscape:connector-curvature="0"
       id="path52"
       d="m 948.8231,205.1431 q -0.581,0.2988 -1.2202,0.4482 -0.6391,0.1494 -1.3447,0.1494 -2.5068,0 -3.8267,-1.6518 -1.3198,-1.6519 -1.3198,-4.773 0,-3.1294 1.3198,-4.7812 1.3199,-1.6519 3.8267,-1.6519 0.7056,0 1.353,0.1494 0.6475,0.1494 1.2119,0.4483 v 2.7226 q -0.6308,-0.581 -1.2243,-0.8508 -0.5935,-0.2698 -1.2244,-0.2698 -1.3447,0 -2.0295,1.0667 -0.6848,1.0666 -0.6848,3.1667 0,2.0918 0.6848,3.1585 0.6848,1.0666 2.0295,1.0666 0.6309,0 1.2244,-0.2698 0.5935,-0.2697 1.2243,-0.8508 z" />
    <text
       style="font-size:12px;font-family:sans-serif;fill:#000000"
       id="text54"
       y="204.0352"
       x="963.15002"
       textLength="127"
       lengthAdjust="spacingAndGlyphs"
       font-size="12">UpdateUnicodeOutput</text>
    <line
       id="line56"
       y2="215.5"
       y1="215.5"
       x2="1107"
       x1="917"
       style="stroke:#a80036;stroke-width:1.5" />
    <line
       id="line58"
       y2="223.5"
       y1="223.5"
       x2="1107"
       x1="917"
       style="stroke:#a80036;stroke-width:1.5" />
    <circle
       r="3"
       id="ellipse60"
       style="fill:#84be84;stroke:#038048;stroke-width:1"
       cy="235.47749"
       cx="927" />
    <text
       style="font-size:11px;font-family:sans-serif;fill:#000000"
       id="text62"
       y="238.1348"
       x="936"
       textLength="166"
       lengthAdjust="spacingAndGlyphs"
       font-size="11">void pushTerm(LambdaTerm t)</text>
  </a>
  <a
     id="a94"
     xlink:type="simple"
     xlink:title="java:edu.kit.wavelength.client.view.update.UpdateTreeOutput"
     xlink:show="new"
     xlink:href="java:edu.kit.wavelength.client.view.update.UpdateTreeOutput"
     xlink:actuate="onRequest"
     target="_top"
     transform="translate(3.1133294,-87.173222)">
    <rect
       y="183.5"
       x="1143"
       width="192"
       style="fill:#fefece;stroke:#a80036;stroke-width:1.5;filter:url(#f2oi5bli7bawq)"
       id="UpdateTreeOutput"
       height="60.955101" />
    <circle
       r="11"
       id="ellipse80"
       style="fill:#add1b2;stroke:#a80036;stroke-width:1"
       cy="199.5"
       cx="1181.4" />
    <path
       inkscape:connector-curvature="0"
       id="path82"
       d="m 1184.3731,205.1431 q -0.581,0.2988 -1.2202,0.4482 -0.6391,0.1494 -1.3447,0.1494 -2.5068,0 -3.8267,-1.6518 -1.3198,-1.6519 -1.3198,-4.773 0,-3.1294 1.3198,-4.7812 1.3199,-1.6519 3.8267,-1.6519 0.7056,0 1.353,0.1494 0.6475,0.1494 1.2119,0.4483 v 2.7226 q -0.6308,-0.581 -1.2243,-0.8508 -0.5935,-0.2698 -1.2244,-0.2698 -1.3447,0 -2.0295,1.0667 -0.6848,1.0666 -0.6848,3.1667 0,2.0918 0.6848,3.1585 0.6848,1.0666 2.0295,1.0666 0.6309,0 1.2244,-0.2698 0.5935,-0.2697 1.2243,-0.8508 z" />
    <text
       style="font-size:12px;font-family:sans-serif;fill:#000000"
       id="text84"
       y="204.0352"
       x="1200.6"
       textLength="108"
       lengthAdjust="spacingAndGlyphs"
       font-size="12">UpdateTreeOutput</text>
    <line
       id="line86"
       y2="215.5"
       y1="215.5"
       x2="1334"
       x1="1144"
       style="stroke:#a80036;stroke-width:1.5" />
    <line
       id="line88"
       y2="223.5"
       y1="223.5"
       x2="1334"
       x1="1144"
       style="stroke:#a80036;stroke-width:1.5" />
    <circle
       r="3"
       id="ellipse90"
       style="fill:#84be84;stroke:#038048;stroke-width:1"
       cy="235.47749"
       cx="1154" />
    <text
       style="font-size:11px;font-family:sans-serif;fill:#000000"
       id="text92"
       y="238.1348"
       x="1163"
       textLength="166"
       lengthAdjust="spacingAndGlyphs"
       font-size="11">void pushTerm(LambdaTerm t)</text>
  </a>
  <a
     id="a131"
     xlink:type="simple"
     xlink:title="java:edu.kit.wavelength.client.view.update.UnicodeTermVisitor"
     xlink:show="new"
     xlink:href="java:edu.kit.wavelength.client.view.update.UnicodeTermVisitor"
     xlink:actuate="onRequest"
     target="_top"
     transform="translate(3.1133294,-87.173222)">
    <rect
       y="151"
       x="459"
       width="422"
       style="fill:#fefece;stroke:#a80036;stroke-width:1.5;filter:url(#f2oi5bli7bawq)"
       id="UnicodeTermVisitor"
       height="125.7305" />
    <circle
       r="11"
       id="ellipse97"
       style="fill:#add1b2;stroke:#a80036;stroke-width:1"
       cy="167"
       cx="609.25" />
    <path
       inkscape:connector-curvature="0"
       id="path99"
       d="m 612.2231,172.6431 q -0.581,0.2988 -1.2202,0.4482 -0.6391,0.1494 -1.3447,0.1494 -2.5068,0 -3.8267,-1.6518 -1.3198,-1.6519 -1.3198,-4.773 0,-3.1294 1.3198,-4.7812 1.3199,-1.6519 3.8267,-1.6519 0.7056,0 1.353,0.1494 0.6475,0.1494 1.2119,0.4483 v 2.7226 q -0.6308,-0.581 -1.2243,-0.8508 -0.5935,-0.2698 -1.2244,-0.2698 -1.3447,0 -2.0295,1.0667 -0.6848,1.0666 -0.6848,3.1667 0,2.0918 0.6848,3.1585 0.6848,1.0666 2.0295,1.0666 0.6309,0 1.2244,-0.2698 0.5935,-0.2697 1.2243,-0.8508 z" />
    <text
       style="font-size:12px;font-family:sans-serif;fill:#000000"
       id="text101"
       y="171.5352"
       x="629.75"
       textLength="113"
       lengthAdjust="spacingAndGlyphs"
       font-size="12">UnicodeTermVisitor</text>
    <line
       id="line103"
       y2="183"
       y1="183"
       x2="880"
       x1="460"
       style="stroke:#a80036;stroke-width:1.5" />
    <line
       id="line105"
       y2="191"
       y1="191"
       x2="880"
       x1="460"
       style="stroke:#a80036;stroke-width:1.5" />
    <circle
       r="3"
       id="ellipse107"
       style="fill:#84be84;stroke:#038048;stroke-width:1"
       cy="202.97749"
       cx="470" />
    <text
       style="font-size:11px;font-family:sans-serif;fill:#000000"
       id="text109"
       y="205.6348"
       x="479"
       textLength="250"
       lengthAdjust="spacingAndGlyphs"
       font-size="11">UnicodeTerm visitApplication(Application app)</text>
    <circle
       r="3"
       id="ellipse111"
       style="fill:#84be84;stroke:#038048;stroke-width:1"
       cy="215.9326"
       cx="470" />
    <text
       style="font-size:11px;font-family:sans-serif;fill:#000000"
       id="text113"
       y="218.5898"
       x="479"
       textLength="263"
       lengthAdjust="spacingAndGlyphs"
       font-size="11">UnicodeTerm visitNamedTerm(NamedTerm term)</text>
    <circle
       r="3"
       id="ellipse115"
       style="fill:#84be84;stroke:#038048;stroke-width:1"
       cy="228.8877"
       cx="470" />
    <text
       style="font-size:11px;font-family:sans-serif;fill:#000000"
       id="text117"
       y="231.54491"
       x="479"
       textLength="316"
       lengthAdjust="spacingAndGlyphs"
       font-size="11">UnicodeTerm visitPartialApplication(PartialApplication app)</text>
    <circle
       r="3"
       id="ellipse119"
       style="fill:#84be84;stroke:#038048;stroke-width:1"
       cy="241.8428"
       cx="470" />
    <text
       style="font-size:11px;font-family:sans-serif;fill:#000000"
       id="text121"
       y="244.5"
       x="479"
       textLength="257"
       lengthAdjust="spacingAndGlyphs"
       font-size="11">UnicodeTerm visitFreeVariable(FreeVariable var)</text>
    <polygon
       id="polygon123"
       style="fill:#ffff44;stroke:#b38d22;stroke-width:1"
       points="466,253.7979 470,249.7979 474,253.7979 470,257.7979 " />
    <text
       style="font-size:11px;font-family:sans-serif;fill:#000000"
       id="text125"
       y="257.45511"
       x="479"
       textLength="396"
       lengthAdjust="spacingAndGlyphs"
       font-size="11">UnicodeTerm visitBoundVariable(BoundVariable var, String resolvedName)</text>
    <polygon
       id="polygon127"
       style="fill:#ffff44;stroke:#b38d22;stroke-width:1"
       points="466,266.7529 470,262.7529 474,266.7529 470,270.7529 " />
    <text
       style="font-size:11px;font-family:sans-serif;fill:#000000"
       id="text129"
       y="270.41019"
       x="479"
       textLength="370"
       lengthAdjust="spacingAndGlyphs"
       font-size="11">UnicodeTerm visitAbstraction(Abstraction abs, String resolvedName)</text>
  </a>
  <a
     id="a163"
     xlink:type="simple"
     xlink:title="java:edu.kit.wavelength.client.view.update.UpdateShareURL"
     xlink:show="new"
     xlink:href="java:edu.kit.wavelength.client.view.update.UpdateShareURL"
     xlink:actuate="onRequest"
     target="_top"
     transform="translate(3.1133294,-87.173222)">
    <rect
       y="183.5"
       x="1594.5"
       width="189"
       style="fill:#fefece;stroke:#a80036;stroke-width:1.5;filter:url(#f2oi5bli7bawq)"
       id="UpdateShareURL"
       height="60.955101" />
    <circle
       r="11"
       id="ellipse149"
       style="fill:#add1b2;stroke:#a80036;stroke-width:1"
       cy="199.5"
       cx="1636.95" />
    <path
       inkscape:connector-curvature="0"
       id="path151"
       d="m 1639.9231,205.1431 q -0.581,0.2988 -1.2202,0.4482 -0.6391,0.1494 -1.3447,0.1494 -2.5068,0 -3.8267,-1.6518 -1.3198,-1.6519 -1.3198,-4.773 0,-3.1294 1.3198,-4.7812 1.3199,-1.6519 3.8267,-1.6519 0.7056,0 1.353,0.1494 0.6475,0.1494 1.2119,0.4483 v 2.7226 q -0.6308,-0.581 -1.2243,-0.8508 -0.5935,-0.2698 -1.2244,-0.2698 -1.3447,0 -2.0295,1.0667 -0.6848,1.0666 -0.6848,3.1667 0,2.0918 0.6848,3.1585 0.6848,1.0666 2.0295,1.0666 0.6309,0 1.2244,-0.2698 0.5935,-0.2697 1.2243,-0.8508 z" />
    <text
       style="font-size:12px;font-family:sans-serif;fill:#000000"
       id="text153"
       y="204.0352"
       x="1657.05"
       textLength="96"
       lengthAdjust="spacingAndGlyphs"
       font-size="12">UpdateShareURL</text>
    <line
       id="line155"
       y2="215.5"
       y1="215.5"
       x2="1782.5"
       x1="1595.5"
       style="stroke:#a80036;stroke-width:1.5" />
    <line
       id="line157"
       y2="223.5"
       y1="223.5"
       x2="1782.5"
       x1="1595.5"
       style="stroke:#a80036;stroke-width:1.5" />
    <circle
       r="3"
       id="ellipse159"
       style="fill:#84be84;stroke:#038048;stroke-width:1"
       cy="235.47749"
       cx="1605.5" />
    <text
       style="font-size:11px;font-family:sans-serif;fill:#000000"
       id="text161"
       y="238.1348"
       x="1614.5"
       textLength="163"
       lengthAdjust="spacingAndGlyphs"
       font-size="11">void updateSerialized(String s)</text>
  </a>
  <a
     id="a200"
     xlink:type="simple"
     xlink:title="java:edu.kit.wavelength.client.view.update.TreeTermVisitor"
     xlink:show="new"
     xlink:href="java:edu.kit.wavelength.client.view.update.TreeTermVisitor"
     xlink:actuate="onRequest"
     target="_top"
     transform="translate(3.1133294,-87.173222)">
    <rect
       y="151"
       x="22"
       width="402"
       style="fill:#fefece;stroke:#a80036;stroke-width:1.5;filter:url(#f2oi5bli7bawq)"
       id="TreeTermVisitor"
       height="125.7305" />
    <circle
       r="11"
       id="ellipse166"
       style="fill:#add1b2;stroke:#a80036;stroke-width:1"
       cy="167"
       cx="171.75" />
    <path
       inkscape:connector-curvature="0"
       id="path168"
       d="m 174.7231,172.6431 q -0.581,0.2988 -1.2202,0.4482 -0.6391,0.1494 -1.3447,0.1494 -2.5068,0 -3.8267,-1.6518 -1.3198,-1.6519 -1.3198,-4.773 0,-3.1294 1.3198,-4.7812 1.3199,-1.6519 3.8267,-1.6519 0.7056,0 1.353,0.1494 0.6475,0.1494 1.2119,0.4483 v 2.7226 q -0.6308,-0.581 -1.2243,-0.8508 -0.5935,-0.2698 -1.2244,-0.2698 -1.3447,0 -2.0295,1.0667 -0.6848,1.0666 -0.6848,3.1667 0,2.0918 0.6848,3.1585 0.6848,1.0666 2.0295,1.0666 0.6309,0 1.2244,-0.2698 0.5935,-0.2697 1.2243,-0.8508 z" />
    <text
       style="font-size:12px;font-family:sans-serif;fill:#000000"
       id="text170"
       y="171.5352"
       x="192.25"
       textLength="94"
       lengthAdjust="spacingAndGlyphs"
       font-size="12">TreeTermVisitor</text>
    <line
       id="line172"
       y2="183"
       y1="183"
       x2="423"
       x1="23"
       style="stroke:#a80036;stroke-width:1.5" />
    <line
       id="line174"
       y2="191"
       y1="191"
       x2="423"
       x1="23"
       style="stroke:#a80036;stroke-width:1.5" />
    <circle
       r="3"
       id="ellipse176"
       style="fill:#84be84;stroke:#038048;stroke-width:1"
       cy="202.97749"
       cx="33" />
    <text
       style="font-size:11px;font-family:sans-serif;fill:#000000"
       id="text178"
       y="205.6348"
       x="42"
       textLength="230"
       lengthAdjust="spacingAndGlyphs"
       font-size="11">TreeTerm visitApplication(Application app)</text>
    <circle
       r="3"
       id="ellipse180"
       style="fill:#84be84;stroke:#038048;stroke-width:1"
       cy="215.9326"
       cx="33" />
    <text
       style="font-size:11px;font-family:sans-serif;fill:#000000"
       id="text182"
       y="218.5898"
       x="42"
       textLength="243"
       lengthAdjust="spacingAndGlyphs"
       font-size="11">TreeTerm visitNamedTerm(NamedTerm term)</text>
    <circle
       r="3"
       id="ellipse184"
       style="fill:#84be84;stroke:#038048;stroke-width:1"
       cy="228.8877"
       cx="33" />
    <text
       style="font-size:11px;font-family:sans-serif;fill:#000000"
       id="text186"
       y="231.54491"
       x="42"
       textLength="296"
       lengthAdjust="spacingAndGlyphs"
       font-size="11">TreeTerm visitPartialApplication(PartialApplication app)</text>
    <circle
       r="3"
       id="ellipse188"
       style="fill:#84be84;stroke:#038048;stroke-width:1"
       cy="241.8428"
       cx="33" />
    <text
       style="font-size:11px;font-family:sans-serif;fill:#000000"
       id="text190"
       y="244.5"
       x="42"
       textLength="237"
       lengthAdjust="spacingAndGlyphs"
       font-size="11">TreeTerm visitFreeVariable(FreeVariable var)</text>
    <polygon
       id="polygon192"
       style="fill:#ffff44;stroke:#b38d22;stroke-width:1"
       points="29,253.7979 33,249.7979 37,253.7979 33,257.7979 " />
    <text
       style="font-size:11px;font-family:sans-serif;fill:#000000"
       id="text194"
       y="257.45511"
       x="42"
       textLength="376"
       lengthAdjust="spacingAndGlyphs"
       font-size="11">TreeTerm visitBoundVariable(BoundVariable var, String resolvedName)</text>
    <polygon
       id="polygon196"
       style="fill:#ffff44;stroke:#b38d22;stroke-width:1"
       points="29,266.7529 33,262.7529 37,266.7529 33,270.7529 " />
    <text
       style="font-size:11px;font-family:sans-serif;fill:#000000"
       id="text198"
       y="270.41019"
       x="42"
       textLength="350"
       lengthAdjust="spacingAndGlyphs"
       font-size="11">TreeTerm visitAbstraction(Abstraction abs, String resolvedName)</text>
  </a>
</svg>
