<?xml version="1.0" encoding="UTF-8" standalone="no"?><svg xmlns="http://www.w3.org/2000/svg" xmlns:xlink="http://www.w3.org/1999/xlink" contentScriptType="application/ecmascript" contentStyleType="text/css" height="959px" preserveAspectRatio="none" style="width:937px;height:959px;" version="1.1" viewBox="0 0 937 959" width="937px" zoomAndPan="magnify"><defs><filter height="300%" id="fzcmqs83p7u00" width="300%" x="-1" y="-1"><feGaussianBlur result="blurOut" stdDeviation="2.0"/><feColorMatrix in="blurOut" result="blurOut2" type="matrix" values="0 0 0 0 0 0 0 0 0 0 0 0 0 0 0 0 0 0 .4 0"/><feOffset dx="4.0" dy="4.0" in="blurOut2" result="blurOut3"/><feBlend in="SourceGraphic" in2="blurOut3" mode="normal"/></filter></defs><g><!--cluster edu.kit.wavelength.client.view--><polygon fill="#FFFFFF" filter="url(#fzcmqs83p7u00)" points="14,16,233,16,240,38.4883,915,38.4883,915,947,14,947,14,16" style="stroke: #000000; stroke-width: 2.0;"/><line style="stroke: #000000; stroke-width: 2.0;" x1="14" x2="240" y1="38.4883" y2="38.4883"/><text fill="#000000" font-family="sans-serif" font-size="14" font-weight="bold" lengthAdjust="spacingAndGlyphs" textLength="213" x="18" y="31.5352">edu.kit.wavelength.client.view</text><!--class SerializationObserver--><a target="_top" xlink:actuate="onRequest" xlink:href="java:edu.kit.wavelength.client.view.SerializationObserver" xlink:show="new" xlink:title="java:edu.kit.wavelength.client.view.SerializationObserver" xlink:type="simple"><rect fill="#FEFECE" filter="url(#fzcmqs83p7u00)" height="60.9551" id="SerializationObserver" style="stroke: #A80036; stroke-width: 1.5;" width="175" x="235.5" y="878"/><ellipse cx="259.95" cy="894" fill="#ADD1B2" rx="11" ry="11" style="stroke: #A80036; stroke-width: 1.0;"/><path d="M262.9231,899.6431 Q262.3421,899.9419 261.7029,900.0913 Q261.0638,900.2407 260.3582,900.2407 Q257.8514,900.2407 256.5315,898.5889 Q255.2117,896.937 255.2117,893.8159 Q255.2117,890.6865 256.5315,889.0347 Q257.8514,887.3828 260.3582,887.3828 Q261.0638,887.3828 261.7112,887.5322 Q262.3587,887.6816 262.9231,887.9805 L262.9231,890.7031 Q262.2923,890.1221 261.6988,889.8523 Q261.1053,889.5825 260.4744,889.5825 Q259.1297,889.5825 258.4449,890.6492 Q257.7601,891.7158 257.7601,893.8159 Q257.7601,895.9077 258.4449,896.9744 Q259.1297,898.041 260.4744,898.041 Q261.1053,898.041 261.6988,897.7712 Q262.2923,897.5015 262.9231,896.9204 Z "/><text fill="#000000" font-family="sans-serif" font-size="12" lengthAdjust="spacingAndGlyphs" textLength="122" x="276.05" y="898.5352">SerializationObserver</text><line style="stroke: #A80036; stroke-width: 1.5;" x1="236.5" x2="409.5" y1="910" y2="910"/><line style="stroke: #A80036; stroke-width: 1.5;" x1="236.5" x2="409.5" y1="918" y2="918"/><text fill="#000000" font-family="sans-serif" font-size="11" lengthAdjust="spacingAndGlyphs" textLength="163" x="241.5" y="932.6348">void updateSerialized(String s)</text></a><!--class App--><a target="_top" xlink:actuate="onRequest" xlink:href="java:edu.kit.wavelength.client.view.App" xlink:show="new" xlink:title="java:edu.kit.wavelength.client.view.App" xlink:type="simple"><rect fill="#FEFECE" filter="url(#fzcmqs83p7u00)" height="695.7539" id="App" style="stroke: #A80036; stroke-width: 1.5;" width="248" x="659" y="43"/><ellipse cx="766.75" cy="59" fill="#ADD1B2" rx="11" ry="11" style="stroke: #A80036; stroke-width: 1.0;"/><path d="M769.7231,64.6431 Q769.1421,64.9419 768.5029,65.0913 Q767.8638,65.2407 767.1582,65.2407 Q764.6514,65.2407 763.3315,63.5889 Q762.0117,61.937 762.0117,58.8159 Q762.0117,55.6865 763.3315,54.0347 Q764.6514,52.3828 767.1582,52.3828 Q767.8638,52.3828 768.5112,52.5322 Q769.1587,52.6816 769.7231,52.9805 L769.7231,55.7031 Q769.0923,55.1221 768.4988,54.8523 Q767.9053,54.5825 767.2744,54.5825 Q765.9297,54.5825 765.2449,55.6492 Q764.5601,56.7158 764.5601,58.8159 Q764.5601,60.9077 765.2449,61.9744 Q765.9297,63.041 767.2744,63.041 Q767.9053,63.041 768.4988,62.7712 Q769.0923,62.5015 769.7231,61.9204 Z "/><text fill="#000000" font-family="sans-serif" font-size="12" lengthAdjust="spacingAndGlyphs" textLength="24" x="787.25" y="63.5352">App</text><line style="stroke: #A80036; stroke-width: 1.5;" x1="660" x2="906" y1="75" y2="75"/><rect fill="none" height="6" style="stroke: #C82930; stroke-width: 1.0;" width="6" x="667" y="83.9775"/><text fill="#000000" font-family="sans-serif" font-size="11" lengthAdjust="spacingAndGlyphs" text-decoration="underline" textLength="70" x="679" y="89.6348">App instance</text><line style="stroke: #000000; stroke-width: 1.0;" x1="679" x2="749" y1="91.6348" y2="91.6348"/><ellipse cx="670" cy="99.9326" fill="none" rx="3" ry="3" style="stroke: #038048; stroke-width: 1.0;"/><text fill="#000000" font-family="sans-serif" font-size="11" lengthAdjust="spacingAndGlyphs" text-decoration="underline" textLength="147" x="679" y="102.5898">String UnicodeOutputName</text><line style="stroke: #000000; stroke-width: 1.0;" x1="679" x2="826" y1="104.5898" y2="104.5898"/><ellipse cx="670" cy="112.8877" fill="none" rx="3" ry="3" style="stroke: #038048; stroke-width: 1.0;"/><text fill="#000000" font-family="sans-serif" font-size="11" lengthAdjust="spacingAndGlyphs" text-decoration="underline" textLength="127" x="679" y="115.5449">String TreeOutputName</text><line style="stroke: #000000; stroke-width: 1.0;" x1="679" x2="806" y1="117.5449" y2="117.5449"/><ellipse cx="670" cy="125.8428" fill="none" rx="3" ry="3" style="stroke: #038048; stroke-width: 1.0;"/><text fill="#000000" font-family="sans-serif" font-size="11" lengthAdjust="spacingAndGlyphs" text-decoration="underline" textLength="146" x="679" y="128.5">List&lt;String&gt; OutputNames</text><line style="stroke: #000000; stroke-width: 1.0;" x1="679" x2="825" y1="130.5" y2="130.5"/><rect fill="none" height="6" style="stroke: #C82930; stroke-width: 1.0;" width="6" x="667" y="135.7979"/><text fill="#000000" font-family="sans-serif" font-size="11" lengthAdjust="spacingAndGlyphs" textLength="160" x="679" y="141.4551">ImageButton mainMenuButton</text><rect fill="none" height="6" style="stroke: #C82930; stroke-width: 1.0;" width="6" x="667" y="148.7529"/><text fill="#000000" font-family="sans-serif" font-size="11" lengthAdjust="spacingAndGlyphs" textLength="67" x="679" y="154.4102">Editor editor</text><rect fill="none" height="6" style="stroke: #C82930; stroke-width: 1.0;" width="6" x="667" y="161.708"/><text fill="#000000" font-family="sans-serif" font-size="11" lengthAdjust="spacingAndGlyphs" textLength="134" x="679" y="167.3652">OptionBox outputFormat</text><rect fill="none" height="6" style="stroke: #C82930; stroke-width: 1.0;" width="6" x="667" y="174.6631"/><text fill="#000000" font-family="sans-serif" font-size="11" lengthAdjust="spacingAndGlyphs" textLength="144" x="679" y="180.3203">OptionBox reductionOrder</text><rect fill="none" height="6" style="stroke: #C82930; stroke-width: 1.0;" width="6" x="667" y="187.6182"/><text fill="#000000" font-family="sans-serif" font-size="11" lengthAdjust="spacingAndGlyphs" textLength="117" x="679" y="193.2754">OptionBox outputSize</text><rect fill="none" height="6" style="stroke: #C82930; stroke-width: 1.0;" width="6" x="667" y="200.5732"/><text fill="#000000" font-family="sans-serif" font-size="11" lengthAdjust="spacingAndGlyphs" textLength="143" x="679" y="206.2305">ImageButton stepBackward</text><rect fill="none" height="6" style="stroke: #C82930; stroke-width: 1.0;" width="6" x="667" y="213.5283"/><text fill="#000000" font-family="sans-serif" font-size="11" lengthAdjust="spacingAndGlyphs" textLength="157" x="679" y="219.1855">ImageButton stepByStepMode</text><rect fill="none" height="6" style="stroke: #C82930; stroke-width: 1.0;" width="6" x="667" y="226.4834"/><text fill="#000000" font-family="sans-serif" font-size="11" lengthAdjust="spacingAndGlyphs" textLength="137" x="679" y="232.1406">ImageButton stepForward</text><rect fill="none" height="6" style="stroke: #C82930; stroke-width: 1.0;" width="6" x="667" y="239.4385"/><text fill="#000000" font-family="sans-serif" font-size="11" lengthAdjust="spacingAndGlyphs" textLength="121" x="679" y="245.0957">ImageButton terminate</text><rect fill="none" height="6" style="stroke: #C82930; stroke-width: 1.0;" width="6" x="667" y="252.3936"/><text fill="#000000" font-family="sans-serif" font-size="11" lengthAdjust="spacingAndGlyphs" textLength="89" x="679" y="258.0508">ImageButton run</text><rect fill="none" height="6" style="stroke: #C82930; stroke-width: 1.0;" width="6" x="667" y="265.3486"/><text fill="#000000" font-family="sans-serif" font-size="11" lengthAdjust="spacingAndGlyphs" textLength="102" x="679" y="271.0059">ImageButton pause</text><rect fill="none" height="6" style="stroke: #C82930; stroke-width: 1.0;" width="6" x="667" y="278.3037"/><text fill="#000000" font-family="sans-serif" font-size="11" lengthAdjust="spacingAndGlyphs" textLength="124" x="679" y="283.9609">TreeOutput treeOutput</text><rect fill="none" height="6" style="stroke: #C82930; stroke-width: 1.0;" width="6" x="667" y="291.2588"/><text fill="#000000" font-family="sans-serif" font-size="11" lengthAdjust="spacingAndGlyphs" textLength="166" x="679" y="296.916">UnicodeOutput unicodeOutput</text><rect fill="none" height="6" style="stroke: #C82930; stroke-width: 1.0;" width="6" x="667" y="304.2139"/><text fill="#000000" font-family="sans-serif" font-size="11" lengthAdjust="spacingAndGlyphs" textLength="106" x="679" y="309.8711">ImageButton export</text><rect fill="none" height="6" style="stroke: #C82930; stroke-width: 1.0;" width="6" x="667" y="317.1689"/><text fill="#000000" font-family="sans-serif" font-size="11" lengthAdjust="spacingAndGlyphs" textLength="156" x="679" y="322.8262">PopUpWindow exportWindow</text><rect fill="none" height="6" style="stroke: #C82930; stroke-width: 1.0;" width="6" x="667" y="330.124"/><text fill="#000000" font-family="sans-serif" font-size="11" lengthAdjust="spacingAndGlyphs" textLength="100" x="679" y="335.7813">ImageButton share</text><rect fill="none" height="6" style="stroke: #C82930; stroke-width: 1.0;" width="6" x="667" y="343.0791"/><text fill="#000000" font-family="sans-serif" font-size="11" lengthAdjust="spacingAndGlyphs" textLength="110" x="679" y="348.7363">TextField sharePanel</text><rect fill="none" height="6" style="stroke: #C82930; stroke-width: 1.0;" width="6" x="667" y="356.0342"/><text fill="#000000" font-family="sans-serif" font-size="11" lengthAdjust="spacingAndGlyphs" textLength="138" x="679" y="361.6914">List&lt;Checkbox&gt; libraries</text><rect fill="none" height="6" style="stroke: #C82930; stroke-width: 1.0;" width="6" x="667" y="368.9893"/><text fill="#000000" font-family="sans-serif" font-size="11" lengthAdjust="spacingAndGlyphs" textLength="150" x="679" y="374.6465">List&lt;TextButton&gt; exercises</text><rect fill="none" height="6" style="stroke: #C82930; stroke-width: 1.0;" width="6" x="667" y="381.9443"/><text fill="#000000" font-family="sans-serif" font-size="11" lengthAdjust="spacingAndGlyphs" textLength="179" x="679" y="387.6016">List&lt;TextButton&gt; exportFormats</text><rect fill="none" height="6" style="stroke: #C82930; stroke-width: 1.0;" width="6" x="667" y="394.8994"/><text fill="#000000" font-family="sans-serif" font-size="11" lengthAdjust="spacingAndGlyphs" textLength="99" x="679" y="400.5566">Executor executor</text><line style="stroke: #A80036; stroke-width: 1.5;" x1="660" x2="906" y1="406.877" y2="406.877"/><polygon fill="#FFFF44" points="670,413.8545,674,417.8545,670,421.8545,666,417.8545" style="stroke: #B38D22; stroke-width: 1.0;"/><text fill="#000000" font-family="sans-serif" font-size="11" lengthAdjust="spacingAndGlyphs" textLength="30" x="679" y="421.5117">App()</text><ellipse cx="670" cy="431.8096" fill="#84BE84" rx="3" ry="3" style="stroke: #038048; stroke-width: 1.0;"/><text fill="#000000" font-family="sans-serif" font-size="11" lengthAdjust="spacingAndGlyphs" text-decoration="underline" textLength="50" x="679" y="434.4668">App get()</text><line style="stroke: #000000; stroke-width: 1.0;" x1="679" x2="729" y1="436.4668" y2="436.4668"/><ellipse cx="670" cy="444.7646" fill="#84BE84" rx="3" ry="3" style="stroke: #038048; stroke-width: 1.0;"/><text fill="#000000" font-family="sans-serif" font-size="11" lengthAdjust="spacingAndGlyphs" text-decoration="underline" textLength="81" x="679" y="447.4219">void set(App c)</text><line style="stroke: #000000; stroke-width: 1.0;" x1="679" x2="760" y1="449.4219" y2="449.4219"/><ellipse cx="670" cy="457.7197" fill="#84BE84" rx="3" ry="3" style="stroke: #038048; stroke-width: 1.0;"/><text fill="#000000" font-family="sans-serif" font-size="11" lengthAdjust="spacingAndGlyphs" textLength="118" x="679" y="460.377">TextField sharePanel()</text><ellipse cx="670" cy="470.6748" fill="#84BE84" rx="3" ry="3" style="stroke: #038048; stroke-width: 1.0;"/><text fill="#000000" font-family="sans-serif" font-size="11" lengthAdjust="spacingAndGlyphs" textLength="164" x="679" y="473.332">PopUpWindow exportWindow()</text><ellipse cx="670" cy="483.6299" fill="#84BE84" rx="3" ry="3" style="stroke: #038048; stroke-width: 1.0;"/><text fill="#000000" font-family="sans-serif" font-size="11" lengthAdjust="spacingAndGlyphs" textLength="168" x="679" y="486.2871">ImageButton mainMenuButton()</text><ellipse cx="670" cy="496.585" fill="#84BE84" rx="3" ry="3" style="stroke: #038048; stroke-width: 1.0;"/><text fill="#000000" font-family="sans-serif" font-size="11" lengthAdjust="spacingAndGlyphs" textLength="75" x="679" y="499.2422">Editor editor()</text><ellipse cx="670" cy="509.54" fill="#84BE84" rx="3" ry="3" style="stroke: #038048; stroke-width: 1.0;"/><text fill="#000000" font-family="sans-serif" font-size="11" lengthAdjust="spacingAndGlyphs" textLength="162" x="679" y="512.1973">OptionBox outputFormatBox()</text><ellipse cx="670" cy="522.4951" fill="#84BE84" rx="3" ry="3" style="stroke: #038048; stroke-width: 1.0;"/><text fill="#000000" font-family="sans-serif" font-size="11" lengthAdjust="spacingAndGlyphs" textLength="172" x="679" y="525.1523">OptionBox reductionOrderBox()</text><ellipse cx="670" cy="535.4502" fill="#84BE84" rx="3" ry="3" style="stroke: #038048; stroke-width: 1.0;"/><text fill="#000000" font-family="sans-serif" font-size="11" lengthAdjust="spacingAndGlyphs" textLength="145" x="679" y="538.1074">OptionBox outputSizeBox()</text><ellipse cx="670" cy="548.4053" fill="#84BE84" rx="3" ry="3" style="stroke: #038048; stroke-width: 1.0;"/><text fill="#000000" font-family="sans-serif" font-size="11" lengthAdjust="spacingAndGlyphs" textLength="186" x="679" y="551.0625">ImageButton stepBackwardButton()</text><ellipse cx="670" cy="561.3604" fill="#84BE84" rx="3" ry="3" style="stroke: #038048; stroke-width: 1.0;"/><text fill="#000000" font-family="sans-serif" font-size="11" lengthAdjust="spacingAndGlyphs" textLength="200" x="679" y="564.0176">ImageButton stepByStepModeButton()</text><ellipse cx="670" cy="574.3154" fill="#84BE84" rx="3" ry="3" style="stroke: #038048; stroke-width: 1.0;"/><text fill="#000000" font-family="sans-serif" font-size="11" lengthAdjust="spacingAndGlyphs" textLength="180" x="679" y="576.9727">ImageButton stepForwardButton()</text><ellipse cx="670" cy="587.2705" fill="#84BE84" rx="3" ry="3" style="stroke: #038048; stroke-width: 1.0;"/><text fill="#000000" font-family="sans-serif" font-size="11" lengthAdjust="spacingAndGlyphs" textLength="164" x="679" y="589.9277">ImageButton terminateButton()</text><ellipse cx="670" cy="600.2256" fill="#84BE84" rx="3" ry="3" style="stroke: #038048; stroke-width: 1.0;"/><text fill="#000000" font-family="sans-serif" font-size="11" lengthAdjust="spacingAndGlyphs" textLength="132" x="679" y="602.8828">ImageButton runButton()</text><ellipse cx="670" cy="613.1807" fill="#84BE84" rx="3" ry="3" style="stroke: #038048; stroke-width: 1.0;"/><text fill="#000000" font-family="sans-serif" font-size="11" lengthAdjust="spacingAndGlyphs" textLength="145" x="679" y="615.8379">ImageButton pauseButton()</text><ellipse cx="670" cy="626.1357" fill="#84BE84" rx="3" ry="3" style="stroke: #038048; stroke-width: 1.0;"/><text fill="#000000" font-family="sans-serif" font-size="11" lengthAdjust="spacingAndGlyphs" textLength="132" x="679" y="628.793">TreeOutput treeOutput()</text><ellipse cx="670" cy="639.0908" fill="#84BE84" rx="3" ry="3" style="stroke: #038048; stroke-width: 1.0;"/><text fill="#000000" font-family="sans-serif" font-size="11" lengthAdjust="spacingAndGlyphs" textLength="174" x="679" y="641.748">UnicodeOutput unicodeOutput()</text><ellipse cx="670" cy="652.0459" fill="#84BE84" rx="3" ry="3" style="stroke: #038048; stroke-width: 1.0;"/><text fill="#000000" font-family="sans-serif" font-size="11" lengthAdjust="spacingAndGlyphs" textLength="149" x="679" y="654.7031">ImageButton exportButton()</text><ellipse cx="670" cy="665.001" fill="#84BE84" rx="3" ry="3" style="stroke: #038048; stroke-width: 1.0;"/><text fill="#000000" font-family="sans-serif" font-size="11" lengthAdjust="spacingAndGlyphs" textLength="143" x="679" y="667.6582">ImageButton shareButton()</text><ellipse cx="670" cy="677.9561" fill="#84BE84" rx="3" ry="3" style="stroke: #038048; stroke-width: 1.0;"/><text fill="#000000" font-family="sans-serif" font-size="11" lengthAdjust="spacingAndGlyphs" textLength="169" x="679" y="680.6133">List&lt;Checkbox&gt; libraryBoxes()</text><ellipse cx="670" cy="690.9111" fill="#84BE84" rx="3" ry="3" style="stroke: #038048; stroke-width: 1.0;"/><text fill="#000000" font-family="sans-serif" font-size="11" lengthAdjust="spacingAndGlyphs" textLength="193" x="679" y="693.5684">List&lt;TextButton&gt; exerciseButtons()</text><ellipse cx="670" cy="703.8662" fill="#84BE84" rx="3" ry="3" style="stroke: #038048; stroke-width: 1.0;"/><text fill="#000000" font-family="sans-serif" font-size="11" lengthAdjust="spacingAndGlyphs" textLength="222" x="679" y="706.5234">List&lt;TextButton&gt; exportFormatButtons()</text><ellipse cx="670" cy="716.8213" fill="#84BE84" rx="3" ry="3" style="stroke: #038048; stroke-width: 1.0;"/><text fill="#000000" font-family="sans-serif" font-size="11" lengthAdjust="spacingAndGlyphs" textLength="107" x="679" y="719.4785">Executor executor()</text><ellipse cx="670" cy="729.7764" fill="#84BE84" rx="3" ry="3" style="stroke: #038048; stroke-width: 1.0;"/><text fill="#000000" font-family="sans-serif" font-size="11" lengthAdjust="spacingAndGlyphs" textLength="78" x="679" y="732.4336">void initialize()</text></a><!--class URLSerializer--><a target="_top" xlink:actuate="onRequest" xlink:href="java:edu.kit.wavelength.client.view.URLSerializer" xlink:show="new" xlink:title="java:edu.kit.wavelength.client.view.URLSerializer" xlink:type="simple"><rect fill="#FEFECE" filter="url(#fzcmqs83p7u00)" height="125.7305" id="URLSerializer" style="stroke: #A80036; stroke-width: 1.5;" width="601" x="22.5" y="328"/><ellipse cx="281.25" cy="344" fill="#ADD1B2" rx="11" ry="11" style="stroke: #A80036; stroke-width: 1.0;"/><path d="M284.2231,349.6431 Q283.6421,349.9419 283.0029,350.0913 Q282.3638,350.2407 281.6582,350.2407 Q279.1514,350.2407 277.8315,348.5889 Q276.5117,346.937 276.5117,343.8159 Q276.5117,340.6865 277.8315,339.0347 Q279.1514,337.3828 281.6582,337.3828 Q282.3638,337.3828 283.0112,337.5322 Q283.6587,337.6816 284.2231,337.9805 L284.2231,340.7031 Q283.5923,340.1221 282.9988,339.8523 Q282.4053,339.5825 281.7744,339.5825 Q280.4297,339.5825 279.7449,340.6492 Q279.0601,341.7158 279.0601,343.8159 Q279.0601,345.9077 279.7449,346.9744 Q280.4297,348.041 281.7744,348.041 Q282.4053,348.041 282.9988,347.7712 Q283.5923,347.5015 284.2231,346.9204 Z "/><text fill="#000000" font-family="sans-serif" font-size="12" lengthAdjust="spacingAndGlyphs" textLength="75" x="301.75" y="348.5352">URLSerializer</text><line style="stroke: #A80036; stroke-width: 1.5;" x1="23.5" x2="622.5" y1="360" y2="360"/><rect fill="none" height="6" style="stroke: #C82930; stroke-width: 1.0;" width="6" x="30.5" y="368.9775"/><text fill="#000000" font-family="sans-serif" font-size="11" lengthAdjust="spacingAndGlyphs" textLength="152" x="42.5" y="374.6348">Map&lt;Object,String&gt; entities</text><rect fill="none" height="6" style="stroke: #C82930; stroke-width: 1.0;" width="6" x="30.5" y="381.9326"/><text fill="#000000" font-family="sans-serif" font-size="11" lengthAdjust="spacingAndGlyphs" textLength="123" x="42.5" y="387.5898">Serializable serializable</text><rect fill="none" height="6" style="stroke: #C82930; stroke-width: 1.0;" width="6" x="30.5" y="394.8877"/><text fill="#000000" font-family="sans-serif" font-size="11" lengthAdjust="spacingAndGlyphs" textLength="98" x="42.5" y="400.5449">int pollingDelayMS</text><line style="stroke: #A80036; stroke-width: 1.5;" x1="23.5" x2="622.5" y1="406.8652" y2="406.8652"/><ellipse cx="33.5" cy="418.8428" fill="#84BE84" rx="3" ry="3" style="stroke: #038048; stroke-width: 1.0;"/><text fill="#000000" font-family="sans-serif" font-size="11" lengthAdjust="spacingAndGlyphs" textLength="575" x="42.5" y="421.5">URLSerializer(Serializable serializable, List&lt;SerializationObserver&gt; serializationOutputs, int pollingDelayMS)</text><ellipse cx="33.5" cy="431.7979" fill="#84BE84" rx="3" ry="3" style="stroke: #038048; stroke-width: 1.0;"/><text fill="#000000" font-family="sans-serif" font-size="11" lengthAdjust="spacingAndGlyphs" textLength="95" x="42.5" y="434.4551">void startPolling()</text><ellipse cx="33.5" cy="444.7529" fill="#84BE84" rx="3" ry="3" style="stroke: #038048; stroke-width: 1.0;"/><text fill="#000000" font-family="sans-serif" font-size="11" lengthAdjust="spacingAndGlyphs" textLength="98" x="42.5" y="447.4102">boolean serialize()</text></a><!--link URLSerializer to SerializationObserver--><path d="M323,454.1968 C323,563.9084 323,786.1667 323,872.7955 " fill="none" id="URLSerializer-SerializationObserver" style="stroke: #A80036; stroke-width: 1.0;"/><polygon fill="#A80036" points="323,877.809,327,868.809,323,872.809,319,868.809,323,877.809" style="stroke: #A80036; stroke-width: 1.0;"/><text fill="#000000" font-family="sans-serif" font-size="13" lengthAdjust="spacingAndGlyphs" textLength="128" x="324" y="813.5684">serializationOutputs</text><text fill="#000000" font-family="sans-serif" font-size="13" lengthAdjust="spacingAndGlyphs" textLength="6" x="316.3438" y="867.062">*</text><!--
@startuml
package edu.kit.wavelength.client.view <<Folder>> {
interface SerializationObserver [[java:edu.kit.wavelength.client.view.SerializationObserver]] {
	void updateSerialized(String s)
}
class App [[java:edu.kit.wavelength.client.view.App]] {
	-{static}App instance
	+{static}String UnicodeOutputName
	+{static}String TreeOutputName
	+{static}List<String> OutputNames
	-ImageButton mainMenuButton
	-Editor editor
	-OptionBox outputFormat
	-OptionBox reductionOrder
	-OptionBox outputSize
	-ImageButton stepBackward
	-ImageButton stepByStepMode
	-ImageButton stepForward
	-ImageButton terminate
	-ImageButton run
	-ImageButton pause
	-TreeOutput treeOutput
	-UnicodeOutput unicodeOutput
	-ImageButton export
	-PopUpWindow exportWindow
	-ImageButton share
	-TextField sharePanel
	-List<Checkbox> libraries
	-List<TextButton> exercises
	-List<TextButton> exportFormats
	-Executor executor
	#App()
	+{static}App get()
	+{static}void set(App c)
	+TextField sharePanel()
	+PopUpWindow exportWindow()
	+ImageButton mainMenuButton()
	+Editor editor()
	+OptionBox outputFormatBox()
	+OptionBox reductionOrderBox()
	+OptionBox outputSizeBox()
	+ImageButton stepBackwardButton()
	+ImageButton stepByStepModeButton()
	+ImageButton stepForwardButton()
	+ImageButton terminateButton()
	+ImageButton runButton()
	+ImageButton pauseButton()
	+TreeOutput treeOutput()
	+UnicodeOutput unicodeOutput()
	+ImageButton exportButton()
	+ImageButton shareButton()
	+List<Checkbox> libraryBoxes()
	+List<TextButton> exerciseButtons()
	+List<TextButton> exportFormatButtons()
	+Executor executor()
	+void initialize()
}
class URLSerializer [[java:edu.kit.wavelength.client.view.URLSerializer]] {
	-Map<Object,String> entities
	-Serializable serializable
	-int pollingDelayMS
	+URLSerializer(Serializable serializable, List<SerializationObserver> serializationOutputs, int pollingDelayMS)
	+void startPolling()
	+boolean serialize()
}
class SerializationObserver [[java:edu.kit.wavelength.client.view.SerializationObserver]] {
}
URLSerializer - -> "*" SerializationObserver : serializationOutputs

}

@enduml

PlantUML version 1.2017.15(Mon Jul 03 18:45:34 CEST 2017)
(EPL source distribution)
Java Runtime: Java(TM) SE Runtime Environment
JVM: Java HotSpot(TM) 64-Bit Server VM
Java Version: 1.8.0_112-b16
Operating System: Mac OS X
OS Version: 10.13.2
Default Encoding: UTF-8
Language: de
Country: DE
--></g></svg>