<?xml version="1.0" encoding="UTF-8" standalone="no"?><svg xmlns="http://www.w3.org/2000/svg" xmlns:xlink="http://www.w3.org/1999/xlink" contentScriptType="application/ecmascript" contentStyleType="text/css" height="391px" preserveAspectRatio="none" style="width:418px;height:391px;" version="1.1" viewBox="0 0 418 391" width="418px" zoomAndPan="magnify"><defs><filter height="300%" id="fphnjs2fqvpw1" width="300%" x="-1" y="-1"><feGaussianBlur result="blurOut" stdDeviation="2.0"/><feColorMatrix in="blurOut" result="blurOut2" type="matrix" values="0 0 0 0 0 0 0 0 0 0 0 0 0 0 0 0 0 0 .4 0"/><feOffset dx="4.0" dy="4.0" in="blurOut2" result="blurOut3"/><feBlend in="SourceGraphic" in2="blurOut3" mode="normal"/></filter></defs><g><!--class ViewPresenter--><rect fill="#FEFECE" filter="url(#fphnjs2fqvpw1)" height="48" id="ViewPresenter" style="stroke: #A80036; stroke-width: 1.5;" width="111" x="6" y="224"/><ellipse cx="21" cy="240" fill="#B4A7E5" rx="11" ry="11" style="stroke: #A80036; stroke-width: 1.0;"/><path d="M21.9531,236.6406 L21.9531,243.2969 L23.6719,243.2969 Q24.2813,243.2969 24.5469,243.5313 Q24.8125,243.7656 24.8125,244.1563 Q24.8125,244.5313 24.5469,244.7656 Q24.2813,245 23.6719,245 L18.5313,245 Q17.9219,245 17.6563,244.7656 Q17.3906,244.5313 17.3906,244.1406 Q17.3906,243.7656 17.6563,243.5313 Q17.9219,243.2969 18.5313,243.2969 L20.25,243.2969 L20.25,236.6406 L18.5313,236.6406 Q17.9219,236.6406 17.6563,236.4063 Q17.3906,236.1719 17.3906,235.7813 Q17.3906,235.4063 17.6563,235.1719 Q17.9219,234.9375 18.5313,234.9375 L23.6719,234.9375 Q24.2813,234.9375 24.5469,235.1719 Q24.8125,235.4063 24.8125,235.7813 Q24.8125,236.1719 24.5469,236.4063 Q24.2813,236.6406 23.6719,236.6406 L21.9531,236.6406 Z "/><text fill="#000000" font-family="sans-serif" font-size="12" font-style="italic" lengthAdjust="spacingAndGlyphs" textLength="79" x="35" y="244.9102">ViewPresenter</text><line style="stroke: #A80036; stroke-width: 1.5;" x1="7" x2="116" y1="256" y2="256"/><line style="stroke: #A80036; stroke-width: 1.5;" x1="7" x2="116" y1="264" y2="264"/><!--class LiveUpdated--><rect fill="#FEFECE" filter="url(#fphnjs2fqvpw1)" height="48" id="LiveUpdated" style="stroke: #A80036; stroke-width: 1.5;" width="102" x="162.5" y="332"/><ellipse cx="177.5" cy="348" fill="#B4A7E5" rx="11" ry="11" style="stroke: #A80036; stroke-width: 1.0;"/><path d="M178.4531,344.6406 L178.4531,351.2969 L180.1719,351.2969 Q180.7813,351.2969 181.0469,351.5313 Q181.3125,351.7656 181.3125,352.1563 Q181.3125,352.5313 181.0469,352.7656 Q180.7813,353 180.1719,353 L175.0313,353 Q174.4219,353 174.1563,352.7656 Q173.8906,352.5313 173.8906,352.1406 Q173.8906,351.7656 174.1563,351.5313 Q174.4219,351.2969 175.0313,351.2969 L176.75,351.2969 L176.75,344.6406 L175.0313,344.6406 Q174.4219,344.6406 174.1563,344.4063 Q173.8906,344.1719 173.8906,343.7813 Q173.8906,343.4063 174.1563,343.1719 Q174.4219,342.9375 175.0313,342.9375 L180.1719,342.9375 Q180.7813,342.9375 181.0469,343.1719 Q181.3125,343.4063 181.3125,343.7813 Q181.3125,344.1719 181.0469,344.4063 Q180.7813,344.6406 180.1719,344.6406 L178.4531,344.6406 Z "/><text fill="#000000" font-family="sans-serif" font-size="12" font-style="italic" lengthAdjust="spacingAndGlyphs" textLength="70" x="191.5" y="352.9102">LiveUpdated</text><line style="stroke: #A80036; stroke-width: 1.5;" x1="163.5" x2="263.5" y1="364" y2="364"/><line style="stroke: #A80036; stroke-width: 1.5;" x1="163.5" x2="263.5" y1="372" y2="372"/><!--class View--><rect fill="#FEFECE" filter="url(#fphnjs2fqvpw1)" height="48" id="View" style="stroke: #A80036; stroke-width: 1.5;" width="58" x="58.5" y="116"/><ellipse cx="73.5" cy="132" fill="#ADD1B2" rx="11" ry="11" style="stroke: #A80036; stroke-width: 1.0;"/><path d="M76.2656,127.875 Q76.4219,127.6563 76.6094,127.5469 Q76.7969,127.4375 77.0156,127.4375 Q77.3906,127.4375 77.625,127.6953 Q77.8594,127.9531 77.8594,128.5625 L77.8594,130.0156 Q77.8594,130.625 77.625,130.8906 Q77.3906,131.1563 77.0156,131.1563 Q76.6719,131.1563 76.4688,130.9531 Q76.2656,130.7656 76.1563,130.25 Q76.1094,129.8906 75.9219,129.7031 Q75.5938,129.3281 74.9844,129.1094 Q74.375,128.8906 73.75,128.8906 Q72.9844,128.8906 72.3516,129.2188 Q71.7188,129.5469 71.2266,130.2969 Q70.7344,131.0469 70.7344,132.0781 L70.7344,133.1719 Q70.7344,134.4063 71.625,135.2266 Q72.5156,136.0469 74.1094,136.0469 Q75.0469,136.0469 75.7031,135.7969 Q76.0938,135.6406 76.5156,135.2031 Q76.7813,134.9375 76.9297,134.8594 Q77.0781,134.7813 77.2813,134.7813 Q77.6094,134.7813 77.8672,135.0391 Q78.125,135.2969 78.125,135.6406 Q78.125,135.9844 77.7813,136.3906 Q77.2813,136.9688 76.4844,137.2969 Q75.4063,137.75 74.1094,137.75 Q72.5938,137.75 71.3906,137.125 Q70.4063,136.625 69.7188,135.5547 Q69.0313,134.4844 69.0313,133.2031 L69.0313,132.0469 Q69.0313,130.7188 69.6484,129.5703 Q70.2656,128.4219 71.3594,127.8047 Q72.4531,127.1875 73.6875,127.1875 Q74.4219,127.1875 75.0703,127.3516 Q75.7188,127.5156 76.2656,127.875 Z "/><text fill="#000000" font-family="sans-serif" font-size="12" lengthAdjust="spacingAndGlyphs" textLength="26" x="87.5" y="136.9102">View</text><line style="stroke: #A80036; stroke-width: 1.5;" x1="59.5" x2="115.5" y1="148" y2="148"/><line style="stroke: #A80036; stroke-width: 1.5;" x1="59.5" x2="115.5" y1="156" y2="156"/><!--class Presenter--><rect fill="#FEFECE" filter="url(#fphnjs2fqvpw1)" height="48" id="Presenter" style="stroke: #A80036; stroke-width: 1.5;" width="86" x="152.5" y="116"/><ellipse cx="167.5" cy="132" fill="#ADD1B2" rx="11" ry="11" style="stroke: #A80036; stroke-width: 1.0;"/><path d="M170.2656,127.875 Q170.4219,127.6563 170.6094,127.5469 Q170.7969,127.4375 171.0156,127.4375 Q171.3906,127.4375 171.625,127.6953 Q171.8594,127.9531 171.8594,128.5625 L171.8594,130.0156 Q171.8594,130.625 171.625,130.8906 Q171.3906,131.1563 171.0156,131.1563 Q170.6719,131.1563 170.4688,130.9531 Q170.2656,130.7656 170.1563,130.25 Q170.1094,129.8906 169.9219,129.7031 Q169.5938,129.3281 168.9844,129.1094 Q168.375,128.8906 167.75,128.8906 Q166.9844,128.8906 166.3516,129.2188 Q165.7188,129.5469 165.2266,130.2969 Q164.7344,131.0469 164.7344,132.0781 L164.7344,133.1719 Q164.7344,134.4063 165.625,135.2266 Q166.5156,136.0469 168.1094,136.0469 Q169.0469,136.0469 169.7031,135.7969 Q170.0938,135.6406 170.5156,135.2031 Q170.7813,134.9375 170.9297,134.8594 Q171.0781,134.7813 171.2813,134.7813 Q171.6094,134.7813 171.8672,135.0391 Q172.125,135.2969 172.125,135.6406 Q172.125,135.9844 171.7813,136.3906 Q171.2813,136.9688 170.4844,137.2969 Q169.4063,137.75 168.1094,137.75 Q166.5938,137.75 165.3906,137.125 Q164.4063,136.625 163.7188,135.5547 Q163.0313,134.4844 163.0313,133.2031 L163.0313,132.0469 Q163.0313,130.7188 163.6484,129.5703 Q164.2656,128.4219 165.3594,127.8047 Q166.4531,127.1875 167.6875,127.1875 Q168.4219,127.1875 169.0703,127.3516 Q169.7188,127.5156 170.2656,127.875 Z "/><text fill="#000000" font-family="sans-serif" font-size="12" lengthAdjust="spacingAndGlyphs" textLength="54" x="181.5" y="136.9102">Presenter</text><line style="stroke: #A80036; stroke-width: 1.5;" x1="153.5" x2="237.5" y1="148" y2="148"/><line style="stroke: #A80036; stroke-width: 1.5;" x1="153.5" x2="237.5" y1="156" y2="156"/><!--class Eventbus--><rect fill="#FEFECE" filter="url(#fphnjs2fqvpw1)" height="48" id="Eventbus" style="stroke: #A80036; stroke-width: 1.5;" width="83" x="324" y="224"/><ellipse cx="339" cy="240" fill="#ADD1B2" rx="11" ry="11" style="stroke: #A80036; stroke-width: 1.0;"/><path d="M341.7656,235.875 Q341.9219,235.6563 342.1094,235.5469 Q342.2969,235.4375 342.5156,235.4375 Q342.8906,235.4375 343.125,235.6953 Q343.3594,235.9531 343.3594,236.5625 L343.3594,238.0156 Q343.3594,238.625 343.125,238.8906 Q342.8906,239.1563 342.5156,239.1563 Q342.1719,239.1563 341.9688,238.9531 Q341.7656,238.7656 341.6563,238.25 Q341.6094,237.8906 341.4219,237.7031 Q341.0938,237.3281 340.4844,237.1094 Q339.875,236.8906 339.25,236.8906 Q338.4844,236.8906 337.8516,237.2188 Q337.2188,237.5469 336.7266,238.2969 Q336.2344,239.0469 336.2344,240.0781 L336.2344,241.1719 Q336.2344,242.4063 337.125,243.2266 Q338.0156,244.0469 339.6094,244.0469 Q340.5469,244.0469 341.2031,243.7969 Q341.5938,243.6406 342.0156,243.2031 Q342.2813,242.9375 342.4297,242.8594 Q342.5781,242.7813 342.7813,242.7813 Q343.1094,242.7813 343.3672,243.0391 Q343.625,243.2969 343.625,243.6406 Q343.625,243.9844 343.2813,244.3906 Q342.7813,244.9688 341.9844,245.2969 Q340.9063,245.75 339.6094,245.75 Q338.0938,245.75 336.8906,245.125 Q335.9063,244.625 335.2188,243.5547 Q334.5313,242.4844 334.5313,241.2031 L334.5313,240.0469 Q334.5313,238.7188 335.1484,237.5703 Q335.7656,236.4219 336.8594,235.8047 Q337.9531,235.1875 339.1875,235.1875 Q339.9219,235.1875 340.5703,235.3516 Q341.2188,235.5156 341.7656,235.875 Z "/><text fill="#000000" font-family="sans-serif" font-size="12" lengthAdjust="spacingAndGlyphs" textLength="51" x="353" y="244.9102">Eventbus</text><line style="stroke: #A80036; stroke-width: 1.5;" x1="325" x2="406" y1="256" y2="256"/><line style="stroke: #A80036; stroke-width: 1.5;" x1="325" x2="406" y1="264" y2="264"/><!--class Model--><rect fill="#FEFECE" filter="url(#fphnjs2fqvpw1)" height="48" id="Model" style="stroke: #A80036; stroke-width: 1.5;" width="65" x="224" y="224"/><ellipse cx="239" cy="240" fill="#ADD1B2" rx="11" ry="11" style="stroke: #A80036; stroke-width: 1.0;"/><path d="M241.7656,235.875 Q241.9219,235.6563 242.1094,235.5469 Q242.2969,235.4375 242.5156,235.4375 Q242.8906,235.4375 243.125,235.6953 Q243.3594,235.9531 243.3594,236.5625 L243.3594,238.0156 Q243.3594,238.625 243.125,238.8906 Q242.8906,239.1563 242.5156,239.1563 Q242.1719,239.1563 241.9688,238.9531 Q241.7656,238.7656 241.6563,238.25 Q241.6094,237.8906 241.4219,237.7031 Q241.0938,237.3281 240.4844,237.1094 Q239.875,236.8906 239.25,236.8906 Q238.4844,236.8906 237.8516,237.2188 Q237.2188,237.5469 236.7266,238.2969 Q236.2344,239.0469 236.2344,240.0781 L236.2344,241.1719 Q236.2344,242.4063 237.125,243.2266 Q238.0156,244.0469 239.6094,244.0469 Q240.5469,244.0469 241.2031,243.7969 Q241.5938,243.6406 242.0156,243.2031 Q242.2813,242.9375 242.4297,242.8594 Q242.5781,242.7813 242.7813,242.7813 Q243.1094,242.7813 243.3672,243.0391 Q243.625,243.2969 243.625,243.6406 Q243.625,243.9844 243.2813,244.3906 Q242.7813,244.9688 241.9844,245.2969 Q240.9063,245.75 239.6094,245.75 Q238.0938,245.75 236.8906,245.125 Q235.9063,244.625 235.2188,243.5547 Q234.5313,242.4844 234.5313,241.2031 L234.5313,240.0469 Q234.5313,238.7188 235.1484,237.5703 Q235.7656,236.4219 236.8594,235.8047 Q237.9531,235.1875 239.1875,235.1875 Q239.9219,235.1875 240.5703,235.3516 Q241.2188,235.5156 241.7656,235.875 Z "/><text fill="#000000" font-family="sans-serif" font-size="12" lengthAdjust="spacingAndGlyphs" textLength="33" x="253" y="244.9102">Model</text><line style="stroke: #A80036; stroke-width: 1.5;" x1="225" x2="288" y1="256" y2="256"/><line style="stroke: #A80036; stroke-width: 1.5;" x1="225" x2="288" y1="264" y2="264"/><!--class AppController--><rect fill="#FEFECE" filter="url(#fphnjs2fqvpw1)" height="48" id="AppController" style="stroke: #A80036; stroke-width: 1.5;" width="107" x="142" y="8"/><ellipse cx="157" cy="24" fill="#ADD1B2" rx="11" ry="11" style="stroke: #A80036; stroke-width: 1.0;"/><path d="M159.7656,19.875 Q159.9219,19.6563 160.1094,19.5469 Q160.2969,19.4375 160.5156,19.4375 Q160.8906,19.4375 161.125,19.6953 Q161.3594,19.9531 161.3594,20.5625 L161.3594,22.0156 Q161.3594,22.625 161.125,22.8906 Q160.8906,23.1563 160.5156,23.1563 Q160.1719,23.1563 159.9688,22.9531 Q159.7656,22.7656 159.6563,22.25 Q159.6094,21.8906 159.4219,21.7031 Q159.0938,21.3281 158.4844,21.1094 Q157.875,20.8906 157.25,20.8906 Q156.4844,20.8906 155.8516,21.2188 Q155.2188,21.5469 154.7266,22.2969 Q154.2344,23.0469 154.2344,24.0781 L154.2344,25.1719 Q154.2344,26.4063 155.125,27.2266 Q156.0156,28.0469 157.6094,28.0469 Q158.5469,28.0469 159.2031,27.7969 Q159.5938,27.6406 160.0156,27.2031 Q160.2813,26.9375 160.4297,26.8594 Q160.5781,26.7813 160.7813,26.7813 Q161.1094,26.7813 161.3672,27.0391 Q161.625,27.2969 161.625,27.6406 Q161.625,27.9844 161.2813,28.3906 Q160.7813,28.9688 159.9844,29.2969 Q158.9063,29.75 157.6094,29.75 Q156.0938,29.75 154.8906,29.125 Q153.9063,28.625 153.2188,27.5547 Q152.5313,26.4844 152.5313,25.2031 L152.5313,24.0469 Q152.5313,22.7188 153.1484,21.5703 Q153.7656,20.4219 154.8594,19.8047 Q155.9531,19.1875 157.1875,19.1875 Q157.9219,19.1875 158.5703,19.3516 Q159.2188,19.5156 159.7656,19.875 Z "/><text fill="#000000" font-family="sans-serif" font-size="12" lengthAdjust="spacingAndGlyphs" textLength="75" x="171" y="28.9102">AppController</text><line style="stroke: #A80036; stroke-width: 1.5;" x1="143" x2="248" y1="40" y2="40"/><line style="stroke: #A80036; stroke-width: 1.5;" x1="143" x2="248" y1="48" y2="48"/><!--link View to ViewPresenter--><path d="M81.8584,164 C77.9332,180.003 72.6736,201.446 68.4837,218.528 " fill="none" id="View-ViewPresenter" style="stroke: #A80036; stroke-width: 1.0;"/><polygon fill="#A80036" points="67.2204,223.678,73.2497,215.8903,68.4118,218.822,65.4801,213.9841,67.2204,223.678" style="stroke: #A80036; stroke-width: 1.0;"/><!--link Presenter to Eventbus--><path d="M232.387,164 C260.805,181.719 299.919,206.108 328.391,223.862 " fill="none" id="Presenter-Eventbus" style="stroke: #A80036; stroke-width: 1.0;"/><!--link Presenter to ViewPresenter--><path d="M166.424,164 C148.985,177.796 126.434,195.634 106.711,211.236 " fill="none" id="Presenter-ViewPresenter" style="stroke: #A80036; stroke-width: 1.0; stroke-dasharray: 7.0,7.0;"/><polygon fill="none" points="111.011,216.76,90.982,223.678,102.3248,205.78,111.011,216.76" style="stroke: #A80036; stroke-width: 1.0;"/><!--link Presenter to Model--><path d="M208.736,164 C218.024,180.141 230.498,201.816 240.369,218.969 " fill="none" id="Presenter-Model" style="stroke: #A80036; stroke-width: 1.0;"/><polygon fill="#A80036" points="243.079,223.678,242.0569,213.8823,240.5851,219.3444,235.123,217.8726,243.079,223.678" style="stroke: #A80036; stroke-width: 1.0;"/><!--link Presenter to LiveUpdated--><path d="M197.445,164.191 C199.641,190.373 203.323,234.247 206.5,272 C207.588,284.9239 208.772,298.9796 209.853,311.7878 " fill="none" id="Presenter-LiveUpdated" style="stroke: #A80036; stroke-width: 1.0; stroke-dasharray: 7.0,7.0;"/><polygon fill="none" points="216.83,311.2276,211.536,331.7453,202.88,312.4047,216.83,311.2276" style="stroke: #A80036; stroke-width: 1.0;"/><!--link Model to LiveUpdated--><path d="M247.17,272 C240.622,288.1409 231.829,309.8162 224.871,326.9688 " fill="none" id="Model-LiveUpdated" style="stroke: #A80036; stroke-width: 1.0;"/><polygon fill="#A80036" points="222.961,331.6784,230.0511,324.8424,224.8407,327.0452,222.6379,321.8348,222.961,331.6784" style="stroke: #A80036; stroke-width: 1.0;"/><!--link AppController to Eventbus--><path d="M217.182,60.294 C250.909,102.75 315.343,183.861 347.006,223.72 " fill="none" id="AppController-Eventbus" style="stroke: #A80036; stroke-width: 1.0;"/><polygon fill="#A80036" points="214.017,56.309,216.4822,65.8443,217.1267,60.2243,222.7467,60.8688,214.017,56.309" style="stroke: #A80036; stroke-width: 1.0;"/><!--link AppController to Presenter--><path d="M195.5,56 C195.5,72.003 195.5,93.446 195.5,110.528 " fill="none" id="AppController-Presenter" style="stroke: #A80036; stroke-width: 1.0;"/><polygon fill="#A80036" points="195.5,115.678,199.5,106.678,195.5,110.678,191.5,106.678,195.5,115.678" style="stroke: #A80036; stroke-width: 1.0;"/><!--link AppController to View--><path d="M172.066,56 C155.339,72.417 132.78,94.559 115.168,111.844 " fill="none" id="AppController-View" style="stroke: #A80036; stroke-width: 1.0;"/><polygon fill="#A80036" points="111.262,115.678,120.4868,112.228,114.8302,112.1755,114.8828,106.5189,111.262,115.678" style="stroke: #A80036; stroke-width: 1.0;"/><!--
@startuml

interface ViewPresenter
interface LiveUpdated

View - -> ViewPresenter
Presenter - - Eventbus
Presenter ..|> ViewPresenter
Presenter - -> Model
Presenter ..|> LiveUpdated
Model - -> LiveUpdated
AppController <- - Eventbus
AppController - -> Presenter
AppController - -> View

@enduml

PlantUML version 1.2017.19(Sun Nov 12 12:46:22 CET 2017)
(GPL source distribution)
Java Runtime: Java(TM) SE Runtime Environment
JVM: Java HotSpot(TM) 64-Bit Server VM
Java Version: 1.8.0_141-b15
Operating System: Windows 10
OS Version: 10.0
Default Encoding: Cp1252
Language: de
Country: DE
--></g></svg>