<?xml version="1.0" encoding="UTF-8" standalone="no"?><svg xmlns="http://www.w3.org/2000/svg" xmlns:xlink="http://www.w3.org/1999/xlink" contentScriptType="application/ecmascript" contentStyleType="text/css" height="704px" preserveAspectRatio="none" style="width:1201px;height:704px;" version="1.1" viewBox="0 0 1201 704" width="1201px" zoomAndPan="magnify"><defs><filter height="300%" id="f1mz3mv7d8q8lm" width="300%" x="-1" y="-1"><feGaussianBlur result="blurOut" stdDeviation="2.0"/><feColorMatrix in="blurOut" result="blurOut2" type="matrix" values="0 0 0 0 0 0 0 0 0 0 0 0 0 0 0 0 0 0 .4 0"/><feOffset dx="4.0" dy="4.0" in="blurOut2" result="blurOut3"/><feBlend in="SourceGraphic" in2="blurOut3" mode="normal"/></filter></defs><g><rect fill="#FFFFFF" filter="url(#f1mz3mv7d8q8lm)" height="597.123" style="stroke: #A80036; stroke-width: 1.0;" width="10" x="83.5" y="48.4883"/><rect fill="#FFFFFF" filter="url(#f1mz3mv7d8q8lm)" height="576.123" style="stroke: #A80036; stroke-width: 1.0;" width="10" x="253" y="69.4883"/><rect fill="#FFFFFF" filter="url(#f1mz3mv7d8q8lm)" height="413.3926" style="stroke: #A80036; stroke-width: 1.0;" width="10" x="428.5" y="173.5977"/><rect fill="#FFFFFF" filter="url(#f1mz3mv7d8q8lm)" height="472.0137" style="stroke: #A80036; stroke-width: 1.0;" width="10" x="601.5" y="144.2871"/><rect fill="#FFFFFF" filter="url(#f1mz3mv7d8q8lm)" height="309.2832" style="stroke: #A80036; stroke-width: 1.0;" width="10" x="606.5" y="248.3965"/><rect fill="#FFFFFF" filter="url(#f1mz3mv7d8q8lm)" height="29.3105" style="stroke: #A80036; stroke-width: 1.0;" width="10" x="611.5" y="352.5059"/><rect fill="#FFFFFF" filter="url(#f1mz3mv7d8q8lm)" height="250.6621" style="stroke: #A80036; stroke-width: 1.0;" width="10" x="759" y="277.707"/><rect fill="#FFFFFF" filter="url(#f1mz3mv7d8q8lm)" height="29.3105" style="stroke: #A80036; stroke-width: 1.0;" width="10" x="960.5" y="440.4375"/><rect fill="#FFFFFF" filter="url(#f1mz3mv7d8q8lm)" height="87.9316" style="stroke: #A80036; stroke-width: 1.0;" width="10" x="1130" y="411.127"/><rect fill="#FEFECE" filter="url(#f1mz3mv7d8q8lm)" height="30.4883" style="stroke: #A80036; stroke-width: 1.5;" width="169" x="347" y="77.7988"/><text fill="#000000" font-family="sans-serif" font-size="14" lengthAdjust="spacingAndGlyphs" textLength="155" x="354" y="98.334">n : NormalOrderVisitor</text><rect fill="#FEFECE" filter="url(#f1mz3mv7d8q8lm)" height="30.4883" style="stroke: #A80036; stroke-width: 1.5;" width="178" x="673" y="181.9082"/><text fill="#000000" font-family="sans-serif" font-size="14" lengthAdjust="spacingAndGlyphs" textLength="164" x="680" y="202.4434">isRedex : isRedexVisitor</text><rect fill="#FEFECE" filter="url(#f1mz3mv7d8q8lm)" height="30.4883" style="stroke: #A80036; stroke-width: 1.5;" width="197" x="865" y="286.0176"/><text fill="#000000" font-family="sans-serif" font-size="14" lengthAdjust="spacingAndGlyphs" textLength="183" x="872" y="306.5527">isAbs : isAbstractionVisitor</text><line style="stroke: #A80036; stroke-width: 1.0; stroke-dasharray: 5.0,5.0;" x1="88" x2="88" y1="38.4883" y2="663.9219"/><line style="stroke: #A80036; stroke-width: 1.0; stroke-dasharray: 5.0,5.0;" x1="258" x2="258" y1="38.4883" y2="663.9219"/><line style="stroke: #A80036; stroke-width: 1.0; stroke-dasharray: 5.0,5.0;" x1="433" x2="433" y1="110.543" y2="663.9219"/><line style="stroke: #A80036; stroke-width: 1.0; stroke-dasharray: 5.0,5.0;" x1="606" x2="606" y1="38.4883" y2="663.9219"/><line style="stroke: #A80036; stroke-width: 1.0; stroke-dasharray: 5.0,5.0;" x1="764" x2="764" y1="214.6523" y2="663.9219"/><line style="stroke: #A80036; stroke-width: 1.0; stroke-dasharray: 5.0,5.0;" x1="965" x2="965" y1="318.7617" y2="663.9219"/><line style="stroke: #A80036; stroke-width: 1.0; stroke-dasharray: 5.0,5.0;" x1="1135" x2="1135" y1="38.4883" y2="663.9219"/><rect fill="#FEFECE" filter="url(#f1mz3mv7d8q8lm)" height="30.4883" style="stroke: #A80036; stroke-width: 1.5;" width="157" x="8" y="3"/><text fill="#000000" font-family="sans-serif" font-size="14" lengthAdjust="spacingAndGlyphs" textLength="143" x="15" y="23.5352">ee : ExecutionEngine</text><rect fill="#FEFECE" filter="url(#f1mz3mv7d8q8lm)" height="30.4883" style="stroke: #A80036; stroke-width: 1.5;" width="157" x="8" y="662.9219"/><text fill="#000000" font-family="sans-serif" font-size="14" lengthAdjust="spacingAndGlyphs" textLength="143" x="15" y="683.457">ee : ExecutionEngine</text><rect fill="#FEFECE" filter="url(#f1mz3mv7d8q8lm)" height="30.4883" style="stroke: #A80036; stroke-width: 1.5;" width="154" x="179" y="3"/><text fill="#000000" font-family="sans-serif" font-size="14" lengthAdjust="spacingAndGlyphs" textLength="140" x="186" y="23.5352">order : NormalOrder</text><rect fill="#FEFECE" filter="url(#f1mz3mv7d8q8lm)" height="30.4883" style="stroke: #A80036; stroke-width: 1.5;" width="154" x="179" y="662.9219"/><text fill="#000000" font-family="sans-serif" font-size="14" lengthAdjust="spacingAndGlyphs" textLength="140" x="186" y="683.457">order : NormalOrder</text><rect fill="#FEFECE" filter="url(#f1mz3mv7d8q8lm)" height="30.4883" style="stroke: #A80036; stroke-width: 1.5;" width="169" x="347" y="662.9219"/><text fill="#000000" font-family="sans-serif" font-size="14" lengthAdjust="spacingAndGlyphs" textLength="155" x="354" y="683.457">n : NormalOrderVisitor</text><rect fill="#FEFECE" filter="url(#f1mz3mv7d8q8lm)" height="30.4883" style="stroke: #A80036; stroke-width: 1.5;" width="109" x="550" y="3"/><text fill="#000000" font-family="sans-serif" font-size="14" lengthAdjust="spacingAndGlyphs" textLength="95" x="557" y="23.5352">t : Application</text><rect fill="#FEFECE" filter="url(#f1mz3mv7d8q8lm)" height="30.4883" style="stroke: #A80036; stroke-width: 1.5;" width="109" x="550" y="662.9219"/><text fill="#000000" font-family="sans-serif" font-size="14" lengthAdjust="spacingAndGlyphs" textLength="95" x="557" y="683.457">t : Application</text><rect fill="#FEFECE" filter="url(#f1mz3mv7d8q8lm)" height="30.4883" style="stroke: #A80036; stroke-width: 1.5;" width="178" x="673" y="662.9219"/><text fill="#000000" font-family="sans-serif" font-size="14" lengthAdjust="spacingAndGlyphs" textLength="164" x="680" y="683.457">isRedex : isRedexVisitor</text><rect fill="#FEFECE" filter="url(#f1mz3mv7d8q8lm)" height="30.4883" style="stroke: #A80036; stroke-width: 1.5;" width="197" x="865" y="662.9219"/><text fill="#000000" font-family="sans-serif" font-size="14" lengthAdjust="spacingAndGlyphs" textLength="183" x="872" y="683.457">isAbs : isAbstractionVisitor</text><rect fill="#FEFECE" filter="url(#f1mz3mv7d8q8lm)" height="30.4883" style="stroke: #A80036; stroke-width: 1.5;" width="114" x="1076" y="3"/><text fill="#000000" font-family="sans-serif" font-size="14" lengthAdjust="spacingAndGlyphs" textLength="100" x="1083" y="23.5352">u : Abstraction</text><rect fill="#FEFECE" filter="url(#f1mz3mv7d8q8lm)" height="30.4883" style="stroke: #A80036; stroke-width: 1.5;" width="114" x="1076" y="662.9219"/><text fill="#000000" font-family="sans-serif" font-size="14" lengthAdjust="spacingAndGlyphs" textLength="100" x="1083" y="683.457">u : Abstraction</text><rect fill="#FFFFFF" filter="url(#f1mz3mv7d8q8lm)" height="597.123" style="stroke: #A80036; stroke-width: 1.0;" width="10" x="83.5" y="48.4883"/><rect fill="#FFFFFF" filter="url(#f1mz3mv7d8q8lm)" height="576.123" style="stroke: #A80036; stroke-width: 1.0;" width="10" x="253" y="69.4883"/><rect fill="#FFFFFF" filter="url(#f1mz3mv7d8q8lm)" height="413.3926" style="stroke: #A80036; stroke-width: 1.0;" width="10" x="428.5" y="173.5977"/><rect fill="#FFFFFF" filter="url(#f1mz3mv7d8q8lm)" height="472.0137" style="stroke: #A80036; stroke-width: 1.0;" width="10" x="601.5" y="144.2871"/><rect fill="#FFFFFF" filter="url(#f1mz3mv7d8q8lm)" height="309.2832" style="stroke: #A80036; stroke-width: 1.0;" width="10" x="606.5" y="248.3965"/><rect fill="#FFFFFF" filter="url(#f1mz3mv7d8q8lm)" height="29.3105" style="stroke: #A80036; stroke-width: 1.0;" width="10" x="611.5" y="352.5059"/><rect fill="#FFFFFF" filter="url(#f1mz3mv7d8q8lm)" height="250.6621" style="stroke: #A80036; stroke-width: 1.0;" width="10" x="759" y="277.707"/><rect fill="#FFFFFF" filter="url(#f1mz3mv7d8q8lm)" height="29.3105" style="stroke: #A80036; stroke-width: 1.0;" width="10" x="960.5" y="440.4375"/><rect fill="#FFFFFF" filter="url(#f1mz3mv7d8q8lm)" height="87.9316" style="stroke: #A80036; stroke-width: 1.0;" width="10" x="1130" y="411.127"/><polygon fill="#A80036" points="241,65.4883,251,69.4883,241,73.4883,245,69.4883" style="stroke: #A80036; stroke-width: 1.0;"/><line style="stroke: #A80036; stroke-width: 1.0;" x1="93.5" x2="247" y1="69.4883" y2="69.4883"/><text fill="#000000" font-family="sans-serif" font-size="13" lengthAdjust="spacingAndGlyphs" textLength="126" x="100.5" y="65.0566">next(LambdaTerm t)</text><polygon fill="#A80036" points="335,79.7988,345,83.7988,335,87.7988,339,83.7988" style="stroke: #A80036; stroke-width: 1.0;"/><line style="stroke: #A80036; stroke-width: 1.0;" x1="263" x2="341" y1="83.7988" y2="83.7988"/><rect fill="#FEFECE" filter="url(#f1mz3mv7d8q8lm)" height="30.4883" style="stroke: #A80036; stroke-width: 1.5;" width="169" x="347" y="77.7988"/><text fill="#000000" font-family="sans-serif" font-size="14" lengthAdjust="spacingAndGlyphs" textLength="155" x="354" y="98.334">n : NormalOrderVisitor</text><polygon fill="#A80036" points="589.5,140.2871,599.5,144.2871,589.5,148.2871,593.5,144.2871" style="stroke: #A80036; stroke-width: 1.0;"/><line style="stroke: #A80036; stroke-width: 1.0;" x1="263" x2="595.5" y1="144.2871" y2="144.2871"/><text fill="#000000" font-family="sans-serif" font-size="13" lengthAdjust="spacingAndGlyphs" textLength="98" x="270" y="139.8555">acceptVisitor(n)</text><polygon fill="#A80036" points="449.5,169.5977,439.5,173.5977,449.5,177.5977,445.5,173.5977" style="stroke: #A80036; stroke-width: 1.0;"/><line style="stroke: #A80036; stroke-width: 1.0;" x1="443.5" x2="600.5" y1="173.5977" y2="173.5977"/><text fill="#000000" font-family="sans-serif" font-size="13" lengthAdjust="spacingAndGlyphs" textLength="112" x="455.5" y="169.166">visitApplication(t)</text><polygon fill="#A80036" points="661,183.9082,671,187.9082,661,191.9082,665,187.9082" style="stroke: #A80036; stroke-width: 1.0;"/><line style="stroke: #A80036; stroke-width: 1.0;" x1="438.5" x2="667" y1="187.9082" y2="187.9082"/><rect fill="#FEFECE" filter="url(#f1mz3mv7d8q8lm)" height="30.4883" style="stroke: #A80036; stroke-width: 1.5;" width="178" x="673" y="181.9082"/><text fill="#000000" font-family="sans-serif" font-size="14" lengthAdjust="spacingAndGlyphs" textLength="164" x="680" y="202.4434">isRedex : isRedexVisitor</text><polygon fill="#A80036" points="594.5,244.3965,604.5,248.3965,594.5,252.3965,598.5,248.3965" style="stroke: #A80036; stroke-width: 1.0;"/><line style="stroke: #A80036; stroke-width: 1.0;" x1="438.5" x2="600.5" y1="248.3965" y2="248.3965"/><text fill="#000000" font-family="sans-serif" font-size="13" lengthAdjust="spacingAndGlyphs" textLength="139" x="445.5" y="243.9648">acceptVisitor(isRedex)</text><polygon fill="#A80036" points="747,273.707,757,277.707,747,281.707,751,277.707" style="stroke: #A80036; stroke-width: 1.0;"/><line style="stroke: #A80036; stroke-width: 1.0;" x1="616.5" x2="753" y1="277.707" y2="277.707"/><text fill="#000000" font-family="sans-serif" font-size="13" lengthAdjust="spacingAndGlyphs" textLength="112" x="623.5" y="273.2754">visitApplication(t)</text><polygon fill="#A80036" points="853,288.0176,863,292.0176,853,296.0176,857,292.0176" style="stroke: #A80036; stroke-width: 1.0;"/><line style="stroke: #A80036; stroke-width: 1.0;" x1="769" x2="859" y1="292.0176" y2="292.0176"/><rect fill="#FEFECE" filter="url(#f1mz3mv7d8q8lm)" height="30.4883" style="stroke: #A80036; stroke-width: 1.5;" width="197" x="865" y="286.0176"/><text fill="#000000" font-family="sans-serif" font-size="14" lengthAdjust="spacingAndGlyphs" textLength="183" x="872" y="306.5527">isAbs : isAbstractionVisitor</text><polygon fill="#A80036" points="632.5,348.5059,622.5,352.5059,632.5,356.5059,628.5,352.5059" style="stroke: #A80036; stroke-width: 1.0;"/><line style="stroke: #A80036; stroke-width: 1.0;" x1="626.5" x2="758" y1="352.5059" y2="352.5059"/><text fill="#000000" font-family="sans-serif" font-size="13" lengthAdjust="spacingAndGlyphs" textLength="111" x="638.5" y="348.0742">getLeftHandSide()</text><polygon fill="#A80036" points="747,377.8164,757,381.8164,747,385.8164,751,381.8164" style="stroke: #A80036; stroke-width: 1.0;"/><line style="stroke: #A80036; stroke-width: 1.0; stroke-dasharray: 2.0,2.0;" x1="616.5" x2="753" y1="381.8164" y2="381.8164"/><text fill="#000000" font-family="sans-serif" font-size="13" lengthAdjust="spacingAndGlyphs" textLength="8" x="623.5" y="377.3848">u</text><polygon fill="#A80036" points="1118,407.127,1128,411.127,1118,415.127,1122,411.127" style="stroke: #A80036; stroke-width: 1.0;"/><line style="stroke: #A80036; stroke-width: 1.0;" x1="769" x2="1124" y1="411.127" y2="411.127"/><text fill="#000000" font-family="sans-serif" font-size="13" lengthAdjust="spacingAndGlyphs" textLength="125" x="776" y="406.6953">acceptVisitor(isAbs)</text><polygon fill="#A80036" points="981.5,436.4375,971.5,440.4375,981.5,444.4375,977.5,440.4375" style="stroke: #A80036; stroke-width: 1.0;"/><line style="stroke: #A80036; stroke-width: 1.0;" x1="975.5" x2="1129" y1="440.4375" y2="440.4375"/><text fill="#000000" font-family="sans-serif" font-size="13" lengthAdjust="spacingAndGlyphs" textLength="116" x="987.5" y="436.0059">visitAbstraction(u)</text><polygon fill="#A80036" points="1118,465.748,1128,469.748,1118,473.748,1122,469.748" style="stroke: #A80036; stroke-width: 1.0;"/><line style="stroke: #A80036; stroke-width: 1.0; stroke-dasharray: 2.0,2.0;" x1="965.5" x2="1124" y1="469.748" y2="469.748"/><text fill="#000000" font-family="sans-serif" font-size="13" lengthAdjust="spacingAndGlyphs" textLength="25" x="972.5" y="465.3164">true</text><polygon fill="#A80036" points="780,495.0586,770,499.0586,780,503.0586,776,499.0586" style="stroke: #A80036; stroke-width: 1.0;"/><line style="stroke: #A80036; stroke-width: 1.0; stroke-dasharray: 2.0,2.0;" x1="774" x2="1134" y1="499.0586" y2="499.0586"/><text fill="#000000" font-family="sans-serif" font-size="13" lengthAdjust="spacingAndGlyphs" textLength="25" x="786" y="494.627">true</text><polygon fill="#A80036" points="627.5,524.3691,617.5,528.3691,627.5,532.3691,623.5,528.3691" style="stroke: #A80036; stroke-width: 1.0;"/><line style="stroke: #A80036; stroke-width: 1.0; stroke-dasharray: 2.0,2.0;" x1="621.5" x2="763" y1="528.3691" y2="528.3691"/><text fill="#000000" font-family="sans-serif" font-size="13" lengthAdjust="spacingAndGlyphs" textLength="25" x="633.5" y="523.9375">true</text><polygon fill="#A80036" points="449.5,553.6797,439.5,557.6797,449.5,561.6797,445.5,557.6797" style="stroke: #A80036; stroke-width: 1.0;"/><line style="stroke: #A80036; stroke-width: 1.0; stroke-dasharray: 2.0,2.0;" x1="443.5" x2="600.5" y1="557.6797" y2="557.6797"/><text fill="#000000" font-family="sans-serif" font-size="13" lengthAdjust="spacingAndGlyphs" textLength="25" x="455.5" y="553.248">true</text><polygon fill="#A80036" points="589.5,582.9902,599.5,586.9902,589.5,590.9902,593.5,586.9902" style="stroke: #A80036; stroke-width: 1.0;"/><line style="stroke: #A80036; stroke-width: 1.0; stroke-dasharray: 2.0,2.0;" x1="433.5" x2="595.5" y1="586.9902" y2="586.9902"/><text fill="#000000" font-family="sans-serif" font-size="13" lengthAdjust="spacingAndGlyphs" textLength="25" x="440.5" y="582.5586">true</text><polygon fill="#A80036" points="274,612.3008,264,616.3008,274,620.3008,270,616.3008" style="stroke: #A80036; stroke-width: 1.0;"/><line style="stroke: #A80036; stroke-width: 1.0; stroke-dasharray: 2.0,2.0;" x1="268" x2="605.5" y1="616.3008" y2="616.3008"/><text fill="#000000" font-family="sans-serif" font-size="13" lengthAdjust="spacingAndGlyphs" textLength="25" x="280" y="611.8691">true</text><polygon fill="#A80036" points="99.5,641.6113,89.5,645.6113,99.5,649.6113,95.5,645.6113" style="stroke: #A80036; stroke-width: 1.0;"/><line style="stroke: #A80036; stroke-width: 1.0; stroke-dasharray: 2.0,2.0;" x1="93.5" x2="257" y1="645.6113" y2="645.6113"/><text fill="#000000" font-family="sans-serif" font-size="13" lengthAdjust="spacingAndGlyphs" textLength="5" x="105.5" y="641.1797">t</text><!--
@startuml
participant "ee : ExecutionEngine" as ee
participant "order : NormalOrder" as ro

activate ee
ee -> ro: next(LambdaTerm t)
activate ro
create participant "n : NormalOrderVisitor" as nav
participant "t : Application" as t
ro -> nav
ro -> t: acceptVisitor(n)
activate t
t -> nav: visitApplication(t)
activate nav
create participant "isRedex : isRedexVisitor" as isr
nav -> isr
nav -> t: acceptVisitor(isRedex)
activate t
t -> isr: visitApplication(t)
activate isr
create participant "isAbs : isAbstractionVisitor" as ia
isr -> ia
isr -> t: getLeftHandSide()
activate t
isr <- - t: u
deactivate t
participant "u : Abstraction" as u
isr -> u: acceptVisitor(isAbs)
activate u
u -> ia: visitAbstraction(u)
activate ia
u <- - ia: true
deactivate ia
isr <- - u: true
deactivate u
t <- - isr: true
deactivate isr
nav <- - t: true
deactivate t
t <- - nav: true
deactivate nav
ro <- - t: true
deactivate t
ee <- - ro: t
deactivate ro
deactivate ee

@enduml

PlantUML version 1.2018.00(Thu Jan 04 20:42:56 CET 2018)
(GPL source distribution)
Java Runtime: Java(TM) SE Runtime Environment
JVM: Java HotSpot(TM) 64-Bit Server VM
Java Version: 1.8.0_112-b16
Operating System: Mac OS X
OS Version: 10.13.2
Default Encoding: UTF-8
Language: de
Country: DE
--></g></svg>