<?xml version="1.0" encoding="UTF-8" standalone="no"?>
<!-- Created with Inkscape (http://www.inkscape.org/) -->

<svg
   xmlns:dc="http://purl.org/dc/elements/1.1/"
   xmlns:cc="http://creativecommons.org/ns#"
   xmlns:rdf="http://www.w3.org/1999/02/22-rdf-syntax-ns#"
   xmlns:svg="http://www.w3.org/2000/svg"
   xmlns="http://www.w3.org/2000/svg"
   xmlns:sodipodi="http://sodipodi.sourceforge.net/DTD/sodipodi-0.dtd"
   xmlns:inkscape="http://www.inkscape.org/namespaces/inkscape"
   width="210mm"
   height="297mm"
   viewBox="0 0 210 297"
   version="1.1"
   id="svg8"
   inkscape:version="0.92.1 r15371"
   sodipodi:docname="plantuml.svg"
   inkscape:export-filename="C:\Users\sigmu\Downloads\plantuml.png"
   inkscape:export-xdpi="474.04361"
   inkscape:export-ydpi="474.04361">
  <defs
     id="defs2" />
  <sodipodi:namedview
     id="base"
     pagecolor="#ffffff"
     bordercolor="#666666"
     borderopacity="1.0"
     inkscape:pageopacity="0.0"
     inkscape:pageshadow="2"
     inkscape:zoom="1.979899"
     inkscape:cx="237.43731"
     inkscape:cy="884.19062"
     inkscape:document-units="mm"
     inkscape:current-layer="layer1"
     showgrid="false"
     inkscape:window-width="1920"
     inkscape:window-height="1017"
     inkscape:window-x="1592"
     inkscape:window-y="97"
     inkscape:window-maximized="1" />
  <metadata
     id="metadata5">
    <rdf:RDF>
      <cc:Work
         rdf:about="">
        <dc:format>image/svg+xml</dc:format>
        <dc:type
           rdf:resource="http://purl.org/dc/dcmitype/StillImage" />
        <dc:title></dc:title>
      </cc:Work>
    </rdf:RDF>
  </metadata>
  <g
     inkscape:label="Ebene 1"
     inkscape:groupmode="layer"
     id="layer1">
    <path
       style="fill:#666666;fill-opacity:1;stroke:#000000;stroke-width:0.26458332px;stroke-linecap:butt;stroke-linejoin:miter;stroke-opacity:1"
       d="m 92.489752,29.585822 -8.55262,4.81086 11.75986,7.21627 8.018078,-4.81085 z"
       id="path21"
       inkscape:connector-curvature="0" />
    <path
       style="fill:#0467a5;fill-opacity:1;stroke:#000000;stroke-width:0.26458332px;stroke-linecap:butt;stroke-linejoin:miter;stroke-opacity:1"
       d="m 29.815052,80.233402 -0.267269,12.2944 -26.5933181,-16.83798 0.267269,-12.42804 z"
       id="path29"
       inkscape:connector-curvature="0" />
    <path
       style="fill:#991039;fill-opacity:1;stroke:#000000;stroke-width:0.26458332px;stroke-linecap:butt;stroke-linejoin:miter;stroke-opacity:1"
       d="M 29.815052,80.233402 49.993902,69.008082 23.667852,52.170102 3.2217339,63.261782 Z"
       id="path31"
       inkscape:connector-curvature="0" />
    <path
       style="fill:#0566a3;fill-opacity:1;stroke:#000000;stroke-width:0.26458332px;stroke-linecap:butt;stroke-linejoin:miter;stroke-opacity:1"
       d="m 83.937132,34.396682 0.53454,27.79602 11.09168,6.28084 0.13364,-26.86059 z"
       id="path33"
       inkscape:connector-curvature="0" />
    <path
       style="fill:#ffba39;fill-opacity:1;stroke:#000000;stroke-width:0.26458332px;stroke-linecap:butt;stroke-linejoin:miter;stroke-opacity:1"
       d="m 46.653032,52.437372 -12.695301,6.41447 16.036171,10.15624 2.27179,11.22532 20.57975,-11.22532 z"
       id="path35"
       inkscape:connector-curvature="0" />
    <path
       style="fill:#16003a;fill-opacity:1;stroke:#000000;stroke-width:0.26458332px;stroke-linecap:butt;stroke-linejoin:miter;stroke-opacity:1"
       d="m 69.504582,52.170102 -12.56167,6.68174 15.90253,10.15624 2.40543,11.49259 20.31248,-12.02713 z"
       id="path37"
       inkscape:connector-curvature="0" />
    <path
       style="fill:#ffffff;stroke:#000000;stroke-width:0.26458332px;stroke-linecap:butt;stroke-linejoin:miter;stroke-opacity:1;fill-opacity:0.97749197"
       d="m 103.71507,36.802102 0.13364,55.85933 -74.300927,-0.13363 0.267269,-12.2944 20.17885,-11.22532 2.27179,11.22532 20.57975,-11.22532 2.40543,11.49259 20.31248,-12.02713 0.13364,-26.86059 z"
       id="path39"
       inkscape:connector-curvature="0" />
    <path
       style="fill:#e62c2d;fill-opacity:1;stroke:#000000;stroke-width:0.26458332px;stroke-linecap:butt;stroke-linejoin:miter;stroke-opacity:1"
       d="m 96.899702,28.650382 2.53906,-1.87089 0.53454,-4.67721 -2.00452,-2.6727 -0.13363,-2.80633 1.73725,-1.202711 2.138148,-1.603618 1.46999,-0.801807 2.13815,-1.202714 -3.20723,-0.668173 -3.474508,2.138156 -2.93996,2.271789 -1.20271,2.405428 v 3.0736 l 0.66817,1.87089 1.46998,1.06907 0.53454,1.46999 0.26727,2.00452 z"
       id="path41"
       inkscape:connector-curvature="0" />
    <path
       style="fill:#e62c2d;fill-opacity:1;stroke:#000000;stroke-width:0.26458332px;stroke-linecap:butt;stroke-linejoin:miter;stroke-opacity:1"
       d="m 100.49442,2.3675579 -0.0945,4.960937 -2.882068,4.0159971 -3.9215,3.165552 -2.17336,2.456848 -0.42523,2.55134 0.75596,2.22061 0.99218,1.70089 1.74814,2.45684 -0.37797,0.85045 -1.6064,-0.56696 -1.79539,-2.55134 c 0,0 -2.12611,-2.31511 -2.17336,-2.5041 -0.0472,-0.18898 0.23623,-5.527898 0.23623,-5.527898 l 2.74033,-2.787573 2.64583,-1.559152 2.4096,-2.0788691 1.22842,-2.22061 1.08669,-1.228424 0.33073,-4.582961 z"
       id="path43"
       inkscape:connector-curvature="0" />
    <path
       style="fill:#000000;fill-opacity:0;stroke-width:0.50507629"
       d="m 200.5878,349.16806 -88.31679,-0.12911 0.30274,-9.21623 c 0.1665,-5.06892 0.44367,-15.27827 0.61593,-22.68743 l 0.3132,-13.47122 37.37839,-20.77299 c 20.55811,-11.42513 37.44129,-20.70478 37.51817,-20.62143 0.0769,0.0834 2.02542,9.52703 4.3301,20.98595 2.30467,11.45892 4.35773,20.83439 4.56235,20.83439 0.20463,0 17.68606,-9.4465 38.84764,-20.99223 21.16158,-11.54573 38.54133,-20.92121 38.62167,-20.8344 0.0803,0.0868 2.14699,9.7606 4.59256,21.49731 2.44556,11.73671 4.60768,21.33948 4.80469,21.33948 0.19702,0 17.73778,-10.28728 38.97947,-22.86062 l 38.62125,-22.86062 0.30771,-32.31896 c 0.16925,-17.77543 0.3119,-40.63935 0.31701,-50.80871 l 0.009,-18.48974 14.31174,-8.58358 14.31174,-8.58357 0.33547,53.79974 c 0.18451,29.58985 0.33547,76.60417 0.33547,104.47625 v 50.67652 l -51.39151,-0.12485 c -28.26533,-0.0687 -91.13406,-0.18294 -139.70829,-0.25395 z m -31.00749,-26.8923 5.42957,-0.003 -0.002,-3.40927 c -0.001,-1.87509 -0.15155,-6.34082 -0.33428,-9.92385 l -0.33222,-6.51459 -9.36775,0.3488 c -5.15226,0.19184 -9.43576,0.41681 -9.51888,0.49994 -0.0831,0.0831 0.001,4.53637 0.18774,9.89611 l 0.33888,9.74498 4.08471,-0.31803 c 2.24656,-0.17492 6.52799,-0.3194 9.51425,-0.32107 z m 176.65043,-10.60962 v -10.6066 l -1.13643,0.006 c -0.62503,0.004 -4.88661,0.34155 -9.47018,0.75138 -4.58356,0.40982 -8.50422,0.74794 -8.71256,0.75137 -0.20835,0.004 -0.37881,4.06726 -0.37881,9.03072 v 9.02448 l 8.20749,0.61231 c 4.51412,0.33677 8.43477,0.68986 8.71257,0.78464 0.27779,0.0948 1.01646,0.19026 1.64149,0.21219 l 1.13643,0.0399 z m -87.71073,2.65165 c 0.18064,-3.54185 0.32935,-7.74661 0.33048,-9.34391 l 0.002,-2.90419 h -9.34391 -9.34391 v 3.96204 c 0,2.17912 -0.14818,6.38388 -0.3293,9.34391 l -0.32929,5.38187 h 9.34272 9.34273 z"
       id="path45"
       inkscape:connector-curvature="0"
       transform="scale(0.26458333)"
       inkscape:export-xdpi="474.04361"
       inkscape:export-ydpi="474.04361" />
    <path
       style="fill:#ffffff;fill-opacity:0;stroke-width:0.50507629"
       d="m 200.5878,349.16806 -88.31679,-0.12911 0.30274,-9.21623 c 0.1665,-5.06892 0.44367,-15.27827 0.61593,-22.68743 l 0.3132,-13.47122 37.37839,-20.77299 c 20.55811,-11.42513 37.44129,-20.70478 37.51817,-20.62143 0.0769,0.0834 2.02542,9.52703 4.3301,20.98595 2.30467,11.45892 4.35773,20.83439 4.56235,20.83439 0.20463,0 17.68606,-9.4465 38.84764,-20.99223 21.16158,-11.54573 38.54133,-20.92121 38.62167,-20.8344 0.0803,0.0868 2.14699,9.7606 4.59256,21.49731 2.44556,11.73671 4.60768,21.33948 4.80469,21.33948 0.19702,0 17.73778,-10.28728 38.97947,-22.86062 l 38.62125,-22.86062 0.30771,-32.31896 c 0.16925,-17.77543 0.3119,-40.63935 0.31701,-50.80871 l 0.009,-18.48974 14.31174,-8.58358 14.31174,-8.58357 0.33547,53.79974 c 0.18451,29.58985 0.33547,76.60417 0.33547,104.47625 v 50.67652 l -51.39151,-0.12485 c -28.26533,-0.0687 -91.13406,-0.18294 -139.70829,-0.25395 z m -31.00749,-26.8923 5.42957,-0.003 -0.002,-3.40927 c -0.001,-1.87509 -0.15155,-6.34082 -0.33428,-9.92385 l -0.33222,-6.51459 -9.36775,0.3488 c -5.15226,0.19184 -9.43576,0.41681 -9.51888,0.49994 -0.0831,0.0831 0.001,4.53637 0.18774,9.89611 l 0.33888,9.74498 4.08471,-0.31803 c 2.24656,-0.17492 6.52799,-0.3194 9.51425,-0.32107 z m 176.65043,-10.60962 v -10.6066 l -1.13643,0.006 c -0.62503,0.004 -4.88661,0.34155 -9.47018,0.75138 -4.58356,0.40982 -8.50422,0.74794 -8.71256,0.75137 -0.20835,0.004 -0.37881,4.06726 -0.37881,9.03072 v 9.02448 l 8.20749,0.61231 c 4.51412,0.33677 8.43477,0.68986 8.71257,0.78464 0.27779,0.0948 1.01646,0.19026 1.64149,0.21219 l 1.13643,0.0399 z m -87.71073,2.65165 c 0.18064,-3.54185 0.32935,-7.74661 0.33048,-9.34391 l 0.002,-2.90419 h -9.34391 -9.34391 v 3.96204 c 0,2.17912 -0.14818,6.38388 -0.3293,9.34391 l -0.32929,5.38187 h 9.34272 9.34273 z"
       id="path47"
       inkscape:connector-curvature="0"
       transform="scale(0.26458333)"
       inkscape:export-xdpi="474"
       inkscape:export-ydpi="474" />
    <path
       style="fill:#ffffff;fill-opacity:0;stroke-width:0.50507629"
       d="m 200.5878,349.16806 -88.31679,-0.12911 0.30274,-9.21623 c 0.1665,-5.06892 0.44367,-15.27827 0.61593,-22.68743 l 0.3132,-13.47122 37.37839,-20.77299 c 20.55811,-11.42513 37.44129,-20.70478 37.51817,-20.62143 0.0769,0.0834 2.02542,9.52703 4.3301,20.98595 2.30467,11.45892 4.35773,20.83439 4.56235,20.83439 0.20463,0 17.68606,-9.4465 38.84764,-20.99223 21.16158,-11.54573 38.54133,-20.92121 38.62167,-20.8344 0.0803,0.0868 2.14699,9.7606 4.59256,21.49731 2.44556,11.73671 4.60768,21.33948 4.80469,21.33948 0.19702,0 17.73778,-10.28728 38.97947,-22.86062 l 38.62125,-22.86062 0.30771,-32.31896 c 0.16925,-17.77543 0.3119,-40.63935 0.31701,-50.80871 l 0.009,-18.48974 14.31174,-8.58358 14.31174,-8.58357 0.33547,53.79974 c 0.18451,29.58985 0.33547,76.60417 0.33547,104.47625 v 50.67652 l -51.39151,-0.12485 c -28.26533,-0.0687 -91.13406,-0.18294 -139.70829,-0.25395 z m -31.00749,-26.8923 5.42957,-0.003 -0.002,-3.40927 c -0.001,-1.87509 -0.15155,-6.34082 -0.33428,-9.92385 l -0.33222,-6.51459 -9.36775,0.3488 c -5.15226,0.19184 -9.43576,0.41681 -9.51888,0.49994 -0.0831,0.0831 0.001,4.53637 0.18774,9.89611 l 0.33888,9.74498 4.08471,-0.31803 c 2.24656,-0.17492 6.52799,-0.3194 9.51425,-0.32107 z m 176.65043,-10.60962 v -10.6066 l -1.13643,0.006 c -0.62503,0.004 -4.88661,0.34155 -9.47018,0.75138 -4.58356,0.40982 -8.50422,0.74794 -8.71256,0.75137 -0.20835,0.004 -0.37881,4.06726 -0.37881,9.03072 v 9.02448 l 8.20749,0.61231 c 4.51412,0.33677 8.43477,0.68986 8.71257,0.78464 0.27779,0.0948 1.01646,0.19026 1.64149,0.21219 l 1.13643,0.0399 z m -87.71073,2.65165 c 0.18064,-3.54185 0.32935,-7.74661 0.33048,-9.34391 l 0.002,-2.90419 h -9.34391 -9.34391 v 3.96204 c 0,2.17912 -0.14818,6.38388 -0.3293,9.34391 l -0.32929,5.38187 h 9.34272 9.34273 z"
       id="path49"
       inkscape:connector-curvature="0"
       transform="scale(0.26458333)" />
    <path
       style="fill:#ffffff;fill-opacity:0;stroke-width:0.50507629"
       d="m 200.5878,349.16806 -88.31679,-0.12911 0.30274,-9.21623 c 0.1665,-5.06892 0.44367,-15.27827 0.61593,-22.68743 l 0.3132,-13.47122 37.37839,-20.77299 c 20.55811,-11.42513 37.44129,-20.70478 37.51817,-20.62143 0.0769,0.0834 2.02542,9.52703 4.3301,20.98595 2.30467,11.45892 4.35773,20.83439 4.56235,20.83439 0.20463,0 17.68606,-9.4465 38.84764,-20.99223 21.16158,-11.54573 38.54133,-20.92121 38.62167,-20.8344 0.0803,0.0868 2.14699,9.7606 4.59256,21.49731 2.44556,11.73671 4.60768,21.33948 4.80469,21.33948 0.19702,0 17.73778,-10.28728 38.97947,-22.86062 l 38.62125,-22.86062 0.30771,-32.31896 c 0.16925,-17.77543 0.3119,-40.63935 0.31701,-50.80871 l 0.009,-18.48974 14.31174,-8.58358 14.31174,-8.58357 0.33547,53.79974 c 0.18451,29.58985 0.33547,76.60417 0.33547,104.47625 v 50.67652 l -51.39151,-0.12485 c -28.26533,-0.0687 -91.13406,-0.18294 -139.70829,-0.25395 z m -31.00749,-26.8923 5.42957,-0.003 -0.002,-3.40927 c -0.001,-1.87509 -0.15155,-6.34082 -0.33428,-9.92385 l -0.33222,-6.51459 -9.36775,0.3488 c -5.15226,0.19184 -9.43576,0.41681 -9.51888,0.49994 -0.0831,0.0831 0.001,4.53637 0.18774,9.89611 l 0.33888,9.74498 4.08471,-0.31803 c 2.24656,-0.17492 6.52799,-0.3194 9.51425,-0.32107 z m 176.65043,-10.60962 v -10.6066 l -1.13643,0.006 c -0.62503,0.004 -4.88661,0.34155 -9.47018,0.75138 -4.58356,0.40982 -8.50422,0.74794 -8.71256,0.75137 -0.20835,0.004 -0.37881,4.06726 -0.37881,9.03072 v 9.02448 l 8.20749,0.61231 c 4.51412,0.33677 8.43477,0.68986 8.71257,0.78464 0.27779,0.0948 1.01646,0.19026 1.64149,0.21219 l 1.13643,0.0399 z m -87.71073,2.65165 c 0.18064,-3.54185 0.32935,-7.74661 0.33048,-9.34391 l 0.002,-2.90419 h -9.34391 -9.34391 v 3.96204 c 0,2.17912 -0.14818,6.38388 -0.3293,9.34391 l -0.32929,5.38187 h 9.34272 9.34273 z"
       id="path51"
       inkscape:connector-curvature="0"
       transform="scale(0.26458333)" />
    <path
       style="fill:#ffffff;fill-opacity:0;stroke-width:0.50507629"
       d="m 200.5878,349.16806 -88.31679,-0.12911 0.30274,-9.21623 c 0.1665,-5.06892 0.44367,-15.27827 0.61593,-22.68743 l 0.3132,-13.47122 37.37839,-20.77299 c 20.55811,-11.42513 37.44129,-20.70478 37.51817,-20.62143 0.0769,0.0834 2.02542,9.52703 4.3301,20.98595 2.30467,11.45892 4.35773,20.83439 4.56235,20.83439 0.20463,0 17.68606,-9.4465 38.84764,-20.99223 21.16158,-11.54573 38.54133,-20.92121 38.62167,-20.8344 0.0803,0.0868 2.14699,9.7606 4.59256,21.49731 2.44556,11.73671 4.60768,21.33948 4.80469,21.33948 0.19702,0 17.73778,-10.28728 38.97947,-22.86062 l 38.62125,-22.86062 0.30771,-32.31896 c 0.16925,-17.77543 0.3119,-40.63935 0.31701,-50.80871 l 0.009,-18.48974 14.31174,-8.58358 14.31174,-8.58357 0.33547,53.79974 c 0.18451,29.58985 0.33547,76.60417 0.33547,104.47625 v 50.67652 l -51.39151,-0.12485 c -28.26533,-0.0687 -91.13406,-0.18294 -139.70829,-0.25395 z m -31.00749,-26.8923 5.42957,-0.003 -0.002,-3.40927 c -0.001,-1.87509 -0.15155,-6.34082 -0.33428,-9.92385 l -0.33222,-6.51459 -9.36775,0.3488 c -5.15226,0.19184 -9.43576,0.41681 -9.51888,0.49994 -0.0831,0.0831 0.001,4.53637 0.18774,9.89611 l 0.33888,9.74498 4.08471,-0.31803 c 2.24656,-0.17492 6.52799,-0.3194 9.51425,-0.32107 z m 176.65043,-10.60962 v -10.6066 l -1.13643,0.006 c -0.62503,0.004 -4.88661,0.34155 -9.47018,0.75138 -4.58356,0.40982 -8.50422,0.74794 -8.71256,0.75137 -0.20835,0.004 -0.37881,4.06726 -0.37881,9.03072 v 9.02448 l 8.20749,0.61231 c 4.51412,0.33677 8.43477,0.68986 8.71257,0.78464 0.27779,0.0948 1.01646,0.19026 1.64149,0.21219 l 1.13643,0.0399 z m -87.71073,2.65165 c 0.18064,-3.54185 0.32935,-7.74661 0.33048,-9.34391 l 0.002,-2.90419 h -9.34391 -9.34391 v 3.96204 c 0,2.17912 -0.14818,6.38388 -0.3293,9.34391 l -0.32929,5.38187 h 9.34272 9.34273 z"
       id="path53"
       inkscape:connector-curvature="0"
       transform="scale(0.26458333)" />
    <g
       id="g4533">
      <path
         inkscape:connector-curvature="0"
         id="path23"
         d="m 86.609822,80.233402 v 4.40995 l 4.81085,0.4009 v -5.21176 z"
         style="fill:#adadad;fill-opacity:1;stroke:#000000;stroke-width:0.26458332px;stroke-linecap:butt;stroke-linejoin:miter;stroke-opacity:1" />
      <path
         inkscape:connector-curvature="0"
         id="path25"
         d="m 63.758282,80.099762 -0.13363,4.54359 h 4.54358 l 0.13363,-4.54359 z"
         style="fill:#a8a8a8;fill-opacity:1;stroke:#000000;stroke-width:0.26458332px;stroke-linecap:butt;stroke-linejoin:miter;stroke-opacity:1" />
      <path
         inkscape:connector-curvature="0"
         id="path27"
         d="m 41.307642,80.367032 0.13364,4.81085 4.67721,-0.13363 -0.13363,-4.81085 z"
         style="fill:#b2b2b2;fill-opacity:1;stroke:#000000;stroke-width:0.26458332px;stroke-linecap:butt;stroke-linejoin:miter;stroke-opacity:1" />
    </g>
  </g>
</svg>
