<?xml version="1.0" encoding="UTF-8" standalone="no"?><svg xmlns="http://www.w3.org/2000/svg" xmlns:xlink="http://www.w3.org/1999/xlink" contentScriptType="application/ecmascript" contentStyleType="text/css" height="1277px" preserveAspectRatio="none" style="width:1726px;height:1277px;" version="1.1" viewBox="0 0 1726 1277" width="1726px" zoomAndPan="magnify"><defs><filter height="300%" id="f1umvbadrtpws0" width="300%" x="-1" y="-1"><feGaussianBlur result="blurOut" stdDeviation="2.0"/><feColorMatrix in="blurOut" result="blurOut2" type="matrix" values="0 0 0 0 0 0 0 0 0 0 0 0 0 0 0 0 0 0 .4 0"/><feOffset dx="4.0" dy="4.0" in="blurOut2" result="blurOut3"/><feBlend in="SourceGraphic" in2="blurOut3" mode="normal"/></filter></defs><g><rect fill="#FFFFFF" filter="url(#f1umvbadrtpws0)" height="29.3105" style="stroke: #A80036; stroke-width: 1.0;" width="10" x="82" y="69.4883"/><rect fill="#FFFFFF" filter="url(#f1umvbadrtpws0)" height="1170.2012" style="stroke: #A80036; stroke-width: 1.0;" width="10" x="251.5" y="48.4883"/><rect fill="#FFFFFF" filter="url(#f1umvbadrtpws0)" height="1045.0918" style="stroke: #A80036; stroke-width: 1.0;" width="10" x="404.5" y="173.5977"/><rect fill="#FFFFFF" filter="url(#f1umvbadrtpws0)" height="29.3105" style="stroke: #A80036; stroke-width: 1.0;" width="10" x="409.5" y="232.2188"/><rect fill="#FFFFFF" filter="url(#f1umvbadrtpws0)" height="986.4707" style="stroke: #A80036; stroke-width: 1.0;" width="10" x="546.5" y="202.9082"/><rect fill="#FFFFFF" filter="url(#f1umvbadrtpws0)" height="810.6074" style="stroke: #A80036; stroke-width: 1.0;" width="10" x="551.5" y="320.1504"/><rect fill="#FFFFFF" filter="url(#f1umvbadrtpws0)" height="869.2285" style="stroke: #A80036; stroke-width: 1.0;" width="10" x="705.5" y="290.8398"/><rect fill="#FFFFFF" filter="url(#f1umvbadrtpws0)" height="29.3105" style="stroke: #A80036; stroke-width: 1.0;" width="10" x="710.5" y="349.4609"/><rect fill="#FFFFFF" filter="url(#f1umvbadrtpws0)" height="29.3105" style="stroke: #A80036; stroke-width: 1.0;" width="10" x="710.5" y="408.082"/><rect fill="#FFFFFF" filter="url(#f1umvbadrtpws0)" height="29.3105" style="stroke: #A80036; stroke-width: 1.0;" width="10" x="710.5" y="466.7031"/><rect fill="#FFFFFF" filter="url(#f1umvbadrtpws0)" height="530.6348" style="stroke: #A80036; stroke-width: 1.0;" width="10" x="832" y="570.8125"/><rect fill="#FFFFFF" filter="url(#f1umvbadrtpws0)" height="29.3105" style="stroke: #A80036; stroke-width: 1.0;" width="10" x="837" y="629.4336"/><rect fill="#FFFFFF" filter="url(#f1umvbadrtpws0)" height="472.0137" style="stroke: #A80036; stroke-width: 1.0;" width="10" x="986.5" y="600.123"/><rect fill="#FFFFFF" filter="url(#f1umvbadrtpws0)" height="309.2832" style="stroke: #A80036; stroke-width: 1.0;" width="10" x="1142" y="733.543"/><rect fill="#FFFFFF" filter="url(#f1umvbadrtpws0)" height="29.3105" style="stroke: #A80036; stroke-width: 1.0;" width="10" x="1147" y="792.1641"/><rect fill="#FFFFFF" filter="url(#f1umvbadrtpws0)" height="250.6621" style="stroke: #A80036; stroke-width: 1.0;" width="10" x="1297.5" y="762.8535"/><rect fill="#FFFFFF" filter="url(#f1umvbadrtpws0)" height="87.9316" style="stroke: #A80036; stroke-width: 1.0;" width="10" x="1462.5" y="896.2734"/><rect fill="#FFFFFF" filter="url(#f1umvbadrtpws0)" height="29.3105" style="stroke: #A80036; stroke-width: 1.0;" width="10" x="1627.5" y="925.584"/><rect fill="#FEFECE" filter="url(#f1umvbadrtpws0)" height="30.4883" style="stroke: #A80036; stroke-width: 1.5;" width="126" x="486.5" y="107.1094"/><text fill="#000000" font-family="sans-serif" font-size="14" lengthAdjust="spacingAndGlyphs" textLength="112" x="493.5" y="127.6445">br : BetaReducer</text><rect fill="#FEFECE" filter="url(#f1umvbadrtpws0)" height="30.4883" style="stroke: #A80036; stroke-width: 1.5;" width="169" x="905" y="504.3242"/><text fill="#000000" font-family="sans-serif" font-size="14" lengthAdjust="spacingAndGlyphs" textLength="155" x="912" y="524.8594">s1 : SubstitutionVisitor</text><rect fill="#FEFECE" filter="url(#f1umvbadrtpws0)" height="30.4883" style="stroke: #A80036; stroke-width: 1.5;" width="169" x="1216" y="667.0547"/><text fill="#000000" font-family="sans-serif" font-size="14" lengthAdjust="spacingAndGlyphs" textLength="155" x="1223" y="687.5898">s2 : SubstitutionVisitor</text><rect fill="#FEFECE" filter="url(#f1umvbadrtpws0)" height="30.4883" style="stroke: #A80036; stroke-width: 1.5;" width="169" x="1546" y="829.7852"/><text fill="#000000" font-family="sans-serif" font-size="14" lengthAdjust="spacingAndGlyphs" textLength="155" x="1553" y="850.3203">s3 : SubstitutionVisitor</text><line style="stroke: #A80036; stroke-width: 1.0; stroke-dasharray: 5.0,5.0;" x1="87" x2="87" y1="38.4883" y2="1237"/><line style="stroke: #A80036; stroke-width: 1.0; stroke-dasharray: 5.0,5.0;" x1="256" x2="256" y1="38.4883" y2="1237"/><line style="stroke: #A80036; stroke-width: 1.0; stroke-dasharray: 5.0,5.0;" x1="409" x2="409" y1="38.4883" y2="1237"/><line style="stroke: #A80036; stroke-width: 1.0; stroke-dasharray: 5.0,5.0;" x1="551.5" x2="551.5" y1="139.8535" y2="1237"/><line style="stroke: #A80036; stroke-width: 1.0; stroke-dasharray: 5.0,5.0;" x1="710" x2="710" y1="38.4883" y2="1237"/><line style="stroke: #A80036; stroke-width: 1.0; stroke-dasharray: 5.0,5.0;" x1="837" x2="837" y1="38.4883" y2="1237"/><line style="stroke: #A80036; stroke-width: 1.0; stroke-dasharray: 5.0,5.0;" x1="991" x2="991" y1="537.0684" y2="1237"/><line style="stroke: #A80036; stroke-width: 1.0; stroke-dasharray: 5.0,5.0;" x1="1147" x2="1147" y1="38.4883" y2="1237"/><line style="stroke: #A80036; stroke-width: 1.0; stroke-dasharray: 5.0,5.0;" x1="1302" x2="1302" y1="699.7988" y2="1237"/><line style="stroke: #A80036; stroke-width: 1.0; stroke-dasharray: 5.0,5.0;" x1="1467" x2="1467" y1="38.4883" y2="1237"/><line style="stroke: #A80036; stroke-width: 1.0; stroke-dasharray: 5.0,5.0;" x1="1632" x2="1632" y1="862.5293" y2="1237"/><rect fill="#FEFECE" filter="url(#f1umvbadrtpws0)" height="30.4883" style="stroke: #A80036; stroke-width: 1.5;" width="154" x="8" y="3"/><text fill="#000000" font-family="sans-serif" font-size="14" lengthAdjust="spacingAndGlyphs" textLength="140" x="15" y="23.5352">order : NormalOrder</text><rect fill="#FEFECE" filter="url(#f1umvbadrtpws0)" height="30.4883" style="stroke: #A80036; stroke-width: 1.5;" width="154" x="8" y="1236"/><text fill="#000000" font-family="sans-serif" font-size="14" lengthAdjust="spacingAndGlyphs" textLength="140" x="15" y="1256.5352">order : NormalOrder</text><rect fill="#FEFECE" filter="url(#f1umvbadrtpws0)" height="30.4883" style="stroke: #A80036; stroke-width: 1.5;" width="157" x="176" y="3"/><text fill="#000000" font-family="sans-serif" font-size="14" lengthAdjust="spacingAndGlyphs" textLength="143" x="183" y="23.5352">ee : ExecutionEngine</text><rect fill="#FEFECE" filter="url(#f1umvbadrtpws0)" height="30.4883" style="stroke: #A80036; stroke-width: 1.5;" width="157" x="176" y="1236"/><text fill="#000000" font-family="sans-serif" font-size="14" lengthAdjust="spacingAndGlyphs" textLength="143" x="183" y="1256.5352">ee : ExecutionEngine</text><rect fill="#FEFECE" filter="url(#f1umvbadrtpws0)" height="30.4883" style="stroke: #A80036; stroke-width: 1.5;" width="121" x="347" y="3"/><text fill="#000000" font-family="sans-serif" font-size="14" lengthAdjust="spacingAndGlyphs" textLength="107" x="354" y="23.5352">t : LambdaTerm</text><rect fill="#FEFECE" filter="url(#f1umvbadrtpws0)" height="30.4883" style="stroke: #A80036; stroke-width: 1.5;" width="121" x="347" y="1236"/><text fill="#000000" font-family="sans-serif" font-size="14" lengthAdjust="spacingAndGlyphs" textLength="107" x="354" y="1256.5352">t : LambdaTerm</text><rect fill="#FEFECE" filter="url(#f1umvbadrtpws0)" height="30.4883" style="stroke: #A80036; stroke-width: 1.5;" width="126" x="486.5" y="1236"/><text fill="#000000" font-family="sans-serif" font-size="14" lengthAdjust="spacingAndGlyphs" textLength="112" x="493.5" y="1256.5352">br : BetaReducer</text><rect fill="#FEFECE" filter="url(#f1umvbadrtpws0)" height="30.4883" style="stroke: #A80036; stroke-width: 1.5;" width="113" x="652" y="3"/><text fill="#000000" font-family="sans-serif" font-size="14" lengthAdjust="spacingAndGlyphs" textLength="99" x="659" y="23.5352">u : Application</text><rect fill="#FEFECE" filter="url(#f1umvbadrtpws0)" height="30.4883" style="stroke: #A80036; stroke-width: 1.5;" width="113" x="652" y="1236"/><text fill="#000000" font-family="sans-serif" font-size="14" lengthAdjust="spacingAndGlyphs" textLength="99" x="659" y="1256.5352">u : Application</text><rect fill="#FEFECE" filter="url(#f1umvbadrtpws0)" height="30.4883" style="stroke: #A80036; stroke-width: 1.5;" width="112" x="779" y="3"/><text fill="#000000" font-family="sans-serif" font-size="14" lengthAdjust="spacingAndGlyphs" textLength="98" x="786" y="23.5352">v : Abstraction</text><rect fill="#FEFECE" filter="url(#f1umvbadrtpws0)" height="30.4883" style="stroke: #A80036; stroke-width: 1.5;" width="112" x="779" y="1236"/><text fill="#000000" font-family="sans-serif" font-size="14" lengthAdjust="spacingAndGlyphs" textLength="98" x="786" y="1256.5352">v : Abstraction</text><rect fill="#FEFECE" filter="url(#f1umvbadrtpws0)" height="30.4883" style="stroke: #A80036; stroke-width: 1.5;" width="169" x="905" y="1236"/><text fill="#000000" font-family="sans-serif" font-size="14" lengthAdjust="spacingAndGlyphs" textLength="155" x="912" y="1256.5352">s1 : SubstitutionVisitor</text><rect fill="#FEFECE" filter="url(#f1umvbadrtpws0)" height="30.4883" style="stroke: #A80036; stroke-width: 1.5;" width="114" x="1088" y="3"/><text fill="#000000" font-family="sans-serif" font-size="14" lengthAdjust="spacingAndGlyphs" textLength="100" x="1095" y="23.5352">x : Abstraction</text><rect fill="#FEFECE" filter="url(#f1umvbadrtpws0)" height="30.4883" style="stroke: #A80036; stroke-width: 1.5;" width="114" x="1088" y="1236"/><text fill="#000000" font-family="sans-serif" font-size="14" lengthAdjust="spacingAndGlyphs" textLength="100" x="1095" y="1256.5352">x : Abstraction</text><rect fill="#FEFECE" filter="url(#f1umvbadrtpws0)" height="30.4883" style="stroke: #A80036; stroke-width: 1.5;" width="169" x="1216" y="1236"/><text fill="#000000" font-family="sans-serif" font-size="14" lengthAdjust="spacingAndGlyphs" textLength="155" x="1223" y="1256.5352">s2 : SubstitutionVisitor</text><rect fill="#FEFECE" filter="url(#f1umvbadrtpws0)" height="30.4883" style="stroke: #A80036; stroke-width: 1.5;" width="133" x="1399" y="3"/><text fill="#000000" font-family="sans-serif" font-size="14" lengthAdjust="spacingAndGlyphs" textLength="119" x="1406" y="23.5352">y : BoundVariable</text><rect fill="#FEFECE" filter="url(#f1umvbadrtpws0)" height="30.4883" style="stroke: #A80036; stroke-width: 1.5;" width="133" x="1399" y="1236"/><text fill="#000000" font-family="sans-serif" font-size="14" lengthAdjust="spacingAndGlyphs" textLength="119" x="1406" y="1256.5352">y : BoundVariable</text><rect fill="#FEFECE" filter="url(#f1umvbadrtpws0)" height="30.4883" style="stroke: #A80036; stroke-width: 1.5;" width="169" x="1546" y="1236"/><text fill="#000000" font-family="sans-serif" font-size="14" lengthAdjust="spacingAndGlyphs" textLength="155" x="1553" y="1256.5352">s3 : SubstitutionVisitor</text><rect fill="#FFFFFF" filter="url(#f1umvbadrtpws0)" height="29.3105" style="stroke: #A80036; stroke-width: 1.0;" width="10" x="82" y="69.4883"/><rect fill="#FFFFFF" filter="url(#f1umvbadrtpws0)" height="1170.2012" style="stroke: #A80036; stroke-width: 1.0;" width="10" x="251.5" y="48.4883"/><rect fill="#FFFFFF" filter="url(#f1umvbadrtpws0)" height="1045.0918" style="stroke: #A80036; stroke-width: 1.0;" width="10" x="404.5" y="173.5977"/><rect fill="#FFFFFF" filter="url(#f1umvbadrtpws0)" height="29.3105" style="stroke: #A80036; stroke-width: 1.0;" width="10" x="409.5" y="232.2188"/><rect fill="#FFFFFF" filter="url(#f1umvbadrtpws0)" height="986.4707" style="stroke: #A80036; stroke-width: 1.0;" width="10" x="546.5" y="202.9082"/><rect fill="#FFFFFF" filter="url(#f1umvbadrtpws0)" height="810.6074" style="stroke: #A80036; stroke-width: 1.0;" width="10" x="551.5" y="320.1504"/><rect fill="#FFFFFF" filter="url(#f1umvbadrtpws0)" height="869.2285" style="stroke: #A80036; stroke-width: 1.0;" width="10" x="705.5" y="290.8398"/><rect fill="#FFFFFF" filter="url(#f1umvbadrtpws0)" height="29.3105" style="stroke: #A80036; stroke-width: 1.0;" width="10" x="710.5" y="349.4609"/><rect fill="#FFFFFF" filter="url(#f1umvbadrtpws0)" height="29.3105" style="stroke: #A80036; stroke-width: 1.0;" width="10" x="710.5" y="408.082"/><rect fill="#FFFFFF" filter="url(#f1umvbadrtpws0)" height="29.3105" style="stroke: #A80036; stroke-width: 1.0;" width="10" x="710.5" y="466.7031"/><rect fill="#FFFFFF" filter="url(#f1umvbadrtpws0)" height="530.6348" style="stroke: #A80036; stroke-width: 1.0;" width="10" x="832" y="570.8125"/><rect fill="#FFFFFF" filter="url(#f1umvbadrtpws0)" height="29.3105" style="stroke: #A80036; stroke-width: 1.0;" width="10" x="837" y="629.4336"/><rect fill="#FFFFFF" filter="url(#f1umvbadrtpws0)" height="472.0137" style="stroke: #A80036; stroke-width: 1.0;" width="10" x="986.5" y="600.123"/><rect fill="#FFFFFF" filter="url(#f1umvbadrtpws0)" height="309.2832" style="stroke: #A80036; stroke-width: 1.0;" width="10" x="1142" y="733.543"/><rect fill="#FFFFFF" filter="url(#f1umvbadrtpws0)" height="29.3105" style="stroke: #A80036; stroke-width: 1.0;" width="10" x="1147" y="792.1641"/><rect fill="#FFFFFF" filter="url(#f1umvbadrtpws0)" height="250.6621" style="stroke: #A80036; stroke-width: 1.0;" width="10" x="1297.5" y="762.8535"/><rect fill="#FFFFFF" filter="url(#f1umvbadrtpws0)" height="87.9316" style="stroke: #A80036; stroke-width: 1.0;" width="10" x="1462.5" y="896.2734"/><rect fill="#FFFFFF" filter="url(#f1umvbadrtpws0)" height="29.3105" style="stroke: #A80036; stroke-width: 1.0;" width="10" x="1627.5" y="925.584"/><polygon fill="#A80036" points="103,65.4883,93,69.4883,103,73.4883,99,69.4883" style="stroke: #A80036; stroke-width: 1.0;"/><line style="stroke: #A80036; stroke-width: 1.0;" x1="97" x2="250.5" y1="69.4883" y2="69.4883"/><text fill="#000000" font-family="sans-serif" font-size="13" lengthAdjust="spacingAndGlyphs" textLength="41" x="109" y="65.0566">next(t)</text><polygon fill="#A80036" points="239.5,94.7988,249.5,98.7988,239.5,102.7988,243.5,98.7988" style="stroke: #A80036; stroke-width: 1.0;"/><line style="stroke: #A80036; stroke-width: 1.0; stroke-dasharray: 2.0,2.0;" x1="87" x2="245.5" y1="98.7988" y2="98.7988"/><text fill="#000000" font-family="sans-serif" font-size="13" lengthAdjust="spacingAndGlyphs" textLength="8" x="94" y="94.3672">u</text><polygon fill="#A80036" points="474.5,109.1094,484.5,113.1094,474.5,117.1094,478.5,113.1094" style="stroke: #A80036; stroke-width: 1.0;"/><line style="stroke: #A80036; stroke-width: 1.0;" x1="261.5" x2="480.5" y1="113.1094" y2="113.1094"/><rect fill="#FEFECE" filter="url(#f1umvbadrtpws0)" height="30.4883" style="stroke: #A80036; stroke-width: 1.5;" width="126" x="486.5" y="107.1094"/><text fill="#000000" font-family="sans-serif" font-size="14" lengthAdjust="spacingAndGlyphs" textLength="112" x="493.5" y="127.6445">br : BetaReducer</text><polygon fill="#A80036" points="392.5,169.5977,402.5,173.5977,392.5,177.5977,396.5,173.5977" style="stroke: #A80036; stroke-width: 1.0;"/><line style="stroke: #A80036; stroke-width: 1.0;" x1="261.5" x2="398.5" y1="173.5977" y2="173.5977"/><text fill="#000000" font-family="sans-serif" font-size="13" lengthAdjust="spacingAndGlyphs" textLength="103" x="268.5" y="169.166">acceptVisitor(br)</text><polygon fill="#A80036" points="534.5,198.9082,544.5,202.9082,534.5,206.9082,538.5,202.9082" style="stroke: #A80036; stroke-width: 1.0;"/><line style="stroke: #A80036; stroke-width: 1.0;" x1="414.5" x2="540.5" y1="202.9082" y2="202.9082"/><text fill="#000000" font-family="sans-serif" font-size="13" lengthAdjust="spacingAndGlyphs" textLength="113" x="421.5" y="198.4766">visitAbstraction(t)</text><polygon fill="#A80036" points="430.5,228.2188,420.5,232.2188,430.5,236.2188,426.5,232.2188" style="stroke: #A80036; stroke-width: 1.0;"/><line style="stroke: #A80036; stroke-width: 1.0;" x1="424.5" x2="545.5" y1="232.2188" y2="232.2188"/><text fill="#000000" font-family="sans-serif" font-size="13" lengthAdjust="spacingAndGlyphs" textLength="60" x="436.5" y="227.7871">getInner()</text><polygon fill="#A80036" points="534.5,257.5293,544.5,261.5293,534.5,265.5293,538.5,261.5293" style="stroke: #A80036; stroke-width: 1.0;"/><line style="stroke: #A80036; stroke-width: 1.0; stroke-dasharray: 2.0,2.0;" x1="414.5" x2="540.5" y1="261.5293" y2="261.5293"/><text fill="#000000" font-family="sans-serif" font-size="13" lengthAdjust="spacingAndGlyphs" textLength="8" x="421.5" y="257.0977">u</text><polygon fill="#A80036" points="693.5,286.8398,703.5,290.8398,693.5,294.8398,697.5,290.8398" style="stroke: #A80036; stroke-width: 1.0;"/><line style="stroke: #A80036; stroke-width: 1.0;" x1="556.5" x2="699.5" y1="290.8398" y2="290.8398"/><text fill="#000000" font-family="sans-serif" font-size="13" lengthAdjust="spacingAndGlyphs" textLength="103" x="563.5" y="286.4082">acceptVisitor(br)</text><polygon fill="#A80036" points="572.5,316.1504,562.5,320.1504,572.5,324.1504,568.5,320.1504" style="stroke: #A80036; stroke-width: 1.0;"/><line style="stroke: #A80036; stroke-width: 1.0;" x1="566.5" x2="704.5" y1="320.1504" y2="320.1504"/><text fill="#000000" font-family="sans-serif" font-size="13" lengthAdjust="spacingAndGlyphs" textLength="115" x="578.5" y="315.7188">visitApplication(u)</text><polygon fill="#A80036" points="698.5,345.4609,708.5,349.4609,698.5,353.4609,702.5,349.4609" style="stroke: #A80036; stroke-width: 1.0;"/><line style="stroke: #A80036; stroke-width: 1.0;" x1="561.5" x2="704.5" y1="349.4609" y2="349.4609"/><text fill="#000000" font-family="sans-serif" font-size="13" lengthAdjust="spacingAndGlyphs" textLength="57" x="568.5" y="345.0293">equals(u)</text><polygon fill="#A80036" points="572.5,374.7715,562.5,378.7715,572.5,382.7715,568.5,378.7715" style="stroke: #A80036; stroke-width: 1.0;"/><line style="stroke: #A80036; stroke-width: 1.0; stroke-dasharray: 2.0,2.0;" x1="566.5" x2="704.5" y1="378.7715" y2="378.7715"/><text fill="#000000" font-family="sans-serif" font-size="13" lengthAdjust="spacingAndGlyphs" textLength="25" x="578.5" y="374.3398">true</text><polygon fill="#A80036" points="698.5,404.082,708.5,408.082,698.5,412.082,702.5,408.082" style="stroke: #A80036; stroke-width: 1.0;"/><line style="stroke: #A80036; stroke-width: 1.0;" x1="561.5" x2="704.5" y1="408.082" y2="408.082"/><text fill="#000000" font-family="sans-serif" font-size="13" lengthAdjust="spacingAndGlyphs" textLength="111" x="568.5" y="403.6504">getLeftHandSide()</text><polygon fill="#A80036" points="572.5,433.3926,562.5,437.3926,572.5,441.3926,568.5,437.3926" style="stroke: #A80036; stroke-width: 1.0;"/><line style="stroke: #A80036; stroke-width: 1.0; stroke-dasharray: 2.0,2.0;" x1="566.5" x2="704.5" y1="437.3926" y2="437.3926"/><text fill="#000000" font-family="sans-serif" font-size="13" lengthAdjust="spacingAndGlyphs" textLength="7" x="578.5" y="432.9609">v</text><polygon fill="#A80036" points="698.5,462.7031,708.5,466.7031,698.5,470.7031,702.5,466.7031" style="stroke: #A80036; stroke-width: 1.0;"/><line style="stroke: #A80036; stroke-width: 1.0;" x1="561.5" x2="704.5" y1="466.7031" y2="466.7031"/><text fill="#000000" font-family="sans-serif" font-size="13" lengthAdjust="spacingAndGlyphs" textLength="120" x="568.5" y="462.2715">getRightHandSide()</text><polygon fill="#A80036" points="572.5,492.0137,562.5,496.0137,572.5,500.0137,568.5,496.0137" style="stroke: #A80036; stroke-width: 1.0;"/><line style="stroke: #A80036; stroke-width: 1.0; stroke-dasharray: 2.0,2.0;" x1="566.5" x2="704.5" y1="496.0137" y2="496.0137"/><text fill="#000000" font-family="sans-serif" font-size="13" lengthAdjust="spacingAndGlyphs" textLength="10" x="578.5" y="491.582">w</text><polygon fill="#A80036" points="893,521.3242,903,525.3242,893,529.3242,897,525.3242" style="stroke: #A80036; stroke-width: 1.0;"/><line style="stroke: #A80036; stroke-width: 1.0;" x1="561.5" x2="899" y1="525.3242" y2="525.3242"/><text fill="#000000" font-family="sans-serif" font-size="13" lengthAdjust="spacingAndGlyphs" textLength="80" x="568.5" y="520.8926">create(-1, w)</text><rect fill="#FEFECE" filter="url(#f1umvbadrtpws0)" height="30.4883" style="stroke: #A80036; stroke-width: 1.5;" width="169" x="905" y="504.3242"/><text fill="#000000" font-family="sans-serif" font-size="14" lengthAdjust="spacingAndGlyphs" textLength="155" x="912" y="524.8594">s1 : SubstitutionVisitor</text><polygon fill="#A80036" points="820,566.8125,830,570.8125,820,574.8125,824,570.8125" style="stroke: #A80036; stroke-width: 1.0;"/><line style="stroke: #A80036; stroke-width: 1.0;" x1="561.5" x2="826" y1="570.8125" y2="570.8125"/><text fill="#000000" font-family="sans-serif" font-size="13" lengthAdjust="spacingAndGlyphs" textLength="105" x="568.5" y="566.3809">acceptVisitor(s1)</text><polygon fill="#A80036" points="974.5,596.123,984.5,600.123,974.5,604.123,978.5,600.123" style="stroke: #A80036; stroke-width: 1.0;"/><line style="stroke: #A80036; stroke-width: 1.0;" x1="842" x2="980.5" y1="600.123" y2="600.123"/><text fill="#000000" font-family="sans-serif" font-size="13" lengthAdjust="spacingAndGlyphs" textLength="115" x="849" y="595.6914">visitAbstraction(v)</text><polygon fill="#A80036" points="858,625.4336,848,629.4336,858,633.4336,854,629.4336" style="stroke: #A80036; stroke-width: 1.0;"/><line style="stroke: #A80036; stroke-width: 1.0;" x1="852" x2="985.5" y1="629.4336" y2="629.4336"/><text fill="#000000" font-family="sans-serif" font-size="13" lengthAdjust="spacingAndGlyphs" textLength="60" x="864" y="625.002">getInner()</text><polygon fill="#A80036" points="974.5,654.7441,984.5,658.7441,974.5,662.7441,978.5,658.7441" style="stroke: #A80036; stroke-width: 1.0;"/><line style="stroke: #A80036; stroke-width: 1.0; stroke-dasharray: 2.0,2.0;" x1="842" x2="980.5" y1="658.7441" y2="658.7441"/><text fill="#000000" font-family="sans-serif" font-size="13" lengthAdjust="spacingAndGlyphs" textLength="8" x="849" y="654.3125">x</text><polygon fill="#A80036" points="1204,684.0547,1214,688.0547,1204,692.0547,1208,688.0547" style="stroke: #A80036; stroke-width: 1.0;"/><line style="stroke: #A80036; stroke-width: 1.0;" x1="996.5" x2="1210" y1="688.0547" y2="688.0547"/><text fill="#000000" font-family="sans-serif" font-size="13" lengthAdjust="spacingAndGlyphs" textLength="72" x="1003.5" y="683.623">create(0, w)</text><rect fill="#FEFECE" filter="url(#f1umvbadrtpws0)" height="30.4883" style="stroke: #A80036; stroke-width: 1.5;" width="169" x="1216" y="667.0547"/><text fill="#000000" font-family="sans-serif" font-size="14" lengthAdjust="spacingAndGlyphs" textLength="155" x="1223" y="687.5898">s2 : SubstitutionVisitor</text><polygon fill="#A80036" points="1130,729.543,1140,733.543,1130,737.543,1134,733.543" style="stroke: #A80036; stroke-width: 1.0;"/><line style="stroke: #A80036; stroke-width: 1.0;" x1="996.5" x2="1136" y1="733.543" y2="733.543"/><text fill="#000000" font-family="sans-serif" font-size="13" lengthAdjust="spacingAndGlyphs" textLength="105" x="1003.5" y="729.1113">acceptVisitor(s2)</text><polygon fill="#A80036" points="1285.5,758.8535,1295.5,762.8535,1285.5,766.8535,1289.5,762.8535" style="stroke: #A80036; stroke-width: 1.0;"/><line style="stroke: #A80036; stroke-width: 1.0;" x1="1152" x2="1291.5" y1="762.8535" y2="762.8535"/><text fill="#000000" font-family="sans-serif" font-size="13" lengthAdjust="spacingAndGlyphs" textLength="116" x="1159" y="758.4219">visitAbstraction(x)</text><polygon fill="#A80036" points="1168,788.1641,1158,792.1641,1168,796.1641,1164,792.1641" style="stroke: #A80036; stroke-width: 1.0;"/><line style="stroke: #A80036; stroke-width: 1.0;" x1="1162" x2="1296.5" y1="792.1641" y2="792.1641"/><text fill="#000000" font-family="sans-serif" font-size="13" lengthAdjust="spacingAndGlyphs" textLength="60" x="1174" y="787.7324">getInner()</text><polygon fill="#A80036" points="1285.5,817.4746,1295.5,821.4746,1285.5,825.4746,1289.5,821.4746" style="stroke: #A80036; stroke-width: 1.0;"/><line style="stroke: #A80036; stroke-width: 1.0; stroke-dasharray: 2.0,2.0;" x1="1152" x2="1291.5" y1="821.4746" y2="821.4746"/><text fill="#000000" font-family="sans-serif" font-size="13" lengthAdjust="spacingAndGlyphs" textLength="7" x="1159" y="817.043">y</text><polygon fill="#A80036" points="1534,846.7852,1544,850.7852,1534,854.7852,1538,850.7852" style="stroke: #A80036; stroke-width: 1.0;"/><line style="stroke: #A80036; stroke-width: 1.0;" x1="1307.5" x2="1540" y1="850.7852" y2="850.7852"/><text fill="#000000" font-family="sans-serif" font-size="13" lengthAdjust="spacingAndGlyphs" textLength="72" x="1314.5" y="846.3535">create(1, w)</text><rect fill="#FEFECE" filter="url(#f1umvbadrtpws0)" height="30.4883" style="stroke: #A80036; stroke-width: 1.5;" width="169" x="1546" y="829.7852"/><text fill="#000000" font-family="sans-serif" font-size="14" lengthAdjust="spacingAndGlyphs" textLength="155" x="1553" y="850.3203">s3 : SubstitutionVisitor</text><polygon fill="#A80036" points="1450.5,892.2734,1460.5,896.2734,1450.5,900.2734,1454.5,896.2734" style="stroke: #A80036; stroke-width: 1.0;"/><line style="stroke: #A80036; stroke-width: 1.0;" x1="1307.5" x2="1456.5" y1="896.2734" y2="896.2734"/><text fill="#000000" font-family="sans-serif" font-size="13" lengthAdjust="spacingAndGlyphs" textLength="105" x="1314.5" y="891.8418">acceptVisitor(s3)</text><polygon fill="#A80036" points="1615.5,921.584,1625.5,925.584,1615.5,929.584,1619.5,925.584" style="stroke: #A80036; stroke-width: 1.0;"/><line style="stroke: #A80036; stroke-width: 1.0;" x1="1472.5" x2="1621.5" y1="925.584" y2="925.584"/><text fill="#000000" font-family="sans-serif" font-size="13" lengthAdjust="spacingAndGlyphs" textLength="131" x="1479.5" y="921.1523">visitBoundVariable(y)</text><polygon fill="#A80036" points="1483.5,950.8945,1473.5,954.8945,1483.5,958.8945,1479.5,954.8945" style="stroke: #A80036; stroke-width: 1.0;"/><line style="stroke: #A80036; stroke-width: 1.0; stroke-dasharray: 2.0,2.0;" x1="1477.5" x2="1631.5" y1="954.8945" y2="954.8945"/><text fill="#000000" font-family="sans-serif" font-size="13" lengthAdjust="spacingAndGlyphs" textLength="10" x="1489.5" y="950.4629">w</text><polygon fill="#A80036" points="1318.5,980.2051,1308.5,984.2051,1318.5,988.2051,1314.5,984.2051" style="stroke: #A80036; stroke-width: 1.0;"/><line style="stroke: #A80036; stroke-width: 1.0; stroke-dasharray: 2.0,2.0;" x1="1312.5" x2="1466.5" y1="984.2051" y2="984.2051"/><text fill="#000000" font-family="sans-serif" font-size="13" lengthAdjust="spacingAndGlyphs" textLength="10" x="1324.5" y="979.7734">w</text><polygon fill="#A80036" points="1163,1009.5156,1153,1013.5156,1163,1017.5156,1159,1013.5156" style="stroke: #A80036; stroke-width: 1.0;"/><line style="stroke: #A80036; stroke-width: 1.0; stroke-dasharray: 2.0,2.0;" x1="1157" x2="1301.5" y1="1013.5156" y2="1013.5156"/><text fill="#000000" font-family="sans-serif" font-size="13" lengthAdjust="spacingAndGlyphs" textLength="28" x="1169" y="1009.084">\y.w</text><polygon fill="#A80036" points="1007.5,1038.8262,997.5,1042.8262,1007.5,1046.8262,1003.5,1042.8262" style="stroke: #A80036; stroke-width: 1.0;"/><line style="stroke: #A80036; stroke-width: 1.0; stroke-dasharray: 2.0,2.0;" x1="1001.5" x2="1146" y1="1042.8262" y2="1042.8262"/><text fill="#000000" font-family="sans-serif" font-size="13" lengthAdjust="spacingAndGlyphs" textLength="28" x="1013.5" y="1038.3945">\y.w</text><polygon fill="#A80036" points="853,1068.1367,843,1072.1367,853,1076.1367,849,1072.1367" style="stroke: #A80036; stroke-width: 1.0;"/><line style="stroke: #A80036; stroke-width: 1.0; stroke-dasharray: 2.0,2.0;" x1="847" x2="990.5" y1="1072.1367" y2="1072.1367"/><text fill="#000000" font-family="sans-serif" font-size="13" lengthAdjust="spacingAndGlyphs" textLength="28" x="859" y="1067.7051">\y.w</text><polygon fill="#A80036" points="572.5,1097.4473,562.5,1101.4473,572.5,1105.4473,568.5,1101.4473" style="stroke: #A80036; stroke-width: 1.0;"/><line style="stroke: #A80036; stroke-width: 1.0; stroke-dasharray: 2.0,2.0;" x1="566.5" x2="836" y1="1101.4473" y2="1101.4473"/><text fill="#000000" font-family="sans-serif" font-size="13" lengthAdjust="spacingAndGlyphs" textLength="28" x="578.5" y="1097.0156">\y.w</text><polygon fill="#A80036" points="693.5,1126.7578,703.5,1130.7578,693.5,1134.7578,697.5,1130.7578" style="stroke: #A80036; stroke-width: 1.0;"/><line style="stroke: #A80036; stroke-width: 1.0; stroke-dasharray: 2.0,2.0;" x1="556.5" x2="699.5" y1="1130.7578" y2="1130.7578"/><text fill="#000000" font-family="sans-serif" font-size="13" lengthAdjust="spacingAndGlyphs" textLength="28" x="563.5" y="1126.3262">\y.w</text><polygon fill="#A80036" points="567.5,1156.0684,557.5,1160.0684,567.5,1164.0684,563.5,1160.0684" style="stroke: #A80036; stroke-width: 1.0;"/><line style="stroke: #A80036; stroke-width: 1.0; stroke-dasharray: 2.0,2.0;" x1="561.5" x2="709.5" y1="1160.0684" y2="1160.0684"/><text fill="#000000" font-family="sans-serif" font-size="13" lengthAdjust="spacingAndGlyphs" textLength="28" x="573.5" y="1155.6367">\y.w</text><polygon fill="#A80036" points="425.5,1185.3789,415.5,1189.3789,425.5,1193.3789,421.5,1189.3789" style="stroke: #A80036; stroke-width: 1.0;"/><line style="stroke: #A80036; stroke-width: 1.0; stroke-dasharray: 2.0,2.0;" x1="419.5" x2="550.5" y1="1189.3789" y2="1189.3789"/><text fill="#000000" font-family="sans-serif" font-size="13" lengthAdjust="spacingAndGlyphs" textLength="46" x="431.5" y="1184.9473">\a.\y.w</text><polygon fill="#A80036" points="267.5,1214.6895,257.5,1218.6895,267.5,1222.6895,263.5,1218.6895" style="stroke: #A80036; stroke-width: 1.0;"/><line style="stroke: #A80036; stroke-width: 1.0; stroke-dasharray: 2.0,2.0;" x1="261.5" x2="408.5" y1="1218.6895" y2="1218.6895"/><text fill="#000000" font-family="sans-serif" font-size="13" lengthAdjust="spacingAndGlyphs" textLength="46" x="273.5" y="1214.2578">\a.\y.w</text><!--
@startuml
participant "order : NormalOrder" as no
participant "ee : ExecutionEngine" as ee
participant "t : LambdaTerm" as t


activate ee
ee -> no: next(t)
activate no
ee <- - no: u
deactivate no

create participant "br : BetaReducer" as br
ee -> br
ee -> t: acceptVisitor(br)
activate t
t -> br: visitAbstraction(t)
activate br
br -> t: getInner()
activate t
br <- - t: u
deactivate t
participant "u : Application" as u
br -> u: acceptVisitor(br)
activate u
u -> br: visitApplication(u)
activate br

br -> u: equals(u)
activate u
br <- - u: true
deactivate u

br -> u: getLeftHandSide()
activate u
br <- - u: v
deactivate u

br -> u: getRightHandSide()
activate u
br <- - u: w
deactivate u

participant "v : Abstraction" as v
create participant "s1 : SubstitutionVisitor" as s1
br -> s1: create(-1, w)

br -> v: acceptVisitor(s1)
activate v

v -> s1: visitAbstraction(v)
activate s1
s1 -> v: getInner()
activate v
s1 <- - v: x
deactivate v

participant "x : Abstraction" as x
create participant "s2 : SubstitutionVisitor" as s2
s1 -> s2: create(0, w)

s1 -> x: acceptVisitor(s2)
activate x
x -> s2: visitAbstraction(x)
activate s2

s2 -> x: getInner()
activate x
s2 <- - x: y
deactivate x

participant "y : BoundVariable" as y
create participant "s3 : SubstitutionVisitor" as s3
s2 -> s3: create(1, w)

s2 -> y: acceptVisitor(s3)
activate y
y -> s3: visitBoundVariable(y)
activate s3
y <- - s3: w
deactivate s3
s2 <- - y: w
deactivate y
x <- - s2: \y.w
deactivate s2
s1 <- - x: \y.w
deactivate x
v <- - s1: \y.w
deactivate s1
br <- - v: \y.w
deactivate v
u <- - br: \y.w
deactivate br
br <- - u: \y.w
deactivate u
t <- - br: \a.\y.w
deactivate br
ee <- - t: \a.\y.w
deactivate t
deactivate ee

@enduml

PlantUML version 1.2018.00(Thu Jan 04 20:42:56 CET 2018)
(GPL source distribution)
Java Runtime: Java(TM) SE Runtime Environment
JVM: Java HotSpot(TM) 64-Bit Server VM
Java Version: 1.8.0_112-b16
Operating System: Mac OS X
OS Version: 10.13.2
Default Encoding: UTF-8
Language: de
Country: DE
--></g></svg>