<?xml version="1.0" encoding="UTF-8" standalone="yes"?><svg xmlns="http://www.w3.org/2000/svg" xmlns:xlink="http://www.w3.org/1999/xlink" height="531px" style="width:1171px;height:531px;" version="1.1" viewBox="0 0 1171 531" width="1171px"><defs><filter height="300%" id="f1" width="300%" x="-1" y="-1"><feGaussianBlur result="blurOut" stdDeviation="2.0"/><feColorMatrix in="blurOut" result="blurOut2" type="matrix" values="0 0 0 0 0 0 0 0 0 0 0 0 0 0 0 0 0 0 .4 0"/><feOffset dx="4.0" dy="4.0" in="blurOut2" result="blurOut3"/><feBlend in="SourceGraphic" in2="blurOut3" mode="normal"/></filter></defs><g><rect fill="#FFFFFF" filter="url(#f1)" height="420.7266" style="stroke: #A80036; stroke-width: 1.0;" width="10" x="114" y="54.2969"/><rect fill="#FFFFFF" filter="url(#f1)" height="391.7266" style="stroke: #A80036; stroke-width: 1.0;" width="10" x="340" y="83.2969"/><rect fill="#FFFFFF" filter="url(#f1)" height="14.1328" style="stroke: #A80036; stroke-width: 1.0;" width="10" x="569.5" y="403.7578"/><rect fill="#FFFFFF" filter="url(#f1)" height="14.1328" style="stroke: #A80036; stroke-width: 1.0;" width="10" x="569.5" y="446.8906"/><rect fill="#FFFFFF" filter="url(#f1)" height="29.1328" style="stroke: #A80036; stroke-width: 1.0;" width="10" x="736" y="170.6953"/><rect fill="#FFFFFF" filter="url(#f1)" height="29.1328" style="stroke: #A80036; stroke-width: 1.0;" width="10" x="736" y="345.4922"/><rect fill="#FFFFFF" filter="url(#f1)" height="29.1328" style="stroke: #A80036; stroke-width: 1.0;" width="10" x="810.5" y="112.4297"/><rect fill="#FFFFFF" filter="url(#f1)" height="29.1328" style="stroke: #A80036; stroke-width: 1.0;" width="10" x="919.5" y="228.9609"/><rect fill="#FFFFFF" filter="url(#f1)" height="29.1328" style="stroke: #A80036; stroke-width: 1.0;" width="10" x="1083.5" y="287.2266"/><line style="stroke: #A80036; stroke-width: 1.0; stroke-dasharray: 5.0,5.0;" x1="119" x2="119" y1="38.2969" y2="493.0234"/><line style="stroke: #A80036; stroke-width: 1.0; stroke-dasharray: 5.0,5.0;" x1="345" x2="345" y1="38.2969" y2="493.0234"/><line style="stroke: #A80036; stroke-width: 1.0; stroke-dasharray: 5.0,5.0;" x1="574" x2="574" y1="38.2969" y2="493.0234"/><line style="stroke: #A80036; stroke-width: 1.0; stroke-dasharray: 5.0,5.0;" x1="741" x2="741" y1="38.2969" y2="493.0234"/><line style="stroke: #A80036; stroke-width: 1.0; stroke-dasharray: 5.0,5.0;" x1="815" x2="815" y1="38.2969" y2="493.0234"/><line style="stroke: #A80036; stroke-width: 1.0; stroke-dasharray: 5.0,5.0;" x1="924" x2="924" y1="38.2969" y2="493.0234"/><line style="stroke: #A80036; stroke-width: 1.0; stroke-dasharray: 5.0,5.0;" x1="1088" x2="1088" y1="38.2969" y2="493.0234"/><rect fill="#FEFECE" filter="url(#f1)" height="30.2969" style="stroke: #A80036; stroke-width: 1.5;" width="218" x="8" y="3"/><text fill="#000000" font-family="sans-serif" font-size="14" lengthAdjust="spacingAndGlyphs" textLength="204" x="15" y="22.9951">exportOption : LabeledButton</text><rect fill="#FEFECE" filter="url(#f1)" height="30.2969" style="stroke: #A80036; stroke-width: 1.5;" width="218" x="8" y="492.0234"/><text fill="#000000" font-family="sans-serif" font-size="14" lengthAdjust="spacingAndGlyphs" textLength="204" x="15" y="512.0186">exportOption : LabeledButton</text><rect fill="#FEFECE" filter="url(#f1)" height="30.2969" style="stroke: #A80036; stroke-width: 1.5;" width="206" x="240" y="3"/><text fill="#000000" font-family="sans-serif" font-size="14" lengthAdjust="spacingAndGlyphs" textLength="192" x="247" y="22.9951">export : SelectExportFormat</text><rect fill="#FEFECE" filter="url(#f1)" height="30.2969" style="stroke: #A80036; stroke-width: 1.5;" width="206" x="240" y="492.0234"/><text fill="#000000" font-family="sans-serif" font-size="14" lengthAdjust="spacingAndGlyphs" textLength="192" x="247" y="512.0186">export : SelectExportFormat</text><rect fill="#FEFECE" filter="url(#f1)" height="30.2969" style="stroke: #A80036; stroke-width: 1.5;" width="225" x="460" y="3"/><text fill="#000000" font-family="sans-serif" font-size="14" lengthAdjust="spacingAndGlyphs" textLength="211" x="467" y="22.9951">exportWindow : PopUpWindow</text><rect fill="#FEFECE" filter="url(#f1)" height="30.2969" style="stroke: #A80036; stroke-width: 1.5;" width="225" x="460" y="492.0234"/><text fill="#000000" font-family="sans-serif" font-size="14" lengthAdjust="spacingAndGlyphs" textLength="211" x="467" y="512.0186">exportWindow : PopUpWindow</text><rect fill="#FEFECE" filter="url(#f1)" height="30.2969" style="stroke: #A80036; stroke-width: 1.5;" width="80" x="699" y="3"/><text fill="#000000" font-family="sans-serif" font-size="14" lengthAdjust="spacingAndGlyphs" textLength="66" x="706" y="22.9951">app : App</text><rect fill="#FEFECE" filter="url(#f1)" height="30.2969" style="stroke: #A80036; stroke-width: 1.5;" width="80" x="699" y="492.0234"/><text fill="#000000" font-family="sans-serif" font-size="14" lengthAdjust="spacingAndGlyphs" textLength="66" x="706" y="512.0186">app : App</text><rect fill="#FEFECE" filter="url(#f1)" height="30.2969" style="stroke: #A80036; stroke-width: 1.5;" width="41" x="793" y="3"/><text fill="#000000" font-family="sans-serif" font-size="14" lengthAdjust="spacingAndGlyphs" textLength="27" x="800" y="22.9951">App</text><rect fill="#FEFECE" filter="url(#f1)" height="30.2969" style="stroke: #A80036; stroke-width: 1.5;" width="41" x="793" y="492.0234"/><text fill="#000000" font-family="sans-serif" font-size="14" lengthAdjust="spacingAndGlyphs" textLength="27" x="800" y="512.0186">App</text><rect fill="#FEFECE" filter="url(#f1)" height="30.2969" style="stroke: #A80036; stroke-width: 1.5;" width="149" x="848" y="3"/><text fill="#000000" font-family="sans-serif" font-size="14" lengthAdjust="spacingAndGlyphs" textLength="135" x="855" y="22.9951">executor : Executor</text><rect fill="#FEFECE" filter="url(#f1)" height="30.2969" style="stroke: #A80036; stroke-width: 1.5;" width="149" x="848" y="492.0234"/><text fill="#000000" font-family="sans-serif" font-size="14" lengthAdjust="spacingAndGlyphs" textLength="135" x="855" y="512.0186">executor : Executor</text><rect fill="#FEFECE" filter="url(#f1)" height="30.2969" style="stroke: #A80036; stroke-width: 1.5;" width="151" x="1011" y="3"/><text fill="#000000" font-family="sans-serif" font-size="14" lengthAdjust="spacingAndGlyphs" textLength="137" x="1018" y="22.9951">format : LatexExport</text><rect fill="#FEFECE" filter="url(#f1)" height="30.2969" style="stroke: #A80036; stroke-width: 1.5;" width="151" x="1011" y="492.0234"/><text fill="#000000" font-family="sans-serif" font-size="14" lengthAdjust="spacingAndGlyphs" textLength="137" x="1018" y="512.0186">format : LatexExport</text><rect fill="#FFFFFF" filter="url(#f1)" height="420.7266" style="stroke: #A80036; stroke-width: 1.0;" width="10" x="114" y="54.2969"/><rect fill="#FFFFFF" filter="url(#f1)" height="391.7266" style="stroke: #A80036; stroke-width: 1.0;" width="10" x="340" y="83.2969"/><rect fill="#FFFFFF" filter="url(#f1)" height="14.1328" style="stroke: #A80036; stroke-width: 1.0;" width="10" x="569.5" y="403.7578"/><rect fill="#FFFFFF" filter="url(#f1)" height="14.1328" style="stroke: #A80036; stroke-width: 1.0;" width="10" x="569.5" y="446.8906"/><rect fill="#FFFFFF" filter="url(#f1)" height="29.1328" style="stroke: #A80036; stroke-width: 1.0;" width="10" x="736" y="170.6953"/><rect fill="#FFFFFF" filter="url(#f1)" height="29.1328" style="stroke: #A80036; stroke-width: 1.0;" width="10" x="736" y="345.4922"/><rect fill="#FFFFFF" filter="url(#f1)" height="29.1328" style="stroke: #A80036; stroke-width: 1.0;" width="10" x="810.5" y="112.4297"/><rect fill="#FFFFFF" filter="url(#f1)" height="29.1328" style="stroke: #A80036; stroke-width: 1.0;" width="10" x="919.5" y="228.9609"/><rect fill="#FFFFFF" filter="url(#f1)" height="29.1328" style="stroke: #A80036; stroke-width: 1.0;" width="10" x="1083.5" y="287.2266"/><ellipse cx="10.5" cy="53.5469" fill="none" rx="4" ry="4" style="stroke: #A80036; stroke-width: 1.5;"/><polygon fill="#A80036" points="102,50.2969,112,54.2969,102,58.2969,106,54.2969" style="stroke: #A80036; stroke-width: 1.0;"/><line style="stroke: #A80036; stroke-width: 1.0;" x1="15" x2="108" y1="54.2969" y2="54.2969"/><polygon fill="#A80036" points="328,79.2969,338,83.2969,328,87.2969,332,83.2969" style="stroke: #A80036; stroke-width: 1.0;"/><line style="stroke: #A80036; stroke-width: 1.0;" x1="124" x2="334" y1="83.2969" y2="83.2969"/><text fill="#000000" font-family="sans-serif" font-size="13" lengthAdjust="spacingAndGlyphs" textLength="31" x="131" y="78.3638">run()</text><polygon fill="#A80036" points="798.5,108.4297,808.5,112.4297,798.5,116.4297,802.5,112.4297" style="stroke: #A80036; stroke-width: 1.0;"/><line style="stroke: #A80036; stroke-width: 1.0;" x1="350" x2="804.5" y1="112.4297" y2="112.4297"/><text fill="#000000" font-family="sans-serif" font-size="13" lengthAdjust="spacingAndGlyphs" textLength="31" x="357" y="107.4966">get()</text><polygon fill="#A80036" points="361,137.5625,351,141.5625,361,145.5625,357,141.5625" style="stroke: #A80036; stroke-width: 1.0;"/><line style="stroke: #A80036; stroke-width: 1.0; stroke-dasharray: 2.0,2.0;" x1="355" x2="814.5" y1="141.5625" y2="141.5625"/><text fill="#000000" font-family="sans-serif" font-size="13" lengthAdjust="spacingAndGlyphs" textLength="24" x="367" y="136.6294">app</text><polygon fill="#A80036" points="724,166.6953,734,170.6953,724,174.6953,728,170.6953" style="stroke: #A80036; stroke-width: 1.0;"/><line style="stroke: #A80036; stroke-width: 1.0;" x1="350" x2="730" y1="170.6953" y2="170.6953"/><text fill="#000000" font-family="sans-serif" font-size="13" lengthAdjust="spacingAndGlyphs" textLength="66" x="357" y="165.7622">executor()</text><polygon fill="#A80036" points="361,195.8281,351,199.8281,361,203.8281,357,199.8281" style="stroke: #A80036; stroke-width: 1.0;"/><line style="stroke: #A80036; stroke-width: 1.0; stroke-dasharray: 2.0,2.0;" x1="355" x2="740" y1="199.8281" y2="199.8281"/><text fill="#000000" font-family="sans-serif" font-size="13" lengthAdjust="spacingAndGlyphs" textLength="56" x="367" y="194.895">executor</text><polygon fill="#A80036" points="907.5,224.9609,917.5,228.9609,907.5,232.9609,911.5,228.9609" style="stroke: #A80036; stroke-width: 1.0;"/><line style="stroke: #A80036; stroke-width: 1.0;" x1="350" x2="913.5" y1="228.9609" y2="228.9609"/><text fill="#000000" font-family="sans-serif" font-size="13" lengthAdjust="spacingAndGlyphs" textLength="93" x="357" y="224.0278">getDisplayed()</text><polygon fill="#A80036" points="361,254.0938,351,258.0938,361,262.0938,357,258.0938" style="stroke: #A80036; stroke-width: 1.0;"/><line style="stroke: #A80036; stroke-width: 1.0; stroke-dasharray: 2.0,2.0;" x1="355" x2="923.5" y1="258.0938" y2="258.0938"/><text fill="#000000" font-family="sans-serif" font-size="13" lengthAdjust="spacingAndGlyphs" textLength="241" x="367" y="253.1606">displayedTerms : List&lt;LambdaTerm&gt;</text><polygon fill="#A80036" points="1071.5,283.2266,1081.5,287.2266,1071.5,291.2266,1075.5,287.2266" style="stroke: #A80036; stroke-width: 1.0;"/><line style="stroke: #A80036; stroke-width: 1.0;" x1="350" x2="1077.5" y1="287.2266" y2="287.2266"/><text fill="#000000" font-family="sans-serif" font-size="13" lengthAdjust="spacingAndGlyphs" textLength="228" x="357" y="282.2935">getRepresentation(displayedTerms)</text><polygon fill="#A80036" points="361,312.3594,351,316.3594,361,320.3594,357,316.3594" style="stroke: #A80036; stroke-width: 1.0;"/><line style="stroke: #A80036; stroke-width: 1.0; stroke-dasharray: 2.0,2.0;" x1="355" x2="1087.5" y1="316.3594" y2="316.3594"/><text fill="#000000" font-family="sans-serif" font-size="13" lengthAdjust="spacingAndGlyphs" textLength="92" x="367" y="311.4263">output : String</text><polygon fill="#A80036" points="724,341.4922,734,345.4922,724,349.4922,728,345.4922" style="stroke: #A80036; stroke-width: 1.0;"/><line style="stroke: #A80036; stroke-width: 1.0;" x1="350" x2="730" y1="345.4922" y2="345.4922"/><text fill="#000000" font-family="sans-serif" font-size="13" lengthAdjust="spacingAndGlyphs" textLength="98" x="357" y="340.5591">exportWindow()</text><polygon fill="#A80036" points="361,370.625,351,374.625,361,378.625,357,374.625" style="stroke: #A80036; stroke-width: 1.0;"/><line style="stroke: #A80036; stroke-width: 1.0; stroke-dasharray: 2.0,2.0;" x1="355" x2="740" y1="374.625" y2="374.625"/><text fill="#000000" font-family="sans-serif" font-size="13" lengthAdjust="spacingAndGlyphs" textLength="88" x="367" y="369.6919">exportWindow</text><polygon fill="#A80036" points="557.5,399.7578,567.5,403.7578,557.5,407.7578,561.5,403.7578" style="stroke: #A80036; stroke-width: 1.0;"/><line style="stroke: #A80036; stroke-width: 1.0;" x1="350" x2="563.5" y1="403.7578" y2="403.7578"/><text fill="#000000" font-family="sans-serif" font-size="13" lengthAdjust="spacingAndGlyphs" textLength="82" x="357" y="398.8247">write(output)</text><polygon fill="#A80036" points="361,413.8906,351,417.8906,361,421.8906,357,417.8906" style="stroke: #A80036; stroke-width: 1.0;"/><line style="stroke: #A80036; stroke-width: 1.0; stroke-dasharray: 2.0,2.0;" x1="355" x2="573.5" y1="417.8906" y2="417.8906"/><polygon fill="#A80036" points="557.5,442.8906,567.5,446.8906,557.5,450.8906,561.5,446.8906" style="stroke: #A80036; stroke-width: 1.0;"/><line style="stroke: #A80036; stroke-width: 1.0;" x1="350" x2="563.5" y1="446.8906" y2="446.8906"/><text fill="#000000" font-family="sans-serif" font-size="13" lengthAdjust="spacingAndGlyphs" textLength="42" x="357" y="441.9575">show()</text><polygon fill="#A80036" points="361,457.0234,351,461.0234,361,465.0234,357,461.0234" style="stroke: #A80036; stroke-width: 1.0;"/><line style="stroke: #A80036; stroke-width: 1.0; stroke-dasharray: 2.0,2.0;" x1="355" x2="573.5" y1="461.0234" y2="461.0234"/><polygon fill="#A80036" points="130,471.0234,120,475.0234,130,479.0234,126,475.0234" style="stroke: #A80036; stroke-width: 1.0;"/><line style="stroke: #A80036; stroke-width: 1.0; stroke-dasharray: 2.0,2.0;" x1="124" x2="344" y1="475.0234" y2="475.0234"/></g></svg>