<?xml version="1.0" encoding="UTF-8" standalone="no"?><svg xmlns="http://www.w3.org/2000/svg" xmlns:xlink="http://www.w3.org/1999/xlink" contentScriptType="application/ecmascript" contentStyleType="text/css" height="536px" preserveAspectRatio="none" style="width:1189px;height:536px;" version="1.1" viewBox="0 0 1189 536" width="1189px" zoomAndPan="magnify"><defs><filter height="300%" id="f1b6cm2pofb1cj" width="300%" x="-1" y="-1"><feGaussianBlur result="blurOut" stdDeviation="2.0"/><feColorMatrix in="blurOut" result="blurOut2" type="matrix" values="0 0 0 0 0 0 0 0 0 0 0 0 0 0 0 0 0 0 .4 0"/><feOffset dx="4.0" dy="4.0" in="blurOut2" result="blurOut3"/><feBlend in="SourceGraphic" in2="blurOut3" mode="normal"/></filter></defs><g><rect fill="#FFFFFF" filter="url(#f1b6cm2pofb1cj)" height="423.0371" style="stroke: #A80036; stroke-width: 1.0;" width="10" x="113.5" y="54.4883"/><rect fill="#FFFFFF" filter="url(#f1b6cm2pofb1cj)" height="394.0371" style="stroke: #A80036; stroke-width: 1.0;" width="10" x="339.5" y="83.4883"/><rect fill="#FFFFFF" filter="url(#f1b6cm2pofb1cj)" height="14.3105" style="stroke: #A80036; stroke-width: 1.0;" width="10" x="569.5" y="405.9043"/><rect fill="#FFFFFF" filter="url(#f1b6cm2pofb1cj)" height="14.3105" style="stroke: #A80036; stroke-width: 1.0;" width="10" x="569.5" y="449.2148"/><rect fill="#FFFFFF" filter="url(#f1b6cm2pofb1cj)" height="29.3105" style="stroke: #A80036; stroke-width: 1.0;" width="10" x="736" y="171.4199"/><rect fill="#FFFFFF" filter="url(#f1b6cm2pofb1cj)" height="29.3105" style="stroke: #A80036; stroke-width: 1.0;" width="10" x="736" y="347.2832"/><rect fill="#FFFFFF" filter="url(#f1b6cm2pofb1cj)" height="29.3105" style="stroke: #A80036; stroke-width: 1.0;" width="10" x="811" y="112.7988"/><rect fill="#FFFFFF" filter="url(#f1b6cm2pofb1cj)" height="29.3105" style="stroke: #A80036; stroke-width: 1.0;" width="10" x="920" y="230.041"/><rect fill="#FFFFFF" filter="url(#f1b6cm2pofb1cj)" height="29.3105" style="stroke: #A80036; stroke-width: 1.0;" width="10" x="1091.5" y="288.6621"/><line style="stroke: #A80036; stroke-width: 1.0; stroke-dasharray: 5.0,5.0;" x1="118" x2="118" y1="38.4883" y2="495.5254"/><line style="stroke: #A80036; stroke-width: 1.0; stroke-dasharray: 5.0,5.0;" x1="344" x2="344" y1="38.4883" y2="495.5254"/><line style="stroke: #A80036; stroke-width: 1.0; stroke-dasharray: 5.0,5.0;" x1="574" x2="574" y1="38.4883" y2="495.5254"/><line style="stroke: #A80036; stroke-width: 1.0; stroke-dasharray: 5.0,5.0;" x1="741" x2="741" y1="38.4883" y2="495.5254"/><line style="stroke: #A80036; stroke-width: 1.0; stroke-dasharray: 5.0,5.0;" x1="816" x2="816" y1="38.4883" y2="495.5254"/><line style="stroke: #A80036; stroke-width: 1.0; stroke-dasharray: 5.0,5.0;" x1="925" x2="925" y1="38.4883" y2="495.5254"/><line style="stroke: #A80036; stroke-width: 1.0; stroke-dasharray: 5.0,5.0;" x1="1096" x2="1096" y1="38.4883" y2="495.5254"/><rect fill="#FEFECE" filter="url(#f1b6cm2pofb1cj)" height="30.4883" style="stroke: #A80036; stroke-width: 1.5;" width="217" x="8" y="3"/><text fill="#000000" font-family="sans-serif" font-size="14" lengthAdjust="spacingAndGlyphs" textLength="203" x="15" y="23.5352">exportOption : LabeledButton</text><rect fill="#FEFECE" filter="url(#f1b6cm2pofb1cj)" height="30.4883" style="stroke: #A80036; stroke-width: 1.5;" width="217" x="8" y="494.5254"/><text fill="#000000" font-family="sans-serif" font-size="14" lengthAdjust="spacingAndGlyphs" textLength="203" x="15" y="515.0605">exportOption : LabeledButton</text><rect fill="#FEFECE" filter="url(#f1b6cm2pofb1cj)" height="30.4883" style="stroke: #A80036; stroke-width: 1.5;" width="207" x="239" y="3"/><text fill="#000000" font-family="sans-serif" font-size="14" lengthAdjust="spacingAndGlyphs" textLength="193" x="246" y="23.5352">export : SelectExportFormat</text><rect fill="#FEFECE" filter="url(#f1b6cm2pofb1cj)" height="30.4883" style="stroke: #A80036; stroke-width: 1.5;" width="207" x="239" y="494.5254"/><text fill="#000000" font-family="sans-serif" font-size="14" lengthAdjust="spacingAndGlyphs" textLength="193" x="246" y="515.0605">export : SelectExportFormat</text><rect fill="#FEFECE" filter="url(#f1b6cm2pofb1cj)" height="30.4883" style="stroke: #A80036; stroke-width: 1.5;" width="225" x="460" y="3"/><text fill="#000000" font-family="sans-serif" font-size="14" lengthAdjust="spacingAndGlyphs" textLength="211" x="467" y="23.5352">exportWindow : PopUpWindow</text><rect fill="#FEFECE" filter="url(#f1b6cm2pofb1cj)" height="30.4883" style="stroke: #A80036; stroke-width: 1.5;" width="225" x="460" y="494.5254"/><text fill="#000000" font-family="sans-serif" font-size="14" lengthAdjust="spacingAndGlyphs" textLength="211" x="467" y="515.0605">exportWindow : PopUpWindow</text><rect fill="#FEFECE" filter="url(#f1b6cm2pofb1cj)" height="30.4883" style="stroke: #A80036; stroke-width: 1.5;" width="80" x="699" y="3"/><text fill="#000000" font-family="sans-serif" font-size="14" lengthAdjust="spacingAndGlyphs" textLength="66" x="706" y="23.5352">app : App</text><rect fill="#FEFECE" filter="url(#f1b6cm2pofb1cj)" height="30.4883" style="stroke: #A80036; stroke-width: 1.5;" width="80" x="699" y="494.5254"/><text fill="#000000" font-family="sans-serif" font-size="14" lengthAdjust="spacingAndGlyphs" textLength="66" x="706" y="515.0605">app : App</text><rect fill="#FEFECE" filter="url(#f1b6cm2pofb1cj)" height="30.4883" style="stroke: #A80036; stroke-width: 1.5;" width="42" x="793" y="3"/><text fill="#000000" font-family="sans-serif" font-size="14" lengthAdjust="spacingAndGlyphs" textLength="28" x="800" y="23.5352">App</text><rect fill="#FEFECE" filter="url(#f1b6cm2pofb1cj)" height="30.4883" style="stroke: #A80036; stroke-width: 1.5;" width="42" x="793" y="494.5254"/><text fill="#000000" font-family="sans-serif" font-size="14" lengthAdjust="spacingAndGlyphs" textLength="28" x="800" y="515.0605">App</text><rect fill="#FEFECE" filter="url(#f1b6cm2pofb1cj)" height="30.4883" style="stroke: #A80036; stroke-width: 1.5;" width="148" x="849" y="3"/><text fill="#000000" font-family="sans-serif" font-size="14" lengthAdjust="spacingAndGlyphs" textLength="134" x="856" y="23.5352">executor : Executor</text><rect fill="#FEFECE" filter="url(#f1b6cm2pofb1cj)" height="30.4883" style="stroke: #A80036; stroke-width: 1.5;" width="148" x="849" y="494.5254"/><text fill="#000000" font-family="sans-serif" font-size="14" lengthAdjust="spacingAndGlyphs" textLength="134" x="856" y="515.0605">executor : Executor</text><rect fill="#FEFECE" filter="url(#f1b6cm2pofb1cj)" height="30.4883" style="stroke: #A80036; stroke-width: 1.5;" width="167" x="1011" y="3"/><text fill="#000000" font-family="sans-serif" font-size="14" lengthAdjust="spacingAndGlyphs" textLength="153" x="1018" y="23.5352">format : ExportFormat</text><rect fill="#FEFECE" filter="url(#f1b6cm2pofb1cj)" height="30.4883" style="stroke: #A80036; stroke-width: 1.5;" width="167" x="1011" y="494.5254"/><text fill="#000000" font-family="sans-serif" font-size="14" lengthAdjust="spacingAndGlyphs" textLength="153" x="1018" y="515.0605">format : ExportFormat</text><rect fill="#FFFFFF" filter="url(#f1b6cm2pofb1cj)" height="423.0371" style="stroke: #A80036; stroke-width: 1.0;" width="10" x="113.5" y="54.4883"/><rect fill="#FFFFFF" filter="url(#f1b6cm2pofb1cj)" height="394.0371" style="stroke: #A80036; stroke-width: 1.0;" width="10" x="339.5" y="83.4883"/><rect fill="#FFFFFF" filter="url(#f1b6cm2pofb1cj)" height="14.3105" style="stroke: #A80036; stroke-width: 1.0;" width="10" x="569.5" y="405.9043"/><rect fill="#FFFFFF" filter="url(#f1b6cm2pofb1cj)" height="14.3105" style="stroke: #A80036; stroke-width: 1.0;" width="10" x="569.5" y="449.2148"/><rect fill="#FFFFFF" filter="url(#f1b6cm2pofb1cj)" height="29.3105" style="stroke: #A80036; stroke-width: 1.0;" width="10" x="736" y="171.4199"/><rect fill="#FFFFFF" filter="url(#f1b6cm2pofb1cj)" height="29.3105" style="stroke: #A80036; stroke-width: 1.0;" width="10" x="736" y="347.2832"/><rect fill="#FFFFFF" filter="url(#f1b6cm2pofb1cj)" height="29.3105" style="stroke: #A80036; stroke-width: 1.0;" width="10" x="811" y="112.7988"/><rect fill="#FFFFFF" filter="url(#f1b6cm2pofb1cj)" height="29.3105" style="stroke: #A80036; stroke-width: 1.0;" width="10" x="920" y="230.041"/><rect fill="#FFFFFF" filter="url(#f1b6cm2pofb1cj)" height="29.3105" style="stroke: #A80036; stroke-width: 1.0;" width="10" x="1091.5" y="288.6621"/><ellipse cx="10.5" cy="53.7383" fill="none" rx="4" ry="4" style="stroke: #A80036; stroke-width: 1.5;"/><polygon fill="#A80036" points="101.5,50.4883,111.5,54.4883,101.5,58.4883,105.5,54.4883" style="stroke: #A80036; stroke-width: 1.0;"/><line style="stroke: #A80036; stroke-width: 1.0;" x1="15" x2="107.5" y1="54.4883" y2="54.4883"/><polygon fill="#A80036" points="327.5,79.4883,337.5,83.4883,327.5,87.4883,331.5,83.4883" style="stroke: #A80036; stroke-width: 1.0;"/><line style="stroke: #A80036; stroke-width: 1.0;" x1="123.5" x2="333.5" y1="83.4883" y2="83.4883"/><text fill="#000000" font-family="sans-serif" font-size="13" lengthAdjust="spacingAndGlyphs" textLength="29" x="130.5" y="79.0566">run()</text><polygon fill="#A80036" points="799,108.7988,809,112.7988,799,116.7988,803,112.7988" style="stroke: #A80036; stroke-width: 1.0;"/><line style="stroke: #A80036; stroke-width: 1.0;" x1="349.5" x2="805" y1="112.7988" y2="112.7988"/><text fill="#000000" font-family="sans-serif" font-size="13" lengthAdjust="spacingAndGlyphs" textLength="28" x="356.5" y="108.3672">get()</text><polygon fill="#A80036" points="360.5,138.1094,350.5,142.1094,360.5,146.1094,356.5,142.1094" style="stroke: #A80036; stroke-width: 1.0;"/><line style="stroke: #A80036; stroke-width: 1.0; stroke-dasharray: 2.0,2.0;" x1="354.5" x2="815" y1="142.1094" y2="142.1094"/><text fill="#000000" font-family="sans-serif" font-size="13" lengthAdjust="spacingAndGlyphs" textLength="23" x="366.5" y="137.6777">app</text><polygon fill="#A80036" points="724,167.4199,734,171.4199,724,175.4199,728,171.4199" style="stroke: #A80036; stroke-width: 1.0;"/><line style="stroke: #A80036; stroke-width: 1.0;" x1="349.5" x2="730" y1="171.4199" y2="171.4199"/><text fill="#000000" font-family="sans-serif" font-size="13" lengthAdjust="spacingAndGlyphs" textLength="63" x="356.5" y="166.9883">executor()</text><polygon fill="#A80036" points="360.5,196.7305,350.5,200.7305,360.5,204.7305,356.5,200.7305" style="stroke: #A80036; stroke-width: 1.0;"/><line style="stroke: #A80036; stroke-width: 1.0; stroke-dasharray: 2.0,2.0;" x1="354.5" x2="740" y1="200.7305" y2="200.7305"/><text fill="#000000" font-family="sans-serif" font-size="13" lengthAdjust="spacingAndGlyphs" textLength="55" x="366.5" y="196.2988">executor</text><polygon fill="#A80036" points="908,226.041,918,230.041,908,234.041,912,230.041" style="stroke: #A80036; stroke-width: 1.0;"/><line style="stroke: #A80036; stroke-width: 1.0;" x1="349.5" x2="914" y1="230.041" y2="230.041"/><text fill="#000000" font-family="sans-serif" font-size="13" lengthAdjust="spacingAndGlyphs" textLength="90" x="356.5" y="225.6094">getDisplayed()</text><polygon fill="#A80036" points="360.5,255.3516,350.5,259.3516,360.5,263.3516,356.5,259.3516" style="stroke: #A80036; stroke-width: 1.0;"/><line style="stroke: #A80036; stroke-width: 1.0; stroke-dasharray: 2.0,2.0;" x1="354.5" x2="924" y1="259.3516" y2="259.3516"/><text fill="#000000" font-family="sans-serif" font-size="13" lengthAdjust="spacingAndGlyphs" textLength="235" x="366.5" y="254.9199">displayedTerms : List&lt;LambdaTerm&gt;</text><polygon fill="#A80036" points="1079.5,284.6621,1089.5,288.6621,1079.5,292.6621,1083.5,288.6621" style="stroke: #A80036; stroke-width: 1.0;"/><line style="stroke: #A80036; stroke-width: 1.0;" x1="349.5" x2="1085.5" y1="288.6621" y2="288.6621"/><text fill="#000000" font-family="sans-serif" font-size="13" lengthAdjust="spacingAndGlyphs" textLength="221" x="356.5" y="284.2305">getRepresentation(displayedTerms)</text><polygon fill="#A80036" points="360.5,313.9727,350.5,317.9727,360.5,321.9727,356.5,317.9727" style="stroke: #A80036; stroke-width: 1.0;"/><line style="stroke: #A80036; stroke-width: 1.0; stroke-dasharray: 2.0,2.0;" x1="354.5" x2="1095.5" y1="317.9727" y2="317.9727"/><text fill="#000000" font-family="sans-serif" font-size="13" lengthAdjust="spacingAndGlyphs" textLength="91" x="366.5" y="313.541">output : String</text><polygon fill="#A80036" points="724,343.2832,734,347.2832,724,351.2832,728,347.2832" style="stroke: #A80036; stroke-width: 1.0;"/><line style="stroke: #A80036; stroke-width: 1.0;" x1="349.5" x2="730" y1="347.2832" y2="347.2832"/><text fill="#000000" font-family="sans-serif" font-size="13" lengthAdjust="spacingAndGlyphs" textLength="98" x="356.5" y="342.8516">exportWindow()</text><polygon fill="#A80036" points="360.5,372.5938,350.5,376.5938,360.5,380.5938,356.5,376.5938" style="stroke: #A80036; stroke-width: 1.0;"/><line style="stroke: #A80036; stroke-width: 1.0; stroke-dasharray: 2.0,2.0;" x1="354.5" x2="740" y1="376.5938" y2="376.5938"/><text fill="#000000" font-family="sans-serif" font-size="13" lengthAdjust="spacingAndGlyphs" textLength="90" x="366.5" y="372.1621">exportWindow</text><polygon fill="#A80036" points="557.5,401.9043,567.5,405.9043,557.5,409.9043,561.5,405.9043" style="stroke: #A80036; stroke-width: 1.0;"/><line style="stroke: #A80036; stroke-width: 1.0;" x1="349.5" x2="563.5" y1="405.9043" y2="405.9043"/><text fill="#000000" font-family="sans-serif" font-size="13" lengthAdjust="spacingAndGlyphs" textLength="81" x="356.5" y="401.4727">write(output)</text><polygon fill="#A80036" points="360.5,416.2148,350.5,420.2148,360.5,424.2148,356.5,420.2148" style="stroke: #A80036; stroke-width: 1.0;"/><line style="stroke: #A80036; stroke-width: 1.0; stroke-dasharray: 2.0,2.0;" x1="354.5" x2="573.5" y1="420.2148" y2="420.2148"/><polygon fill="#A80036" points="557.5,445.2148,567.5,449.2148,557.5,453.2148,561.5,449.2148" style="stroke: #A80036; stroke-width: 1.0;"/><line style="stroke: #A80036; stroke-width: 1.0;" x1="349.5" x2="563.5" y1="449.2148" y2="449.2148"/><text fill="#000000" font-family="sans-serif" font-size="13" lengthAdjust="spacingAndGlyphs" textLength="41" x="356.5" y="444.7832">show()</text><polygon fill="#A80036" points="360.5,459.5254,350.5,463.5254,360.5,467.5254,356.5,463.5254" style="stroke: #A80036; stroke-width: 1.0;"/><line style="stroke: #A80036; stroke-width: 1.0; stroke-dasharray: 2.0,2.0;" x1="354.5" x2="573.5" y1="463.5254" y2="463.5254"/><polygon fill="#A80036" points="129.5,473.5254,119.5,477.5254,129.5,481.5254,125.5,477.5254" style="stroke: #A80036; stroke-width: 1.0;"/><line style="stroke: #A80036; stroke-width: 1.0; stroke-dasharray: 2.0,2.0;" x1="123.5" x2="343.5" y1="477.5254" y2="477.5254"/><!--
@startuml
participant "exportOption : LabeledButton" as exportOption
participant "export : SelectExportFormat" as export
participant "exportWindow : PopUpWindow" as exportWindow
participant "app : App" as app
participant "App" as sApp
participant "executor : Executor" as executor
participant "format : ExportFormat" as format

[o-> exportOption
activate exportOption
exportOption -> export : run()
activate export
export -> sApp: get()
activate sApp
export <- - sApp: app
deactivate sApp
export -> app: executor()
activate app
export <- - app: executor
deactivate app

export -> executor : getDisplayed()
activate executor
export <- - executor : displayedTerms : List<LambdaTerm>
deactivate executor
export -> format : getRepresentation(displayedTerms)
activate format
export <- - format : output : String
deactivate format

export -> app: exportWindow()
activate app
export <- - app: exportWindow
deactivate app

export -> exportWindow : write(output)
activate exportWindow
export <- - exportWindow
deactivate exportWindow
export -> exportWindow : show()
activate exportWindow
export <- - exportWindow
deactivate exportWindow
exportOption <- - export
deactivate export
deactivate exportOption

@enduml

PlantUML version 1.2018.00(Thu Jan 04 20:42:56 CET 2018)
(GPL source distribution)
Java Runtime: Java(TM) SE Runtime Environment
JVM: Java HotSpot(TM) 64-Bit Server VM
Java Version: 1.8.0_112-b16
Operating System: Mac OS X
OS Version: 10.13.2
Default Encoding: UTF-8
Language: de
Country: DE
--></g></svg>