<?xml version="1.0" encoding="UTF-8" standalone="yes"?><svg xmlns="http://www.w3.org/2000/svg" xmlns:xlink="http://www.w3.org/1999/xlink" height="599px" style="width:1894px;height:599px;" version="1.1" viewBox="0 0 1894 599" width="1894px"><defs><filter height="300%" id="f1" width="300%" x="-1" y="-1"><feGaussianBlur result="blurOut" stdDeviation="2.0"/><feColorMatrix in="blurOut" result="blurOut2" type="matrix" values="0 0 0 0 0 0 0 0 0 0 0 0 0 0 0 0 0 0 .4 0"/><feOffset dx="4.0" dy="4.0" in="blurOut2" result="blurOut3"/><feBlend in="SourceGraphic" in2="blurOut3" mode="normal"/></filter></defs><g><rect fill="#FFFFFF" filter="url(#f1)" height="494.5781" style="stroke: #A80036; stroke-width: 1.0;" width="10" x="55" y="48.2969"/><rect fill="#FFFFFF" filter="url(#f1)" height="473.5781" style="stroke: #A80036; stroke-width: 1.0;" width="10" x="159" y="69.2969"/><rect fill="#FFFFFF" filter="url(#f1)" height="14.1328" style="stroke: #A80036; stroke-width: 1.0;" width="10" x="1075.5" y="370.2109"/><rect fill="#FFFFFF" filter="url(#f1)" height="14.1328" style="stroke: #A80036; stroke-width: 1.0;" width="10" x="1075.5" y="413.3438"/><rect fill="#FFFFFF" filter="url(#f1)" height="29.1328" style="stroke: #A80036; stroke-width: 1.0;" width="10" x="1699.5" y="456.4766"/><rect fill="#FFFFFF" filter="url(#f1)" height="14.1328" style="stroke: #A80036; stroke-width: 1.0;" width="10" x="1819" y="514.7422"/><rect fill="#FEFECE" filter="url(#f1)" height="30.2969" style="stroke: #A80036; stroke-width: 1.5;" width="120" x="278" y="77.4297"/><text fill="#000000" font-family="sans-serif" font-size="14" lengthAdjust="spacingAndGlyphs" textLength="106" x="285" y="97.4248">button : Button</text><rect fill="#FEFECE" filter="url(#f1)" height="30.2969" style="stroke: #A80036; stroke-width: 1.5;" width="251" x="412" y="122.7266"/><text fill="#000000" font-family="sans-serif" font-size="14" lengthAdjust="spacingAndGlyphs" textLength="237" x="419" y="142.7217">mainMenuButtonActivated : Image</text><rect fill="#FEFECE" filter="url(#f1)" height="30.2969" style="stroke: #A80036; stroke-width: 1.5;" width="270" x="677" y="168.0234"/><text fill="#000000" font-family="sans-serif" font-size="14" lengthAdjust="spacingAndGlyphs" textLength="256" x="684" y="188.0186">mainMenuButtonDeactivated : Image</text><rect fill="#FEFECE" filter="url(#f1)" height="30.2969" style="stroke: #A80036; stroke-width: 1.5;" width="235" x="961" y="213.3203"/><text fill="#000000" font-family="sans-serif" font-size="14" lengthAdjust="spacingAndGlyphs" textLength="221" x="968" y="233.3154">mainMenuButton : ImageButton</text><rect fill="#FEFECE" filter="url(#f1)" height="30.2969" style="stroke: #A80036; stroke-width: 1.5;" width="138" x="1210" y="258.6172"/><text fill="#000000" font-family="sans-serif" font-size="14" lengthAdjust="spacingAndGlyphs" textLength="124" x="1217" y="278.6123">mainMenu : Menu</text><rect fill="#FEFECE" filter="url(#f1)" height="30.2969" style="stroke: #A80036; stroke-width: 1.5;" width="284" x="1362" y="303.9141"/><text fill="#000000" font-family="sans-serif" font-size="14" lengthAdjust="spacingAndGlyphs" textLength="270" x="1369" y="323.9092">hideMainMenuAction : HideComponent</text><line style="stroke: #A80036; stroke-width: 1.0; stroke-dasharray: 5.0,5.0;" x1="60" x2="60" y1="38.2969" y2="560.875"/><line style="stroke: #A80036; stroke-width: 1.0; stroke-dasharray: 5.0,5.0;" x1="164" x2="164" y1="38.2969" y2="560.875"/><line style="stroke: #A80036; stroke-width: 1.0; stroke-dasharray: 5.0,5.0;" x1="340" x2="340" y1="110.0781" y2="560.875"/><line style="stroke: #A80036; stroke-width: 1.0; stroke-dasharray: 5.0,5.0;" x1="539" x2="539" y1="155.375" y2="560.875"/><line style="stroke: #A80036; stroke-width: 1.0; stroke-dasharray: 5.0,5.0;" x1="814" x2="814" y1="200.6719" y2="560.875"/><line style="stroke: #A80036; stroke-width: 1.0; stroke-dasharray: 5.0,5.0;" x1="1080" x2="1080" y1="245.9688" y2="560.875"/><line style="stroke: #A80036; stroke-width: 1.0; stroke-dasharray: 5.0,5.0;" x1="1281" x2="1281" y1="291.2656" y2="560.875"/><line style="stroke: #A80036; stroke-width: 1.0; stroke-dasharray: 5.0,5.0;" x1="1506" x2="1506" y1="336.5625" y2="560.875"/><line style="stroke: #A80036; stroke-width: 1.0; stroke-dasharray: 5.0,5.0;" x1="1704" x2="1704" y1="38.2969" y2="560.875"/><line style="stroke: #A80036; stroke-width: 1.0; stroke-dasharray: 5.0,5.0;" x1="1824" x2="1824" y1="38.2969" y2="560.875"/><rect fill="#FEFECE" filter="url(#f1)" height="30.2969" style="stroke: #A80036; stroke-width: 1.5;" width="100" x="8" y="3"/><text fill="#000000" font-family="sans-serif" font-size="14" lengthAdjust="spacingAndGlyphs" textLength="86" x="15" y="22.9951">:Wavelength</text><rect fill="#FEFECE" filter="url(#f1)" height="30.2969" style="stroke: #A80036; stroke-width: 1.5;" width="100" x="8" y="559.875"/><text fill="#000000" font-family="sans-serif" font-size="14" lengthAdjust="spacingAndGlyphs" textLength="86" x="15" y="579.8701">:Wavelength</text><rect fill="#FEFECE" filter="url(#f1)" height="30.2969" style="stroke: #A80036; stroke-width: 1.5;" width="80" x="122" y="3"/><text fill="#000000" font-family="sans-serif" font-size="14" lengthAdjust="spacingAndGlyphs" textLength="66" x="129" y="22.9951">app : App</text><rect fill="#FEFECE" filter="url(#f1)" height="30.2969" style="stroke: #A80036; stroke-width: 1.5;" width="80" x="122" y="559.875"/><text fill="#000000" font-family="sans-serif" font-size="14" lengthAdjust="spacingAndGlyphs" textLength="66" x="129" y="579.8701">app : App</text><rect fill="#FEFECE" filter="url(#f1)" height="30.2969" style="stroke: #A80036; stroke-width: 1.5;" width="120" x="278" y="559.875"/><text fill="#000000" font-family="sans-serif" font-size="14" lengthAdjust="spacingAndGlyphs" textLength="106" x="285" y="579.8701">button : Button</text><rect fill="#FEFECE" filter="url(#f1)" height="30.2969" style="stroke: #A80036; stroke-width: 1.5;" width="251" x="412" y="559.875"/><text fill="#000000" font-family="sans-serif" font-size="14" lengthAdjust="spacingAndGlyphs" textLength="237" x="419" y="579.8701">mainMenuButtonActivated : Image</text><rect fill="#FEFECE" filter="url(#f1)" height="30.2969" style="stroke: #A80036; stroke-width: 1.5;" width="270" x="677" y="559.875"/><text fill="#000000" font-family="sans-serif" font-size="14" lengthAdjust="spacingAndGlyphs" textLength="256" x="684" y="579.8701">mainMenuButtonDeactivated : Image</text><rect fill="#FEFECE" filter="url(#f1)" height="30.2969" style="stroke: #A80036; stroke-width: 1.5;" width="235" x="961" y="559.875"/><text fill="#000000" font-family="sans-serif" font-size="14" lengthAdjust="spacingAndGlyphs" textLength="221" x="968" y="579.8701">mainMenuButton : ImageButton</text><rect fill="#FEFECE" filter="url(#f1)" height="30.2969" style="stroke: #A80036; stroke-width: 1.5;" width="138" x="1210" y="559.875"/><text fill="#000000" font-family="sans-serif" font-size="14" lengthAdjust="spacingAndGlyphs" textLength="124" x="1217" y="579.8701">mainMenu : Menu</text><rect fill="#FEFECE" filter="url(#f1)" height="30.2969" style="stroke: #A80036; stroke-width: 1.5;" width="284" x="1362" y="559.875"/><text fill="#000000" font-family="sans-serif" font-size="14" lengthAdjust="spacingAndGlyphs" textLength="270" x="1369" y="579.8701">hideMainMenuAction : HideComponent</text><rect fill="#FEFECE" filter="url(#f1)" height="30.2969" style="stroke: #A80036; stroke-width: 1.5;" width="85" x="1660" y="3"/><text fill="#000000" font-family="sans-serif" font-size="14" lengthAdjust="spacingAndGlyphs" textLength="71" x="1667" y="22.9951">RootPanel</text><rect fill="#FEFECE" filter="url(#f1)" height="30.2969" style="stroke: #A80036; stroke-width: 1.5;" width="85" x="1660" y="559.875"/><text fill="#000000" font-family="sans-serif" font-size="14" lengthAdjust="spacingAndGlyphs" textLength="71" x="1667" y="579.8701">RootPanel</text><rect fill="#FEFECE" filter="url(#f1)" height="30.2969" style="stroke: #A80036; stroke-width: 1.5;" width="126" x="1759" y="3"/><text fill="#000000" font-family="sans-serif" font-size="14" lengthAdjust="spacingAndGlyphs" textLength="112" x="1766" y="22.9951">root : RootPanel</text><rect fill="#FEFECE" filter="url(#f1)" height="30.2969" style="stroke: #A80036; stroke-width: 1.5;" width="126" x="1759" y="559.875"/><text fill="#000000" font-family="sans-serif" font-size="14" lengthAdjust="spacingAndGlyphs" textLength="112" x="1766" y="579.8701">root : RootPanel</text><rect fill="#FFFFFF" filter="url(#f1)" height="494.5781" style="stroke: #A80036; stroke-width: 1.0;" width="10" x="55" y="48.2969"/><rect fill="#FFFFFF" filter="url(#f1)" height="473.5781" style="stroke: #A80036; stroke-width: 1.0;" width="10" x="159" y="69.2969"/><rect fill="#FFFFFF" filter="url(#f1)" height="14.1328" style="stroke: #A80036; stroke-width: 1.0;" width="10" x="1075.5" y="370.2109"/><rect fill="#FFFFFF" filter="url(#f1)" height="14.1328" style="stroke: #A80036; stroke-width: 1.0;" width="10" x="1075.5" y="413.3438"/><rect fill="#FFFFFF" filter="url(#f1)" height="29.1328" style="stroke: #A80036; stroke-width: 1.0;" width="10" x="1699.5" y="456.4766"/><rect fill="#FFFFFF" filter="url(#f1)" height="14.1328" style="stroke: #A80036; stroke-width: 1.0;" width="10" x="1819" y="514.7422"/><polygon fill="#A80036" points="147,65.2969,157,69.2969,147,73.2969,151,69.2969" style="stroke: #A80036; stroke-width: 1.0;"/><line style="stroke: #A80036; stroke-width: 1.0;" x1="65" x2="153" y1="69.2969" y2="69.2969"/><text fill="#000000" font-family="sans-serif" font-size="13" lengthAdjust="spacingAndGlyphs" textLength="61" x="72" y="64.3638">initialize()</text><line style="stroke: #A80036; stroke-width: 1.0;" x1="276" x2="266" y1="98.4297" y2="94.4297"/><line style="stroke: #A80036; stroke-width: 1.0;" x1="276" x2="266" y1="98.4297" y2="102.4297"/><line style="stroke: #A80036; stroke-width: 1.0; stroke-dasharray: 2.0,2.0;" x1="169" x2="277" y1="98.4297" y2="98.4297"/><text fill="#000000" font-family="sans-serif" font-size="13" lengthAdjust="spacingAndGlyphs" textLength="85" x="176" y="93.4966">&lt;&lt;create&gt;&gt;</text><rect fill="#FEFECE" filter="url(#f1)" height="30.2969" style="stroke: #A80036; stroke-width: 1.5;" width="120" x="278" y="77.4297"/><text fill="#000000" font-family="sans-serif" font-size="14" lengthAdjust="spacingAndGlyphs" textLength="106" x="285" y="97.4248">button : Button</text><line style="stroke: #A80036; stroke-width: 1.0;" x1="410" x2="400" y1="143.7266" y2="139.7266"/><line style="stroke: #A80036; stroke-width: 1.0;" x1="410" x2="400" y1="143.7266" y2="147.7266"/><line style="stroke: #A80036; stroke-width: 1.0; stroke-dasharray: 2.0,2.0;" x1="169" x2="411" y1="143.7266" y2="143.7266"/><text fill="#000000" font-family="sans-serif" font-size="13" lengthAdjust="spacingAndGlyphs" textLength="85" x="176" y="138.7935">&lt;&lt;create&gt;&gt;</text><rect fill="#FEFECE" filter="url(#f1)" height="30.2969" style="stroke: #A80036; stroke-width: 1.5;" width="251" x="412" y="122.7266"/><text fill="#000000" font-family="sans-serif" font-size="14" lengthAdjust="spacingAndGlyphs" textLength="237" x="419" y="142.7217">mainMenuButtonActivated : Image</text><line style="stroke: #A80036; stroke-width: 1.0;" x1="675" x2="665" y1="189.0234" y2="185.0234"/><line style="stroke: #A80036; stroke-width: 1.0;" x1="675" x2="665" y1="189.0234" y2="193.0234"/><line style="stroke: #A80036; stroke-width: 1.0; stroke-dasharray: 2.0,2.0;" x1="169" x2="676" y1="189.0234" y2="189.0234"/><text fill="#000000" font-family="sans-serif" font-size="13" lengthAdjust="spacingAndGlyphs" textLength="85" x="176" y="184.0903">&lt;&lt;create&gt;&gt;</text><rect fill="#FEFECE" filter="url(#f1)" height="30.2969" style="stroke: #A80036; stroke-width: 1.5;" width="270" x="677" y="168.0234"/><text fill="#000000" font-family="sans-serif" font-size="14" lengthAdjust="spacingAndGlyphs" textLength="256" x="684" y="188.0186">mainMenuButtonDeactivated : Image</text><line style="stroke: #A80036; stroke-width: 1.0;" x1="959" x2="949" y1="234.3203" y2="230.3203"/><line style="stroke: #A80036; stroke-width: 1.0;" x1="959" x2="949" y1="234.3203" y2="238.3203"/><line style="stroke: #A80036; stroke-width: 1.0; stroke-dasharray: 2.0,2.0;" x1="169" x2="960" y1="234.3203" y2="234.3203"/><text fill="#000000" font-family="sans-serif" font-size="13" lengthAdjust="spacingAndGlyphs" textLength="510" x="176" y="229.3872">&lt;&lt;create&gt;&gt;(button, mainMenuButtonActivated, mainMenuButtonDeactivated)</text><rect fill="#FEFECE" filter="url(#f1)" height="30.2969" style="stroke: #A80036; stroke-width: 1.5;" width="235" x="961" y="213.3203"/><text fill="#000000" font-family="sans-serif" font-size="14" lengthAdjust="spacingAndGlyphs" textLength="221" x="968" y="233.3154">mainMenuButton : ImageButton</text><line style="stroke: #A80036; stroke-width: 1.0;" x1="1208" x2="1198" y1="279.6172" y2="275.6172"/><line style="stroke: #A80036; stroke-width: 1.0;" x1="1208" x2="1198" y1="279.6172" y2="283.6172"/><line style="stroke: #A80036; stroke-width: 1.0; stroke-dasharray: 2.0,2.0;" x1="169" x2="1209" y1="279.6172" y2="279.6172"/><text fill="#000000" font-family="sans-serif" font-size="13" lengthAdjust="spacingAndGlyphs" textLength="85" x="176" y="274.6841">&lt;&lt;create&gt;&gt;</text><rect fill="#FEFECE" filter="url(#f1)" height="30.2969" style="stroke: #A80036; stroke-width: 1.5;" width="138" x="1210" y="258.6172"/><text fill="#000000" font-family="sans-serif" font-size="14" lengthAdjust="spacingAndGlyphs" textLength="124" x="1217" y="278.6123">mainMenu : Menu</text><line style="stroke: #A80036; stroke-width: 1.0;" x1="1360" x2="1350" y1="324.9141" y2="320.9141"/><line style="stroke: #A80036; stroke-width: 1.0;" x1="1360" x2="1350" y1="324.9141" y2="328.9141"/><line style="stroke: #A80036; stroke-width: 1.0; stroke-dasharray: 2.0,2.0;" x1="169" x2="1361" y1="324.9141" y2="324.9141"/><text fill="#000000" font-family="sans-serif" font-size="13" lengthAdjust="spacingAndGlyphs" textLength="166" x="176" y="319.981">&lt;&lt;create&gt;&gt; (mainMenu)</text><rect fill="#FEFECE" filter="url(#f1)" height="30.2969" style="stroke: #A80036; stroke-width: 1.5;" width="284" x="1362" y="303.9141"/><text fill="#000000" font-family="sans-serif" font-size="14" lengthAdjust="spacingAndGlyphs" textLength="270" x="1369" y="323.9092">hideMainMenuAction : HideComponent</text><polygon fill="#A80036" points="1063.5,366.2109,1073.5,370.2109,1063.5,374.2109,1067.5,370.2109" style="stroke: #A80036; stroke-width: 1.0;"/><line style="stroke: #A80036; stroke-width: 1.0;" x1="169" x2="1069.5" y1="370.2109" y2="370.2109"/><text fill="#000000" font-family="sans-serif" font-size="13" lengthAdjust="spacingAndGlyphs" textLength="202" x="176" y="365.2778">setAction(hideMainMenuAction)</text><polygon fill="#A80036" points="180,380.3438,170,384.3438,180,388.3438,176,384.3438" style="stroke: #A80036; stroke-width: 1.0;"/><line style="stroke: #A80036; stroke-width: 1.0; stroke-dasharray: 2.0,2.0;" x1="174" x2="1079.5" y1="384.3438" y2="384.3438"/><polygon fill="#A80036" points="1063.5,409.3438,1073.5,413.3438,1063.5,417.3438,1067.5,413.3438" style="stroke: #A80036; stroke-width: 1.0;"/><line style="stroke: #A80036; stroke-width: 1.0;" x1="169" x2="1069.5" y1="413.3438" y2="413.3438"/><text fill="#000000" font-family="sans-serif" font-size="13" lengthAdjust="spacingAndGlyphs" textLength="42" x="176" y="408.4106">show()</text><polygon fill="#A80036" points="180,423.4766,170,427.4766,180,431.4766,176,427.4766" style="stroke: #A80036; stroke-width: 1.0;"/><line style="stroke: #A80036; stroke-width: 1.0; stroke-dasharray: 2.0,2.0;" x1="174" x2="1079.5" y1="427.4766" y2="427.4766"/><polygon fill="#A80036" points="1687.5,452.4766,1697.5,456.4766,1687.5,460.4766,1691.5,456.4766" style="stroke: #A80036; stroke-width: 1.0;"/><line style="stroke: #A80036; stroke-width: 1.0;" x1="169" x2="1693.5" y1="456.4766" y2="456.4766"/><text fill="#000000" font-family="sans-serif" font-size="13" lengthAdjust="spacingAndGlyphs" textLength="31" x="176" y="451.5435">get()</text><polygon fill="#A80036" points="180,481.6094,170,485.6094,180,489.6094,176,485.6094" style="stroke: #A80036; stroke-width: 1.0;"/><line style="stroke: #A80036; stroke-width: 1.0; stroke-dasharray: 2.0,2.0;" x1="174" x2="1703.5" y1="485.6094" y2="485.6094"/><text fill="#000000" font-family="sans-serif" font-size="13" lengthAdjust="spacingAndGlyphs" textLength="26" x="186" y="480.6763">root</text><polygon fill="#A80036" points="1807,510.7422,1817,514.7422,1807,518.7422,1811,514.7422" style="stroke: #A80036; stroke-width: 1.0;"/><line style="stroke: #A80036; stroke-width: 1.0;" x1="169" x2="1813" y1="514.7422" y2="514.7422"/><text fill="#000000" font-family="sans-serif" font-size="13" lengthAdjust="spacingAndGlyphs" textLength="144" x="176" y="509.8091">add(mainMenuButton)</text><polygon fill="#A80036" points="180,524.875,170,528.875,180,532.875,176,528.875" style="stroke: #A80036; stroke-width: 1.0;"/><line style="stroke: #A80036; stroke-width: 1.0; stroke-dasharray: 2.0,2.0;" x1="174" x2="1823" y1="528.875" y2="528.875"/><polygon fill="#A80036" points="71,538.875,61,542.875,71,546.875,67,542.875" style="stroke: #A80036; stroke-width: 1.0;"/><line style="stroke: #A80036; stroke-width: 1.0; stroke-dasharray: 2.0,2.0;" x1="65" x2="163" y1="542.875" y2="542.875"/></g></svg>