<?xml version="1.0" encoding="UTF-8" standalone="no"?><svg xmlns="http://www.w3.org/2000/svg" xmlns:xlink="http://www.w3.org/1999/xlink" contentScriptType="application/ecmascript" contentStyleType="text/css" height="812px" preserveAspectRatio="none" style="width:1991px;height:812px;" version="1.1" viewBox="0 0 1991 812" width="1991px" zoomAndPan="magnify"><defs><filter height="300%" id="f1mdb6tmx57o9v" width="300%" x="-1" y="-1"><feGaussianBlur result="blurOut" stdDeviation="2.0"/><feColorMatrix in="blurOut" result="blurOut2" type="matrix" values="0 0 0 0 0 0 0 0 0 0 0 0 0 0 0 0 0 0 .4 0"/><feOffset dx="4.0" dy="4.0" in="blurOut2" result="blurOut3"/><feBlend in="SourceGraphic" in2="blurOut3" mode="normal"/></filter></defs><g><rect fill="#FFFFFF" filter="url(#f1mdb6tmx57o9v)" height="14.3516" style="stroke: #A80036; stroke-width: 1.0;" width="10" x="235.5" y="164.8281"/><rect fill="#FFFFFF" filter="url(#f1mdb6tmx57o9v)" height="544.1406" style="stroke: #A80036; stroke-width: 1.0;" width="10" x="235.5" y="209.1797"/><rect fill="#FFFFFF" filter="url(#f1mdb6tmx57o9v)" height="544.1406" style="stroke: #A80036; stroke-width: 1.0;" width="10" x="418" y="209.1797"/><rect fill="#FFFFFF" filter="url(#f1mdb6tmx57o9v)" height="289.6797" style="stroke: #A80036; stroke-width: 1.0;" width="10" x="648.5" y="239.5313"/><rect fill="#FFFFFF" filter="url(#f1mdb6tmx57o9v)" height="30.3516" style="stroke: #A80036; stroke-width: 1.0;" width="10" x="648.5" y="559.2109"/><rect fill="#FFFFFF" filter="url(#f1mdb6tmx57o9v)" height="30.3516" style="stroke: #A80036; stroke-width: 1.0;" width="10" x="830" y="269.8828"/><rect fill="#FFFFFF" filter="url(#f1mdb6tmx57o9v)" height="30.3516" style="stroke: #A80036; stroke-width: 1.0;" width="10" x="1156" y="484.5078"/><rect fill="#FFFFFF" filter="url(#f1mdb6tmx57o9v)" height="76.9609" style="stroke: #A80036; stroke-width: 1.0;" width="10" x="1323.5" y="377.1953"/><rect fill="#FFFFFF" filter="url(#f1mdb6tmx57o9v)" height="30.3516" style="stroke: #A80036; stroke-width: 1.0;" width="10" x="1529" y="650.2656"/><rect fill="#FFFFFF" filter="url(#f1mdb6tmx57o9v)" height="119.4063" style="stroke: #A80036; stroke-width: 1.0;" width="10" x="1741.5" y="619.9141"/><rect fill="#FFFFFF" filter="url(#f1mdb6tmx57o9v)" height="14.3516" style="stroke: #A80036; stroke-width: 1.0;" width="10" x="1957.5" y="710.9688"/><rect fill="#FEFECE" filter="url(#f1mdb6tmx57o9v)" height="31.6094" style="stroke: #A80036; stroke-width: 1.5;" width="174" x="564.5" y="49.6094"/><text fill="#000000" font-family="sans-serif" font-size="14" lengthAdjust="spacingAndGlyphs" textLength="160" x="571.5" y="71.1426">engine : ExecutionEngine</text><rect fill="#FEFECE" filter="url(#f1mdb6tmx57o9v)" height="31.6094" style="stroke: #A80036; stroke-width: 1.5;" width="259" x="291.5" y="96.2188"/><text fill="#000000" font-family="sans-serif" font-size="14" lengthAdjust="spacingAndGlyphs" textLength="245" x="298.5" y="117.752">scheduledAction : RepeatingCommand</text><rect fill="#FEFECE" filter="url(#f1mdb6tmx57o9v)" height="31.6094" style="stroke: #A80036; stroke-width: 1.5;" width="158" x="927.5" y="308.5859"/><text fill="#000000" font-family="sans-serif" font-size="14" lengthAdjust="spacingAndGlyphs" textLength="144" x="934.5" y="330.1191">reducer : BetaReducer</text><rect fill="#FEFECE" filter="url(#f1mdb6tmx57o9v)" height="31.6094" style="stroke: #A80036; stroke-width: 1.5;" width="195" x="1434.5" y="385.5469"/><text fill="#000000" font-family="sans-serif" font-size="14" lengthAdjust="spacingAndGlyphs" textLength="181" x="1441.5" y="407.0801">reducedTerm : LambdaTerm</text><line style="stroke: #A80036; stroke-width: 1.0; stroke-dasharray: 5.0,5.0;" x1="54" x2="54" y1="39.6094" y2="771.3203"/><line style="stroke: #A80036; stroke-width: 1.0; stroke-dasharray: 5.0,5.0;" x1="240.5" x2="240.5" y1="39.6094" y2="771.3203"/><line style="stroke: #A80036; stroke-width: 1.0; stroke-dasharray: 5.0,5.0;" x1="422.5" x2="422.5" y1="129.5234" y2="771.3203"/><line style="stroke: #A80036; stroke-width: 1.0; stroke-dasharray: 5.0,5.0;" x1="653.5" x2="653.5" y1="82.9141" y2="771.3203"/><line style="stroke: #A80036; stroke-width: 1.0; stroke-dasharray: 5.0,5.0;" x1="834.5" x2="834.5" y1="39.6094" y2="771.3203"/><line style="stroke: #A80036; stroke-width: 1.0; stroke-dasharray: 5.0,5.0;" x1="1008.5" x2="1008.5" y1="341.8906" y2="771.3203"/><line style="stroke: #A80036; stroke-width: 1.0; stroke-dasharray: 5.0,5.0;" x1="1160.5" x2="1160.5" y1="39.6094" y2="771.3203"/><line style="stroke: #A80036; stroke-width: 1.0; stroke-dasharray: 5.0,5.0;" x1="1328.5" x2="1328.5" y1="39.6094" y2="771.3203"/><line style="stroke: #A80036; stroke-width: 1.0; stroke-dasharray: 5.0,5.0;" x1="1533.5" x2="1533.5" y1="418.8516" y2="771.3203"/><line style="stroke: #A80036; stroke-width: 1.0; stroke-dasharray: 5.0,5.0;" x1="1746.5" x2="1746.5" y1="39.6094" y2="771.3203"/><line style="stroke: #A80036; stroke-width: 1.0; stroke-dasharray: 5.0,5.0;" x1="1962" x2="1962" y1="39.6094" y2="771.3203"/><rect fill="#FEFECE" filter="url(#f1mdb6tmx57o9v)" height="31.6094" style="stroke: #A80036; stroke-width: 1.5;" width="89" x="8" y="3"/><text fill="#000000" font-family="sans-serif" font-size="14" lengthAdjust="spacingAndGlyphs" textLength="75" x="15" y="24.5332">e : Executor</text><rect fill="#FEFECE" filter="url(#f1mdb6tmx57o9v)" height="31.6094" style="stroke: #A80036; stroke-width: 1.5;" width="89" x="8" y="770.3203"/><text fill="#000000" font-family="sans-serif" font-size="14" lengthAdjust="spacingAndGlyphs" textLength="75" x="15" y="791.8535">e : Executor</text><rect fill="#FEFECE" filter="url(#f1mdb6tmx57o9v)" height="31.6094" style="stroke: #A80036; stroke-width: 1.5;" width="78" x="199.5" y="3"/><text fill="#000000" font-family="sans-serif" font-size="14" lengthAdjust="spacingAndGlyphs" textLength="64" x="206.5" y="24.5332">Scheduler</text><rect fill="#FEFECE" filter="url(#f1mdb6tmx57o9v)" height="31.6094" style="stroke: #A80036; stroke-width: 1.5;" width="78" x="199.5" y="770.3203"/><text fill="#000000" font-family="sans-serif" font-size="14" lengthAdjust="spacingAndGlyphs" textLength="64" x="206.5" y="791.8535">Scheduler</text><rect fill="#FEFECE" filter="url(#f1mdb6tmx57o9v)" height="31.6094" style="stroke: #A80036; stroke-width: 1.5;" width="259" x="291.5" y="770.3203"/><text fill="#000000" font-family="sans-serif" font-size="14" lengthAdjust="spacingAndGlyphs" textLength="245" x="298.5" y="791.8535">scheduledAction : RepeatingCommand</text><rect fill="#FEFECE" filter="url(#f1mdb6tmx57o9v)" height="31.6094" style="stroke: #A80036; stroke-width: 1.5;" width="174" x="564.5" y="770.3203"/><text fill="#000000" font-family="sans-serif" font-size="14" lengthAdjust="spacingAndGlyphs" textLength="160" x="571.5" y="791.8535">engine : ExecutionEngine</text><rect fill="#FEFECE" filter="url(#f1mdb6tmx57o9v)" height="31.6094" style="stroke: #A80036; stroke-width: 1.5;" width="161" x="752.5" y="3"/><text fill="#000000" font-family="sans-serif" font-size="14" lengthAdjust="spacingAndGlyphs" textLength="147" x="759.5" y="24.5332">order : ReductionOrder</text><rect fill="#FEFECE" filter="url(#f1mdb6tmx57o9v)" height="31.6094" style="stroke: #A80036; stroke-width: 1.5;" width="161" x="752.5" y="770.3203"/><text fill="#000000" font-family="sans-serif" font-size="14" lengthAdjust="spacingAndGlyphs" textLength="147" x="759.5" y="791.8535">order : ReductionOrder</text><rect fill="#FEFECE" filter="url(#f1mdb6tmx57o9v)" height="31.6094" style="stroke: #A80036; stroke-width: 1.5;" width="158" x="927.5" y="770.3203"/><text fill="#000000" font-family="sans-serif" font-size="14" lengthAdjust="spacingAndGlyphs" textLength="144" x="934.5" y="791.8535">reducer : BetaReducer</text><rect fill="#FEFECE" filter="url(#f1mdb6tmx57o9v)" height="31.6094" style="stroke: #A80036; stroke-width: 1.5;" width="119" x="1099.5" y="3"/><text fill="#000000" font-family="sans-serif" font-size="14" lengthAdjust="spacingAndGlyphs" textLength="105" x="1106.5" y="24.5332">size : OutputSize</text><rect fill="#FEFECE" filter="url(#f1mdb6tmx57o9v)" height="31.6094" style="stroke: #A80036; stroke-width: 1.5;" width="119" x="1099.5" y="770.3203"/><text fill="#000000" font-family="sans-serif" font-size="14" lengthAdjust="spacingAndGlyphs" textLength="105" x="1106.5" y="791.8535">size : OutputSize</text><rect fill="#FEFECE" filter="url(#f1mdb6tmx57o9v)" height="31.6094" style="stroke: #A80036; stroke-width: 1.5;" width="188" x="1232.5" y="3"/><text fill="#000000" font-family="sans-serif" font-size="14" lengthAdjust="spacingAndGlyphs" textLength="174" x="1239.5" y="24.5332">currentTerm : LambdaTerm</text><rect fill="#FEFECE" filter="url(#f1mdb6tmx57o9v)" height="31.6094" style="stroke: #A80036; stroke-width: 1.5;" width="188" x="1232.5" y="770.3203"/><text fill="#000000" font-family="sans-serif" font-size="14" lengthAdjust="spacingAndGlyphs" textLength="174" x="1239.5" y="791.8535">currentTerm : LambdaTerm</text><rect fill="#FEFECE" filter="url(#f1mdb6tmx57o9v)" height="31.6094" style="stroke: #A80036; stroke-width: 1.5;" width="195" x="1434.5" y="770.3203"/><text fill="#000000" font-family="sans-serif" font-size="14" lengthAdjust="spacingAndGlyphs" textLength="181" x="1441.5" y="791.8535">reducedTerm : LambdaTerm</text><rect fill="#FEFECE" filter="url(#f1mdb6tmx57o9v)" height="31.6094" style="stroke: #A80036; stroke-width: 1.5;" width="202" x="1643.5" y="3"/><text fill="#000000" font-family="sans-serif" font-size="14" lengthAdjust="spacingAndGlyphs" textLength="188" x="1650.5" y="24.5332">observer : ExecutionObserver</text><rect fill="#FEFECE" filter="url(#f1mdb6tmx57o9v)" height="31.6094" style="stroke: #A80036; stroke-width: 1.5;" width="202" x="1643.5" y="770.3203"/><text fill="#000000" font-family="sans-serif" font-size="14" lengthAdjust="spacingAndGlyphs" textLength="188" x="1650.5" y="791.8535">observer : ExecutionObserver</text><rect fill="#FEFECE" filter="url(#f1mdb6tmx57o9v)" height="31.6094" style="stroke: #A80036; stroke-width: 1.5;" width="39" x="1941" y="3"/><text fill="#000000" font-family="sans-serif" font-size="14" lengthAdjust="spacingAndGlyphs" textLength="25" x="1948" y="24.5332">App</text><rect fill="#FEFECE" filter="url(#f1mdb6tmx57o9v)" height="31.6094" style="stroke: #A80036; stroke-width: 1.5;" width="39" x="1941" y="770.3203"/><text fill="#000000" font-family="sans-serif" font-size="14" lengthAdjust="spacingAndGlyphs" textLength="25" x="1948" y="791.8535">App</text><rect fill="#FFFFFF" filter="url(#f1mdb6tmx57o9v)" height="14.3516" style="stroke: #A80036; stroke-width: 1.0;" width="10" x="235.5" y="164.8281"/><rect fill="#FFFFFF" filter="url(#f1mdb6tmx57o9v)" height="544.1406" style="stroke: #A80036; stroke-width: 1.0;" width="10" x="235.5" y="209.1797"/><rect fill="#FFFFFF" filter="url(#f1mdb6tmx57o9v)" height="544.1406" style="stroke: #A80036; stroke-width: 1.0;" width="10" x="418" y="209.1797"/><rect fill="#FFFFFF" filter="url(#f1mdb6tmx57o9v)" height="289.6797" style="stroke: #A80036; stroke-width: 1.0;" width="10" x="648.5" y="239.5313"/><rect fill="#FFFFFF" filter="url(#f1mdb6tmx57o9v)" height="30.3516" style="stroke: #A80036; stroke-width: 1.0;" width="10" x="648.5" y="559.2109"/><rect fill="#FFFFFF" filter="url(#f1mdb6tmx57o9v)" height="30.3516" style="stroke: #A80036; stroke-width: 1.0;" width="10" x="830" y="269.8828"/><rect fill="#FFFFFF" filter="url(#f1mdb6tmx57o9v)" height="30.3516" style="stroke: #A80036; stroke-width: 1.0;" width="10" x="1156" y="484.5078"/><rect fill="#FFFFFF" filter="url(#f1mdb6tmx57o9v)" height="76.9609" style="stroke: #A80036; stroke-width: 1.0;" width="10" x="1323.5" y="377.1953"/><rect fill="#FFFFFF" filter="url(#f1mdb6tmx57o9v)" height="30.3516" style="stroke: #A80036; stroke-width: 1.0;" width="10" x="1529" y="650.2656"/><rect fill="#FFFFFF" filter="url(#f1mdb6tmx57o9v)" height="119.4063" style="stroke: #A80036; stroke-width: 1.0;" width="10" x="1741.5" y="619.9141"/><rect fill="#FFFFFF" filter="url(#f1mdb6tmx57o9v)" height="14.3516" style="stroke: #A80036; stroke-width: 1.0;" width="10" x="1957.5" y="710.9688"/><line style="stroke: #A80036; stroke-width: 1.0;" x1="562.5" x2="552.5" y1="71.6094" y2="67.6094"/><line style="stroke: #A80036; stroke-width: 1.0;" x1="562.5" x2="552.5" y1="71.6094" y2="75.6094"/><line style="stroke: #A80036; stroke-width: 1.0; stroke-dasharray: 2.0,2.0;" x1="54.5" x2="563.5" y1="71.6094" y2="71.6094"/><text fill="#000000" font-family="sans-serif" font-size="13" lengthAdjust="spacingAndGlyphs" textLength="226" x="61.5" y="67.1045">&lt;&lt;create&gt;&gt;(input, order, size, libraries)</text><rect fill="#FEFECE" filter="url(#f1mdb6tmx57o9v)" height="31.6094" style="stroke: #A80036; stroke-width: 1.5;" width="174" x="564.5" y="49.6094"/><text fill="#000000" font-family="sans-serif" font-size="14" lengthAdjust="spacingAndGlyphs" textLength="160" x="571.5" y="71.1426">engine : ExecutionEngine</text><line style="stroke: #A80036; stroke-width: 1.0;" x1="289.5" x2="279.5" y1="118.2188" y2="114.2188"/><line style="stroke: #A80036; stroke-width: 1.0;" x1="289.5" x2="279.5" y1="118.2188" y2="122.2188"/><line style="stroke: #A80036; stroke-width: 1.0; stroke-dasharray: 2.0,2.0;" x1="54.5" x2="290.5" y1="118.2188" y2="118.2188"/><text fill="#000000" font-family="sans-serif" font-size="13" lengthAdjust="spacingAndGlyphs" textLength="68" x="61.5" y="113.7139">&lt;&lt;create&gt;&gt;</text><rect fill="#FEFECE" filter="url(#f1mdb6tmx57o9v)" height="31.6094" style="stroke: #A80036; stroke-width: 1.5;" width="259" x="291.5" y="96.2188"/><text fill="#000000" font-family="sans-serif" font-size="14" lengthAdjust="spacingAndGlyphs" textLength="245" x="298.5" y="117.752">scheduledAction : RepeatingCommand</text><polygon fill="#A80036" points="223.5,160.8281,233.5,164.8281,223.5,168.8281,227.5,164.8281" style="stroke: #A80036; stroke-width: 1.0;"/><line style="stroke: #A80036; stroke-width: 1.0;" x1="54.5" x2="229.5" y1="164.8281" y2="164.8281"/><text fill="#000000" font-family="sans-serif" font-size="13" lengthAdjust="spacingAndGlyphs" textLength="162" x="61.5" y="160.3232">scheduleIncremental(action)</text><polygon fill="#A80036" points="65.5,175.1797,55.5,179.1797,65.5,183.1797,61.5,179.1797" style="stroke: #A80036; stroke-width: 1.0;"/><line style="stroke: #A80036; stroke-width: 1.0; stroke-dasharray: 2.0,2.0;" x1="59.5" x2="239.5" y1="179.1797" y2="179.1797"/><polygon fill="#A80036" points="406,205.1797,416,209.1797,406,213.1797,410,209.1797" style="stroke: #A80036; stroke-width: 1.0;"/><line style="stroke: #A80036; stroke-width: 1.0;" x1="245.5" x2="412" y1="209.1797" y2="209.1797"/><text fill="#000000" font-family="sans-serif" font-size="13" lengthAdjust="spacingAndGlyphs" textLength="54" x="252.5" y="204.6748">execute()</text><polygon fill="#A80036" points="636.5,235.5313,646.5,239.5313,636.5,243.5313,640.5,239.5313" style="stroke: #A80036; stroke-width: 1.0;"/><line style="stroke: #A80036; stroke-width: 1.0;" x1="428" x2="642.5" y1="239.5313" y2="239.5313"/><text fill="#000000" font-family="sans-serif" font-size="13" lengthAdjust="spacingAndGlyphs" textLength="79" x="435" y="235.0264">stepForward()</text><polygon fill="#A80036" points="818,265.8828,828,269.8828,818,273.8828,822,269.8828" style="stroke: #A80036; stroke-width: 1.0;"/><line style="stroke: #A80036; stroke-width: 1.0;" x1="658.5" x2="824" y1="269.8828" y2="269.8828"/><text fill="#000000" font-family="sans-serif" font-size="13" lengthAdjust="spacingAndGlyphs" textLength="102" x="665.5" y="265.3779">next(currentTerm)</text><polygon fill="#A80036" points="669.5,296.2344,659.5,300.2344,669.5,304.2344,665.5,300.2344" style="stroke: #A80036; stroke-width: 1.0;"/><line style="stroke: #A80036; stroke-width: 1.0; stroke-dasharray: 2.0,2.0;" x1="663.5" x2="834" y1="300.2344" y2="300.2344"/><text fill="#000000" font-family="sans-serif" font-size="13" lengthAdjust="spacingAndGlyphs" textLength="138" x="675.5" y="295.7295">nextRedex : Application</text><line style="stroke: #A80036; stroke-width: 1.0;" x1="925.5" x2="915.5" y1="330.5859" y2="326.5859"/><line style="stroke: #A80036; stroke-width: 1.0;" x1="925.5" x2="915.5" y1="330.5859" y2="334.5859"/><line style="stroke: #A80036; stroke-width: 1.0; stroke-dasharray: 2.0,2.0;" x1="658.5" x2="926.5" y1="330.5859" y2="330.5859"/><text fill="#000000" font-family="sans-serif" font-size="13" lengthAdjust="spacingAndGlyphs" textLength="145" x="665.5" y="326.0811">&lt;&lt;create&gt;&gt;(currentTerm)</text><rect fill="#FEFECE" filter="url(#f1mdb6tmx57o9v)" height="31.6094" style="stroke: #A80036; stroke-width: 1.5;" width="158" x="927.5" y="308.5859"/><text fill="#000000" font-family="sans-serif" font-size="14" lengthAdjust="spacingAndGlyphs" textLength="144" x="934.5" y="330.1191">reducer : BetaReducer</text><polygon fill="#A80036" points="1311.5,373.1953,1321.5,377.1953,1311.5,381.1953,1315.5,377.1953" style="stroke: #A80036; stroke-width: 1.0;"/><line style="stroke: #A80036; stroke-width: 1.0;" x1="658.5" x2="1317.5" y1="377.1953" y2="377.1953"/><text fill="#000000" font-family="sans-serif" font-size="13" lengthAdjust="spacingAndGlyphs" textLength="127" x="665.5" y="372.6904">acceptVisitor(reducer)</text><line style="stroke: #A80036; stroke-width: 1.0;" x1="1432.5" x2="1422.5" y1="407.5469" y2="403.5469"/><line style="stroke: #A80036; stroke-width: 1.0;" x1="1432.5" x2="1422.5" y1="407.5469" y2="411.5469"/><line style="stroke: #A80036; stroke-width: 1.0; stroke-dasharray: 2.0,2.0;" x1="1333.5" x2="1433.5" y1="407.5469" y2="407.5469"/><text fill="#000000" font-family="sans-serif" font-size="13" lengthAdjust="spacingAndGlyphs" textLength="68" x="1340.5" y="403.042">&lt;&lt;create&gt;&gt;</text><rect fill="#FEFECE" filter="url(#f1mdb6tmx57o9v)" height="31.6094" style="stroke: #A80036; stroke-width: 1.5;" width="195" x="1434.5" y="385.5469"/><text fill="#000000" font-family="sans-serif" font-size="14" lengthAdjust="spacingAndGlyphs" textLength="181" x="1441.5" y="407.0801">reducedTerm : LambdaTerm</text><polygon fill="#A80036" points="669.5,450.1563,659.5,454.1563,669.5,458.1563,665.5,454.1563" style="stroke: #A80036; stroke-width: 1.0;"/><line style="stroke: #A80036; stroke-width: 1.0; stroke-dasharray: 2.0,2.0;" x1="663.5" x2="1327.5" y1="454.1563" y2="454.1563"/><text fill="#000000" font-family="sans-serif" font-size="13" lengthAdjust="spacingAndGlyphs" textLength="75" x="675.5" y="449.6514">reducedTerm</text><polygon fill="#A80036" points="1144,480.5078,1154,484.5078,1144,488.5078,1148,484.5078" style="stroke: #A80036; stroke-width: 1.0;"/><line style="stroke: #A80036; stroke-width: 1.0;" x1="658.5" x2="1150" y1="484.5078" y2="484.5078"/><text fill="#000000" font-family="sans-serif" font-size="13" lengthAdjust="spacingAndGlyphs" textLength="138" x="665.5" y="480.0029">displayLive(currentStep)</text><polygon fill="#A80036" points="669.5,510.8594,659.5,514.8594,669.5,518.8594,665.5,514.8594" style="stroke: #A80036; stroke-width: 1.0;"/><line style="stroke: #A80036; stroke-width: 1.0; stroke-dasharray: 2.0,2.0;" x1="663.5" x2="1160" y1="514.8594" y2="514.8594"/><text fill="#000000" font-family="sans-serif" font-size="13" lengthAdjust="spacingAndGlyphs" textLength="138" x="675.5" y="510.3545">shouldDisplay : boolean</text><polygon fill="#A80036" points="439,525.2109,429,529.2109,439,533.2109,435,529.2109" style="stroke: #A80036; stroke-width: 1.0;"/><line style="stroke: #A80036; stroke-width: 1.0; stroke-dasharray: 2.0,2.0;" x1="433" x2="652.5" y1="529.2109" y2="529.2109"/><polygon fill="#A80036" points="636.5,555.2109,646.5,559.2109,636.5,563.2109,640.5,559.2109" style="stroke: #A80036; stroke-width: 1.0;"/><line style="stroke: #A80036; stroke-width: 1.0;" x1="428" x2="642.5" y1="559.2109" y2="559.2109"/><text fill="#000000" font-family="sans-serif" font-size="13" lengthAdjust="spacingAndGlyphs" textLength="51" x="435" y="554.7061">getLast()</text><polygon fill="#A80036" points="439,585.5625,429,589.5625,439,593.5625,435,589.5625" style="stroke: #A80036; stroke-width: 1.0;"/><line style="stroke: #A80036; stroke-width: 1.0; stroke-dasharray: 2.0,2.0;" x1="433" x2="652.5" y1="589.5625" y2="589.5625"/><text fill="#000000" font-family="sans-serif" font-size="13" lengthAdjust="spacingAndGlyphs" textLength="75" x="445" y="585.0576">reducedTerm</text><polygon fill="#A80036" points="1729.5,615.9141,1739.5,619.9141,1729.5,623.9141,1733.5,619.9141" style="stroke: #A80036; stroke-width: 1.0;"/><line style="stroke: #A80036; stroke-width: 1.0;" x1="428" x2="1735.5" y1="619.9141" y2="619.9141"/><text fill="#000000" font-family="sans-serif" font-size="13" lengthAdjust="spacingAndGlyphs" textLength="140" x="435" y="615.4092">pushTerm(reducedTerm)</text><polygon fill="#A80036" points="1550,646.2656,1540,650.2656,1550,654.2656,1546,650.2656" style="stroke: #A80036; stroke-width: 1.0;"/><line style="stroke: #A80036; stroke-width: 1.0;" x1="1544" x2="1740.5" y1="650.2656" y2="650.2656"/><text fill="#000000" font-family="sans-serif" font-size="13" lengthAdjust="spacingAndGlyphs" textLength="176" x="1556" y="645.7607">acceptVisitor(outputFormatter)</text><polygon fill="#A80036" points="1729.5,676.6172,1739.5,680.6172,1729.5,684.6172,1733.5,680.6172" style="stroke: #A80036; stroke-width: 1.0;"/><line style="stroke: #A80036; stroke-width: 1.0; stroke-dasharray: 2.0,2.0;" x1="1534" x2="1735.5" y1="680.6172" y2="680.6172"/><text fill="#000000" font-family="sans-serif" font-size="13" lengthAdjust="spacingAndGlyphs" textLength="77" x="1541" y="676.1123">outputFormat</text><polygon fill="#A80036" points="1945.5,706.9688,1955.5,710.9688,1945.5,714.9688,1949.5,710.9688" style="stroke: #A80036; stroke-width: 1.0;"/><line style="stroke: #A80036; stroke-width: 1.0;" x1="1751.5" x2="1951.5" y1="710.9688" y2="710.9688"/><text fill="#000000" font-family="sans-serif" font-size="13" lengthAdjust="spacingAndGlyphs" textLength="187" x="1758.5" y="706.4639">outputPanel().add(outputFormat)</text><polygon fill="#A80036" points="1762.5,721.3203,1752.5,725.3203,1762.5,729.3203,1758.5,725.3203" style="stroke: #A80036; stroke-width: 1.0;"/><line style="stroke: #A80036; stroke-width: 1.0; stroke-dasharray: 2.0,2.0;" x1="1756.5" x2="1961.5" y1="725.3203" y2="725.3203"/><polygon fill="#A80036" points="439,735.3203,429,739.3203,439,743.3203,435,739.3203" style="stroke: #A80036; stroke-width: 1.0;"/><line style="stroke: #A80036; stroke-width: 1.0; stroke-dasharray: 2.0,2.0;" x1="433" x2="1745.5" y1="739.3203" y2="739.3203"/><polygon fill="#A80036" points="251.5,749.3203,241.5,753.3203,251.5,757.3203,247.5,753.3203" style="stroke: #A80036; stroke-width: 1.0;"/><line style="stroke: #A80036; stroke-width: 1.0; stroke-dasharray: 2.0,2.0;" x1="245.5" x2="422" y1="753.3203" y2="753.3203"/><!--
@startuml
participant "e : Executor" as exec
participant "Scheduler" as sched
participant "scheduledAction : RepeatingCommand" as action
participant "engine : ExecutionEngine" as eng
participant "order : ReductionOrder" as order
participant "reducer : BetaReducer" as reducer
participant "size : OutputSize" as size
participant "currentTerm : LambdaTerm" as cterm
participant "reducedTerm : LambdaTerm" as rterm
participant "observer : ExecutionObserver" as observer
participant "App" as app

create eng
exec - ->> eng: <<create>>(input, order, size, libraries)
create action
exec - ->> action: <<create>>
exec -> sched: scheduleIncremental(action)
activate sched
exec <- - sched
deactivate sched
sched -> action: execute()
activate sched
activate action

action -> eng: stepForward()
activate eng
eng -> order: next(currentTerm)
activate order
eng <- - order: nextRedex : Application
deactivate order
create reducer
eng - ->> reducer: <<create>>(currentTerm)
eng -> cterm: acceptVisitor(reducer)
activate cterm
create rterm
cterm - ->> rterm: <<create>>
eng <- - cterm: reducedTerm
deactivate cterm
eng -> size: displayLive(currentStep)
activate size
eng <- - size: shouldDisplay : boolean
deactivate size
action <- - eng
deactivate eng

action -> eng: getLast()
activate eng
action <- - eng: reducedTerm
deactivate eng
action -> observer: pushTerm(reducedTerm)
activate observer
observer -> rterm: acceptVisitor(outputFormatter)
activate rterm
observer <- - rterm: outputFormat
deactivate rterm
observer -> app: outputPanel().add(outputFormat)
activate app
observer <- - app
deactivate app
action <- - observer
deactivate observer
sched <- - action
deactivate action
deactivate sched
@enduml

PlantUML version 1.2017.19(Sun Nov 12 12:46:22 CET 2017)
(GPL source distribution)
Java Runtime: Java(TM) SE Runtime Environment
JVM: Java HotSpot(TM) 64-Bit Server VM
Java Version: 1.8.0_141-b15
Operating System: Windows 10
OS Version: 10.0
Default Encoding: Cp1252
Language: de
Country: DE
--></g></svg>