<?xml version="1.0" encoding="UTF-8" standalone="no"?><svg xmlns="http://www.w3.org/2000/svg" xmlns:xlink="http://www.w3.org/1999/xlink" contentScriptType="application/ecmascript" contentStyleType="text/css" height="801px" preserveAspectRatio="none" style="width:1212px;height:801px;" version="1.1" viewBox="0 0 1212 801" width="1212px" zoomAndPan="magnify"><defs><filter height="300%" id="fdrbmfzrtqy1f" width="300%" x="-1" y="-1"><feGaussianBlur result="blurOut" stdDeviation="2.0"/><feColorMatrix in="blurOut" result="blurOut2" type="matrix" values="0 0 0 0 0 0 0 0 0 0 0 0 0 0 0 0 0 0 .4 0"/><feOffset dx="4.0" dy="4.0" in="blurOut2" result="blurOut3"/><feBlend in="SourceGraphic" in2="blurOut3" mode="normal"/></filter></defs><g><rect fill="#FFFFFF" filter="url(#fdrbmfzrtqy1f)" height="681.832" style="stroke: #A80036; stroke-width: 1.0;" width="10" x="93" y="69.4883"/><rect fill="#FFFFFF" filter="url(#fdrbmfzrtqy1f)" height="29.3105" style="stroke: #A80036; stroke-width: 1.0;" width="10" x="220" y="157.4199"/><rect fill="#FFFFFF" filter="url(#fdrbmfzrtqy1f)" height="29.3105" style="stroke: #A80036; stroke-width: 1.0;" width="10" x="220" y="216.041"/><rect fill="#FFFFFF" filter="url(#fdrbmfzrtqy1f)" height="29.3105" style="stroke: #A80036; stroke-width: 1.0;" width="10" x="220" y="274.6621"/><rect fill="#FFFFFF" filter="url(#fdrbmfzrtqy1f)" height="29.3105" style="stroke: #A80036; stroke-width: 1.0;" width="10" x="220" y="604.7676"/><rect fill="#FFFFFF" filter="url(#fdrbmfzrtqy1f)" height="29.3105" style="stroke: #A80036; stroke-width: 1.0;" width="10" x="295" y="98.7988"/><rect fill="#FFFFFF" filter="url(#fdrbmfzrtqy1f)" height="14.3105" style="stroke: #A80036; stroke-width: 1.0;" width="10" x="420" y="376.5938"/><rect fill="#FFFFFF" filter="url(#fdrbmfzrtqy1f)" height="14.3105" style="stroke: #A80036; stroke-width: 1.0;" width="10" x="613.5" y="478.5254"/><rect fill="#FFFFFF" filter="url(#fdrbmfzrtqy1f)" height="14.3105" style="stroke: #A80036; stroke-width: 1.0;" width="10" x="823.5" y="333.2832"/><rect fill="#FFFFFF" filter="url(#fdrbmfzrtqy1f)" height="29.3105" style="stroke: #A80036; stroke-width: 1.0;" width="10" x="1003" y="419.9043"/><rect fill="#FFFFFF" filter="url(#fdrbmfzrtqy1f)" height="29.3105" style="stroke: #A80036; stroke-width: 1.0;" width="10" x="1003" y="521.8359"/><rect fill="#FFFFFF" filter="url(#fdrbmfzrtqy1f)" height="29.3105" style="stroke: #A80036; stroke-width: 1.0;" width="10" x="1003" y="663.3887"/><rect fill="#FFFFFF" filter="url(#fdrbmfzrtqy1f)" height="14.3105" style="stroke: #A80036; stroke-width: 1.0;" width="10" x="1130" y="722.0098"/><rect fill="#FFFFFF" filter="url(#fdrbmfzrtqy1f)" height="177.8633" style="stroke: #000000; stroke-width: 2.0;" width="1188" x="13" y="566.457"/><line style="stroke: #A80036; stroke-width: 1.0; stroke-dasharray: 5.0,5.0;" x1="98" x2="98" y1="38.4883" y2="761.3203"/><line style="stroke: #A80036; stroke-width: 1.0; stroke-dasharray: 5.0,5.0;" x1="225" x2="225" y1="38.4883" y2="761.3203"/><line style="stroke: #A80036; stroke-width: 1.0; stroke-dasharray: 5.0,5.0;" x1="300" x2="300" y1="38.4883" y2="761.3203"/><line style="stroke: #A80036; stroke-width: 1.0; stroke-dasharray: 5.0,5.0;" x1="425" x2="425" y1="38.4883" y2="761.3203"/><line style="stroke: #A80036; stroke-width: 1.0; stroke-dasharray: 5.0,5.0;" x1="618" x2="618" y1="38.4883" y2="761.3203"/><line style="stroke: #A80036; stroke-width: 1.0; stroke-dasharray: 5.0,5.0;" x1="828" x2="828" y1="38.4883" y2="761.3203"/><line style="stroke: #A80036; stroke-width: 1.0; stroke-dasharray: 5.0,5.0;" x1="1008" x2="1008" y1="38.4883" y2="761.3203"/><line style="stroke: #A80036; stroke-width: 1.0; stroke-dasharray: 5.0,5.0;" x1="1135" x2="1135" y1="38.4883" y2="761.3203"/><rect fill="#FEFECE" filter="url(#fdrbmfzrtqy1f)" height="30.4883" style="stroke: #A80036; stroke-width: 1.5;" width="146" x="23" y="3"/><text fill="#000000" font-family="sans-serif" font-size="14" lengthAdjust="spacingAndGlyphs" textLength="132" x="30" y="23.5352">lEx1 : LoadExercise</text><rect fill="#FEFECE" filter="url(#fdrbmfzrtqy1f)" height="30.4883" style="stroke: #A80036; stroke-width: 1.5;" width="146" x="23" y="760.3203"/><text fill="#000000" font-family="sans-serif" font-size="14" lengthAdjust="spacingAndGlyphs" textLength="132" x="30" y="780.8555">lEx1 : LoadExercise</text><rect fill="#FEFECE" filter="url(#fdrbmfzrtqy1f)" height="30.4883" style="stroke: #A80036; stroke-width: 1.5;" width="80" x="183" y="3"/><text fill="#000000" font-family="sans-serif" font-size="14" lengthAdjust="spacingAndGlyphs" textLength="66" x="190" y="23.5352">app : App</text><rect fill="#FEFECE" filter="url(#fdrbmfzrtqy1f)" height="30.4883" style="stroke: #A80036; stroke-width: 1.5;" width="80" x="183" y="760.3203"/><text fill="#000000" font-family="sans-serif" font-size="14" lengthAdjust="spacingAndGlyphs" textLength="66" x="190" y="780.8555">app : App</text><rect fill="#FEFECE" filter="url(#fdrbmfzrtqy1f)" height="30.4883" style="stroke: #A80036; stroke-width: 1.5;" width="42" x="277" y="3"/><text fill="#000000" font-family="sans-serif" font-size="14" lengthAdjust="spacingAndGlyphs" textLength="28" x="284" y="23.5352">App</text><rect fill="#FEFECE" filter="url(#fdrbmfzrtqy1f)" height="30.4883" style="stroke: #A80036; stroke-width: 1.5;" width="42" x="277" y="760.3203"/><text fill="#000000" font-family="sans-serif" font-size="14" lengthAdjust="spacingAndGlyphs" textLength="28" x="284" y="780.8555">App</text><rect fill="#FEFECE" filter="url(#fdrbmfzrtqy1f)" height="30.4883" style="stroke: #A80036; stroke-width: 1.5;" width="180" x="333" y="3"/><text fill="#000000" font-family="sans-serif" font-size="14" lengthAdjust="spacingAndGlyphs" textLength="166" x="340" y="23.5352">exerciseField : TextField</text><rect fill="#FEFECE" filter="url(#fdrbmfzrtqy1f)" height="30.4883" style="stroke: #A80036; stroke-width: 1.5;" width="180" x="333" y="760.3203"/><text fill="#000000" font-family="sans-serif" font-size="14" lengthAdjust="spacingAndGlyphs" textLength="166" x="340" y="780.8555">exerciseField : TextField</text><rect fill="#FEFECE" filter="url(#fdrbmfzrtqy1f)" height="30.4883" style="stroke: #A80036; stroke-width: 1.5;" width="179" x="527" y="3"/><text fill="#000000" font-family="sans-serif" font-size="14" lengthAdjust="spacingAndGlyphs" textLength="165" x="534" y="23.5352">solutionField : TextField</text><rect fill="#FEFECE" filter="url(#fdrbmfzrtqy1f)" height="30.4883" style="stroke: #A80036; stroke-width: 1.5;" width="179" x="527" y="760.3203"/><text fill="#000000" font-family="sans-serif" font-size="14" lengthAdjust="spacingAndGlyphs" textLength="165" x="534" y="780.8555">solutionField : TextField</text><rect fill="#FEFECE" filter="url(#fdrbmfzrtqy1f)" height="30.4883" style="stroke: #A80036; stroke-width: 1.5;" width="213" x="720" y="3"/><text fill="#000000" font-family="sans-serif" font-size="14" lengthAdjust="spacingAndGlyphs" textLength="199" x="727" y="23.5352">alertWindow : PopUpTextBox</text><rect fill="#FEFECE" filter="url(#fdrbmfzrtqy1f)" height="30.4883" style="stroke: #A80036; stroke-width: 1.5;" width="213" x="720" y="760.3203"/><text fill="#000000" font-family="sans-serif" font-size="14" lengthAdjust="spacingAndGlyphs" textLength="199" x="727" y="780.8555">alertWindow : PopUpTextBox</text><rect fill="#FEFECE" filter="url(#fdrbmfzrtqy1f)" height="30.4883" style="stroke: #A80036; stroke-width: 1.5;" width="118" x="947" y="3"/><text fill="#000000" font-family="sans-serif" font-size="14" lengthAdjust="spacingAndGlyphs" textLength="104" x="954" y="23.5352">ex1 : Exercise1</text><rect fill="#FEFECE" filter="url(#fdrbmfzrtqy1f)" height="30.4883" style="stroke: #A80036; stroke-width: 1.5;" width="118" x="947" y="760.3203"/><text fill="#000000" font-family="sans-serif" font-size="14" lengthAdjust="spacingAndGlyphs" textLength="104" x="954" y="780.8555">ex1 : Exercise1</text><rect fill="#FEFECE" filter="url(#fdrbmfzrtqy1f)" height="30.4883" style="stroke: #A80036; stroke-width: 1.5;" width="108" x="1079" y="3"/><text fill="#000000" font-family="sans-serif" font-size="14" lengthAdjust="spacingAndGlyphs" textLength="94" x="1086" y="23.5352">editor : Editor</text><rect fill="#FEFECE" filter="url(#fdrbmfzrtqy1f)" height="30.4883" style="stroke: #A80036; stroke-width: 1.5;" width="108" x="1079" y="760.3203"/><text fill="#000000" font-family="sans-serif" font-size="14" lengthAdjust="spacingAndGlyphs" textLength="94" x="1086" y="780.8555">editor : Editor</text><rect fill="#FFFFFF" filter="url(#fdrbmfzrtqy1f)" height="681.832" style="stroke: #A80036; stroke-width: 1.0;" width="10" x="93" y="69.4883"/><rect fill="#FFFFFF" filter="url(#fdrbmfzrtqy1f)" height="29.3105" style="stroke: #A80036; stroke-width: 1.0;" width="10" x="220" y="157.4199"/><rect fill="#FFFFFF" filter="url(#fdrbmfzrtqy1f)" height="29.3105" style="stroke: #A80036; stroke-width: 1.0;" width="10" x="220" y="216.041"/><rect fill="#FFFFFF" filter="url(#fdrbmfzrtqy1f)" height="29.3105" style="stroke: #A80036; stroke-width: 1.0;" width="10" x="220" y="274.6621"/><rect fill="#FFFFFF" filter="url(#fdrbmfzrtqy1f)" height="29.3105" style="stroke: #A80036; stroke-width: 1.0;" width="10" x="220" y="604.7676"/><rect fill="#FFFFFF" filter="url(#fdrbmfzrtqy1f)" height="29.3105" style="stroke: #A80036; stroke-width: 1.0;" width="10" x="295" y="98.7988"/><rect fill="#FFFFFF" filter="url(#fdrbmfzrtqy1f)" height="14.3105" style="stroke: #A80036; stroke-width: 1.0;" width="10" x="420" y="376.5938"/><rect fill="#FFFFFF" filter="url(#fdrbmfzrtqy1f)" height="14.3105" style="stroke: #A80036; stroke-width: 1.0;" width="10" x="613.5" y="478.5254"/><rect fill="#FFFFFF" filter="url(#fdrbmfzrtqy1f)" height="14.3105" style="stroke: #A80036; stroke-width: 1.0;" width="10" x="823.5" y="333.2832"/><rect fill="#FFFFFF" filter="url(#fdrbmfzrtqy1f)" height="29.3105" style="stroke: #A80036; stroke-width: 1.0;" width="10" x="1003" y="419.9043"/><rect fill="#FFFFFF" filter="url(#fdrbmfzrtqy1f)" height="29.3105" style="stroke: #A80036; stroke-width: 1.0;" width="10" x="1003" y="521.8359"/><rect fill="#FFFFFF" filter="url(#fdrbmfzrtqy1f)" height="29.3105" style="stroke: #A80036; stroke-width: 1.0;" width="10" x="1003" y="663.3887"/><rect fill="#FFFFFF" filter="url(#fdrbmfzrtqy1f)" height="14.3105" style="stroke: #A80036; stroke-width: 1.0;" width="10" x="1130" y="722.0098"/><ellipse cx="10.5" cy="68.7383" fill="none" rx="4" ry="4" style="stroke: #A80036; stroke-width: 1.5;"/><polygon fill="#A80036" points="81,65.4883,91,69.4883,81,73.4883,85,69.4883" style="stroke: #A80036; stroke-width: 1.0;"/><line style="stroke: #A80036; stroke-width: 1.0;" x1="15" x2="87" y1="69.4883" y2="69.4883"/><text fill="#000000" font-family="sans-serif" font-size="13" lengthAdjust="spacingAndGlyphs" textLength="29" x="18" y="65.0566">run()</text><polygon fill="#A80036" points="283,94.7988,293,98.7988,283,102.7988,287,98.7988" style="stroke: #A80036; stroke-width: 1.0;"/><line style="stroke: #A80036; stroke-width: 1.0;" x1="103" x2="289" y1="98.7988" y2="98.7988"/><text fill="#000000" font-family="sans-serif" font-size="13" lengthAdjust="spacingAndGlyphs" textLength="28" x="110" y="94.3672">get()</text><polygon fill="#A80036" points="114,124.1094,104,128.1094,114,132.1094,110,128.1094" style="stroke: #A80036; stroke-width: 1.0;"/><line style="stroke: #A80036; stroke-width: 1.0; stroke-dasharray: 2.0,2.0;" x1="108" x2="299" y1="128.1094" y2="128.1094"/><text fill="#000000" font-family="sans-serif" font-size="13" lengthAdjust="spacingAndGlyphs" textLength="23" x="120" y="123.6777">app</text><polygon fill="#A80036" points="208,153.4199,218,157.4199,208,161.4199,212,157.4199" style="stroke: #A80036; stroke-width: 1.0;"/><line style="stroke: #A80036; stroke-width: 1.0;" x1="103" x2="214" y1="157.4199" y2="157.4199"/><text fill="#000000" font-family="sans-serif" font-size="13" lengthAdjust="spacingAndGlyphs" textLength="85" x="110" y="152.9883">alertWindow()</text><polygon fill="#A80036" points="114,182.7305,104,186.7305,114,190.7305,110,186.7305" style="stroke: #A80036; stroke-width: 1.0;"/><line style="stroke: #A80036; stroke-width: 1.0; stroke-dasharray: 2.0,2.0;" x1="108" x2="224" y1="186.7305" y2="186.7305"/><text fill="#000000" font-family="sans-serif" font-size="13" lengthAdjust="spacingAndGlyphs" textLength="77" x="120" y="182.2988">alertWindow</text><polygon fill="#A80036" points="208,212.041,218,216.041,208,220.041,212,216.041" style="stroke: #A80036; stroke-width: 1.0;"/><line style="stroke: #A80036; stroke-width: 1.0;" x1="103" x2="214" y1="216.041" y2="216.041"/><text fill="#000000" font-family="sans-serif" font-size="13" lengthAdjust="spacingAndGlyphs" textLength="90" x="110" y="211.6094">exerciseField()</text><polygon fill="#A80036" points="114,241.3516,104,245.3516,114,249.3516,110,245.3516" style="stroke: #A80036; stroke-width: 1.0;"/><line style="stroke: #A80036; stroke-width: 1.0; stroke-dasharray: 2.0,2.0;" x1="108" x2="224" y1="245.3516" y2="245.3516"/><text fill="#000000" font-family="sans-serif" font-size="13" lengthAdjust="spacingAndGlyphs" textLength="82" x="120" y="240.9199">exerciseField</text><polygon fill="#A80036" points="208,270.6621,218,274.6621,208,278.6621,212,274.6621" style="stroke: #A80036; stroke-width: 1.0;"/><line style="stroke: #A80036; stroke-width: 1.0;" x1="103" x2="214" y1="274.6621" y2="274.6621"/><text fill="#000000" font-family="sans-serif" font-size="13" lengthAdjust="spacingAndGlyphs" textLength="90" x="110" y="270.2305">solutionField()</text><polygon fill="#A80036" points="114,299.9727,104,303.9727,114,307.9727,110,303.9727" style="stroke: #A80036; stroke-width: 1.0;"/><line style="stroke: #A80036; stroke-width: 1.0; stroke-dasharray: 2.0,2.0;" x1="108" x2="224" y1="303.9727" y2="303.9727"/><text fill="#000000" font-family="sans-serif" font-size="13" lengthAdjust="spacingAndGlyphs" textLength="82" x="120" y="299.541">solutionField</text><polygon fill="#A80036" points="811.5,329.2832,821.5,333.2832,811.5,337.2832,815.5,333.2832" style="stroke: #A80036; stroke-width: 1.0;"/><line style="stroke: #A80036; stroke-width: 1.0;" x1="103" x2="817.5" y1="333.2832" y2="333.2832"/><text fill="#000000" font-family="sans-serif" font-size="13" lengthAdjust="spacingAndGlyphs" textLength="35" x="110" y="328.8516">hide()</text><polygon fill="#A80036" points="114,343.5938,104,347.5938,114,351.5938,110,347.5938" style="stroke: #A80036; stroke-width: 1.0;"/><line style="stroke: #A80036; stroke-width: 1.0; stroke-dasharray: 2.0,2.0;" x1="108" x2="827.5" y1="347.5938" y2="347.5938"/><polygon fill="#A80036" points="408,372.5938,418,376.5938,408,380.5938,412,376.5938" style="stroke: #A80036; stroke-width: 1.0;"/><line style="stroke: #A80036; stroke-width: 1.0;" x1="103" x2="414" y1="376.5938" y2="376.5938"/><text fill="#000000" font-family="sans-serif" font-size="13" lengthAdjust="spacingAndGlyphs" textLength="41" x="110" y="372.1621">show()</text><polygon fill="#A80036" points="114,386.9043,104,390.9043,114,394.9043,110,390.9043" style="stroke: #A80036; stroke-width: 1.0;"/><line style="stroke: #A80036; stroke-width: 1.0; stroke-dasharray: 2.0,2.0;" x1="108" x2="424" y1="390.9043" y2="390.9043"/><polygon fill="#A80036" points="991,415.9043,1001,419.9043,991,423.9043,995,419.9043" style="stroke: #A80036; stroke-width: 1.0;"/><line style="stroke: #A80036; stroke-width: 1.0;" x1="103" x2="997" y1="419.9043" y2="419.9043"/><text fill="#000000" font-family="sans-serif" font-size="13" lengthAdjust="spacingAndGlyphs" textLength="80" x="110" y="415.4727">getSolution()</text><polygon fill="#A80036" points="114,445.2148,104,449.2148,114,453.2148,110,449.2148" style="stroke: #A80036; stroke-width: 1.0;"/><line style="stroke: #A80036; stroke-width: 1.0; stroke-dasharray: 2.0,2.0;" x1="108" x2="1007" y1="449.2148" y2="449.2148"/><text fill="#000000" font-family="sans-serif" font-size="13" lengthAdjust="spacingAndGlyphs" textLength="101" x="120" y="444.7832">solution : String</text><polygon fill="#A80036" points="601.5,474.5254,611.5,478.5254,601.5,482.5254,605.5,478.5254" style="stroke: #A80036; stroke-width: 1.0;"/><line style="stroke: #A80036; stroke-width: 1.0;" x1="103" x2="607.5" y1="478.5254" y2="478.5254"/><text fill="#000000" font-family="sans-serif" font-size="13" lengthAdjust="spacingAndGlyphs" textLength="132" x="110" y="474.0938">write(String solution)</text><polygon fill="#A80036" points="114,488.8359,104,492.8359,114,496.8359,110,492.8359" style="stroke: #A80036; stroke-width: 1.0;"/><line style="stroke: #A80036; stroke-width: 1.0; stroke-dasharray: 2.0,2.0;" x1="108" x2="617.5" y1="492.8359" y2="492.8359"/><polygon fill="#A80036" points="991,517.8359,1001,521.8359,991,525.8359,995,521.8359" style="stroke: #A80036; stroke-width: 1.0;"/><line style="stroke: #A80036; stroke-width: 1.0;" x1="103" x2="997" y1="521.8359" y2="521.8359"/><text fill="#000000" font-family="sans-serif" font-size="13" lengthAdjust="spacingAndGlyphs" textLength="117" x="110" y="517.4043">hasPredefinitions()</text><polygon fill="#A80036" points="114,547.1465,104,551.1465,114,555.1465,110,551.1465" style="stroke: #A80036; stroke-width: 1.0;"/><line style="stroke: #A80036; stroke-width: 1.0; stroke-dasharray: 2.0,2.0;" x1="108" x2="1007" y1="551.1465" y2="551.1465"/><text fill="#000000" font-family="sans-serif" font-size="13" lengthAdjust="spacingAndGlyphs" textLength="69" x="120" y="546.7148">b : Boolean</text><rect fill="none" height="177.8633" style="stroke: #000000; stroke-width: 2.0;" width="1188" x="13" y="566.457"/><polygon fill="#EEEEEE" points="13,566.457,75,566.457,75,573.457,65,583.457,13,583.457,13,566.457" style="stroke: #000000; stroke-width: 2.0;"/><text fill="#000000" font-family="sans-serif" font-size="13" font-weight="bold" lengthAdjust="spacingAndGlyphs" textLength="17" x="28" y="580.0254">alt</text><text fill="#000000" font-family="sans-serif" font-size="11" font-weight="bold" lengthAdjust="spacingAndGlyphs" textLength="54" x="90" y="579.0918">[b = true]</text><polygon fill="#A80036" points="208,600.7676,218,604.7676,208,608.7676,212,604.7676" style="stroke: #A80036; stroke-width: 1.0;"/><line style="stroke: #A80036; stroke-width: 1.0;" x1="103" x2="214" y1="604.7676" y2="604.7676"/><text fill="#000000" font-family="sans-serif" font-size="13" lengthAdjust="spacingAndGlyphs" textLength="45" x="110" y="600.3359">editor()</text><polygon fill="#A80036" points="114,630.0781,104,634.0781,114,638.0781,110,634.0781" style="stroke: #A80036; stroke-width: 1.0;"/><line style="stroke: #A80036; stroke-width: 1.0; stroke-dasharray: 2.0,2.0;" x1="108" x2="224" y1="634.0781" y2="634.0781"/><text fill="#000000" font-family="sans-serif" font-size="13" lengthAdjust="spacingAndGlyphs" textLength="37" x="120" y="629.6465">editor</text><polygon fill="#A80036" points="991,659.3887,1001,663.3887,991,667.3887,995,663.3887" style="stroke: #A80036; stroke-width: 1.0;"/><line style="stroke: #A80036; stroke-width: 1.0;" x1="103" x2="997" y1="663.3887" y2="663.3887"/><text fill="#000000" font-family="sans-serif" font-size="13" lengthAdjust="spacingAndGlyphs" textLength="115" x="110" y="658.957">getPredefinitions()</text><polygon fill="#A80036" points="114,688.6992,104,692.6992,114,696.6992,110,692.6992" style="stroke: #A80036; stroke-width: 1.0;"/><line style="stroke: #A80036; stroke-width: 1.0; stroke-dasharray: 2.0,2.0;" x1="108" x2="1007" y1="692.6992" y2="692.6992"/><text fill="#000000" font-family="sans-serif" font-size="13" lengthAdjust="spacingAndGlyphs" textLength="137" x="120" y="688.2676">predefinitions : String</text><polygon fill="#A80036" points="1118,718.0098,1128,722.0098,1118,726.0098,1122,722.0098" style="stroke: #A80036; stroke-width: 1.0;"/><line style="stroke: #A80036; stroke-width: 1.0;" x1="103" x2="1124" y1="722.0098" y2="722.0098"/><text fill="#000000" font-family="sans-serif" font-size="13" lengthAdjust="spacingAndGlyphs" textLength="168" x="110" y="717.5781">write(String predefinitions)</text><polygon fill="#A80036" points="114,732.3203,104,736.3203,114,740.3203,110,736.3203" style="stroke: #A80036; stroke-width: 1.0;"/><line style="stroke: #A80036; stroke-width: 1.0; stroke-dasharray: 2.0,2.0;" x1="108" x2="1134" y1="736.3203" y2="736.3203"/><!--
@startuml
participant "lEx1 : LoadExercise" as sEx1
participant "app : App" as app
participant "App" as sApp
participant "exerciseField : TextField" as exerciseField
participant "solutionField : TextField" as solutionField
participant "alertWindow : PopUpTextBox" as alertWindow
participant "ex1 : Exercise1" as ex1
participant "editor : Editor" as editor

[o-> sEx1: run()
activate sEx1
sEx1 -> sApp: get()
activate sApp
sEx1 <- - sApp: app
deactivate sApp
sEx1 -> app: alertWindow()
activate app
sEx1 <- - app: alertWindow
deactivate app
sEx1 -> app: exerciseField()
activate app
sEx1 <- - app: exerciseField
deactivate app
sEx1 -> app: solutionField()
activate app
sEx1 <- - app: solutionField
deactivate app

sEx1 -> alertWindow: hide()
activate alertWindow
sEx1 <- - alertWindow
deactivate alertWindow
sEx1 -> exerciseField: show()
activate exerciseField
sEx1 <- - exerciseField
deactivate exerciseField
sEx1 -> ex1: getSolution()
activate ex1
sEx1 <- - ex1: solution : String
deactivate ex1
sEx1 -> solutionField: write(String solution)
activate solutionField
sEx1 <- - solutionField
deactivate solutionField

sEx1 -> ex1: hasPredefinitions()
activate ex1
sEx1 <- - ex1: b : Boolean
deactivate ex1

alt b = true

sEx1 -> app: editor()
activate app
sEx1 <- - app: editor
deactivate app
sEx1 -> ex1: getPredefinitions()
activate ex1
sEx1 <- - ex1: predefinitions : String
deactivate ex1
sEx1 -> editor: write(String predefinitions)
activate editor
sEx1 <- - editor
deactivate editor

end

deactivate sEx1

@enduml

PlantUML version 1.2018.00(Thu Jan 04 20:42:56 CET 2018)
(GPL source distribution)
Java Runtime: Java(TM) SE Runtime Environment
JVM: Java HotSpot(TM) 64-Bit Server VM
Java Version: 1.8.0_112-b16
Operating System: Mac OS X
OS Version: 10.13.2
Default Encoding: UTF-8
Language: de
Country: DE
--></g></svg>