<?xml version="1.0" encoding="UTF-8" standalone="yes"?><svg xmlns="http://www.w3.org/2000/svg" xmlns:xlink="http://www.w3.org/1999/xlink" height="606px" style="width:1081px;height:606px;" version="1.1" viewBox="0 0 1081 606" width="1081px"><defs><filter height="300%" id="f1" width="300%" x="-1" y="-1"><feGaussianBlur result="blurOut" stdDeviation="2.0"/><feColorMatrix in="blurOut" result="blurOut2" type="matrix" values="0 0 0 0 0 0 0 0 0 0 0 0 0 0 0 0 0 0 .4 0"/><feOffset dx="4.0" dy="4.0" in="blurOut2" result="blurOut3"/><feBlend in="SourceGraphic" in2="blurOut3" mode="normal"/></filter></defs><g><rect fill="#FFFFFF" filter="url(#f1)" height="495.6953" style="stroke: #A80036; stroke-width: 1.0;" width="10" x="80.5" y="54.2969"/><rect fill="#FFFFFF" filter="url(#f1)" height="466.6953" style="stroke: #A80036; stroke-width: 1.0;" width="10" x="250.5" y="83.2969"/><rect fill="#FFFFFF" filter="url(#f1)" height="29.1328" style="stroke: #A80036; stroke-width: 1.0;" width="10" x="385" y="253.0938"/><rect fill="#FFFFFF" filter="url(#f1)" height="14.1328" style="stroke: #A80036; stroke-width: 1.0;" width="10" x="545.5" y="311.3594"/><rect fill="#FFFFFF" filter="url(#f1)" height="14.1328" style="stroke: #A80036; stroke-width: 1.0;" width="10" x="545.5" y="399.7891"/><rect fill="#FFFFFF" filter="url(#f1)" height="14.1328" style="stroke: #A80036; stroke-width: 1.0;" width="10" x="545.5" y="442.9219"/><rect fill="#FFFFFF" filter="url(#f1)" height="29.1328" style="stroke: #A80036; stroke-width: 1.0;" width="10" x="753" y="112.4297"/><rect fill="#FFFFFF" filter="url(#f1)" height="29.1328" style="stroke: #A80036; stroke-width: 1.0;" width="10" x="874.5" y="194.8281"/><rect fill="#FFFFFF" filter="url(#f1)" height="14.1328" style="stroke: #A80036; stroke-width: 1.0;" width="10" x="982" y="514.8594"/><rect fill="#FFFFFF" filter="url(#f1)" height="380.2969" style="stroke: #000000; stroke-width: 2.0;" width="909" x="163" y="156.6953"/><rect fill="#FEFECE" filter="url(#f1)" height="30.2969" style="stroke: #A80036; stroke-width: 1.5;" width="146" x="912" y="333.4922"/><text fill="#000000" font-family="sans-serif" font-size="14" lengthAdjust="spacingAndGlyphs" textLength="132" x="919" y="353.4873">lEx1 : LoadExercise</text><rect fill="#FFFFFF" height="71.9375" style="stroke: none; stroke-width: 1.0;" width="909" x="163" y="465.0547"/><line style="stroke: #A80036; stroke-width: 1.0; stroke-dasharray: 5.0,5.0;" x1="85" x2="85" y1="38.2969" y2="567.9922"/><line style="stroke: #A80036; stroke-width: 1.0; stroke-dasharray: 5.0,5.0;" x1="255" x2="255" y1="38.2969" y2="567.9922"/><line style="stroke: #A80036; stroke-width: 1.0; stroke-dasharray: 5.0,5.0;" x1="390" x2="390" y1="38.2969" y2="567.9922"/><line style="stroke: #A80036; stroke-width: 1.0; stroke-dasharray: 5.0,5.0;" x1="550" x2="550" y1="38.2969" y2="567.9922"/><line style="stroke: #A80036; stroke-width: 1.0; stroke-dasharray: 5.0,5.0;" x1="758" x2="758" y1="38.2969" y2="567.9922"/><line style="stroke: #A80036; stroke-width: 1.0; stroke-dasharray: 5.0,5.0;" x1="879" x2="879" y1="38.2969" y2="567.9922"/><line style="stroke: #A80036; stroke-width: 1.0; stroke-dasharray: 5.0,5.0;" x1="987" x2="987" y1="366.1406" y2="567.9922"/><rect fill="#FEFECE" filter="url(#f1)" height="30.2969" style="stroke: #A80036; stroke-width: 1.5;" width="151" x="8" y="3"/><text fill="#000000" font-family="sans-serif" font-size="14" lengthAdjust="spacingAndGlyphs" textLength="137" x="15" y="22.9951">menu : PopUpPanel</text><rect fill="#FEFECE" filter="url(#f1)" height="30.2969" style="stroke: #A80036; stroke-width: 1.5;" width="151" x="8" y="566.9922"/><text fill="#000000" font-family="sans-serif" font-size="14" lengthAdjust="spacingAndGlyphs" textLength="137" x="15" y="586.9873">menu : PopUpPanel</text><rect fill="#FEFECE" filter="url(#f1)" height="30.2969" style="stroke: #A80036; stroke-width: 1.5;" width="161" x="173" y="3"/><text fill="#000000" font-family="sans-serif" font-size="14" lengthAdjust="spacingAndGlyphs" textLength="147" x="180" y="22.9951">sEx1 : SelectExercise</text><rect fill="#FEFECE" filter="url(#f1)" height="30.2969" style="stroke: #A80036; stroke-width: 1.5;" width="161" x="173" y="566.9922"/><text fill="#000000" font-family="sans-serif" font-size="14" lengthAdjust="spacingAndGlyphs" textLength="147" x="180" y="586.9873">sEx1 : SelectExercise</text><rect fill="#FEFECE" filter="url(#f1)" height="30.2969" style="stroke: #A80036; stroke-width: 1.5;" width="80" x="348" y="3"/><text fill="#000000" font-family="sans-serif" font-size="14" lengthAdjust="spacingAndGlyphs" textLength="66" x="355" y="22.9951">app : App</text><rect fill="#FEFECE" filter="url(#f1)" height="30.2969" style="stroke: #A80036; stroke-width: 1.5;" width="80" x="348" y="566.9922"/><text fill="#000000" font-family="sans-serif" font-size="14" lengthAdjust="spacingAndGlyphs" textLength="66" x="355" y="586.9873">app : App</text><rect fill="#FEFECE" filter="url(#f1)" height="30.2969" style="stroke: #A80036; stroke-width: 1.5;" width="213" x="442" y="3"/><text fill="#000000" font-family="sans-serif" font-size="14" lengthAdjust="spacingAndGlyphs" textLength="199" x="449" y="22.9951">alertWindow : PopUpTextBox</text><rect fill="#FEFECE" filter="url(#f1)" height="30.2969" style="stroke: #A80036; stroke-width: 1.5;" width="213" x="442" y="566.9922"/><text fill="#000000" font-family="sans-serif" font-size="14" lengthAdjust="spacingAndGlyphs" textLength="199" x="449" y="586.9873">alertWindow : PopUpTextBox</text><rect fill="#FEFECE" filter="url(#f1)" height="30.2969" style="stroke: #A80036; stroke-width: 1.5;" width="174" x="669" y="3"/><text fill="#000000" font-family="sans-serif" font-size="14" lengthAdjust="spacingAndGlyphs" textLength="160" x="676" y="22.9951">ex1 : ConcreteExercise</text><rect fill="#FEFECE" filter="url(#f1)" height="30.2969" style="stroke: #A80036; stroke-width: 1.5;" width="174" x="669" y="566.9922"/><text fill="#000000" font-family="sans-serif" font-size="14" lengthAdjust="spacingAndGlyphs" textLength="160" x="676" y="586.9873">ex1 : ConcreteExercise</text><rect fill="#FEFECE" filter="url(#f1)" height="30.2969" style="stroke: #A80036; stroke-width: 1.5;" width="41" x="857" y="3"/><text fill="#000000" font-family="sans-serif" font-size="14" lengthAdjust="spacingAndGlyphs" textLength="27" x="864" y="22.9951">App</text><rect fill="#FEFECE" filter="url(#f1)" height="30.2969" style="stroke: #A80036; stroke-width: 1.5;" width="41" x="857" y="566.9922"/><text fill="#000000" font-family="sans-serif" font-size="14" lengthAdjust="spacingAndGlyphs" textLength="27" x="864" y="586.9873">App</text><rect fill="#FEFECE" filter="url(#f1)" height="30.2969" style="stroke: #A80036; stroke-width: 1.5;" width="146" x="912" y="566.9922"/><text fill="#000000" font-family="sans-serif" font-size="14" lengthAdjust="spacingAndGlyphs" textLength="132" x="919" y="586.9873">lEx1 : LoadExercise</text><rect fill="#FFFFFF" filter="url(#f1)" height="495.6953" style="stroke: #A80036; stroke-width: 1.0;" width="10" x="80.5" y="54.2969"/><rect fill="#FFFFFF" filter="url(#f1)" height="466.6953" style="stroke: #A80036; stroke-width: 1.0;" width="10" x="250.5" y="83.2969"/><rect fill="#FFFFFF" filter="url(#f1)" height="29.1328" style="stroke: #A80036; stroke-width: 1.0;" width="10" x="385" y="253.0938"/><rect fill="#FFFFFF" filter="url(#f1)" height="14.1328" style="stroke: #A80036; stroke-width: 1.0;" width="10" x="545.5" y="311.3594"/><rect fill="#FFFFFF" filter="url(#f1)" height="14.1328" style="stroke: #A80036; stroke-width: 1.0;" width="10" x="545.5" y="399.7891"/><rect fill="#FFFFFF" filter="url(#f1)" height="14.1328" style="stroke: #A80036; stroke-width: 1.0;" width="10" x="545.5" y="442.9219"/><rect fill="#FFFFFF" filter="url(#f1)" height="29.1328" style="stroke: #A80036; stroke-width: 1.0;" width="10" x="753" y="112.4297"/><rect fill="#FFFFFF" filter="url(#f1)" height="29.1328" style="stroke: #A80036; stroke-width: 1.0;" width="10" x="874.5" y="194.8281"/><rect fill="#FFFFFF" filter="url(#f1)" height="14.1328" style="stroke: #A80036; stroke-width: 1.0;" width="10" x="982" y="514.8594"/><ellipse cx="10.5" cy="53.5469" fill="none" rx="4" ry="4" style="stroke: #A80036; stroke-width: 1.5;"/><polygon fill="#A80036" points="68.5,50.2969,78.5,54.2969,68.5,58.2969,72.5,54.2969" style="stroke: #A80036; stroke-width: 1.0;"/><line style="stroke: #A80036; stroke-width: 1.0;" x1="15" x2="74.5" y1="54.2969" y2="54.2969"/><polygon fill="#A80036" points="238.5,79.2969,248.5,83.2969,238.5,87.2969,242.5,83.2969" style="stroke: #A80036; stroke-width: 1.0;"/><line style="stroke: #A80036; stroke-width: 1.0;" x1="90.5" x2="244.5" y1="83.2969" y2="83.2969"/><text fill="#000000" font-family="sans-serif" font-size="13" lengthAdjust="spacingAndGlyphs" textLength="31" x="97.5" y="78.3638">run()</text><polygon fill="#A80036" points="741,108.4297,751,112.4297,741,116.4297,745,112.4297" style="stroke: #A80036; stroke-width: 1.0;"/><line style="stroke: #A80036; stroke-width: 1.0;" x1="260.5" x2="747" y1="112.4297" y2="112.4297"/><text fill="#000000" font-family="sans-serif" font-size="13" lengthAdjust="spacingAndGlyphs" textLength="119" x="267.5" y="107.4966">hasPredefinitions()</text><polygon fill="#A80036" points="271.5,137.5625,261.5,141.5625,271.5,145.5625,267.5,141.5625" style="stroke: #A80036; stroke-width: 1.0;"/><line style="stroke: #A80036; stroke-width: 1.0; stroke-dasharray: 2.0,2.0;" x1="265.5" x2="757" y1="141.5625" y2="141.5625"/><text fill="#000000" font-family="sans-serif" font-size="13" lengthAdjust="spacingAndGlyphs" textLength="72" x="277.5" y="136.6294">b : Boolean</text><rect fill="none" height="380.2969" style="stroke: #000000; stroke-width: 2.0;" width="909" x="163" y="156.6953"/><polygon fill="#EEEEEE" points="163,156.6953,227,156.6953,227,163.6953,217,173.6953,163,173.6953,163,156.6953" style="stroke: #000000; stroke-width: 2.0;"/><text fill="#000000" font-family="sans-serif" font-size="13" font-weight="bold" lengthAdjust="spacingAndGlyphs" textLength="19" x="178" y="169.7622">alt</text><text fill="#000000" font-family="sans-serif" font-size="11" font-weight="bold" lengthAdjust="spacingAndGlyphs" textLength="61" x="242" y="168.9058">[b = true]</text><polygon fill="#A80036" points="862.5,190.8281,872.5,194.8281,862.5,198.8281,866.5,194.8281" style="stroke: #A80036; stroke-width: 1.0;"/><line style="stroke: #A80036; stroke-width: 1.0;" x1="260.5" x2="868.5" y1="194.8281" y2="194.8281"/><text fill="#000000" font-family="sans-serif" font-size="13" lengthAdjust="spacingAndGlyphs" textLength="31" x="267.5" y="189.895">get()</text><polygon fill="#A80036" points="271.5,219.9609,261.5,223.9609,271.5,227.9609,267.5,223.9609" style="stroke: #A80036; stroke-width: 1.0;"/><line style="stroke: #A80036; stroke-width: 1.0; stroke-dasharray: 2.0,2.0;" x1="265.5" x2="878.5" y1="223.9609" y2="223.9609"/><text fill="#000000" font-family="sans-serif" font-size="13" lengthAdjust="spacingAndGlyphs" textLength="24" x="277.5" y="219.0278">app</text><polygon fill="#A80036" points="373,249.0938,383,253.0938,373,257.0938,377,253.0938" style="stroke: #A80036; stroke-width: 1.0;"/><line style="stroke: #A80036; stroke-width: 1.0;" x1="260.5" x2="379" y1="253.0938" y2="253.0938"/><text fill="#000000" font-family="sans-serif" font-size="13" lengthAdjust="spacingAndGlyphs" textLength="86" x="267.5" y="248.1606">alertWindow()</text><polygon fill="#A80036" points="271.5,278.2266,261.5,282.2266,271.5,286.2266,267.5,282.2266" style="stroke: #A80036; stroke-width: 1.0;"/><line style="stroke: #A80036; stroke-width: 1.0; stroke-dasharray: 2.0,2.0;" x1="265.5" x2="389" y1="282.2266" y2="282.2266"/><text fill="#000000" font-family="sans-serif" font-size="13" lengthAdjust="spacingAndGlyphs" textLength="76" x="277.5" y="277.2935">alertWindow</text><polygon fill="#A80036" points="533.5,307.3594,543.5,311.3594,533.5,315.3594,537.5,311.3594" style="stroke: #A80036; stroke-width: 1.0;"/><line style="stroke: #A80036; stroke-width: 1.0;" x1="260.5" x2="539.5" y1="311.3594" y2="311.3594"/><text fill="#000000" font-family="sans-serif" font-size="13" lengthAdjust="spacingAndGlyphs" textLength="206" x="267.5" y="306.4263">write("Editor will be overridden!")</text><polygon fill="#A80036" points="271.5,321.4922,261.5,325.4922,271.5,329.4922,267.5,325.4922" style="stroke: #A80036; stroke-width: 1.0;"/><line style="stroke: #A80036; stroke-width: 1.0; stroke-dasharray: 2.0,2.0;" x1="265.5" x2="549.5" y1="325.4922" y2="325.4922"/><polygon fill="#A80036" points="900,335.4922,910,339.4922,900,343.4922,904,339.4922" style="stroke: #A80036; stroke-width: 1.0;"/><line style="stroke: #A80036; stroke-width: 1.0;" x1="260.5" x2="906" y1="339.4922" y2="339.4922"/><rect fill="#FEFECE" filter="url(#f1)" height="30.2969" style="stroke: #A80036; stroke-width: 1.5;" width="146" x="912" y="333.4922"/><text fill="#000000" font-family="sans-serif" font-size="14" lengthAdjust="spacingAndGlyphs" textLength="132" x="919" y="353.4873">lEx1 : LoadExercise</text><polygon fill="#A80036" points="533.5,395.7891,543.5,399.7891,533.5,403.7891,537.5,399.7891" style="stroke: #A80036; stroke-width: 1.0;"/><line style="stroke: #A80036; stroke-width: 1.0;" x1="260.5" x2="539.5" y1="399.7891" y2="399.7891"/><text fill="#000000" font-family="sans-serif" font-size="13" lengthAdjust="spacingAndGlyphs" textLength="140" x="267.5" y="394.856">setAction(Action lEx1)</text><polygon fill="#A80036" points="271.5,409.9219,261.5,413.9219,271.5,417.9219,267.5,413.9219" style="stroke: #A80036; stroke-width: 1.0;"/><line style="stroke: #A80036; stroke-width: 1.0; stroke-dasharray: 2.0,2.0;" x1="265.5" x2="549.5" y1="413.9219" y2="413.9219"/><polygon fill="#A80036" points="533.5,438.9219,543.5,442.9219,533.5,446.9219,537.5,442.9219" style="stroke: #A80036; stroke-width: 1.0;"/><line style="stroke: #A80036; stroke-width: 1.0;" x1="260.5" x2="539.5" y1="442.9219" y2="442.9219"/><text fill="#000000" font-family="sans-serif" font-size="13" lengthAdjust="spacingAndGlyphs" textLength="42" x="267.5" y="437.9888">show()</text><polygon fill="#A80036" points="271.5,453.0547,261.5,457.0547,271.5,461.0547,267.5,457.0547" style="stroke: #A80036; stroke-width: 1.0;"/><line style="stroke: #A80036; stroke-width: 1.0; stroke-dasharray: 2.0,2.0;" x1="265.5" x2="549.5" y1="457.0547" y2="457.0547"/><line style="stroke: #000000; stroke-width: 1.0; stroke-dasharray: 2.0,2.0;" x1="163" x2="1072" y1="466.0547" y2="466.0547"/><text fill="#000000" font-family="sans-serif" font-size="11" font-weight="bold" lengthAdjust="spacingAndGlyphs" textLength="67" x="168" y="476.2651">[b = false]</text><polygon fill="#A80036" points="975,481.8594,985,485.8594,975,489.8594,979,485.8594" style="stroke: #A80036; stroke-width: 1.0;"/><line style="stroke: #A80036; stroke-width: 1.0;" x1="260.5" x2="981" y1="485.8594" y2="485.8594"/><polygon fill="#A80036" points="970,510.8594,980,514.8594,970,518.8594,974,514.8594" style="stroke: #A80036; stroke-width: 1.0;"/><line style="stroke: #A80036; stroke-width: 1.0;" x1="260.5" x2="976" y1="514.8594" y2="514.8594"/><text fill="#000000" font-family="sans-serif" font-size="13" lengthAdjust="spacingAndGlyphs" textLength="31" x="267.5" y="509.9263">run()</text><polygon fill="#A80036" points="271.5,524.9922,261.5,528.9922,271.5,532.9922,267.5,528.9922" style="stroke: #A80036; stroke-width: 1.0;"/><line style="stroke: #A80036; stroke-width: 1.0; stroke-dasharray: 2.0,2.0;" x1="265.5" x2="986" y1="528.9922" y2="528.9922"/><polygon fill="#A80036" points="96.5,545.9922,86.5,549.9922,96.5,553.9922,92.5,549.9922" style="stroke: #A80036; stroke-width: 1.0;"/><line style="stroke: #A80036; stroke-width: 1.0; stroke-dasharray: 2.0,2.0;" x1="90.5" x2="254.5" y1="549.9922" y2="549.9922"/></g></svg>