<?xml version="1.0" encoding="UTF-8" standalone="no"?><svg xmlns="http://www.w3.org/2000/svg" xmlns:xlink="http://www.w3.org/1999/xlink" contentScriptType="application/ecmascript" contentStyleType="text/css" height="611px" preserveAspectRatio="none" style="width:1020px;height:611px;" version="1.1" viewBox="0 0 1020 611" width="1020px" zoomAndPan="magnify"><defs><filter height="300%" id="f1250y1vj1m5rq" width="300%" x="-1" y="-1"><feGaussianBlur result="blurOut" stdDeviation="2.0"/><feColorMatrix in="blurOut" result="blurOut2" type="matrix" values="0 0 0 0 0 0 0 0 0 0 0 0 0 0 0 0 0 0 .4 0"/><feOffset dx="4.0" dy="4.0" in="blurOut2" result="blurOut3"/><feBlend in="SourceGraphic" in2="blurOut3" mode="normal"/></filter></defs><g><rect fill="#FFFFFF" filter="url(#f1250y1vj1m5rq)" height="498.1699" style="stroke: #A80036; stroke-width: 1.0;" width="10" x="78.5" y="54.4883"/><rect fill="#FFFFFF" filter="url(#f1250y1vj1m5rq)" height="469.1699" style="stroke: #A80036; stroke-width: 1.0;" width="10" x="244" y="83.4883"/><rect fill="#FFFFFF" filter="url(#f1250y1vj1m5rq)" height="29.3105" style="stroke: #A80036; stroke-width: 1.0;" width="10" x="376" y="254.3516"/><rect fill="#FFFFFF" filter="url(#f1250y1vj1m5rq)" height="14.3105" style="stroke: #A80036; stroke-width: 1.0;" width="10" x="536.5" y="312.9727"/><rect fill="#FFFFFF" filter="url(#f1250y1vj1m5rq)" height="14.3105" style="stroke: #A80036; stroke-width: 1.0;" width="10" x="536.5" y="401.7715"/><rect fill="#FFFFFF" filter="url(#f1250y1vj1m5rq)" height="14.3105" style="stroke: #A80036; stroke-width: 1.0;" width="10" x="536.5" y="445.082"/><rect fill="#FFFFFF" filter="url(#f1250y1vj1m5rq)" height="29.3105" style="stroke: #A80036; stroke-width: 1.0;" width="10" x="716" y="112.7988"/><rect fill="#FFFFFF" filter="url(#f1250y1vj1m5rq)" height="29.3105" style="stroke: #A80036; stroke-width: 1.0;" width="10" x="810" y="195.7305"/><rect fill="#FFFFFF" filter="url(#f1250y1vj1m5rq)" height="14.3105" style="stroke: #A80036; stroke-width: 1.0;" width="10" x="918" y="517.3477"/><rect fill="#FFFFFF" filter="url(#f1250y1vj1m5rq)" height="382.2383" style="stroke: #000000; stroke-width: 2.0;" width="849" x="159" y="157.4199"/><rect fill="#FEFECE" filter="url(#f1250y1vj1m5rq)" height="30.4883" style="stroke: #A80036; stroke-width: 1.5;" width="146" x="848" y="335.2832"/><text fill="#000000" font-family="sans-serif" font-size="14" lengthAdjust="spacingAndGlyphs" textLength="132" x="855" y="355.8184">lEx1 : LoadExercise</text><rect fill="#FFFFFF" height="72.2656" style="stroke: none; stroke-width: 1.0;" width="849" x="159" y="467.3926"/><line style="stroke: #A80036; stroke-width: 1.0; stroke-dasharray: 5.0,5.0;" x1="83" x2="83" y1="38.4883" y2="570.6582"/><line style="stroke: #A80036; stroke-width: 1.0; stroke-dasharray: 5.0,5.0;" x1="249" x2="249" y1="38.4883" y2="570.6582"/><line style="stroke: #A80036; stroke-width: 1.0; stroke-dasharray: 5.0,5.0;" x1="381" x2="381" y1="38.4883" y2="570.6582"/><line style="stroke: #A80036; stroke-width: 1.0; stroke-dasharray: 5.0,5.0;" x1="541" x2="541" y1="38.4883" y2="570.6582"/><line style="stroke: #A80036; stroke-width: 1.0; stroke-dasharray: 5.0,5.0;" x1="721" x2="721" y1="38.4883" y2="570.6582"/><line style="stroke: #A80036; stroke-width: 1.0; stroke-dasharray: 5.0,5.0;" x1="815" x2="815" y1="38.4883" y2="570.6582"/><line style="stroke: #A80036; stroke-width: 1.0; stroke-dasharray: 5.0,5.0;" x1="923" x2="923" y1="368.0273" y2="570.6582"/><rect fill="#FEFECE" filter="url(#f1250y1vj1m5rq)" height="30.4883" style="stroke: #A80036; stroke-width: 1.5;" width="147" x="8" y="3"/><text fill="#000000" font-family="sans-serif" font-size="14" lengthAdjust="spacingAndGlyphs" textLength="133" x="15" y="23.5352">menu : PopUpPanel</text><rect fill="#FEFECE" filter="url(#f1250y1vj1m5rq)" height="30.4883" style="stroke: #A80036; stroke-width: 1.5;" width="147" x="8" y="569.6582"/><text fill="#000000" font-family="sans-serif" font-size="14" lengthAdjust="spacingAndGlyphs" textLength="133" x="15" y="590.1934">menu : PopUpPanel</text><rect fill="#FEFECE" filter="url(#f1250y1vj1m5rq)" height="30.4883" style="stroke: #A80036; stroke-width: 1.5;" width="156" x="169" y="3"/><text fill="#000000" font-family="sans-serif" font-size="14" lengthAdjust="spacingAndGlyphs" textLength="142" x="176" y="23.5352">sEx1 : SelectExercise</text><rect fill="#FEFECE" filter="url(#f1250y1vj1m5rq)" height="30.4883" style="stroke: #A80036; stroke-width: 1.5;" width="156" x="169" y="569.6582"/><text fill="#000000" font-family="sans-serif" font-size="14" lengthAdjust="spacingAndGlyphs" textLength="142" x="176" y="590.1934">sEx1 : SelectExercise</text><rect fill="#FEFECE" filter="url(#f1250y1vj1m5rq)" height="30.4883" style="stroke: #A80036; stroke-width: 1.5;" width="80" x="339" y="3"/><text fill="#000000" font-family="sans-serif" font-size="14" lengthAdjust="spacingAndGlyphs" textLength="66" x="346" y="23.5352">app : App</text><rect fill="#FEFECE" filter="url(#f1250y1vj1m5rq)" height="30.4883" style="stroke: #A80036; stroke-width: 1.5;" width="80" x="339" y="569.6582"/><text fill="#000000" font-family="sans-serif" font-size="14" lengthAdjust="spacingAndGlyphs" textLength="66" x="346" y="590.1934">app : App</text><rect fill="#FEFECE" filter="url(#f1250y1vj1m5rq)" height="30.4883" style="stroke: #A80036; stroke-width: 1.5;" width="213" x="433" y="3"/><text fill="#000000" font-family="sans-serif" font-size="14" lengthAdjust="spacingAndGlyphs" textLength="199" x="440" y="23.5352">alertWindow : PopUpTextBox</text><rect fill="#FEFECE" filter="url(#f1250y1vj1m5rq)" height="30.4883" style="stroke: #A80036; stroke-width: 1.5;" width="213" x="433" y="569.6582"/><text fill="#000000" font-family="sans-serif" font-size="14" lengthAdjust="spacingAndGlyphs" textLength="199" x="440" y="590.1934">alertWindow : PopUpTextBox</text><rect fill="#FEFECE" filter="url(#f1250y1vj1m5rq)" height="30.4883" style="stroke: #A80036; stroke-width: 1.5;" width="118" x="660" y="3"/><text fill="#000000" font-family="sans-serif" font-size="14" lengthAdjust="spacingAndGlyphs" textLength="104" x="667" y="23.5352">ex1 : Exercise1</text><rect fill="#FEFECE" filter="url(#f1250y1vj1m5rq)" height="30.4883" style="stroke: #A80036; stroke-width: 1.5;" width="118" x="660" y="569.6582"/><text fill="#000000" font-family="sans-serif" font-size="14" lengthAdjust="spacingAndGlyphs" textLength="104" x="667" y="590.1934">ex1 : Exercise1</text><rect fill="#FEFECE" filter="url(#f1250y1vj1m5rq)" height="30.4883" style="stroke: #A80036; stroke-width: 1.5;" width="42" x="792" y="3"/><text fill="#000000" font-family="sans-serif" font-size="14" lengthAdjust="spacingAndGlyphs" textLength="28" x="799" y="23.5352">App</text><rect fill="#FEFECE" filter="url(#f1250y1vj1m5rq)" height="30.4883" style="stroke: #A80036; stroke-width: 1.5;" width="42" x="792" y="569.6582"/><text fill="#000000" font-family="sans-serif" font-size="14" lengthAdjust="spacingAndGlyphs" textLength="28" x="799" y="590.1934">App</text><rect fill="#FEFECE" filter="url(#f1250y1vj1m5rq)" height="30.4883" style="stroke: #A80036; stroke-width: 1.5;" width="146" x="848" y="569.6582"/><text fill="#000000" font-family="sans-serif" font-size="14" lengthAdjust="spacingAndGlyphs" textLength="132" x="855" y="590.1934">lEx1 : LoadExercise</text><rect fill="#FFFFFF" filter="url(#f1250y1vj1m5rq)" height="498.1699" style="stroke: #A80036; stroke-width: 1.0;" width="10" x="78.5" y="54.4883"/><rect fill="#FFFFFF" filter="url(#f1250y1vj1m5rq)" height="469.1699" style="stroke: #A80036; stroke-width: 1.0;" width="10" x="244" y="83.4883"/><rect fill="#FFFFFF" filter="url(#f1250y1vj1m5rq)" height="29.3105" style="stroke: #A80036; stroke-width: 1.0;" width="10" x="376" y="254.3516"/><rect fill="#FFFFFF" filter="url(#f1250y1vj1m5rq)" height="14.3105" style="stroke: #A80036; stroke-width: 1.0;" width="10" x="536.5" y="312.9727"/><rect fill="#FFFFFF" filter="url(#f1250y1vj1m5rq)" height="14.3105" style="stroke: #A80036; stroke-width: 1.0;" width="10" x="536.5" y="401.7715"/><rect fill="#FFFFFF" filter="url(#f1250y1vj1m5rq)" height="14.3105" style="stroke: #A80036; stroke-width: 1.0;" width="10" x="536.5" y="445.082"/><rect fill="#FFFFFF" filter="url(#f1250y1vj1m5rq)" height="29.3105" style="stroke: #A80036; stroke-width: 1.0;" width="10" x="716" y="112.7988"/><rect fill="#FFFFFF" filter="url(#f1250y1vj1m5rq)" height="29.3105" style="stroke: #A80036; stroke-width: 1.0;" width="10" x="810" y="195.7305"/><rect fill="#FFFFFF" filter="url(#f1250y1vj1m5rq)" height="14.3105" style="stroke: #A80036; stroke-width: 1.0;" width="10" x="918" y="517.3477"/><ellipse cx="10.5" cy="53.7383" fill="none" rx="4" ry="4" style="stroke: #A80036; stroke-width: 1.5;"/><polygon fill="#A80036" points="66.5,50.4883,76.5,54.4883,66.5,58.4883,70.5,54.4883" style="stroke: #A80036; stroke-width: 1.0;"/><line style="stroke: #A80036; stroke-width: 1.0;" x1="15" x2="72.5" y1="54.4883" y2="54.4883"/><polygon fill="#A80036" points="232,79.4883,242,83.4883,232,87.4883,236,83.4883" style="stroke: #A80036; stroke-width: 1.0;"/><line style="stroke: #A80036; stroke-width: 1.0;" x1="88.5" x2="238" y1="83.4883" y2="83.4883"/><text fill="#000000" font-family="sans-serif" font-size="13" lengthAdjust="spacingAndGlyphs" textLength="29" x="95.5" y="79.0566">run()</text><polygon fill="#A80036" points="704,108.7988,714,112.7988,704,116.7988,708,112.7988" style="stroke: #A80036; stroke-width: 1.0;"/><line style="stroke: #A80036; stroke-width: 1.0;" x1="254" x2="710" y1="112.7988" y2="112.7988"/><text fill="#000000" font-family="sans-serif" font-size="13" lengthAdjust="spacingAndGlyphs" textLength="117" x="261" y="108.3672">hasPredefinitions()</text><polygon fill="#A80036" points="265,138.1094,255,142.1094,265,146.1094,261,142.1094" style="stroke: #A80036; stroke-width: 1.0;"/><line style="stroke: #A80036; stroke-width: 1.0; stroke-dasharray: 2.0,2.0;" x1="259" x2="720" y1="142.1094" y2="142.1094"/><text fill="#000000" font-family="sans-serif" font-size="13" lengthAdjust="spacingAndGlyphs" textLength="69" x="271" y="137.6777">b : Boolean</text><rect fill="none" height="382.2383" style="stroke: #000000; stroke-width: 2.0;" width="849" x="159" y="157.4199"/><polygon fill="#EEEEEE" points="159,157.4199,221,157.4199,221,164.4199,211,174.4199,159,174.4199,159,157.4199" style="stroke: #000000; stroke-width: 2.0;"/><text fill="#000000" font-family="sans-serif" font-size="13" font-weight="bold" lengthAdjust="spacingAndGlyphs" textLength="17" x="174" y="170.9883">alt</text><text fill="#000000" font-family="sans-serif" font-size="11" font-weight="bold" lengthAdjust="spacingAndGlyphs" textLength="54" x="236" y="170.0547">[b = true]</text><polygon fill="#A80036" points="798,191.7305,808,195.7305,798,199.7305,802,195.7305" style="stroke: #A80036; stroke-width: 1.0;"/><line style="stroke: #A80036; stroke-width: 1.0;" x1="254" x2="804" y1="195.7305" y2="195.7305"/><text fill="#000000" font-family="sans-serif" font-size="13" lengthAdjust="spacingAndGlyphs" textLength="28" x="261" y="191.2988">get()</text><polygon fill="#A80036" points="265,221.041,255,225.041,265,229.041,261,225.041" style="stroke: #A80036; stroke-width: 1.0;"/><line style="stroke: #A80036; stroke-width: 1.0; stroke-dasharray: 2.0,2.0;" x1="259" x2="814" y1="225.041" y2="225.041"/><text fill="#000000" font-family="sans-serif" font-size="13" lengthAdjust="spacingAndGlyphs" textLength="23" x="271" y="220.6094">app</text><polygon fill="#A80036" points="364,250.3516,374,254.3516,364,258.3516,368,254.3516" style="stroke: #A80036; stroke-width: 1.0;"/><line style="stroke: #A80036; stroke-width: 1.0;" x1="254" x2="370" y1="254.3516" y2="254.3516"/><text fill="#000000" font-family="sans-serif" font-size="13" lengthAdjust="spacingAndGlyphs" textLength="85" x="261" y="249.9199">alertWindow()</text><polygon fill="#A80036" points="265,279.6621,255,283.6621,265,287.6621,261,283.6621" style="stroke: #A80036; stroke-width: 1.0;"/><line style="stroke: #A80036; stroke-width: 1.0; stroke-dasharray: 2.0,2.0;" x1="259" x2="380" y1="283.6621" y2="283.6621"/><text fill="#000000" font-family="sans-serif" font-size="13" lengthAdjust="spacingAndGlyphs" textLength="77" x="271" y="279.2305">alertWindow</text><polygon fill="#A80036" points="524.5,308.9727,534.5,312.9727,524.5,316.9727,528.5,312.9727" style="stroke: #A80036; stroke-width: 1.0;"/><line style="stroke: #A80036; stroke-width: 1.0;" x1="254" x2="530.5" y1="312.9727" y2="312.9727"/><text fill="#000000" font-family="sans-serif" font-size="13" lengthAdjust="spacingAndGlyphs" textLength="206" x="261" y="308.541">write("Editor will be overridden!")</text><polygon fill="#A80036" points="265,323.2832,255,327.2832,265,331.2832,261,327.2832" style="stroke: #A80036; stroke-width: 1.0;"/><line style="stroke: #A80036; stroke-width: 1.0; stroke-dasharray: 2.0,2.0;" x1="259" x2="540.5" y1="327.2832" y2="327.2832"/><polygon fill="#A80036" points="836,337.2832,846,341.2832,836,345.2832,840,341.2832" style="stroke: #A80036; stroke-width: 1.0;"/><line style="stroke: #A80036; stroke-width: 1.0;" x1="254" x2="842" y1="341.2832" y2="341.2832"/><rect fill="#FEFECE" filter="url(#f1250y1vj1m5rq)" height="30.4883" style="stroke: #A80036; stroke-width: 1.5;" width="146" x="848" y="335.2832"/><text fill="#000000" font-family="sans-serif" font-size="14" lengthAdjust="spacingAndGlyphs" textLength="132" x="855" y="355.8184">lEx1 : LoadExercise</text><polygon fill="#A80036" points="524.5,397.7715,534.5,401.7715,524.5,405.7715,528.5,401.7715" style="stroke: #A80036; stroke-width: 1.0;"/><line style="stroke: #A80036; stroke-width: 1.0;" x1="254" x2="530.5" y1="401.7715" y2="401.7715"/><text fill="#000000" font-family="sans-serif" font-size="13" lengthAdjust="spacingAndGlyphs" textLength="140" x="261" y="397.3398">setAction(Action lEx1)</text><polygon fill="#A80036" points="265,412.082,255,416.082,265,420.082,261,416.082" style="stroke: #A80036; stroke-width: 1.0;"/><line style="stroke: #A80036; stroke-width: 1.0; stroke-dasharray: 2.0,2.0;" x1="259" x2="540.5" y1="416.082" y2="416.082"/><polygon fill="#A80036" points="524.5,441.082,534.5,445.082,524.5,449.082,528.5,445.082" style="stroke: #A80036; stroke-width: 1.0;"/><line style="stroke: #A80036; stroke-width: 1.0;" x1="254" x2="530.5" y1="445.082" y2="445.082"/><text fill="#000000" font-family="sans-serif" font-size="13" lengthAdjust="spacingAndGlyphs" textLength="41" x="261" y="440.6504">show()</text><polygon fill="#A80036" points="265,455.3926,255,459.3926,265,463.3926,261,459.3926" style="stroke: #A80036; stroke-width: 1.0;"/><line style="stroke: #A80036; stroke-width: 1.0; stroke-dasharray: 2.0,2.0;" x1="259" x2="540.5" y1="459.3926" y2="459.3926"/><line style="stroke: #000000; stroke-width: 1.0; stroke-dasharray: 2.0,2.0;" x1="159" x2="1008" y1="468.3926" y2="468.3926"/><text fill="#000000" font-family="sans-serif" font-size="11" font-weight="bold" lengthAdjust="spacingAndGlyphs" textLength="59" x="164" y="479.0273">[b = false]</text><polygon fill="#A80036" points="911,484.3477,921,488.3477,911,492.3477,915,488.3477" style="stroke: #A80036; stroke-width: 1.0;"/><line style="stroke: #A80036; stroke-width: 1.0;" x1="254" x2="917" y1="488.3477" y2="488.3477"/><polygon fill="#A80036" points="906,513.3477,916,517.3477,906,521.3477,910,517.3477" style="stroke: #A80036; stroke-width: 1.0;"/><line style="stroke: #A80036; stroke-width: 1.0;" x1="254" x2="912" y1="517.3477" y2="517.3477"/><text fill="#000000" font-family="sans-serif" font-size="13" lengthAdjust="spacingAndGlyphs" textLength="29" x="261" y="512.916">run()</text><polygon fill="#A80036" points="265,527.6582,255,531.6582,265,535.6582,261,531.6582" style="stroke: #A80036; stroke-width: 1.0;"/><line style="stroke: #A80036; stroke-width: 1.0; stroke-dasharray: 2.0,2.0;" x1="259" x2="922" y1="531.6582" y2="531.6582"/><polygon fill="#A80036" points="94.5,548.6582,84.5,552.6582,94.5,556.6582,90.5,552.6582" style="stroke: #A80036; stroke-width: 1.0;"/><line style="stroke: #A80036; stroke-width: 1.0; stroke-dasharray: 2.0,2.0;" x1="88.5" x2="248" y1="552.6582" y2="552.6582"/><!--
@startuml
participant "menu : PopUpPanel" as menu
participant "sEx1 : SelectExercise" as sEx1
participant "app : App" as app
participant "alertWindow : PopUpTextBox" as alertWindow
participant "ex1 : Exercise1" as ex1
participant "App" as sApp

[o-> menu
activate menu
menu -> sEx1: run()
activate sEx1
sEx1 -> ex1: hasPredefinitions()
activate ex1
sEx1 <- - ex1: b : Boolean
deactivate ex1

alt b = true
sEx1 -> sApp: get()
activate sApp
sEx1 <- - sApp: app
deactivate sApp
sEx1 -> app: alertWindow()
activate app
sEx1 <- - app: alertWindow
deactivate app
sEx1 -> alertWindow: write("Editor will be overridden!")
activate alertWindow
sEx1 <- - alertWindow
deactivate alertWindow

create participant "lEx1 : LoadExercise" as lEx1
sEx1 -> lEx1
sEx1 -> alertWindow: setAction(Action lEx1)
activate alertWindow
sEx1 <- - alertWindow
deactivate alertWindow

sEx1 -> alertWindow: show()
activate alertWindow
sEx1 <- - alertWindow
deactivate alertWindow

else b = false

create participant "lEx1 : LoadExercise" as lEx1
sEx1 -> lEx1
sEx1 -> lEx1: run()
activate lEx1
sEx1 <- - lEx1
deactivate lEx1

end

menu <- - sEx1
deactivate sEx1
deactivate menu

@enduml

PlantUML version 1.2018.00(Thu Jan 04 20:42:56 CET 2018)
(GPL source distribution)
Java Runtime: Java(TM) SE Runtime Environment
JVM: Java HotSpot(TM) 64-Bit Server VM
Java Version: 1.8.0_112-b16
Operating System: Mac OS X
OS Version: 10.13.2
Default Encoding: UTF-8
Language: de
Country: DE
--></g></svg>