<?xml version="1.0" encoding="UTF-8" standalone="no"?>
<svg
   xmlns:dc="http://purl.org/dc/elements/1.1/"
   xmlns:cc="http://creativecommons.org/ns#"
   xmlns:rdf="http://www.w3.org/1999/02/22-rdf-syntax-ns#"
   xmlns:svg="http://www.w3.org/2000/svg"
   xmlns="http://www.w3.org/2000/svg"
   xmlns:xlink="http://www.w3.org/1999/xlink"
   xmlns:sodipodi="http://sodipodi.sourceforge.net/DTD/sodipodi-0.dtd"
   xmlns:inkscape="http://www.inkscape.org/namespaces/inkscape"
   contentScriptType="application/ecmascript"
   contentStyleType="text/css"
   height="618.72601"
   preserveAspectRatio="none"
   version="1.1"
   viewBox="0 0 2523.2231 618.72601"
   width="2523.2231"
   zoomAndPan="magnify"
   id="svg177"
   sodipodi:docname="exportPackage.svg"
   inkscape:version="0.92.2 5c3e80d, 2017-08-06">
  <metadata
     id="metadata181">
    <rdf:RDF>
      <cc:Work
         rdf:about="">
        <dc:format>image/svg+xml</dc:format>
        <dc:type
           rdf:resource="http://purl.org/dc/dcmitype/StillImage" />
        <dc:title></dc:title>
      </cc:Work>
    </rdf:RDF>
  </metadata>
  <sodipodi:namedview
     pagecolor="#ffffff"
     bordercolor="#666666"
     borderopacity="1"
     objecttolerance="10"
     gridtolerance="10"
     guidetolerance="10"
     inkscape:pageopacity="0"
     inkscape:pageshadow="2"
     inkscape:window-width="1440"
     inkscape:window-height="783"
     id="namedview179"
     showgrid="true"
     fit-margin-top="0"
     fit-margin-left="-0.5"
     fit-margin-right="0"
     fit-margin-bottom="0"
     inkscape:pagecheckerboard="false"
     inkscape:zoom="0.41158841"
     inkscape:cx="1022.6648"
     inkscape:cy="276.94041"
     inkscape:window-x="0"
     inkscape:window-y="1"
     inkscape:window-maximized="1"
     inkscape:current-layer="svg177">
    <inkscape:grid
       type="xygrid"
       id="grid270"
       snapvisiblegridlinesonly="true"
       dotted="false"
       spacingx="37.795275"
       spacingy="37.795275"
       empspacing="1"
       units="cm"
       originx="-1517.4879"
       originy="-339.18495" />
    <inkscape:grid
       type="xygrid"
       id="grid3961"
       dotted="true"
       visible="false"
       originx="-1517.4879"
       originy="-339.18495" />
  </sodipodi:namedview>
  <defs
     id="defs11">
    <filter
       height="3"
       id="f1ubmvbd2h47fh"
       width="3"
       x="-1"
       y="-1">
      <feGaussianBlur
         result="blurOut"
         stdDeviation="2.0"
         id="feGaussianBlur2" />
      <feColorMatrix
         in="blurOut"
         result="blurOut2"
         type="matrix"
         values="0 0 0 0 0 0 0 0 0 0 0 0 0 0 0 0 0 0 .4 0"
         id="feColorMatrix4" />
      <feOffset
         dx="4.0"
         dy="4.0"
         in="blurOut2"
         result="blurOut3"
         id="feOffset6" />
      <feBlend
         in="SourceGraphic"
         in2="blurOut3"
         mode="normal"
         id="feBlend8" />
    </filter>
  </defs>
  <g
     id="g4957"
     transform="translate(-1640.7769,-403.29691)">
    <a
       transform="translate(1980.2769,433.55812)"
       target="_top"
       xlink:actuate="onRequest"
       xlink:href="java:edu.kit.wavelength.client.view.export.UnicodeExport"
       xlink:show="new"
       xlink:title="java:edu.kit.wavelength.client.view.export.UnicodeExport"
       xlink:type="simple"
       id="a38">
      <rect
         height="73.910202"
         id="UnicodeExport"
         style="fill:#fefece;stroke:#a80036;stroke-width:1.5;filter:url(#f1ubmvbd2h47fh)"
         width="362"
         x="22"
         y="177" />
      <circle
         cx="156.75"
         cy="193"
         style="fill:#add1b2;stroke:#a80036;stroke-width:1"
         id="ellipse20"
         r="11" />
      <path
         d="m 159.7231,198.6431 q -0.581,0.2988 -1.2202,0.4482 -0.6391,0.1494 -1.3447,0.1494 -2.5068,0 -3.8267,-1.6518 -1.3198,-1.6519 -1.3198,-4.773 0,-3.1294 1.3198,-4.7812 1.3199,-1.6519 3.8267,-1.6519 0.7056,0 1.353,0.1494 0.6475,0.1494 1.2119,0.4483 v 2.7226 q -0.6308,-0.581 -1.2243,-0.8508 -0.5935,-0.2698 -1.2244,-0.2698 -1.3447,0 -2.0295,1.0667 -0.6848,1.0666 -0.6848,3.1667 0,2.0918 0.6848,3.1585 0.6848,1.0666 2.0295,1.0666 0.6309,0 1.2244,-0.2698 0.5935,-0.2697 1.2243,-0.8508 z"
         id="path22"
         inkscape:connector-curvature="0" />
      <text
         font-size="12"
         lengthAdjust="spacingAndGlyphs"
         textLength="84"
         x="177.25"
         y="197.5352"
         id="text24"
         style="font-size:12px;font-family:sans-serif;fill:#000000">UnicodeExport</text>
      <line
         style="stroke:#a80036;stroke-width:1.5"
         x1="23"
         x2="383"
         y1="209"
         y2="209"
         id="line26" />
      <line
         style="stroke:#a80036;stroke-width:1.5"
         x1="23"
         x2="383"
         y1="217"
         y2="217"
         id="line28" />
      <circle
         cx="33"
         cy="228.97749"
         style="fill:#84be84;stroke:#038048;stroke-width:1"
         id="ellipse30"
         r="3" />
      <text
         font-size="11"
         lengthAdjust="spacingAndGlyphs"
         textLength="336"
         x="42"
         y="231.6348"
         id="text32"
         style="font-size:11px;font-family:sans-serif;fill:#000000">String getRepresentation(List&lt;LambdaTerm&gt; displayedTerms)</text>
      <circle
         cx="33"
         cy="241.9326"
         style="fill:#84be84;stroke:#038048;stroke-width:1"
         id="ellipse34"
         r="3" />
      <text
         font-size="11"
         lengthAdjust="spacingAndGlyphs"
         textLength="90"
         x="42"
         y="244.5898"
         id="text36"
         style="font-size:11px;font-family:sans-serif;fill:#000000">String getName()</text>
    </a>
    <a
       transform="translate(1936.9236,434.20711)"
       target="_top"
       xlink:actuate="onRequest"
       xlink:href="java:edu.kit.wavelength.client.view.export.Export"
       xlink:show="new"
       xlink:title="java:edu.kit.wavelength.client.view.export.Export"
       xlink:type="simple"
       id="a55">
      <rect
         height="73.910202"
         id="Export"
         style="fill:#fefece;stroke:#a80036;stroke-width:1.5;filter:url(#f1ubmvbd2h47fh)"
         width="348"
         x="823"
         y="43" />
      <circle
         cx="973.75"
         cy="59"
         style="fill:#b4a7e5;stroke:#a80036;stroke-width:1"
         id="ellipse41"
         r="11" />
      <path
         d="m 969.6777,54.7651 v -2.1582 h 7.3794 v 2.1582 h -2.4653 v 8.0767 h 2.4653 V 65 h -7.3794 v -2.1582 h 2.4654 v -8.0767 z"
         id="path43"
         inkscape:connector-curvature="0" />
      <text
         font-size="12"
         font-style="italic"
         lengthAdjust="spacingAndGlyphs"
         textLength="38"
         x="994.25"
         y="63.535198"
         id="text45"
         style="font-style:italic;font-size:12px;font-family:sans-serif;fill:#000000">Export</text>
      <line
         style="stroke:#a80036;stroke-width:1.5"
         x1="824"
         x2="1170"
         y1="75"
         y2="75"
         id="line47" />
      <line
         style="stroke:#a80036;stroke-width:1.5"
         x1="824"
         x2="1170"
         y1="83"
         y2="83"
         id="line49" />
      <text
         font-size="11"
         lengthAdjust="spacingAndGlyphs"
         textLength="336"
         x="829"
         y="97.634804"
         id="text51"
         style="font-size:11px;font-family:sans-serif;fill:#000000">String getRepresentation(List&lt;LambdaTerm&gt; displayedTerms)</text>
      <text
         font-size="11"
         lengthAdjust="spacingAndGlyphs"
         textLength="90"
         x="829"
         y="110.5898"
         id="text53"
         style="font-size:11px;font-family:sans-serif;fill:#000000">String getName()</text>
    </a>
    <a
       transform="translate(2129,436.57302)"
       target="_top"
       xlink:actuate="onRequest"
       xlink:href="java:edu.kit.wavelength.client.view.export.PlaintextExport"
       xlink:show="new"
       xlink:title="java:edu.kit.wavelength.client.view.export.PlaintextExport"
       xlink:type="simple"
       id="a76">
      <rect
         height="73.910202"
         id="PlaintextExport"
         style="fill:#fefece;stroke:#a80036;stroke-width:1.5;filter:url(#f1ubmvbd2h47fh)"
         width="362"
         x="419"
         y="177" />
      <circle
         cx="552.25"
         cy="193"
         style="fill:#add1b2;stroke:#a80036;stroke-width:1"
         id="ellipse58"
         r="11" />
      <path
         d="m 555.2231,198.6431 q -0.581,0.2988 -1.2202,0.4482 -0.6391,0.1494 -1.3447,0.1494 -2.5068,0 -3.8267,-1.6518 -1.3198,-1.6519 -1.3198,-4.773 0,-3.1294 1.3198,-4.7812 1.3199,-1.6519 3.8267,-1.6519 0.7056,0 1.353,0.1494 0.6475,0.1494 1.2119,0.4483 v 2.7226 q -0.6308,-0.581 -1.2243,-0.8508 -0.5935,-0.2698 -1.2244,-0.2698 -1.3447,0 -2.0295,1.0667 -0.6848,1.0666 -0.6848,3.1667 0,2.0918 0.6848,3.1585 0.6848,1.0666 2.0295,1.0666 0.6309,0 1.2244,-0.2698 0.5935,-0.2697 1.2243,-0.8508 z"
         id="path60"
         inkscape:connector-curvature="0" />
      <text
         font-size="12"
         lengthAdjust="spacingAndGlyphs"
         textLength="87"
         x="572.75"
         y="197.5352"
         id="text62"
         style="font-size:12px;font-family:sans-serif;fill:#000000">PlaintextExport</text>
      <line
         style="stroke:#a80036;stroke-width:1.5"
         x1="420"
         x2="780"
         y1="209"
         y2="209"
         id="line64" />
      <line
         style="stroke:#a80036;stroke-width:1.5"
         x1="420"
         x2="780"
         y1="217"
         y2="217"
         id="line66" />
      <circle
         cx="430"
         cy="228.97749"
         style="fill:#84be84;stroke:#038048;stroke-width:1"
         id="ellipse68"
         r="3" />
      <text
         font-size="11"
         lengthAdjust="spacingAndGlyphs"
         textLength="336"
         x="439"
         y="231.6348"
         id="text70"
         style="font-size:11px;font-family:sans-serif;fill:#000000">String getRepresentation(List&lt;LambdaTerm&gt; displayedTerms)</text>
      <circle
         cx="430"
         cy="241.9326"
         style="fill:#84be84;stroke:#038048;stroke-width:1"
         id="ellipse72"
         r="3" />
      <text
         font-size="11"
         lengthAdjust="spacingAndGlyphs"
         textLength="90"
         x="439"
         y="244.5898"
         id="text74"
         style="font-size:11px;font-family:sans-serif;fill:#000000">String getName()</text>
    </a>
    <a
       transform="translate(1952,440.49283)"
       target="_top"
       xlink:actuate="onRequest"
       xlink:href="java:edu.kit.wavelength.client.view.export.Exports"
       xlink:show="new"
       xlink:title="java:edu.kit.wavelength.client.view.export.Exports"
       xlink:type="simple"
       id="a95">
      <rect
         height="60.955101"
         id="Exports"
         style="fill:#fefece;stroke:#a80036;stroke-width:1.5;filter:url(#f1ubmvbd2h47fh)"
         width="122"
         x="344"
         y="49.5" />
      <circle
         cx="379.70001"
         cy="65.5"
         style="fill:#add1b2;stroke:#a80036;stroke-width:1"
         id="ellipse79"
         r="11" />
      <path
         d="m 382.6731,71.1431 q -0.581,0.2988 -1.2202,0.4482 -0.6391,0.1494 -1.3447,0.1494 -2.5068,0 -3.8267,-1.6518 -1.3198,-1.6519 -1.3198,-4.773 0,-3.1294 1.3198,-4.7812 1.3199,-1.6519 3.8267,-1.6519 0.7056,0 1.353,0.1494 0.6475,0.1494 1.2119,0.4483 v 2.7226 q -0.6308,-0.581 -1.2243,-0.8508 -0.5935,-0.2698 -1.2244,-0.2698 -1.3447,0 -2.0295,1.0667 -0.6848,1.0666 -0.6848,3.1667 0,2.0918 0.6848,3.1585 0.6848,1.0666 2.0295,1.0666 0.6309,0 1.2244,-0.2698 0.5935,-0.2697 1.2243,-0.8508 z"
         id="path81"
         inkscape:connector-curvature="0" />
      <text
         font-size="12"
         lengthAdjust="spacingAndGlyphs"
         textLength="44"
         x="398.29999"
         y="70.035202"
         id="text83"
         style="font-size:12px;font-family:sans-serif;fill:#000000">Exports</text>
      <line
         style="stroke:#a80036;stroke-width:1.5"
         x1="345"
         x2="465"
         y1="81.5"
         y2="81.5"
         id="line85" />
      <line
         style="stroke:#a80036;stroke-width:1.5"
         x1="345"
         x2="465"
         y1="89.5"
         y2="89.5"
         id="line87" />
      <circle
         cx="355"
         cy="101.4775"
         style="fill:#84be84;stroke:#038048;stroke-width:1"
         id="ellipse89"
         r="3" />
      <text
         font-size="11"
         lengthAdjust="spacingAndGlyphs"
         text-decoration="underline"
         textLength="96"
         x="364"
         y="104.1348"
         id="text91"
         style="font-size:11px;font-family:sans-serif;text-decoration: underline;text-decoration-line: underline;fill:#000000">List&lt;Export&gt; all()</text>
      <line
         style="stroke:#000000;stroke-width:1"
         x1="364"
         x2="460"
         y1="106.1348"
         y2="106.1348"
         id="line93" />
    </a>
    <a
       transform="translate(1942.9844,697.20254)"
       target="_top"
       xlink:actuate="onRequest"
       xlink:href="java:edu.kit.wavelength.client.view.export.LatexExport"
       xlink:show="new"
       xlink:title="java:edu.kit.wavelength.client.view.export.LatexExport"
       xlink:type="simple"
       id="a116">
      <rect
         height="73.910202"
         id="LatexExport"
         style="fill:#fefece;stroke:#a80036;stroke-width:1.5;filter:url(#f1ubmvbd2h47fh)"
         width="362"
         x="816"
         y="177" />
      <circle
         cx="958.25"
         cy="193"
         style="fill:#add1b2;stroke:#a80036;stroke-width:1"
         id="ellipse98"
         r="11" />
      <path
         d="m 961.2231,198.6431 q -0.581,0.2988 -1.2202,0.4482 -0.6391,0.1494 -1.3447,0.1494 -2.5068,0 -3.8267,-1.6518 -1.3198,-1.6519 -1.3198,-4.773 0,-3.1294 1.3198,-4.7812 1.3199,-1.6519 3.8267,-1.6519 0.7056,0 1.353,0.1494 0.6475,0.1494 1.2119,0.4483 v 2.7226 q -0.6308,-0.581 -1.2243,-0.8508 -0.5935,-0.2698 -1.2244,-0.2698 -1.3447,0 -2.0295,1.0667 -0.6848,1.0666 -0.6848,3.1667 0,2.0918 0.6848,3.1585 0.6848,1.0666 2.0295,1.0666 0.6309,0 1.2244,-0.2698 0.5935,-0.2697 1.2243,-0.8508 z"
         id="path100"
         inkscape:connector-curvature="0" />
      <text
         font-size="12"
         lengthAdjust="spacingAndGlyphs"
         textLength="69"
         x="978.75"
         y="197.5352"
         id="text102"
         style="font-size:12px;font-family:sans-serif;fill:#000000">LatexExport</text>
      <line
         style="stroke:#a80036;stroke-width:1.5"
         x1="817"
         x2="1177"
         y1="209"
         y2="209"
         id="line104" />
      <line
         style="stroke:#a80036;stroke-width:1.5"
         x1="817"
         x2="1177"
         y1="217"
         y2="217"
         id="line106" />
      <circle
         cx="827"
         cy="228.97749"
         style="fill:#84be84;stroke:#038048;stroke-width:1"
         id="ellipse108"
         r="3" />
      <text
         font-size="11"
         lengthAdjust="spacingAndGlyphs"
         textLength="336"
         x="836"
         y="231.6348"
         id="text110"
         style="font-size:11px;font-family:sans-serif;fill:#000000">String getRepresentation(List&lt;LambdaTerm&gt; displayedTerms)</text>
      <circle
         cx="827"
         cy="241.9326"
         style="fill:#84be84;stroke:#038048;stroke-width:1"
         id="ellipse112"
         r="3" />
      <text
         font-size="11"
         lengthAdjust="spacingAndGlyphs"
         textLength="90"
         x="836"
         y="244.5898"
         id="text114"
         style="font-size:11px;font-family:sans-serif;fill:#000000">String getName()</text>
    </a>
    <a
       transform="translate(1757,436.57302)"
       target="_top"
       xlink:actuate="onRequest"
       xlink:href="java:edu.kit.wavelength.client.view.export.LispExport"
       xlink:show="new"
       xlink:title="java:edu.kit.wavelength.client.view.export.LispExport"
       xlink:type="simple"
       id="a137">
      <rect
         height="73.910202"
         id="LispExport"
         style="fill:#fefece;stroke:#a80036;stroke-width:1.5;filter:url(#f1ubmvbd2h47fh)"
         width="362"
         x="1213"
         y="177" />
      <circle
         cx="1359.25"
         cy="193"
         style="fill:#add1b2;stroke:#a80036;stroke-width:1"
         id="ellipse119"
         r="11" />
      <path
         d="m 1362.2231,198.6431 q -0.581,0.2988 -1.2202,0.4482 -0.6391,0.1494 -1.3447,0.1494 -2.5068,0 -3.8267,-1.6518 -1.3198,-1.6519 -1.3198,-4.773 0,-3.1294 1.3198,-4.7812 1.3199,-1.6519 3.8267,-1.6519 0.7056,0 1.353,0.1494 0.6475,0.1494 1.2119,0.4483 v 2.7226 q -0.6308,-0.581 -1.2243,-0.8508 -0.5935,-0.2698 -1.2244,-0.2698 -1.3447,0 -2.0295,1.0667 -0.6848,1.0666 -0.6848,3.1667 0,2.0918 0.6848,3.1585 0.6848,1.0666 2.0295,1.0666 0.6309,0 1.2244,-0.2698 0.5935,-0.2697 1.2243,-0.8508 z"
         id="path121"
         inkscape:connector-curvature="0" />
      <text
         font-size="12"
         lengthAdjust="spacingAndGlyphs"
         textLength="61"
         x="1379.75"
         y="197.5352"
         id="text123"
         style="font-size:12px;font-family:sans-serif;fill:#000000">LispExport</text>
      <line
         style="stroke:#a80036;stroke-width:1.5"
         x1="1214"
         x2="1574"
         y1="209"
         y2="209"
         id="line125" />
      <line
         style="stroke:#a80036;stroke-width:1.5"
         x1="1214"
         x2="1574"
         y1="217"
         y2="217"
         id="line127" />
      <circle
         cx="1224"
         cy="228.97749"
         style="fill:#84be84;stroke:#038048;stroke-width:1"
         id="ellipse129"
         r="3" />
      <text
         font-size="11"
         lengthAdjust="spacingAndGlyphs"
         textLength="336"
         x="1233"
         y="231.6348"
         id="text131"
         style="font-size:11px;font-family:sans-serif;fill:#000000">String getRepresentation(List&lt;LambdaTerm&gt; displayedTerms)</text>
      <circle
         cx="1224"
         cy="241.9326"
         style="fill:#84be84;stroke:#038048;stroke-width:1"
         id="ellipse133"
         r="3" />
      <text
         font-size="11"
         lengthAdjust="spacingAndGlyphs"
         textLength="90"
         x="1233"
         y="244.5898"
         id="text135"
         style="font-size:11px;font-family:sans-serif;fill:#000000">String getName()</text>
    </a>
    <a
       transform="translate(1830,436.57302)"
       target="_top"
       xlink:actuate="onRequest"
       xlink:href="java:edu.kit.wavelength.client.view.export.HaskellExport"
       xlink:show="new"
       xlink:title="java:edu.kit.wavelength.client.view.export.HaskellExport"
       xlink:type="simple"
       id="a158">
      <rect
         height="73.910202"
         id="HaskellExport"
         style="fill:#fefece;stroke:#a80036;stroke-width:1.5;filter:url(#f1ubmvbd2h47fh)"
         width="362"
         x="1610"
         y="177" />
      <circle
         cx="1746.75"
         cy="193"
         style="fill:#add1b2;stroke:#a80036;stroke-width:1"
         id="ellipse140"
         r="11" />
      <path
         d="m 1749.7231,198.6431 q -0.581,0.2988 -1.2202,0.4482 -0.6391,0.1494 -1.3447,0.1494 -2.5068,0 -3.8267,-1.6518 -1.3198,-1.6519 -1.3198,-4.773 0,-3.1294 1.3198,-4.7812 1.3199,-1.6519 3.8267,-1.6519 0.7056,0 1.353,0.1494 0.6475,0.1494 1.2119,0.4483 v 2.7226 q -0.6308,-0.581 -1.2243,-0.8508 -0.5935,-0.2698 -1.2244,-0.2698 -1.3447,0 -2.0295,1.0667 -0.6848,1.0666 -0.6848,3.1667 0,2.0918 0.6848,3.1585 0.6848,1.0666 2.0295,1.0666 0.6309,0 1.2244,-0.2698 0.5935,-0.2697 1.2243,-0.8508 z"
         id="path142"
         inkscape:connector-curvature="0" />
      <text
         font-size="12"
         lengthAdjust="spacingAndGlyphs"
         textLength="80"
         x="1767.25"
         y="197.5352"
         id="text144"
         style="font-size:12px;font-family:sans-serif;fill:#000000">HaskellExport</text>
      <line
         style="stroke:#a80036;stroke-width:1.5"
         x1="1611"
         x2="1971"
         y1="209"
         y2="209"
         id="line146" />
      <line
         style="stroke:#a80036;stroke-width:1.5"
         x1="1611"
         x2="1971"
         y1="217"
         y2="217"
         id="line148" />
      <circle
         cx="1621"
         cy="228.97749"
         style="fill:#84be84;stroke:#038048;stroke-width:1"
         id="ellipse150"
         r="3" />
      <text
         font-size="11"
         lengthAdjust="spacingAndGlyphs"
         textLength="336"
         x="1630"
         y="231.6348"
         id="text152"
         style="font-size:11px;font-family:sans-serif;fill:#000000">String getRepresentation(List&lt;LambdaTerm&gt; displayedTerms)</text>
      <circle
         cx="1621"
         cy="241.9326"
         style="fill:#84be84;stroke:#038048;stroke-width:1"
         id="ellipse154"
         r="3" />
      <text
         font-size="11"
         lengthAdjust="spacingAndGlyphs"
         textLength="90"
         x="1630"
         y="244.5898"
         id="text156"
         style="font-size:11px;font-family:sans-serif;fill:#000000">String getName()</text>
    </a>
    <path
       d="m 2735,554.47852 c -109.7618,15.77033 -252.0508,36.62832 -378.1125,56.41878 -5.5508,0.87145 -11.1922,1.76565 -16.8875,2.67572"
       id="Export-UnicodeExport"
       style="fill:none;stroke:#a80036;stroke-width:1;stroke-miterlimit:4;stroke-dasharray:7, 7;stroke-dashoffset:0"
       inkscape:connector-curvature="0" />
    <polygon
       transform="translate(1935.9322,442.04972)"
       points="804.0678,117.4288 801.8636,103.6034 822.7163,107.3673 "
       style="fill:none;stroke:#a80036;stroke-width:1"
       id="polygon161" />
    <path
       d="m 2820.252,560.21829 c -37.2124,17.22708 -79.5463,36.82508 -115.252,53.35473"
       id="Export-PlaintextExport"
       style="fill:none;stroke:#a80036;stroke-width:1;stroke-miterlimit:4;stroke-dasharray:7, 7;stroke-dashoffset:0"
       inkscape:connector-curvature="0" />
    <polygon
       transform="translate(1952.7961,437.41892)"
       points="870.4929,130.0882 866.0156,116.8234 887.2039,117.0596 "
       style="fill:none;stroke:#a80036;stroke-width:1"
       id="polygon164" />
    <path
       d="m 2935.6371,574.38351 c 0,99.9563 0,203.73682 0,295.09501"
       id="Export-LatexExport"
       style="fill:none;stroke:#a80036;stroke-width:1;stroke-miterlimit:4;stroke-dasharray:7, 7;stroke-dashoffset:0"
       inkscape:connector-curvature="0" />
    <polygon
       transform="translate(1938.7851,434.58163)"
       points="990.0001,137.3265 997,117.3265 1004.0001,137.3264 "
       style="fill:none;stroke:#a80036;stroke-width:1"
       id="polygon167" />
    <path
       d="m 3036.8222,562.04891 c 49.0764,14.67252 104.907,31.36438 151.9963,45.44289"
       id="Export-LispExport"
       style="fill:none;stroke:#a80036;stroke-width:1;stroke-miterlimit:4;stroke-dasharray:7, 7;stroke-dashoffset:0"
       inkscape:connector-curvature="0" />
    <polygon
       transform="translate(1910.1226,438.1671)"
       points="1127.9844,116.8234 1123.5071,130.0882 1106.7961,117.0596 "
       style="fill:none;stroke:#a80036;stroke-width:1"
       id="polygon170" />
    <path
       d="m 3132.8153,552.73534 c 107.8565,16.24276 247.762,37.7625 371.6865,58.25177 5.0978,0.84289 10.2738,1.70679 15.4982,2.58591"
       id="Export-HaskellExport"
       style="fill:none;stroke:#a80036;stroke-width:1;stroke-miterlimit:4;stroke-dasharray:7, 7;stroke-dashoffset:0"
       inkscape:connector-curvature="0" />
    <polygon
       transform="translate(1940.0862,442.16542)"
       points="1189.9138,117.3131 1171.2607,107.2602 1192.1116,103.4867 "
       style="fill:none;stroke:#a80036;stroke-width:1"
       id="polygon173" />
  </g>
</svg>
